<?xml version="1.0" encoding="UTF-8"?><svg id="Layer_5" xmlns="http://www.w3.org/2000/svg" viewBox="0 0 563.56 699.66"><defs><style>.cls-1{fill:#0a81c5;}.cls-2{fill:#fff;}.cls-3{fill:#231f20;}.cls-4{fill:#414042;}</style></defs><path class="cls-1" d="M467.21,288.19c5.52-12.35,10.19-24.99,13.55-38.11,2.14-8.35,6.54-20.36,1.84-28.64-.67-1.18-1.53-2.26-2.51-3.28-4.71-7.15-21.57-13.57-36.99-18.14-8.44-3.39-16.99-6.47-25.64-9.3,20.43-16.94,29.21-47.38,29.28-72.94,.11-38.81-22.83-68.13-59.96-78.81-44.1-12.68-84.22,1.62-109.37,37.11-.11,.09-.22,.18-.32,.27-.53,.47-.81,1-.91,1.53-2.14,3.14-4.17,6.41-6.07,9.86-4.88,9.69-8.29,21.34-9.54,33.24-.24,.41-.38,.92-.36,1.53,.02,.42,.07,.83,.11,1.24-1.51,19.65,2.98,39.59,16.6,52.09-2.9,3.62-5.79,7.24-8.69,10.86-16.34,7.4-30,19.55-38.59,35.4-4.03,7.44-1.58,6.14-10.18,5.21-7.16-.78-15.37,.66-22.87,1.83-2.11-3.77-10.11-3.34-16.83-1.91-7.69-.22-15.94,1.25-20.22,6.54-19.26,1.94-46.05,3.96-59.72,18.96-2.98,3.27-6.49,11.39-1.55,14.8-.16,.83-.22,1.68-.17,2.58,.42,6.56,4.37,7.5,9.38,6.17-1.05,2.42-.76,4.84,1.81,7.04,5.93,5.09,15.66-.07,23.68-6.02,.34,2.48,1.84,4.77,5.07,6.48,1.74,.92,3.5,1.37,5.23,1.45,2.03,1.02,4.49,.12,6.84-1.51,2.49-1.18,4.83-2.94,6.9-4.94,.05,.41,.1,.82,.15,1.22,.99,7.92,6.83,11.89,14.22,9.7,.38,.4,.79,.77,1.26,1.1,.96,.67,2.17,1.25,3.53,1.73,2.02,1.75,4.69,2.79,8.14,2.79,4.54,0,7.95-.9,10.52-2.16,3.66-.99,6.76-2.75,8.44-5.42,6.61,1.26,13.18,1.6,19.83,1.08-.66,1.72-1.32,3.45-1.97,5.18-1.15,3.06-2.13,6.37-2.67,9.68-.98,1.07-1.22,2.75-.41,3.8-.23,4.7,.68,9.17,3.49,12.65-40.86,19.9-73.85,61.21-91.68,102.45-20.22,46.76-5.13,104.58,16.39,148.31-.52,.55-.87,1.37-.8,2.04,.64,5.78,2.17,22.01,9.66,24.1,.06,6.25,.41,14.17,6.83,15.72-5.47,16.38-22.97,27.42-24.58,45.27-.92,10.23,4.49,21.03,15.23,22.97,2.6,.47,5.28,.44,8.01,.03,.41,.07,.81-.01,1.18-.21,14.28-2.68,29.68-15.2,40.41-21.31,12.1-6.88,30.12-13.05,33.81-28.06,23.39-5.28,37.69-31.19,47.34-51.75,8.16-3.11,9.73-15.72,11.47-23.14,8.24-.12,11.19-3.24,13.8-13.59,1.02-4.04,5.39-19.82-.84-22.01,7.21-18.26,13.66-36.35,15.78-55.88,16.44-9.69,34.4-21.37,48.04-35.98,3.27,2.73,7.11,3.38,11.36,3.96,3.17,.43,6.32,1.84,9.48,2.61-.36,1.18-.72,2.36-1.06,3.55-.8,1.27-.66,3.07,.94,4.04,.54,.33,1.08,.65,1.63,.97-2.65,4.2-5.16,8.45-7.52,12.82-.58,1.06-.48,2.6,.37,3.51-7.61,7.26-14.42,16.58-17.14,26.67-1.16,4.29,.83,9.81,4.3,11.08-2.44,6.87-3.14,14,.78,18.91,3.54,4.44,7.51,1.84,11.07-2.92-.06,5.89,1.61,10.82,7.07,11.6,4.23,.61,6.57-3.43,8.47-6.49,.93-1.5,1.81-3.04,2.64-4.6-.01,.36-.03,.72-.04,1.09-.04,3.93,1.37,7.64,5.84,7.94,4.27,.28,7.15-3,8.47-6.72,.87-2.44,1.57-4.97,2.2-7.53,.19,.21,.4,.41,.62,.59,2.85,2.28,6.59,.89,8.93-1.4,7.53-7.4,7.91-21.75,8.16-31.72,2.41,.35,4.61,.3,6.18-.57,2.21-1.23,3.88-5.89,5.05-7.98,3.54-6.31,7.39-12.88,9.98-19.66,2.41-6.29-1.09-9.84-6.13-12.41v-.02c.98,.1,2.02-.26,2.71-1.35,21.9-34.63,29.47-77.19,19.86-117.16-2.31-9.61-5.52-19.2-9.47-28.62,.32-.25,.61-.59,.82-1.07Zm-151.63,189.79c-1.58,7.46-3.73,14.74-6.2,21.96,2.03-6.79,4.22-14.41,6.2-21.96Zm-10.91,52.84c-.19,3.2-.72,6.41-1.45,9.53-1.25,5.35-1.96,9.85-7.48,10.62h0c1.3-7.08,2.6-14.17,3.91-21.25,.51-1.43,.96-2.65,1.33-3.63,1.41,.12,2.82,.26,4.23,.39-1.15,.27-.44,2.73-.54,4.35Z"/><g><path class="cls-2" d="M258.25,170.17s-28.16,15.36-40.96,43.52h-30.72v20.48s-17.92-2.56-23.04,10.24c-5.12,12.8-5.12,33.28,10.24,33.28s17.92-10.24,17.92-10.24h25.6s-10.24,20.48-7.68,25.6c2.56,5.12,2.56,10.24,2.56,10.24,0,0-71.68,43.52-94.72,110.08-23.04,66.56,20.48,140.8,20.48,140.8,0,0,0,20.48,10.24,23.04,0,0-5.12,10.24,5.12,15.36,0,0-5.12,15.36-15.36,28.16-10.24,12.8-12.8,40.96,12.8,40.96,0,0,58.88-23.04,71.68-48.64,0,0,38.4-20.48,48.64-53.76,0,0,5.12-5.12,10.24-23.04,5.12-17.92,10.24-30.72,10.24-30.72,0,0,12.8-38.4,17.92-64,0,0,40.96-12.8,64-51.2,0,0,2.56,5.12,17.92,12.8,0,0-15.36,15.36-2.56,25.6l-7.68,12.8s48.64,17.92,51.2,15.36,17.92-28.16,15.36-30.72-5.12-7.68-5.12-7.68c0,0,33.28-56.32,23.04-104.96-10.24-48.64-23.04-76.8-69.12-120.32,0,0-38.4,12.8-89.6-2.56-51.2-15.36-48.64-20.48-48.64-20.48Z"/><path class="cls-2" d="M162.43,270.54s-14.26,4.59-14.26-13.33c0,0-12.8,17.92-17.92,7.68-5.12-10.24,0-17.92,0-17.92,0,0-25.6,28.16-28.16,17.92-2.56-10.24,7.68-15.36,7.68-15.36,0,0-20.48,15.36-20.48,5.12s5.12-10.24,5.12-10.24c0,0-17.92,2.56,0-10.24,17.92-12.8,56.32-15.36,56.32-15.36,0,0,5.12-5.12,12.8-7.68,7.68-2.56,23.04-5.12,23.04,2.56v20.48s-20.48,0-23.04,10.24c-2.56,10.24-1.1,26.13-1.1,26.13Z"/><path class="cls-2" d="M245.45,211.13c-5.43,1.81-33.28,66.56-33.28,76.8s0,15.36,12.8,17.92c12.8,2.56,104.96,23.04,110.08,15.36,5.12-7.68,10.24-15.36,10.24-15.36,0,0-15.36-12.8,5.12-17.92,0,0,15.36-30.72,12.8-46.08-2.56-15.36-23.04-15.36-61.44-23.04-38.4-7.68-48.64-10.24-56.32-7.68Z"/><polygon class="cls-2" points="258.25 170.17 245.89 181.1 250.55 211.6 281.29 213.69 278.73 180.41 258.25 170.17"/><path class="cls-2" d="M355.53,195.77l-29.04,27.59,32.08,10.04s39.2-18.62,46.24-31.97l-8.32-8.23-40.96,2.56Z"/><path class="cls-2" d="M255.69,85.69c14.52-52.27,64-69.12,112.64-64,48.64,5.12,71.68,61.44,64,99.84-7.68,38.4-28.16,53.76-28.16,53.76,0,0,64,12.8,66.56,28.16s-16.94,69.52-16.94,69.52c0,0-34.26-66.96-59.86-82.32,0,0-28.16,12.8-79.36,0-51.2-12.8-56.32-20.48-56.32-20.48l10.24-12.8s-25.6-25.6-12.8-71.68Z"/><path class="cls-2" d="M399.05,323.77l2.56,20.48,25.6-5.12s6.86,20.62,39.27,16.71c0,0,6.08-48.23-7.63-65.75,0,0-29.08-7.28-31.64,28.56l-28.16,5.12Z"/><path class="cls-2" d="M224.29,201.44l-7,12.25,7.68,30.72s-17.92,7.68-20.48,25.6l12.8-2.56,20.29-44.25-13.28-21.77Z"/><path class="cls-2" d="M273.61,349.38s-28.16-2.56-46.08,17.92c-17.92,20.48-15.36,46.08-15.36,46.08,0,0,20.48,23.04,53.76-5.12,0,0,35.84,17.92,43.52,35.84l7.68-2.56s0-15.36-15.36-33.28c-15.36-17.92-23.04-15.36-23.04-15.36,0,0,7.68-28.16-5.12-43.52Z"/><path class="cls-2" d="M388.81,423.62l-7.68,17.92s-28.16,25.6-15.36,38.4c0,0-2.56,15.36,2.56,17.92,5.12,2.56,12.8-10.24,12.8-10.24,0,0-5.12,17.92,2.56,17.92s12.8-17.92,12.8-17.92c0,0-5.12,20.48,2.56,17.92,7.68-2.56,10.24-20.48,10.24-20.48,0,0,2.56,12.8,7.68,5.12,5.12-7.68,8.85-33.95,8.85-33.95l6.51,.67,15.36-30.72-15.36-12.8s-5.12,17.92-15.36,20.48c-10.24,2.56-28.16-10.24-28.16-10.24Z"/><path class="cls-2" d="M127.26,395.43s-17.49,38.43-9.81,79.39c0,0,25.6-2.56,38.4-30.72,0,0,28.16,10.24,35.84,25.6,0,0,7.68-10.24,10.24-12.8,2.56-2.56-5.12-17.92-38.4-30.72,0,0-.86-28.21-36.27-30.75Z"/><path class="cls-2" d="M181.45,546.5s5.12,10.24-5.12,17.92c-10.24,7.68-28.16,12.8-28.16,12.8,0,0-5.12,12.8,5.12,15.36,0,0,2.57,5.9-8.96,18.31-11.52,12.41-20.23,32.21-12.04,40.23,0,0,51.72-20.14,74.76-40.62,0,0,13.66,7.67,32.43-6.4,18.77-14.08,31.57-44.8,31.57-44.8,0,0,7.68,0,10.24-23.04,0,0-43.52,0-46.08-5.12-2.56-5.12,10.24-25.6,10.24-25.6h-33.28l-5.12,33.28-25.6,7.68Z"/><polygon class="cls-2" points="463.49 303.96 445.13 308.41 445.13 339.14 467.83 333.38 463.49 303.96"/><path class="cls-3" d="M273.86,53.59s-23.26,24.79-20.72,54.05c0,0,5.1,24.14,48.63,31.82,43.52,7.68,84.48,0,84.48,0,0,0-12.8-12.8,0-25.6,12.8-12.8,15.36-12.8,15.36-12.8,0,0-23.04-38.4-61.44-48.64-38.4-10.24-66.31,1.18-66.31,1.18Z"/><path class="cls-2" d="M391.37,295.61s0,35.84-10.24,61.44c0,0,0,33.28,20.48,30.72,0,0,7.68-40.96-10.24-92.16Z"/><polygon class="cls-2" points="373.45 390.34 363.21 408.26 383.94 416.49 391.37 403.14 373.45 390.34"/><polygon class="cls-2" points="254.89 227.05 234.5 274.7 255.06 276.82 274.21 230.26 254.89 227.05"/><polygon class="cls-2" points="285.76 231.17 265.37 278.82 285.93 280.94 305.08 234.39 285.76 231.17"/><path class="cls-2" d="M323.42,241.2c-10.66,0-11.99,15.33-.67,15.99,11.33,.67,11.33-15.99,.67-15.99Z"/><path class="cls-2" d="M315.74,269.36c-10.66,0-11.99,15.33-.67,15.99,11.33,.67,11.33-15.99,.67-15.99Z"/><path class="cls-2" d="M282.09,63.44c-4.98,4.99-8.24,11.3-9.22,18.29-.52,3.71,5.15,5.31,5.68,1.57,.85-6.06,3.37-11.36,7.7-15.7,2.68-2.68-1.48-6.85-4.16-4.16h0Z"/><path class="cls-2" d="M275.27,99.77v-.64c0-3.79-5.89-3.79-5.89,0v.64c0,3.79,5.89,3.79,5.89,0h0Z"/><path class="cls-4" d="M417.18,102.35c-27.52-13.98-53.3,29.52-23.45,43.48,12.34,5.78,26.72,2.52,33.17-10.05,6.29-12.25,1.93-26.45-9.72-33.44-3.26-1.95-6.22,3.13-2.97,5.08,19.82,11.89,5.63,42.47-16.43,33.77-24.63-9.72-4.82-44.56,16.43-33.77,3.37,1.71,6.35-3.37,2.97-5.08Z"/><path class="cls-4" d="M264.63,73.1c17.82-32.33,48.02-53.78,86.16-50.58,39.71,3.33,74.61,25.57,79,67.35,3.07,29.21-6.55,67.21-33.14,83.25-10.45,6.3-18.46,6.13-30.28,5.51-20.04-1.07-40.04-4.65-59.47-9.6-14.75-3.75-34.54-7.29-42.87-21.44-12.93-21.98-10.48-52.48,.59-74.49,1.7-3.38-3.38-6.36-5.08-2.97-15.67,31.13-16.23,82.58,21.36,97.05,20.45,7.87,42.57,12.32,64.23,15.25,14.7,1.99,32.01,5.36,46.34-.2,31.51-12.23,44.62-50.8,44.7-82.06,.1-38.81-22.83-68.13-59.96-78.81-48.66-13.99-92.46,4.86-116.67,48.78-1.83,3.32,3.25,6.29,5.08,2.97Z"/><path class="cls-4" d="M267.69,156.57c-3.41,4.27-6.83,8.53-10.24,12.8-1.13,1.42-1.22,3.63,.6,4.62,40.41,22.12,92.93,30.13,137.95,20.78,1.97-.41,2.55-2.74,1.76-4.32-1.71-3.41-3.41-6.83-5.12-10.24-1.69-3.39-6.78-.41-5.08,2.97,1.71,3.41,3.41,6.83,5.12,10.24,.59-1.44,1.17-2.88,1.76-4.32-43.41,9.02-94.43,1.15-133.41-20.18l.6,4.62c3.41-4.27,6.83-8.53,10.24-12.8,2.34-2.93-1.8-7.12-4.16-4.16h0Z"/><path class="cls-4" d="M270.69,62.89c20.04-17.91,56.38-13.48,78.53-3.37,19.66,8.98,37.79,25.42,48.56,44.29,1.88,3.29,6.97,.33,5.08-2.97-12.52-21.93-34.25-40.69-57.87-49.39-23.37-8.62-58.34-10.72-78.48,7.28-2.83,2.53,1.34,6.68,4.16,4.16h0Z"/><path class="cls-4" d="M249.65,104.89c.95,21.72,33.94,31.79,50.14,35.57,21.92,5.12,45.55,7.85,68.04,5.79,7.42-.68,15.4-1.58,22.27-4.69,3.45-1.56,.46-6.63-2.97-5.08-21.08,9.52-54.83,4.25-76.89,.13-14.55-2.72-53.79-11.07-54.69-31.72-.16-3.77-6.05-3.79-5.89,0h0Z"/><path class="cls-4" d="M290.43,41.93c48.11-13.54,97.33,11.93,113.52,59.25,1.22,3.56,6.91,2.03,5.68-1.57-17.22-50.32-69.5-77.79-120.76-63.36-3.64,1.02-2.09,6.71,1.57,5.68h0Z"/><path class="cls-4" d="M252.78,126.92c6.49,11.15,24.26,15.52,35.75,19.11,17.61,5.5,35.77,8.09,54.19,8.34,3.79,.05,3.79-5.84,0-5.89-14.85-.2-29.55-1.91-43.94-5.64-12.13-3.15-34.25-7.42-40.92-18.89-1.91-3.27-7-.31-5.08,2.97h0Z"/><path class="cls-4" d="M354.87,155.97c13.02-.59,25.6-3,37.89-7.36,3.55-1.26,2.02-6.95-1.57-5.68-11.79,4.19-23.82,6.59-36.32,7.15-3.77,.17-3.79,6.06,0,5.89h0Z"/><path class="cls-4" d="M191.9,232.91c-6.81-5.02-24.86-2.15-29.2,5.22-3.04,5.16-3.95,13.08-4.58,18.89-.57,5.22-.97,12.73,3.98,16.16,7.41,5.13,28.81,5.21,31.69-5.4,2.67-9.85,.47-22.28-.43-32.32-.34-3.74-6.23-3.78-5.89,0,.58,6.43,.98,12.9,1.11,19.35,.06,3.2,.95,8.9-.55,11.83-2.39,4.63-11.94,3.61-16.36,3.08-2.77-.33-5.96-.47-7.36-3.1-1-1.88-.63-5.11-.51-7.12,.31-5.13,1.49-10.29,2.96-15.21,1.55-5.2,5.4-6.42,10.51-7.1,3.17-.42,8.89-1.24,11.67,.81,3.05,2.25,5.99-2.86,2.97-5.08Z"/><path class="cls-4" d="M160.72,265.9c-8.08,3.2-8.32-7.16-8.68-12.9-.52-8.22-1.48-16.61-.72-24.84,.53-5.7,1.34-9.33,7.17-11.03,5.25-1.53,11.92-1.48,17.3-.79,9.05,1.15,8.34,10.18,7.83,17.59-.26,3.78,5.63,3.77,5.89,0,.63-9.12,.68-20.62-9.91-23.02-10.32-2.33-28.89-2.82-32.85,9.35-4,12.31-1.73,29.47-.15,42.12,1.05,8.43,7.6,12.39,15.67,9.2,3.48-1.38,1.96-7.08-1.57-5.68h0Z"/><path class="cls-4" d="M183.51,217.81c11.61-1.61,23.35-2.31,35.06-2.45,1.4-.02,2.37-.92,2.84-2.16,6.71-17.83,22.68-31.62,39.61-39.2,3.45-1.55,.46-6.62-2.97-5.08-16.5,7.39-30.3,19.6-38.96,35.57-4.03,7.44-1.58,6.14-10.18,5.21-8.48-.92-18.46,1.27-26.96,2.44-3.74,.52-2.15,6.19,1.57,5.68h0Z"/><path class="cls-4" d="M150.36,216.01c-19.34,2-47.11,3.74-61.1,19.1-3.16,3.46-6.92,12.39-.56,15.37,2.35,1.1,3.44-.02,5.48-1.02,1.93-.94,3.54-3.39,5.22-4.7,4.56-3.55,9.33-5.35,14.99-6.46-.52-1.89-1.04-3.79-1.57-5.68-8.49,2.62-26.01,8.56-25.29,19.87,1.08,16.8,25.25-3.21,31.19-3.85-.5-1.83-.99-3.66-1.49-5.49-5.28,2.68-28.28,14.16-18.52,22.54,9.39,8.06,28.34-9.61,34.88-15.36,2.87-2.52-1.29-6.56-4.16-4.16-6.24,5.2-11.33,15.02-1.96,19.98,9.47,5.02,19.21-3.86,24.18-11.22,2.13-3.15-2.97-6.1-5.08-2.97-1.9,2.81-5.66,7.86-9.04,8.42-2.13,1.85-3.78,1.05-4.96-2.39-3.72-1.83-4.09-3.72-1.1-5.69-.07-.29,1.92-1.8,2.13-1.97l-4.16-4.16c-4.73,4.16-14.61,14.07-21.17,14.2-9.03,.19,1.64-6.22,4.69-8.08,2.36-1.45,4.78-2.8,7.25-4.06,2.51-1.27,1.43-5.8-1.49-5.49-5,.53-21.15,10.74-23.11,8.38-3.91-4.73,14.38-11.48,18.77-12.84,3.65-1.13,2.13-6.4-1.57-5.68-8.07,1.59-13.65,5-19.92,10.05-1.28,1.03-2.25,1.4-1.08,2.83-1.87-2.28,1.17-5.58,2.44-7.06,3.6-4.18,10.27-6.98,15.43-8.77,12.92-4.46,27.1-6.37,40.65-7.77,3.73-.39,3.77-6.28,0-5.89h0Z"/><path class="cls-4" d="M341.17,306.35c-4.14,13.83-16.9,11.95-28.06,10.59-14.73-1.8-29.4-4.06-44.06-6.36-13.21-2.08-26.43-4.18-39.57-6.67-2.93-.56-6.89-.7-9.6-2.02-10.17-4.95-6.66-15.87-3.61-23.95,5.1-13.49,10.53-26.89,16.5-40.03,3.54-7.79,7.33-21.93,16.62-23.35,11.64-1.78,25.87,2.25,37.25,4.26,14.63,2.58,29.2,5.63,43.64,9.14,13.6,3.31,30.24,4.16,30.26,21.86,.01,12.29-8.12,26.82-11.67,38.6-1.09,3.64,4.59,5.19,5.68,1.57,3.98-13.23,12.84-28.89,11.77-42.91-1.04-13.59-8.4-17.68-19.97-21.01-16.85-4.86-34.14-8.47-51.36-11.7-14.7-2.76-31.18-6.84-46.24-5.66-10.76,.84-14.15,11.61-18.32,20.36-7.36,15.41-13.78,31.34-19.81,47.3-4.3,11.38-6.14,26.29,8.06,31.28,12.97,4.56,28.43,5.34,41.93,7.5,19.3,3.1,38.68,6.26,58.12,8.32,12.85,1.36,24.02-1.78,28.14-15.56,1.09-3.64-4.59-5.19-5.68-1.57h0Z"/><path class="cls-4" d="M209.15,290.78c36.67,6.05,73.54,12.92,110.55,16.47,3.86,.37,8.43,1.56,11.5-1.19,3.77-3.38,5.36-12.9,7.03-17.53,6.57-18.18,12.75-36.52,18.87-54.86,1.2-3.6-4.48-5.15-5.68-1.57-5.37,16.1-10.82,32.17-16.48,48.17-1.98,5.59-3.94,17.83-8.34,22.04,1.16-1.11,.04-.05-3.06-.61-3.07-.55-6.32-.6-9.43-.97-34.6-4.06-69.03-9.97-103.4-15.64-3.71-.61-5.3,5.06-1.57,5.68h0Z"/><path class="cls-4" d="M400.33,383.55c-21.13-.47-19.6-36.42-20.32-49.33-.96-17.12-4.73-34.42-19.55-44.59-4.95-3.39-9.5-5.89-15.2-2.55-5.86,3.42-10.07,11.8-6.86,18.16,2.62,5.18,8.76,7.14,13,10.55,11.48,9.25,9.73,25.7,10.3,38.9,.9,20.76,6.74,45.41,30.17,49.99,3.7,.72,5.29-4.95,1.57-5.68-33.28-6.5-21.52-49.32-28.44-72.65-2.2-7.4-6.23-12.54-12.47-16.9-2.3-1.61-6.67-3.18-8.04-5.82-5.38-10.41,6.94-13.19,12.99-8.93,23.83,16.76,12.26,49.7,20.35,73.56,3.28,9.68,11.09,20.91,22.5,21.16,3.79,.08,3.79-5.8,0-5.89h0Z"/><path class="cls-4" d="M324.96,306.04l3.25,14.71c.82,3.7,6.49,2.13,5.68-1.57l-3.25-14.71c-.82-3.7-6.49-2.13-5.68,1.57h0Z"/><path class="cls-4" d="M394.04,194.28c29.39,26.83,54.09,65,64.56,103.62,10.72,39.55,3.55,82.07-18.26,116.55-2.03,3.21,3.06,6.17,5.08,2.97,21.9-34.63,29.47-77.19,19.86-117.16-9.89-41.1-36.05-81.83-67.08-110.15-2.79-2.55-6.97,1.6-4.16,4.16h0Z"/><path class="cls-4" d="M382.98,283.51c15.33,37.29,20.6,77.13,15.49,117.13-.48,3.75,5.41,3.71,5.89,0,5.17-40.48-.19-80.94-15.7-118.69-1.42-3.46-7.12-1.94-5.68,1.57h0Z"/><path class="cls-4" d="M386.33,423.72c2.05-7.36,4.51-14.49,7.52-21.52-1.11,.45-2.22,.9-3.32,1.35,6.25,2.18,12.51,4.35,18.76,6.53,6.6,2.3,17.43,3.62,14.4,12.73-3.47,10.42-9.54,9.02-18.51,6.65-7.29-1.93-14-5.01-20.43-8.91-.5,1.83-.99,3.66-1.49,5.49l2.36-.16c3.76-.25,3.79-6.14,0-5.89l-2.36,.16c-2.85,.19-4.08,3.91-1.49,5.49,9.75,5.91,20.96,10.58,32.44,11.52,7.6,.62,10.84-1.92,13.71-8.83,2.51-6.04,6.41-14.46-.73-18.18-10.59-5.53-23.81-8.34-35.09-12.27-1.09-.38-2.84,.23-3.32,1.35-3.2,7.49-5.92,15.08-8.11,22.93-1.02,3.66,4.66,5.22,5.68,1.57h0Z"/><path class="cls-4" d="M384.24,425.25c-2.98,4.63-5.75,9.32-8.37,14.16-.71,1.31-.42,3.33,1.06,4.03,11.94,5.64,24.83,9.17,37.61,12.35,4.61,1.14,14.69,5.62,19.29,3.05,2.21-1.23,3.88-5.89,5.05-7.98,3.54-6.31,7.39-12.88,9.98-19.66,4.19-10.96-9.52-13.59-18.17-17.26-3.45-1.46-6.45,3.61-2.97,5.08,3.91,1.66,12.89,3.94,15.34,7.12,1.91,2.49-2.89,9.75-4.8,13.44-2.03,3.91-4.24,7.71-6.33,11.58-1.96,3.64,1.01,2.03-2.45,1.99-6.64-.08-14.31-3.22-20.69-4.94-9.81-2.64-19.69-5.51-28.9-9.86,.35,1.34,.7,2.69,1.06,4.03,2.62-4.84,5.39-9.54,8.37-14.16,2.06-3.2-3.04-6.15-5.08-2.97h0Z"/><path class="cls-4" d="M379.18,440.26c-8.75,7.56-17.01,17.97-20.07,29.34-1.72,6.39,3.51,15.49,10.24,9.27,2.79-2.58-1.38-6.73-4.16-4.16-.63-2.89-.19-5.57,1.32-8.05,.61-1.35,1.26-2.68,1.96-3.99,1.05-1.96,2.19-3.87,3.45-5.7,3.24-4.71,7.11-8.81,11.43-12.55,2.87-2.48-1.31-6.63-4.16-4.16h0Z"/><path class="cls-4" d="M372.98,463.41c-6.09,7.82-16.6,26.4-8.8,36.17,8.25,10.34,18.86-17.47,21.09-21.99-1.79-.76-3.59-1.51-5.38-2.27-2.28,6.32-10.43,31.1,2.44,32.95,4.23,.61,6.57-3.43,8.47-6.49,4.46-7.19,7.79-15,10.39-23.03,1.17-3.61-4.51-5.16-5.68-1.57-1.33,4.09-2.79,8.12-4.62,12.02-1.19,2.55-3.56,9.39-5.9,10.76-6.72,3.94-.71-19.48,.58-23.07,1.12-3.12-3.9-5.26-5.38-2.27-1.78,3.6-3.61,7.17-5.57,10.68-1.3,2.33-3.56,9.83-6.74,6.56-1.5-1.55,1.52-9.69,2.26-11.79,1.61-4.59,4.01-8.67,6.99-12.5,2.3-2.95-1.84-7.15-4.16-4.16h0Z"/><path class="cls-4" d="M396,478.47c-1.21,6.43-2.53,13.24-2.59,19.8-.04,3.93,1.37,7.64,5.84,7.94,4.27,.28,7.15-3,8.47-6.72,2.21-6.23,3.37-13.02,4.99-19.43,.93-3.68-4.75-5.24-5.68-1.57-.85,3.37-1.7,6.74-2.54,10.1-.72,2.86-1.09,8.54-3.41,10.52-.48,1.41-1.09,1.57-1.83,.49,0-.73,.04-1.47,.11-2.2,.11-1.74,.29-3.48,.47-5.21,.44-4.08,1.08-8.12,1.84-12.16,.7-3.7-4.98-5.29-5.68-1.57h0Z"/><path class="cls-4" d="M407.59,479.3c.02,3.78-.44,10.52,2.95,13.24,2.85,2.28,6.59,.89,8.93-1.4,7.68-7.55,7.92-22.34,8.18-32.32,.1-3.79-5.79-3.79-5.89,0-.16,6.32-.69,12.69-2.2,18.86-.54,2.2-1.82,8.58-4.26,9.3-2.61,.77-1.83-6.18-1.83-7.67-.02-3.79-5.9-3.8-5.89,0h0Z"/><path class="cls-4" d="M459.84,287.35c-21.11-8.76-35.33,12.67-36.33,31.34-.56,10.43,.65,24.43,8.71,32.13,7.91,7.55,20.43,8.63,30.66,7.33,3.71-.47,3.75-6.37,0-5.89-7.32,.93-15.26,.81-22.01-2.62-9.38-4.77-11.32-17.21-11.52-26.65-.33-15.78,9.37-38.07,28.92-29.96,3.5,1.45,5.02-4.24,1.57-5.68h0Z"/><path class="cls-4" d="M401.79,326.73c8.04-2.02,16.15-3.65,24.34-4.87,3.73-.56,2.15-6.23-1.57-5.68-8.2,1.23-16.3,2.85-24.34,4.87-3.67,.92-2.12,6.6,1.57,5.68h0Z"/><path class="cls-4" d="M404.81,346c7.21-.11,14-1.64,20.63-4.45,3.48-1.47,.48-6.55-2.97-5.08-5.63,2.38-11.56,3.55-17.66,3.64-3.79,.06-3.8,5.95,0,5.89h0Z"/><path class="cls-4" d="M191.5,269.89c8.66,1.8,17.24,2.03,26,.79,3.74-.53,2.15-6.2-1.57-5.68-7.65,1.08-15.31,.78-22.87-.79-3.7-.77-5.28,4.91-1.57,5.68h0Z"/><path class="cls-4" d="M205.82,268.69c4.16-8.94,11.38-15.79,20.7-19.13,3.54-1.27,2.01-6.96-1.57-5.68-10.71,3.84-19.4,11.49-24.22,21.84-1.59,3.41,3.48,6.41,5.08,2.97h0Z"/><path class="cls-4" d="M214.06,213.77c2.78,10.66,5.57,21.33,8.35,31.99,.96,3.66,6.64,2.11,5.68-1.57-2.78-10.66-5.57-21.33-8.35-31.99-.96-3.66-6.64-2.11-5.68,1.57h0Z"/><path class="cls-4" d="M223,203.52c3.93,5.08,7.01,10.74,9.2,16.77,1.28,3.53,6.98,2.01,5.68-1.57-2.56-7.05-6.12-13.44-10.71-19.37-2.32-2.99-6.45,1.2-4.16,4.16h0Z"/><path class="cls-4" d="M252.35,225.56c-6.8,15.88-13.59,31.77-20.39,47.65-.92,2.15,.17,4.18,2.54,4.43,6.85,.71,13.71,1.41,20.56,2.12,1.39,.14,2.38-1.04,2.84-2.16,6.38-15.52,12.76-31.04,19.15-46.56,.56-1.37-.62-3.38-2.06-3.62-6.44-1.07-12.88-2.14-19.31-3.22-3.71-.62-5.3,5.06-1.57,5.68,6.44,1.07,12.88,2.14,19.31,3.22-.69-1.21-1.37-2.41-2.06-3.62-6.38,15.52-12.76,31.04-19.15,46.56,.95-.72,1.89-1.44,2.84-2.16-6.85-.71-13.71-1.41-20.56-2.12,.85,1.48,1.69,2.95,2.54,4.43,6.8-15.88,13.59-31.77,20.39-47.65,1.47-3.45-3.6-6.45-5.08-2.97Z"/><path class="cls-4" d="M283.22,229.68c-6.8,15.88-13.59,31.77-20.39,47.65-.92,2.15,.17,4.18,2.54,4.43l20.56,2.12c1.39,.14,2.38-1.04,2.84-2.16,6.38-15.52,12.76-31.04,19.15-46.56,.56-1.37-.62-3.38-2.06-3.62-6.44-1.07-12.88-2.14-19.31-3.22-3.71-.62-5.3,5.06-1.57,5.68,6.44,1.07,12.88,2.14,19.31,3.22-.69-1.21-1.37-2.41-2.06-3.62-6.38,15.52-12.76,31.04-19.15,46.56,.95-.72,1.89-1.44,2.84-2.16-6.85-.71-13.71-1.41-20.56-2.12,.85,1.48,1.69,2.95,2.54,4.43,6.8-15.88,13.59-31.77,20.39-47.65,1.47-3.45-3.6-6.45-5.08-2.97Z"/><path class="cls-4" d="M323.42,238.26c-6.13,.2-11.42,4.54-11.54,10.95-.12,6.64,5.5,11.14,11.89,10.94,6.02-.19,10.52-4.95,10.5-10.95-.03-6.23-4.74-10.73-10.85-10.93-3.79-.12-3.79,5.76,0,5.89,6.26,.21,6.69,9.71,.36,10.11-7.69,.49-7.71-9.88-.36-10.11,3.78-.12,3.8-6.01,0-5.89Z"/><path class="cls-4" d="M315.74,266.42c-6.13,.2-11.42,4.54-11.54,10.95-.12,6.64,5.5,11.14,11.89,10.94,6.02-.19,10.52-4.95,10.5-10.95-.03-6.23-4.74-10.73-10.85-10.93-3.79-.12-3.79,5.76,0,5.89,6.26,.21,6.69,9.71,.36,10.11-7.69,.49-7.71-9.88-.36-10.11,3.78-.12,3.8-6.01,0-5.89Z"/><path class="cls-4" d="M402.63,177.9c10.55,3.38,20.94,7.1,31.17,11.35,8.55,3.55,21.82,7.3,28.91,13.58,9.46,8.38,3.47,22.23,.66,32.35-3.09,11.12-7.11,21.9-11.82,32.43-1.53,3.43,3.54,6.43,5.08,2.97,5.52-12.35,10.19-24.99,13.55-38.11,2.14-8.35,6.54-20.36,1.84-28.64-4.81-8.46-18.54-12.37-26.79-16.05-13.39-5.97-27.1-11.09-41.05-15.56-3.62-1.16-5.17,4.52-1.57,5.68h0Z"/><path class="cls-4" d="M439.03,189.46c-4.04,6.95-6.29,14.74-8.92,22.3-1.52,4.37-6.66,12.54-4.38,17.09,.7,1.39,2.75,1.87,4.03,1.06l.34-.21c1.28-.81,1.97-2.67,1.06-4.03l-.16-.23c-2.1-3.13-7.2-.19-5.08,2.97l.16,.23c.35-1.34,.7-2.69,1.06-4.03l-.34,.21c1.34,.35,2.69,.7,4.03,1.06,.11,2.1,.46,1.68,1.05-1.26,.58-1.67,1.16-3.35,1.74-5.02,1.02-2.93,2.03-5.85,3.05-8.78,2.18-6.27,4.11-12.62,7.45-18.38,1.91-3.28-3.18-6.25-5.08-2.97h0Z"/><path class="cls-4" d="M451.04,218.55c-4.5-.73-9.53,1.04-11.18,5.66-1.37,3.83,.59,8.59,4.42,10.1,4.3,1.7,9.97-1.36,11.91-5.36,2.1-4.32-1.43-10-6.45-8.58-3.64,1.03-2.09,6.71,1.57,5.68-1.19,.34,.43-.56-.47,.47-.52,.59-.96,1.07-1.63,1.5-1.09,.71-2.54,1.5-3.46,.21-1.74-2.42,1.57-4.36,3.72-4.01,3.71,.6,5.3-5.08,1.57-5.68h0Z"/><path class="cls-4" d="M384.21,284.99c4.83,23.76,2.46,47.16-6.72,69.57-1.43,3.5,4.26,5.03,5.68,1.57,9.58-23.4,11.74-47.95,6.72-72.7-.75-3.71-6.43-2.14-5.68,1.57h0Z"/><path class="cls-4" d="M370.54,388.25c-12.37,23.97-38.48,41.2-61.3,54.59-3.27,1.92-.31,7.01,2.97,5.08,23.61-13.86,50.57-31.83,63.41-56.7,1.74-3.36-3.34-6.34-5.08-2.97h0Z"/><path class="cls-4" d="M314.86,353.18c-36.02-9.77-77.37-12.94-97.57,25.1-8.69,16.37-10.94,35.13-12.32,53.35-1.82,23.94-1.41,47.92,.8,71.82,.35,3.74,6.24,3.78,5.89,0-3.2-34.69-5.2-74.07,4.93-107.82,5.61-18.69,17.42-35.01,36.71-40.99,19.81-6.14,40.62-1.03,60,4.23,3.66,.99,5.22-4.69,1.57-5.68h0Z"/><path class="cls-4" d="M209.56,416.58c16.91,13.77,40.47,11.14,56.52-2.86,18.92-16.5,21.86-43.01,9.97-64.48-1.84-3.32-6.92-.35-5.08,2.97,9.81,17.72,8.65,40.01-6.25,54.72-13.56,13.38-35.32,18.24-50.99,5.48-2.91-2.37-7.1,1.77-4.16,4.16h0Z"/><path class="cls-4" d="M279.18,394.87c8.29,2.12,17.82,12.56,23.19,19.02,6.72,8.1,10.79,17.57,12.93,27.81,.77,3.71,6.45,2.14,5.68-1.57-2.35-11.22-7.01-21.59-14.44-30.41-6.2-7.36-16.05-18.04-25.79-20.54-3.67-.94-5.24,4.74-1.57,5.68h0Z"/><path class="cls-4" d="M265.72,412.08c15.79,8.04,32.58,15.57,42.24,31.21,1.99,3.22,7.08,.26,5.08-2.97-10.26-16.61-27.54-24.76-44.35-33.32-3.37-1.72-6.35,3.36-2.97,5.08h0Z"/><path class="cls-4" d="M307.45,444.05c-1.67,20.41-8.52,39.06-15.99,57.95-1.39,3.52,4.3,5.05,5.68,1.57,7.67-19.39,14.49-38.59,16.2-59.51,.31-3.78-5.58-3.76-5.89,0h0Z"/><path class="cls-4" d="M211.96,302.03c-41.31,19.71-74.68,61.37-92.65,102.93-20.42,47.21-4.84,105.71,17.02,149.6,1.69,3.39,6.77,.41,5.08-2.97-22.39-44.95-37.28-104.47-13.23-151.65,19.23-37.71,47.98-74.31,86.75-92.81,3.42-1.63,.43-6.71-2.97-5.08h0Z"/><path class="cls-4" d="M129.15,399.39c9.11-2.33,19.33,.77,24.6,8.93,5.31,8.22,3.18,19.85,.95,28.73-4.62,18.44-17.78,34.94-38.4,33.52-3.78-.26-3.77,5.63,0,5.89,27.43,1.89,42.89-23.44,45.94-47.75,2.67-21.3-11.52-40.92-34.66-34.99-3.67,.94-2.11,6.62,1.57,5.68h0Z"/><path class="cls-4" d="M204.04,451.33c-8.51,7.34-16.65,15.74-14.72,27.82,2.48,15.59,10.98,31.48,16.17,46.37,1.24,3.56,6.93,2.03,5.68-1.57-3.7-10.61-7.65-21.12-11.46-31.69-2.39-6.62-4.52-11.44-3.62-18.59,1.08-8.59,5.85-12.79,12.12-18.18,2.88-2.48-1.3-6.63-4.16-4.16h0Z"/><path class="cls-4" d="M160.15,427.84c15.28,5.11,28.15,14.41,38.02,27.12,2.32,2.99,6.46-1.2,4.16-4.16-10.49-13.52-24.41-23.21-40.62-28.63-3.6-1.2-5.15,4.48-1.57,5.68h0Z"/><path class="cls-4" d="M157.01,446.05c11.56,2.73,22.15,14.74,30.28,22.92,2.67,2.69,6.84-1.47,4.16-4.16-8.83-8.89-20.24-21.45-32.88-24.44-3.68-.87-5.26,4.81-1.57,5.68h0Z"/><path class="cls-4" d="M296.02,503.1c-17.5-1.8-36.44-3.16-53.94-.64-.94,.14-1.86,1.16-2.06,2.06-1.45,6.69-10.66,26.4-2.88,31.26,3.65,2.28,11.54,1.49,15.5,1.68,9.02,.45,18.05,.64,27.06,1.31,11.82,.88,15.31-1.36,18.36-13.42,1.04-4.13,5.59-20.52-1.26-22.14-3.68-.87-5.26,4.81-1.57,5.68-1.98-.47-1.03,2.48-1.14,4.32-.19,3.2-.72,6.41-1.45,9.53-1.25,5.35-1.96,9.85-7.48,10.62-6.24,.87-14.29-1-20.68-1.28-6.75-.29-13.58-.31-20.3-1.03-2.25-.24-3.89-.78-3.98-.93-1.08-1.86,2.17-10.31,2.69-12.4,1.83-7.31,1.14-9.87,9.16-10.16,14.61-.52,29.42-.06,43.96,1.43,3.77,.39,3.74-5.5,0-5.89Z"/><path class="cls-4" d="M240.99,504.19c-9.8-.51-19.6-1.02-29.4-1.54-1.68-.09-2.83,1.42-2.94,2.94-.65,8.32-1.3,16.64-1.95,24.95-.44,5.66-3.47,16.15-1.34,21.4,2.94,7.25,20.93,6.66,27.54,7.59,10.89,1.54,28.4,5.95,39.14,2.78,9.04-2.67,10.5-16.41,12.36-23.95,.91-3.68-4.77-5.25-5.68-1.57-.95,3.86-1.81,9.5-3.76,13.01-4.8,8.63-9.05,6.86-16.69,6.4-10.43-.62-20.82-1.79-31.13-3.48-3.09-.51-9.51-.35-12.15-2.23-5.25-3.74-3.2-9.71-2.79-14.97,.78-9.98,1.56-19.96,2.34-29.94-.98,.98-1.96,1.96-2.94,2.94,9.8,.51,19.6,1.02,29.4,1.54,3.79,.2,3.78-5.69,0-5.89h0Z"/><path class="cls-4" d="M208.45,552.76c-13.09,18.16-34.02,56.84,2.58,61.65,32.27,4.24,50.37-28.03,61.86-52.55,1.6-3.41-3.48-6.4-5.08-2.97-9.1,19.42-19.97,42.53-42.59,48.6-5.17,1.39-10.82,1.87-16.09,.65-12.61-2.91-14.58-11.92-10.91-24.24,3.02-10.13,9.22-19.68,15.33-28.17,2.22-3.08-2.89-6.02-5.08-2.97h0Z"/><path class="cls-4" d="M148.99,579.05c6.8-2.98,13.66-5.8,20.52-8.62,4.02-1.65,8.85-2.86,12.41-5.43,6.18-4.47,3.23-13.54,.62-19.4-3-6.76-6.01-7.27-12.63-5.46-11.54,3.16-22.71,7.61-33.55,12.63-.84,.39-1.56,1.61-1.46,2.54,.74,6.64,2.64,27.04,13.38,24.03,3.64-1.02,2.1-6.7-1.57-5.68-2.81,.78-5.27-12.99-5.42-14.76-.06-.68-.66-2.09-.4-2.65,1.22-2.66-2.93,4.01,1.32,.26,3.82-3.37,12.09-5.09,17.07-6.84,3.38-1.18,11.94-5.71,15.25-4.71,1.97,.6,3.65,5.61,4.25,7.53,1.55,4.96,.91,6.46-2.71,8.85-8.5,5.63-20.66,8.48-30.07,12.61-3.46,1.52-.47,6.59,2.97,5.08Z"/><path class="cls-4" d="M144.54,576.58c.14,6.63-.64,17.56,7.74,18.73,5.53,.77,13.28-1.87,18.71-3,7.74-1.61,15.38-3.6,22.96-5.84,3.63-1.07,2.08-6.75-1.57-5.68-8.12,2.4-16.31,4.5-24.62,6.17-3.4,.68-8.23,2.48-11.66,2.09-7.14-.82-5.56-7.08-5.67-12.47-.08-3.78-5.97-3.8-5.89,0h0Z"/><path class="cls-4" d="M182.93,548.93c8.72-2.04,17.44-4.09,26.15-6.13,3.69-.86,2.13-6.54-1.57-5.68-8.72,2.04-17.44,4.09-26.15,6.13-3.69,.86-2.13,6.54,1.57,5.68h0Z"/><path class="cls-4" d="M152.08,592.84c-4.5,17.67-23.58,28.9-25.27,47.56-.92,10.23,4.49,21.03,15.23,22.97,16.47,2.96,36.51-14.04,49.6-21.49,12.1-6.89,30.15-13.06,33.82-28.09,.9-3.68-4.78-5.25-5.68-1.57-3.06,12.57-21.02,18.84-31.11,24.58-11.43,6.51-23.55,15.71-36.17,19.66-12.85,4.02-22.02-5.97-19.38-18.41,1.65-7.78,7.28-14.24,11.92-20.35,5.59-7.35,10.4-14.24,12.71-23.29,.93-3.67-4.74-5.24-5.68-1.57h0Z"/><path class="cls-4" d="M134.32,653.96c26.28-7.67,50.07-20.49,70.99-38.16,2.9-2.45-1.28-6.6-4.16-4.16-20.13,17.01-43.09,29.27-68.39,36.65-3.63,1.06-2.09,6.74,1.57,5.68h0Z"/><path class="cls-4" d="M250.08,177.22c3.33,10.66,4.82,21.47,4.5,32.63-.11,3.79,5.78,3.79,5.89,0,.34-11.68-1.23-23.05-4.71-34.2-1.13-3.6-6.81-2.07-5.68,1.57h0Z"/><path class="cls-4" d="M273.62,183.68c2.32,9.03,3.65,18.14,4,27.46,.14,3.78,6.03,3.8,5.89,0-.37-9.83-1.76-19.49-4.21-29.02-.94-3.67-6.62-2.11-5.68,1.57h0Z"/><path class="cls-4" d="M331.56,223.64c8.35-8.52,17-16.72,25.96-24.61,2.85-2.51-1.33-6.66-4.16-4.16-8.96,7.88-17.61,16.09-25.96,24.61-2.65,2.71,1.51,6.88,4.16,4.16h0Z"/><path class="cls-4" d="M352.36,231.28c16.72-9.64,33.02-19.95,48.9-30.93,3.1-2.14,.16-7.25-2.97-5.08-15.88,10.98-32.17,21.29-48.9,30.93-3.28,1.89-.32,6.98,2.97,5.08h0Z"/><path class="cls-4" d="M360.06,237.03c16.27-8.1,31.06-18.39,44.35-30.78,2.78-2.59-1.39-6.75-4.16-4.16-12.93,12.05-27.34,21.98-43.16,29.85-3.39,1.69-.41,6.77,2.97,5.08h0Z"/><path class="cls-4" d="M243.06,181.88c1.88,8.84,3.44,17.73,4.63,26.69,.49,3.7,6.39,3.75,5.89,0-1.26-9.48-2.85-18.89-4.84-28.25-.79-3.7-6.46-2.14-5.68,1.57h0Z"/><path class="cls-4" d="M388.1,281.66c-.95-22.5,18.58-42.35,38.51-49.41,3.55-1.26,2.02-6.95-1.57-5.68-22.36,7.91-43.89,29.86-42.83,55.09,.16,3.78,6.05,3.8,5.89,0h0Z"/><path class="cls-4" d="M178.96,333.57c9.68-3.59,22.61,5.73,29.45,11.76,7.21,6.34,12.69,14.21,16.39,23.06,1.44,3.44,7.14,1.93,5.68-1.57-4.73-11.33-11.73-21.08-21.5-28.63-8.16-6.31-20.97-14.22-31.58-10.29-3.52,1.3-2,7,1.57,5.68h0Z"/><path class="cls-4" d="M323.47,372.68c10.87,14.24,17.46,30.48,19.24,48.34,.37,3.74,6.26,3.77,5.89,0-1.88-18.89-8.52-36.21-20.04-51.32-2.27-2.97-7.38-.04-5.08,2.97h0Z"/><path class="cls-4" d="M252.6,238.6c5.55,.81,11.11,1.62,16.66,2.42,2.58,.38,3.69-3.57,1.09-3.95-5.55-.81-11.11-1.62-16.66-2.42-2.58-.38-3.69,3.57-1.09,3.95h0Z"/><path class="cls-4" d="M248.02,249.57c5.76,.47,11.51,.95,17.27,1.42,2.63,.22,2.61-3.88,0-4.1-5.76-.47-11.51-.95-17.27-1.42-2.63-.22-2.61,3.88,0,4.1h0Z"/><path class="cls-4" d="M244.82,260.45c5.12,.46,10.23,.92,15.35,1.38,2.62,.24,2.61-3.86,0-4.1-5.12-.46-10.23-.92-15.35-1.38-2.62-.24-2.61,3.86,0,4.1h0Z"/><path class="cls-4" d="M239.05,269.47c5.54,.46,11.09,.93,16.63,1.39,2.63,.22,2.61-3.88,0-4.1-5.54-.46-11.09-.93-16.63-1.39-2.63-.22-2.61,3.88,0,4.1h0Z"/><path class="cls-4" d="M282.57,243.92c5.68-.17,11.24,.37,16.77,1.67,2.56,.6,3.66-3.35,1.09-3.95-5.88-1.38-11.82-1.99-17.86-1.82-2.63,.08-2.64,4.17,0,4.1h0Z"/><path class="cls-4" d="M278.17,251.59c6.08,1.48,12.23,2.12,18.48,1.88,2.63-.1,2.64-4.2,0-4.1-5.9,.23-11.66-.33-17.4-1.74-2.56-.63-3.65,3.32-1.09,3.95h0Z"/><path class="cls-4" d="M274.26,263.21c6.08-.54,12.05-.25,18.03,.97,2.57,.52,3.67-3.43,1.09-3.95-6.34-1.28-12.68-1.68-19.12-1.11-2.61,.23-2.63,4.33,0,4.1h0Z"/><path class="cls-4" d="M271.02,272.59c5.35,.36,10.7,.72,16.06,1.08,2.63,.18,2.62-3.92,0-4.1-5.35-.36-10.7-.72-16.06-1.08-2.63-.18-2.62,3.92,0,4.1h0Z"/><path class="cls-4" d="M166.1,247.2c7.89-.45,15.78-.9,23.68-1.35,2.62-.15,2.64-4.25,0-4.1-7.89,.45-15.78,.9-23.68,1.35-2.62,.15-2.64,4.25,0,4.1h0Z"/><path class="cls-4" d="M164.17,257.24c8.75-.25,17.49-.5,26.24-.75,2.63-.08,2.64-4.17,0-4.1l-26.24,.75c-2.63,.08-2.64,4.17,0,4.1h0Z"/><path class="cls-4" d="M162.88,267.82c7.69-.24,15.37-.48,23.06-.72,2.63-.08,2.64-4.18,0-4.1-7.69,.24-15.37,.48-23.06,.72-2.63,.08-2.64,4.18,0,4.1h0Z"/><path class="cls-4" d="M395.9,405.19c-2.5,6.55-5.01,13.11-7.51,19.66-.94,2.46,3.02,3.53,3.95,1.09,2.5-6.55,5.01-13.11,7.51-19.66,.94-2.46-3.02-3.53-3.95-1.09h0Z"/><path class="cls-4" d="M406.2,409.06c-2.64,6.5-5.14,13.06-7.51,19.66-.89,2.49,3.06,3.56,3.95,1.09,2.37-6.61,4.87-13.16,7.51-19.66,.99-2.44-2.97-3.5-3.95-1.09h0Z"/><path class="cls-4" d="M415.62,413.47c-1.67,5.75-3.77,11.31-6.35,16.71-1.13,2.37,2.4,4.45,3.54,2.07,2.72-5.72,4.99-11.61,6.76-17.69,.74-2.54-3.21-3.62-3.95-1.09h0Z"/><path class="cls-4" d="M276.87,376.91c-9.61,12.27-17.89,25.34-24.79,39.31-1.16,2.36,2.37,4.43,3.54,2.07,6.74-13.65,14.76-26.5,24.15-38.48,1.61-2.05-1.27-4.97-2.9-2.9h0Z"/><path class="cls-4" d="M276.14,364.35c-15.08,17.16-29.94,34.56-38.92,55.81-1.01,2.4,2.51,4.49,3.54,2.07,8.85-20.94,23.42-38.07,38.28-54.99,1.73-1.97-1.15-4.88-2.9-2.9h0Z"/><path class="cls-4" d="M270.45,352.02c-21,18.09-36.71,40.76-46.42,66.72-.93,2.47,3.03,3.54,3.95,1.09,9.47-25.28,24.93-47.3,45.37-64.91,2-1.72-.91-4.61-2.9-2.9h0Z"/><path class="cls-4" d="M260.52,349.67c-23.15,16.78-40.02,39.85-48.9,67.04-.82,2.51,3.13,3.59,3.95,1.09,8.53-26.11,24.77-48.48,47.02-64.59,2.11-1.53,.07-5.09-2.07-3.54h0Z"/><path class="cls-4" d="M135.02,396.08c-12.72,24.56-19.34,51.21-19.54,78.86h4.1c-.03-.68-.06-1.36-.08-2.04-.11-2.63-4.2-2.64-4.1,0l.08,2.04c.11,2.62,4.08,2.65,4.1,0,.19-26.96,6.58-52.86,18.98-76.8,1.21-2.34-2.32-4.41-3.54-2.07h0Z"/><path class="cls-4" d="M146.14,398.73c-9.05,23.13-15.15,47.01-18.43,71.63-.35,2.6,3.75,2.58,4.1,0,3.23-24.23,9.38-47.78,18.28-70.54,.96-2.46-3-3.52-3.95-1.09h0Z"/><path class="cls-4" d="M154.27,407.62c-6.46,17.61-10.42,35.71-11.99,54.4-.22,2.63,3.88,2.61,4.1,0,1.54-18.35,5.5-36.03,11.84-53.31,.91-2.48-3.05-3.55-3.95-1.09h0Z"/><path class="cls-4" d="M460.96,300.99c-5.78,1.47-11.51,3.05-17.22,4.74-1.18,.35-2.25,1.54-2.16,2.84,.6,9.22,1.2,18.45,1.8,27.67,.12,1.87,1.79,3.39,3.73,2.84,5.26-1.51,10.52-2.6,15.97-3.21,3.72-.42,3.77-6.31,0-5.89-5.96,.67-11.76,1.76-17.53,3.42,1.24,.95,2.48,1.89,3.73,2.84-.6-9.22-1.2-18.45-1.8-27.67l-2.16,2.84c5.71-1.7,11.45-3.28,17.22-4.74,3.67-.93,2.12-6.61-1.57-5.68h0Z"/><path class="cls-4" d="M449.52,310.09c1.87,7.66,2.9,15.4,3.08,23.29,.06,2.63,4.16,2.64,4.1,0-.19-8.25-1.27-16.36-3.23-24.38-.63-2.56-4.58-1.48-3.95,1.09h0Z"/><path class="cls-4" d="M456.88,307.64c1.14,8.33,1.85,16.69,2.21,25.09,.11,2.63,4.21,2.64,4.1,0-.37-8.77-1.17-17.49-2.36-26.18-.35-2.6-4.3-1.49-3.95,1.09h0Z"/><path class="cls-4" d="M250.58,505.65c-1.98,9.05-3.34,18.17-4.09,27.4-.22,2.63,3.88,2.61,4.1,0,.73-8.87,2.05-17.62,3.95-26.31,.56-2.57-3.39-3.67-3.95-1.09h0Z"/><path class="cls-4" d="M262.32,506.22c-1.13,9.23-2.61,18.4-4.4,27.52-.51,2.57,3.44,3.68,3.95,1.09,1.86-9.48,3.37-19.02,4.55-28.61,.32-2.61-3.78-2.59-4.1,0h0Z"/><path class="cls-4" d="M274.51,506.23c-1.15,8.63-2.94,17.12-5.31,25.5-.72,2.54,3.23,3.63,3.95,1.09,2.47-8.74,4.26-17.58,5.46-26.59,.35-2.6-3.75-2.58-4.1,0h0Z"/><path class="cls-4" d="M286.1,505.7c-1.68,9.14-3.36,18.28-5.04,27.42-.47,2.58,3.47,3.68,3.95,1.09,1.68-9.14,3.36-18.28,5.04-27.42,.47-2.58-3.47-3.68-3.95-1.09h0Z"/><path class="cls-4" d="M144.54,552.93c.94,7.33,2.96,14.27,6.14,20.94,1.14,2.38,4.67,.3,3.54-2.07-2.86-5.98-4.74-12.3-5.58-18.87-.33-2.58-4.43-2.61-4.1,0h0Z"/><path class="cls-4" d="M155.71,548.34c1.34,6.3,3.07,12.47,5.21,18.54,.87,2.47,4.83,1.41,3.95-1.09-2.14-6.07-3.87-12.24-5.21-18.54-.55-2.58-4.5-1.49-3.95,1.09h0Z"/><path class="cls-4" d="M166.57,544.5c1.37,6.59,2.74,13.19,4.11,19.78,.54,2.58,4.48,1.49,3.95-1.09-1.37-6.59-2.74-13.19-4.11-19.78-.54-2.58-4.48-1.49-3.95,1.09h0Z"/><path class="cls-4" d="M142.45,649.43c.75,5.07,3.04,9.63,6.54,13.36,1.81,1.93,4.7-.97,2.9-2.9-3.05-3.25-4.84-7.16-5.49-11.55-.38-2.6-4.33-1.49-3.95,1.09h0Z"/><path class="cls-4" d="M151.23,646.26c1.05,4.28,3.14,8.11,6.14,11.35,1.79,1.94,4.68-.96,2.9-2.9-2.52-2.73-4.2-5.93-5.08-9.54-.62-2.56-4.58-1.48-3.95,1.09h0Z"/><path class="cls-4" d="M161.45,640.53c1.64,3.99,3.6,7.79,6,11.38,1.46,2.18,5,.13,3.54-2.07-2.19-3.29-4.08-6.74-5.58-10.4-.99-2.41-4.95-1.35-3.95,1.09h0Z"/><path class="cls-4" d="M172.6,637.25c.78,3.48,2.25,6.73,4.38,9.59,1.56,2.09,5.11,.05,3.54-2.07-1.95-2.62-3.25-5.43-3.97-8.61-.57-2.57-4.52-1.48-3.95,1.09h0Z"/><path class="cls-4" d="M183.02,628.19c1.46,3.85,2.76,7.76,3.88,11.72,.71,2.53,4.67,1.46,3.95-1.09-1.12-3.97-2.41-7.87-3.88-11.72-.93-2.44-4.89-1.38-3.95,1.09h0Z"/><path class="cls-4" d="M192.77,621.34c1.52,3.62,3.04,7.23,4.55,10.85,1,2.39,4.97,1.34,3.95-1.09-1.52-3.62-3.04-7.23-4.55-10.85-1-2.39-4.97-1.34-3.95,1.09h0Z"/><path class="cls-4" d="M202.97,615.24c2.22,4.19,3.92,8.54,5.16,13.12,.69,2.54,4.64,1.46,3.95-1.09-1.33-4.91-3.2-9.61-5.58-14.1-1.23-2.33-4.77-.26-3.54,2.07h0Z"/><path class="cls-4" d="M358.75,294.08c-5.52,3.25-9.49,8.36-11.28,14.51-.74,2.54,3.21,3.62,3.95,1.09,1.5-5.14,4.78-9.35,9.4-12.06,2.27-1.34,.21-4.88-2.07-3.54h0Z"/><path class="cls-4" d="M357.58,314.95c2.68-3.25,6.03-5.71,10.01-7.13,2.47-.88,1.4-4.84-1.09-3.95-4.64,1.65-8.68,4.37-11.82,8.18-1.66,2.02,1.22,4.93,2.9,2.9h0Z"/><path class="cls-4" d="M360.84,323.97c2.6-2.45,5.83-3.83,9.41-3.99,2.62-.12,2.64-4.22,0-4.1-4.67,.21-8.9,1.99-12.3,5.19-1.92,1.81,.98,4.7,2.9,2.9h0Z"/><path class="cls-4" d="M363.62,335.82c3.1-1.49,6.35-2.44,9.74-2.98,2.6-.41,1.49-4.36-1.09-3.95-3.75,.59-7.3,1.75-10.72,3.39-2.38,1.14-.3,4.67,2.07,3.54h0Z"/><path class="cls-4" d="M366.51,350.74c2.53-2.05,5.83-2.84,9.02-2.22,2.58,.5,3.68-3.45,1.09-3.95-4.75-.91-9.25,.24-13.01,3.28-2.05,1.66,.86,4.54,2.9,2.9h0Z"/><path class="cls-4" d="M367.59,366.03c2.76-.68,5.53-1.36,8.29-2.04,2.56-.63,1.48-4.58-1.09-3.95-2.76,.68-5.53,1.36-8.29,2.04-2.56,.63-1.48,4.58,1.09,3.95h0Z"/><path class="cls-4" d="M377.61,369.5c-3.84,2.17-6.92,5.43-8.8,9.42-1.12,2.37,2.41,4.45,3.54,2.07,1.6-3.4,4.05-6.1,7.33-7.95,2.3-1.3,.23-4.84-2.07-3.54h0Z"/><path class="cls-4" d="M382.75,379.17c-3,3.56-5.26,7.5-6.78,11.9-.87,2.5,3.09,3.57,3.95,1.09,1.28-3.7,3.2-7.1,5.73-10.1,1.69-2-1.19-4.91-2.9-2.9h0Z"/><path class="cls-4" d="M389.55,387.36c-2.01,4.73-3.62,9.55-4.76,14.57-.58,2.57,3.37,3.66,3.95,1.09,1.05-4.65,2.47-9.2,4.34-13.59,1.02-2.4-2.51-4.49-3.54-2.07h0Z"/><path class="cls-4" d="M360.18,410.7c3.44,3.39,7.59,4.1,12.22,4.73,5.15,.7,10.25,3.98,15.4,2.91,3.71-.77,2.14-6.45-1.57-5.68-2.35,.49-4.82-1.33-6.97-1.96-1.44-.42-2.93-.62-4.41-.84-3.71-.55-7.66-.53-10.5-3.32-2.7-2.66-6.87,1.5-4.16,4.16h0Z"/><path class="cls-4" d="M420.42,106.37c-23.43-8.84-44.67,33.3-18.31,42.32,3.59,1.23,5.14-4.46,1.57-5.68-18.67-6.39-1.32-37.19,15.18-30.97,3.55,1.34,5.08-4.35,1.57-5.68h0Z"/><path class="cls-4" d="M433.96,241.69c-13.96-.98-22.89,14.29-15.73,26.14,7.48,12.37,24.61,11.22,32.91,.51,2.3-2.96-1.84-7.15-4.16-4.16-5.34,6.88-15.44,9.77-22.09,2.74-7.39-7.81-1.59-20.09,9.06-19.34,3.78,.27,3.76-5.62,0-5.89h0Z"/></g></svg>