<?xml version="1.0" encoding="UTF-8"?><svg id="Layer_2" xmlns="http://www.w3.org/2000/svg" viewBox="0 0 265.99 291.88"><defs><style>.cls-1{fill:#fff;}.cls-2{fill:#ed2383;}.cls-3{fill:#2d2e2d;}</style></defs><g><path class="cls-2" d="M206.75,268.26c7.25-10.99,8.83-27.03,3.27-39.14-.37-.81-.77-1.6-1.21-2.37-.1-.18-.22-.36-.32-.54-.31-.53-.64-1.04-.98-1.55-.37-.55-.77-1.09-1.18-1.62-.77-.99-1.61-1.93-2.51-2.8-.39-.38-.8-.75-1.22-1.11,.05-.26,.07-.55,.03-.85-.61-5.79-3.52-10.31-7.69-13.7,1.3-3.83,2.67-7.85,4-11.98,.78-2.42,1.56-4.88,2.3-7.38,4.45-14.93,7.84-30.96,6.1-45.65-.02-.18-.04-.36-.07-.54-.16-1.24-.35-2.47-.59-3.68-.16-.85-.34-1.7-.55-2.55-2.19-9.05-7.73-15.62-14.75-20.64-1.75-1.25-3.6-2.41-5.51-3.49-.95-.54-1.92-1.06-2.91-1.55-4.91-2.49-10.12-4.51-15.17-6.3-3.35-1.18-6.88-2.12-10.48-2.77-3.77-.68-7.63-1.04-11.48-1.02-9.68,.04-19.29,2.42-27.26,7.99-12.83,8.96-20.84,24.07-26.73,39.63-.84,2.22-1.64,4.45-2.4,6.68-2.39,6.96-4.43,13.85-6.37,20.15-.71,.09-1.43,.21-2.13,.35-2.12,.42-4.21,1.06-6.23,1.93-.5,.21-.98,.44-1.46,.69-1.25-.22-2.47-.31-3.68-.29-7.23,.12-13.66,4.32-18.66,10.58-.83,1.04-1.63,2.15-2.38,3.29-.52,.8-1.03,1.62-1.51,2.47-.48,.84-.94,1.71-1.38,2.59-1.31,2.64-2.42,5.43-3.31,8.3-.44,1.43-.82,2.88-1.15,4.33-.86,3.88-1.29,7.81-1.23,11.58,0,.02,0,.03,0,.05,.02,.9,.06,1.78,.13,2.66l.02,.23c.09,1.03,.22,2.04,.39,3.03,1.2,6.94,4.42,12.88,10.12,16.31,.51,1.26,1.13,2.47,1.86,3.64,.5,.81,1.04,1.6,1.64,2.37,.75,.94,1.57,1.86,2.49,2.75s1.93,1.76,3.03,2.61c8.78,6.77,20.6,10.74,31.36,7.32,.15,0,.31-.03,.48-.07,1.12-.32,2.19-.71,3.24-1.14,1.04-.42,2.04-.9,3.02-1.42,.98-.53,1.92-1.1,2.84-1.72,.46-.31,.91-.63,1.35-.96,11.97-8.96,18.52-25.83,19.9-41.21,.19-2.17,.29-4.3,.28-6.38,0-2.08-.12-4.1-.33-6.05-.8-7.34-3.28-14.21-8.14-19.16-1.12-1.14-2.37-2.18-3.75-3.1,.36-1.07,.74-2.21,1.13-3.38v-.03c.4-1.17,.79-2.39,1.2-3.64l.02-.05c.27-.83,.55-1.68,.83-2.54v-.03c.25-.73,.5-1.47,.75-2.22,.25-.74,.5-1.49,.76-2.25,.22-.64,.44-1.27,.66-1.92,.19-.53,.37-1.07,.56-1.6,.24-.67,.48-1.35,.73-2.03,.34-.94,.69-1.88,1.05-2.83,.28-.74,.57-1.48,.86-2.22,.08-.2,.16-.41,.24-.61,1.29-3.26,2.69-6.51,4.21-9.68l.03-.06c.54-1.11,1.09-2.21,1.65-3.29s1.15-2.14,1.75-3.19c.3-.52,.6-1.04,.91-1.55,8.34-13.79,19.86-23.4,36.45-18.16,.07,.02,.14,.04,.2,.05,.04,0,.07,.02,.11,.03,.46,.22,.92,.45,1.38,.68,.92,.47,1.83,.99,2.72,1.53,1.78,1.09,3.5,2.32,5.07,3.67,.78,.67,1.53,1.37,2.23,2.09l.02,.02c2.17,2.24,3.93,4.73,5.02,7.42,.16,.38,.3,.77,.43,1.16,1,3.05,1.28,6.38,1.22,9.73-.06,3.35-.45,6.72-.79,9.85-.61,5.67-1.61,11.33-2.88,16.95-.26,1.17-.54,2.34-.83,3.51-2.01,8.17-4.56,16.23-7.31,24.06-4.08-.14-7.99,.21-11.34,1-8.41,1.98-14.83,7.54-19.67,14.51-5.02,7.23-8.34,15.99-10.39,23.86-.5,1.91-.93,3.91-1.28,5.97-.14,.84-.27,1.69-.39,2.55-.02,.13-.03,.26-.05,.39-.08,.6-.14,1.2-.2,1.81-.18,1.81-.29,3.65-.32,5.5-.1,7.38,1.16,14.81,4.61,20.96,.24,.43,.5,.86,.76,1.28,1.59,2.52,3.59,4.8,6.06,6.72,7.77,6.06,20.83,11.77,31.15,9.12,2.89-.74,5.57-2.14,7.85-4.36,.34-.33,.67-.67,.99-1.04,3.02-.15,6.04-.75,8.96-1.71,7.9-2.59,15.11-7.89,19.69-14.84Z"/><path class="cls-2" d="M146.84,288.33c-2.88-1.42-5.61-2.87-8.2-4.64-1.72-1.18-3.39-2.49-4.98-4.05-4.68-4.59-6.92-10.24-9.93-15.87-.02-.03-.04-.05-.07-.06s-.06,0-.09,0c-.01,0-.02,.02-.04,.03-.04,.03-.06,.07-.05,.12,.17,1.01,.42,2.03,.72,3.04,.15,.48,.3,.96,.48,1.44,.13,.37,.28,.74,.43,1.11,.46,1.11,.99,2.2,1.58,3.28,1.23,2.23,2.75,4.36,4.48,6.33,4.93,5.64,11.58,9.9,18.25,10.95,.05,0,.09,0,.12-.03,.01,0,.01-.02,.02-.04,.07-.09,.08-.24-.03-.3-.92-.44-1.81-.88-2.7-1.31Z"/><path class="cls-2" d="M154.34,290.83s-.04,0-.07-.01c-.22-.03-.44-.03-.67-.04-.68-.02-1.57-.24-2.18-.56-.03-.02-.06-.01-.09-.01-.08,0-.14,0-.19,.06-.06,.07-.07,.18,0,.28,.28,.38,.74,.75,1.27,1,.87,.42,1.91,.52,2.59-.16,.03-.03,.03-.07,.04-.11,0-.03,.02-.05,.01-.08,0-.05-.03-.11-.08-.14-.21-.12-.41-.18-.63-.21Z"/><path class="cls-2" d="M91.39,138.46s.08-.06,.11-.12c1.26-3.09,2.51-6.17,3.84-9.19,1.58-3.6,3.28-7.13,5.27-10.48,2.19-3.71,4.73-7.21,7.84-10.42,1.6-1.65,3.28-3.08,5.03-4.34,1.17-.84,2.36-1.6,3.59-2.3,1.84-1.04,3.74-1.93,5.7-2.7,1.31-.51,2.63-.97,3.99-1.39,3.03-.94,6.17-1.66,9.38-2.28,1.09-.21,2.18-.42,3.28-.61,.02,0,.03-.02,.05-.03,.03-.02,.06-.02,.08-.05,.06-.09,.03-.22-.05-.29-.03-.03-.07-.05-.12-.05-7.09-.19-13.59,1.41-19.38,4.32-.04,.02-.09,.05-.13,.07-1.11,.56-2.2,1.18-3.26,1.84-.9,.56-1.78,1.15-2.64,1.77-.81,.59-1.61,1.2-2.38,1.83-.68,.55-1.34,1.12-1.99,1.71-.61,.55-1.21,1.12-1.79,1.71-.02,.02-.04,.04-.06,.06-7.48,7.51-12.9,17.42-15.81,27.68-.29,1.01-.56,2.01-.79,3.02,0,.03,0,.06,.01,.08,.02,.13,.15,.2,.26,.15Z"/><path class="cls-2" d="M141.94,94.19c.39,.03,.8,.06,1.21,.06,.41,0,.83-.03,1.22-.1,.16-.03,.32-.05,.47-.09,.02,0,.04-.02,.05-.03,.04-.02,.07-.06,.08-.1,.01-.03,.01-.06,0-.09,0-.03-.02-.06-.05-.09-.33-.34-.72-.48-1.13-.49-.02,0-.03,0-.05,0-.71,0-1.46,.37-2.01,.79-.03,.02-.03,.05-.02,.08,.01,.03,.04,.05,.07,.05,.05,0,.1,0,.14,.01Z"/><path class="cls-2" d="M174.09,172.09c-.25,.96-.51,1.91-.77,2.87-.87,3.21-1.74,6.43-2.51,9.68-.04,.16,.07,.28,.19,.29,.04,0,.08,0,.12-.01,.06-.02,.1-.07,.13-.14,4.43-11.33,7.19-24.09,7.58-36.25,.03-.98,.05-2.02,.06-3.09h0c.02-6.59-.7-14.58-4.88-19.55-.6-.71-1.27-1.36-2.01-1.93-.03-.02-.07-.03-.1-.03s-.06,.02-.08,.05c-.04,.05-.05,.13,0,.19,.75,.85,1.41,1.75,2,2.7,.1,.16,.2,.33,.3,.5,.73,1.24,1.33,2.55,1.82,3.92,.14,.38,.27,.76,.39,1.14,.26,.83,.49,1.68,.68,2.54,.29,1.32,.52,2.66,.67,4.02,.14,1.21,.23,2.44,.28,3.66,.03,.61,.04,1.23,.05,1.84,.04,2.44-.05,4.85-.18,7.15-.39,7.02-1.98,13.75-3.76,20.46Z"/><path class="cls-2" d="M169.72,189.32c.09-.13,.17-.28,.26-.43,.42-.74,.69-1.65,.71-2.47,0-.03,0-.06,0-.09,0-.01,0-.02-.01-.03-.01-.06-.05-.11-.1-.12-.06-.02-.14,0-.18,.06-.14,.21-.27,.43-.39,.68-.34,.73-.54,1.58-.53,2.34,0,.01,0,.02,0,.03,0,.02,0,.04,.02,.06,.05,.07,.16,.07,.21,0Z"/><path class="cls-2" d="M87.25,260.98c-1.69,.08-3.37,.11-5.04,.09-4.28-.07-8.5-.54-12.65-1.71-.59-.17-1.18-.35-1.77-.54-.12-.04-.25-.07-.37-.11-.52-.18-1.03-.37-1.52-.57-.49-.2-.97-.42-1.44-.64-.82-.4-1.6-.82-2.36-1.28-5.28-3.21-9.1-7.86-13.54-12.52-.07-.07-.16,0-.13,.09,.17,.44,.36,.88,.56,1.3,.4,.85,.85,1.68,1.35,2.48,.75,1.2,1.6,2.33,2.55,3.39,1.26,1.42,2.68,2.71,4.22,3.87,.38,.29,.78,.57,1.18,.85,.8,.55,1.63,1.07,2.48,1.55,2.67,1.52,5.57,2.71,8.55,3.55,.64,.18,1.28,.35,1.93,.49,.75,.17,1.51,.33,2.26,.45,.81,.14,1.62,.25,2.43,.33,.1,.01,.21,.02,.31,.03,3.82,.37,7.6,.15,11.05-.7,.11-.03,.17-.14,.16-.24,0-.1-.07-.19-.2-.19Z"/><path class="cls-2" d="M93.28,259.42c-.6,.08-1.15,.25-1.69,.45-.77,.29-1.51,.65-2.26,1.04-.04,.02-.05,.06-.04,.09,0,.03,.04,.06,.07,.06,.18,.02,.35,.03,.5,.03,.46,0,.84-.06,1.38-.26,.78-.29,1.45-.65,2.16-1.09,.08-.05,.1-.14,.08-.21-.02-.08-.1-.14-.2-.12Z"/><path class="cls-2" d="M63.07,173.34s.04-.03,.05-.04c.01-.04,0-.08-.04-.1-.02-.01-.04-.02-.06-.01-15.09,1.76-23.86,18.98-24.58,32.64,0,.08,.03,.15,.07,.2,.05,.05,.12,.09,.19,.1,.14,.03,.29-.03,.33-.2,.25-1.13,.5-2.24,.76-3.35,1.37-5.83,3.07-11.37,6.35-16.57,4.08-6.49,10.09-9.8,16.94-12.65Z"/><path class="cls-2" d="M212.24,224.26s-.05-.03-.08,0h0s-.04,.05-.02,.08c1.88,4.98,3.52,9.46,4.25,14.49,.19,1.34,.33,2.71,.38,4.15,.07,2.26-.05,4.52-.31,6.77-.49,4.14-1.49,8.22-2.87,12.13-1.63,4.66-3.96,9-6.94,12.72-2.82,3.52-6.23,6.46-10.22,8.54-2.73,1.42-5.73,2.43-8.99,2.94-.07,.01-.11,.06-.12,.11-.01,.05,0,.12,.04,.16,.03,.03,.06,.05,.11,.05,.45,.01,.9,.01,1.34,0,3.09-.11,5.95-.94,8.57-2.29,1.33-.68,2.6-1.5,3.8-2.42,.6-.46,1.19-.95,1.76-1.46,.57-.51,1.12-1.05,1.66-1.6,.54-.55,1.06-1.13,1.56-1.72,.25-.3,.5-.59,.74-.9,.35-.43,.68-.87,1.01-1.32,2.45-3.31,4.42-6.98,5.89-10.5,.4-.97,.78-1.99,1.14-3.05,.17-.49,.33-.98,.48-1.48,.16-.51,.31-1.03,.45-1.55,.2-.71,.39-1.44,.56-2.18,.2-.85,.39-1.72,.55-2.6,.25-1.32,.46-2.67,.62-4.02,1.06-9.05-.04-18.65-5.35-25.02Z"/></g><g><path class="cls-1" d="M203.93,255.56c9.53-14.45,9.27-37.64-4.16-49.13,.05-.26,.07-.55,.03-.85-.61-5.79-3.52-10.31-7.69-13.7,7.34-21.6,16.73-48.91,11.2-71.78-4.38-18.11-22.17-26.27-38.33-31.98-15.69-5.54-35.05-5.7-49.22,4.2-20.4,14.24-28.62,44.05-35.5,66.46-2.86,.38-5.67,1.12-8.36,2.28-.5,.21-.98,.44-1.46,.69-27.73-4.79-45.95,51.11-22.64,65.13,1.71,4.25,4.61,7.97,9.02,11.37,8.78,6.77,20.6,10.74,31.36,7.32,.15,0,.31-.03,.48-.07,22.83-6.48,32.63-37.61,30.3-58.88-.99-9.03-4.52-17.35-11.89-22.26,7.78-23,20.68-71.74,53.81-61.28,.11,.03,.21,.06,.31,.08,7.39,3.5,14.52,9.42,16.87,16.58,2,6.11,1.11,13.33,.43,19.59-1.63,15.12-5.99,30.2-11.01,44.52-4.08-.14-7.99,.21-11.34,1-17.14,4.04-26.04,22.9-30.06,38.37-3.82,14.66-3.95,34.93,9.2,45.18,10.27,8.01,29.76,15.4,39.99,3.72,11.17-.57,22.37-7.03,28.65-16.55Z"/><path class="cls-1" d="M130.84,266.94c-4.68-4.59-6.92-10.24-9.93-15.87-.07-.14-.27-.06-.25,.09,2,11.97,13.93,24.26,25.94,26.15,.19,.03,.29-.28,.11-.37-5.87-2.82-11.17-5.39-15.88-10Z"/><path class="cls-1" d="M150.77,278.08c-.68-.02-1.57-.24-2.18-.56-.22-.12-.42,.13-.28,.32,.76,1.02,2.77,1.93,3.85,.84,.09-.09,.1-.27-.03-.34-.43-.25-.87-.25-1.37-.26Z"/><path class="cls-1" d="M88.67,125.63c4.43-10.84,8.65-21.55,16.95-30.09,8.53-8.78,19.33-11.58,30.96-13.62,.24-.04,.2-.41-.04-.42-25.21-.68-42.93,21.34-48.25,44.02-.06,.25,.28,.36,.38,.12Z"/><path class="cls-1" d="M142.02,81.35c.13-.04,.2-.2,.09-.3-.91-.93-2.29-.38-3.19,.3-.06,.04-.01,.12,.05,.13,.96,.08,2.11,.15,3.05-.12Z"/><path class="cls-1" d="M167.98,171.94c-.07,.3,.34,.43,.45,.14,4.43-11.33,7.19-24.09,7.58-36.25,.25-7.85,0-19.33-6.83-24.58-.13-.1-.28,.1-.18,.21,6.45,7.26,6.53,18.26,6.02,27.47-.63,11.4-4.43,22.02-7.04,33.01Z"/><path class="cls-1" d="M166.9,176.61c.59-.82,.97-2,.97-3,0-.16-.21-.23-.3-.09-.57,.82-.93,2.01-.92,3.02,0,.13,.17,.19,.24,.08Z"/><path class="cls-1" d="M84.43,248.27c-6.75,.32-13.4-.06-19.83-2.27-8.32-2.86-13.05-8.93-18.86-15.01-.07-.07-.16,0-.13,.09,5.57,14.14,24.94,21.06,38.87,17.62,.23-.06,.21-.43-.04-.42Z"/><path class="cls-1" d="M90.45,246.71c-1.45,.2-2.67,.83-3.95,1.49-.08,.04-.04,.15,.03,.15,.73,.08,1.16,.04,1.88-.23,.78-.29,1.45-.65,2.16-1.09,.17-.11,.08-.36-.12-.33Z"/><path class="cls-1" d="M60.25,160.63c.1-.04,.03-.18-.06-.16-15.09,1.76-23.86,18.98-24.58,32.64-.02,.33,.52,.44,.59,.1,1.53-7.07,3.21-13.73,7.11-19.93,4.08-6.49,10.09-9.8,16.94-12.65Z"/><path class="cls-1" d="M209.42,211.55c-.05-.06-.13,.01-.11,.07,2.38,6.31,4.41,11.79,4.63,18.64,.21,6.43-1.06,12.86-3.18,18.9-4.24,12.09-13.1,22.15-26.15,24.19-.18,.03-.15,.31,.03,.32,12.81,.39,21.9-11.54,26.33-22.21,4.68-11.27,6.95-29.72-1.55-39.92Z"/></g><g><path class="cls-3" d="M203.93,255.56c9.53-14.45,9.27-37.64-4.16-49.13,.05-.26,.07-.55,.03-.85-.61-5.79-3.52-10.31-7.69-13.69,7.34-21.6,16.73-48.91,11.2-71.78-4.38-18.11-22.17-26.27-38.33-31.98-15.69-5.54-35.05-5.7-49.22,4.2-20.4,14.24-28.62,44.05-35.5,66.46-2.86,.38-5.67,1.12-8.36,2.28-.5,.21-.98,.45-1.46,.69-27.73-4.8-45.95,51.11-22.64,65.13,1.71,4.25,4.61,7.97,9.02,11.37,8.78,6.77,20.6,10.74,31.36,7.32,.15,0,.31-.03,.48-.07,22.83-6.48,32.63-37.61,30.3-58.88-.99-9.03-4.52-17.35-11.89-22.26,7.78-23,20.68-71.74,53.81-61.28,.11,.03,.21,.06,.31,.08,7.39,3.5,14.52,9.42,16.87,16.58,2,6.11,1.11,13.33,.43,19.59-1.63,15.12-5.99,30.2-11.01,44.52-4.08-.14-7.99,.21-11.34,1-17.14,4.04-26.04,22.9-30.06,38.37-3.82,14.66-3.95,34.93,9.2,45.18,10.27,8.01,29.76,15.39,39.99,3.72,11.17-.57,22.37-7.03,28.65-16.55Zm-43.86-23.72c-2.73,10.33-3.84,21.32,2.74,30.36,.77,1.06,1.65,2.01,2.62,2.86-5.17-1.92-9.74-5.55-12.75-11.08-5.81-10.65-.51-26.36,4.59-36.19,6.25-12.03,16.09-16.02,27.67-13.7-2.77,.34-5.54,1.14-8.06,2.28-9.39,4.24-14.37,16.24-16.81,25.47Zm39.4,20.84c-3.88,6.94-10.63,11.49-17.96,13.22-5.82,.05-10.94-1.08-15.96-6.18-6.61-6.71-4.04-18.81-2.12-26.82,4.09-17.08,16.15-29.35,32.54-23.39,11.23,11.57,11.37,29.06,3.49,43.18ZM61.78,168.32c-10.75,11.4-15.15,30.65-15.88,44.63-.05,.99-.07,1.95-.07,2.89-7.56-16.33-.34-40.07,15.95-47.52Zm-10.26,40.39c1.14-14.59,6.99-30.65,18.39-40.27,5.85-4.94,13.49-5.33,20.75-4.25-23.32,7.49-36.69,51.27-27.84,71.49-1.04-.62-2.07-1.26-3.08-1.93-8.95-5.89-8.96-15.56-8.22-25.05Zm62.53-18.89c1.25,19.88-7.78,43.31-26.69,51.81-3.92,.62-7.73,.39-11.4-.45-14.61-7.12-10.76-27.79-6.88-40.75,4.44-14.86,16.2-36.72,34.86-31.74,.03,0,.07,.01,.1,.02,6.56,4.56,9.46,12.3,10.01,21.1Zm-11.25-27.72c-.18-.07-.36-.15-.54-.22-2.46-.95-5.02-1.74-7.63-2.31,5.17-14.53,9.61-29.14,17.72-42.45,7.49-12.3,16.73-17.96,28.56-18.2-21.16,8.93-31.41,43.25-38.11,63.18Zm81.13-29.48c.98-16.22-7.05-26.52-20.46-33.3-.26-.33-.63-.61-1.14-.78-.43-.14-.86-.26-1.28-.39-.98-.44-1.98-.87-3.01-1.29-15.42-6.19-33.13-3.6-43.75,9.55-11.88,14.7-19.58,34.02-24.04,52.38-1.57-.19-3.14-.31-4.71-.32,6.4-20.82,13.69-45.96,30.78-60.45,12.18-10.32,30.53-10.23,44.87-6.02,15.98,4.69,33.49,12.85,37.72,30.26,5.18,21.31-4.52,46.43-10.64,66.98-4.67-2.66-10.26-4.29-15.81-5.01,5.77-16.6,10.41-34.06,11.47-51.63Zm-47.97,129.1c-9.05-9.1-7.44-25.64-4.86-36.93,2.64-11.6,8.38-23.46,17.83-30.97,11.19-8.89,38.72-6.19,44.8,8.55-16.24-9.25-31.88-2.75-40.74,12.64-8.09,14.04-11.9,34.17-.61,47.36,4.37,5.11,9.75,8.04,15.44,9.2-9.5,5.21-25.57-3.54-31.85-9.85Z"/><path class="cls-3" d="M187.72,180.85c5.22-10.95,7.02-23.89,8.66-35.82,1.17-8.53,3.63-23.61-3.04-30.71-.19-.2-.6-.03-.51,.26,7.15,21.96-2.29,44.36-5.63,66.1-.04,.27,.4,.41,.52,.16Z"/><path class="cls-3" d="M187.22,182.27s-.07-.05-.11-.04c-.56,.15-.77,.69-.96,1.19-.23,.61-.63,1.16-.44,1.84,.04,.14,.17,.22,.32,.2,1.07-.17,1.88-2.38,1.19-3.19Z"/><path class="cls-3" d="M98.16,182.29c-6.5-8.74-17.21,3.6-20.02,8.98-4.81,9.01-9.58,24.63-2.15,33.64,5.94,7.2,15.07-3.74,18.07-8.18,5.84-8.67,11.06-25.08,4.11-34.44Zm-15.85,9.03c.29-.79,.64-1.63,1.35-2.11,.46-.3,1.02,.17,1.01,.64,0,.99-.98,2.77-2.11,2.73-.49-.02-.34-1.01-.25-1.26Zm-3.9,28c-3-2.23-2.38-8.53-1.88-11.74,.6-3.91,1.46-9.76,4.78-12.38,.1-.08,.31-.03,.29,.13-.66,4.18-2.79,7.98-3.26,12.31-.25,2.33-.47,4.78-.05,7.1,.26,1.48,.8,2.81,.64,4.3-.02,.23-.29,.42-.51,.26Z"/><path class="cls-3" d="M178.87,262.44c-5.01-2.35-8.86-3.56-11.21-9.05-1.19-2.77-1.67-5.83-1.85-8.82-.13-2.13,.46-4.66-.24-6.66-.07-.19-.28-.23-.4-.07-2.93,3.72-1.53,12.73,.16,16.77,2.16,5.15,7.31,10.64,13.41,8.58,.29-.1,.49-.58,.13-.75Z"/><path class="cls-3" d="M184.15,261.49c-.59-.06-1.17,.04-1.74,.2-.56,.15-1.13,.19-1.65,.46-.49,.25-.59,1.06-.06,1.34,1.26,.67,3.18,.15,3.94-1.07,.25-.41-.03-.89-.49-.93Z"/><path class="cls-3" d="M184.59,210.65c-.16,.1-.2,.41,.04,.46,3.24,.64,6.02,.36,9.01,2.21,3.26,2.01,4.17,5.42,6.27,8.32,.17,.24,.52,.05,.54-.2,.47-6.57-9.73-14.67-15.86-10.79Z"/><path class="cls-3" d="M200.74,224.31c.13,.09,.29,.06,.41-.03,.74-.59-.22-2.29-.66-1.76-.4,.49-.28,1.45,.25,1.79Z"/><path class="cls-3" d="M146.72,276.94c-5.87-2.82-11.17-5.39-15.88-10-4.68-4.59-6.92-10.24-9.93-15.87-.07-.14-.27-.05-.25,.09,2,11.97,13.93,24.26,25.94,26.15,.19,.03,.29-.28,.11-.37Z"/><path class="cls-3" d="M152.14,278.34c-.43-.25-.87-.25-1.37-.26-.68-.02-1.57-.24-2.18-.56-.22-.12-.42,.13-.28,.32,.76,1.02,2.77,1.93,3.85,.84,.09-.09,.1-.27-.03-.34Z"/><path class="cls-3" d="M88.67,125.63c4.43-10.84,8.65-21.55,16.95-30.09,8.53-8.78,19.33-11.58,30.96-13.62,.24-.04,.2-.41-.04-.42-25.21-.68-42.93,21.34-48.25,44.02-.06,.25,.28,.36,.38,.12Z"/><path class="cls-3" d="M138.97,81.47c.96,.08,2.11,.15,3.05-.12,.13-.04,.2-.2,.09-.3-.91-.93-2.3-.38-3.19,.3-.06,.04-.01,.12,.05,.13Z"/><path class="cls-3" d="M176.01,135.82c.25-7.85,0-19.33-6.83-24.58-.13-.1-.28,.1-.18,.21,6.45,7.26,6.53,18.26,6.02,27.47-.63,11.4-4.43,22.02-7.04,33.01-.07,.3,.34,.43,.45,.14,4.43-11.33,7.19-24.09,7.58-36.25Z"/><path class="cls-3" d="M167.57,173.52c-.57,.82-.93,2.01-.92,3.02,0,.13,.17,.19,.24,.08,.59-.82,.97-2,.97-3,0-.16-.21-.23-.3-.09Z"/><path class="cls-3" d="M84.43,248.28c-6.75,.32-13.4-.06-19.83-2.27-8.32-2.86-13.05-8.93-18.86-15.01-.07-.07-.16,0-.13,.09,5.57,14.14,24.94,21.06,38.87,17.62,.23-.06,.21-.43-.04-.42Z"/><path class="cls-3" d="M90.45,246.71c-1.45,.2-2.67,.83-3.95,1.49-.08,.04-.04,.14,.03,.15,.73,.08,1.16,.04,1.88-.23,.78-.29,1.45-.65,2.16-1.09,.17-.11,.08-.36-.12-.33Z"/><path class="cls-3" d="M60.25,160.63c.1-.04,.03-.18-.06-.16-15.09,1.76-23.86,18.98-24.58,32.64-.02,.33,.52,.44,.59,.1,1.53-7.07,3.21-13.73,7.11-19.93,4.08-6.49,10.09-9.8,16.94-12.65Z"/><path class="cls-3" d="M209.42,211.55c-.05-.06-.13,.01-.11,.07,2.38,6.31,4.41,11.79,4.63,18.64,.21,6.43-1.06,12.86-3.18,18.9-4.24,12.09-13.1,22.15-26.15,24.19-.18,.03-.15,.31,.03,.32,12.81,.39,21.9-11.53,26.33-22.21,4.68-11.27,6.95-29.72-1.55-39.92Z"/></g></svg>