<?xml version="1.0" encoding="UTF-8"?><svg id="Layer_2" xmlns="http://www.w3.org/2000/svg" viewBox="0 0 457.94 398.31"><defs><style>.cls-1{fill:#fff;}.cls-2{fill:#489ed7;}.cls-3{fill:#2d2e2d;}</style></defs><path class="cls-2" d="M390.48,291.64c-.64-3.2-3.61-5.72-6.17-7.43-25.54-17.07-51.23-33.93-77.08-50.52-2.17-1.4-4.33-2.24-6.54-2.69-1.02-40.63-1.81-81.27-2.96-121.9-.19-6.66-.83-12.4-7.07-15.94-4.51-2.56-12.8-.07-17.67,.53-17.78,2.18-35.56,4.4-53.34,6.61-39.57,4.93-79.14,9.85-118.68,14.97-11.82,1.53-25.47,.9-24.04,16.19,1.82,19.55,4.3,39.06,6.39,58.58,2.97,27.75,5.9,55.5,8.98,83.24,.15,1.31,.18,2.71,.6,3.97,.49,1.46,1.49,2.58,2.73,3.42-.73,4.26,.63,9.24,3.37,12.63,16.13,19.77,33.27,38.69,49.44,58.43,3.04,3.74,6.75,8.15,11.93,8.63,5.45,.5,10.95-2.19,16.11-3.55,69.65-18.75,139.08-38.42,208.44-58.21,3.55-1,6.39-2.84,5.57-6.95Z"/><g><path class="cls-1" d="M174.43,339.78c-.41,0-.82-.02-1.22-.06-4.64-.43-8.22-4.83-10.84-8.05-7.93-9.68-16.23-19.32-24.25-28.64-8.35-9.69-16.97-19.72-25.19-29.79-2.46-3.04-3.68-7.6-3.04-11.36,.1-.62-.16-1.24-.68-1.58-1.06-.71-1.77-1.59-2.11-2.6-.27-.8-.35-1.72-.44-2.7l-.09-.95c-2.39-21.52-4.69-43.05-6.99-64.58l-2-18.66c-.77-7.2-1.6-14.41-2.42-21.61-1.39-12.11-2.82-24.63-3.97-36.95-1.06-11.35,6.29-12.71,18.37-13.99,1.44-.15,2.88-.3,4.3-.49,37.87-4.9,76.41-9.71,113.67-14.35l5-.62c17.78-2.22,35.55-4.43,53.34-6.61,1.13-.14,2.43-.37,3.83-.63,2.64-.48,5.63-1.02,8.27-1.02,1.97,0,3.52,.31,4.6,.93,5.51,3.13,6.09,8.25,6.27,14.61,.7,24.62,1.27,49.67,1.83,73.89,.37,16,.73,32,1.14,48,.02,.74,.55,1.37,1.27,1.52,2.13,.43,4.09,1.24,6,2.47,24.78,15.9,50.71,32.89,77.06,50.5,3.23,2.16,5.08,4.32,5.5,6.43,.38,1.9,.11,3.83-4.44,5.11-77.52,22.13-142.63,40.49-208.42,58.21-1.45,.38-2.93,.87-4.43,1.36-3.27,1.08-6.66,2.2-9.9,2.2h0Z"/><g><path class="cls-3" d="M403.18,272.58c-.64-3.2-3.61-5.72-6.17-7.43-25.54-17.07-51.23-33.93-77.08-50.52-2.17-1.39-4.33-2.24-6.54-2.69-1.02-40.63-1.81-81.27-2.96-121.9-.19-6.66-.83-12.4-7.07-15.94-4.51-2.56-12.8-.07-17.67,.53-17.78,2.18-35.56,4.4-53.34,6.61-39.57,4.93-79.14,9.85-118.68,14.97-11.82,1.53-25.47,.9-24.04,16.19,1.82,19.55,4.3,39.06,6.39,58.58,2.97,27.75,5.9,55.5,8.98,83.24,.15,1.31,.18,2.71,.6,3.97,.49,1.46,1.49,2.58,2.73,3.41-.73,4.26,.63,9.24,3.37,12.63,16.13,19.77,33.27,38.69,49.44,58.43,3.04,3.74,6.75,8.15,11.93,8.63,5.45,.5,10.95-2.19,16.11-3.55,69.65-18.75,139.09-38.42,208.44-58.21,3.55-1,6.39-2.84,5.57-6.95Zm-85.52-54.08c25.86,16.58,51.55,33.45,77.08,50.52,.7,.47,1.35,.96,1.93,1.52-21.61,5.3-42.99,11.96-64.43,17.93-37.2,10.36-74.4,20.72-111.6,31.07-9.89,2.75-19.78,5.5-29.67,8.24-4.62,1.28-9.56,3.2-14.34,3.4-5.3,.23-10.86-9.06-13.98-12.79-10.13-12.11-20.27-24.21-30.4-36.33-6.12-7.32-13.05-14.45-18.58-22.27,.7-.91,1.75-1.54,3.28-1.88,62.39-13.78,124.79-27.55,187.2-41.28,5.05-1.11,9.09-.98,13.49,1.86Zm-207.57,38.75c-.11-.15-.2-.3-.26-.46-.05-.15-.22-1.15-.16-.69-.07-.62-.14-1.25-.21-1.87-4.93-44.36-9.45-88.77-14.39-133.13-.41-3.65-.85-7.29-1.19-10.94-.68-7.29,6.77-7.76,11.82-8.43,6.66-.88,13.33-1.74,20-2.59,19.68-2.52,39.37-5,59.06-7.47,36.72-4.61,73.43-9.23,110.17-13.69,12.98-1.58,11.11,14.98,11.3,22.47,.28,10.77,.54,21.54,.79,32.31,.55,23,1.08,45.99,1.64,68.99,.08,3.27,.16,6.55,.24,9.82-1.9,.05-3.86,.31-5.91,.76-62.41,13.73-124.8,27.5-187.2,41.28-2.6,.58-4.45,1.9-5.7,3.64Zm286.33,17.97c-69.36,19.8-138.79,39.46-208.44,58.21-3.97,1.05-7.85,2.52-11.88,3.34-5.26,1.07-8.87-3.67-11.8-7.26-16.17-19.74-33.31-38.66-49.44-58.43-1.76-2.18-2.31-4.37-2.29-7.16,0-.6,.06-1.14,.15-1.65,7.32,10.12,16.31,19.41,24.28,28.94,6.5,7.77,13,15.53,19.5,23.3,4.65,5.55,9.08,12.24,14.63,16.93,4.99,4.22,12.38,.75,17.85-.77,5.31-1.47,10.62-2.95,15.93-4.42,16.17-4.49,32.33-8.99,48.5-13.5,31.74-8.83,63.47-17.68,95.21-26.51,16.52-4.6,32.99-9.72,49.65-13.78,1.31,2.05,.15,2.2-1.85,2.77Z"/><path class="cls-3" d="M311.31,286.32c-6.22-4.81-12.7-10.99-19.23-16.03-.78-.6-1.54-.54-2.13-.14-18.14,3.66-35.83,9.39-53.84,13.61-.84,.2-1.29,.73-1.48,1.36-.36,.74-.31,1.64,.49,2.38,6.19,5.7,12.24,11.58,18.28,17.45,.08,.08,.17,.1,.25,.16,.13,.11,.27,.19,.42,.27,.1,.04,.19,.09,.29,.11,.18,.05,.37,.07,.57,.08,.09,0,.17,0,.26-.02,.13-.02,.25,.01,.39-.03,18.16-5.03,36.5-9.45,54.56-14.86,.58,.06,1.11-.19,1.5-.63,1.21-.98,.9-2.99-.32-3.71Zm-55.68,14.55c-4.76-4.63-9.54-9.23-14.38-13.76,16.41-4.03,32.6-9.1,49.16-12.49,5.19,4.06,10.06,8.51,15.13,12.7-16.54,4.84-33.29,8.97-49.9,13.54Z"/><path class="cls-3" d="M305.77,199.66c0-.09,.05-.16,.05-.26-.66-37.07-2.39-74.13-3.25-111.2,0-.35-.09-.67-.21-.93-.25-.8-.92-1.41-2.03-1.31-33.04,3.01-66.05,8.84-98.91,13.31-33.44,4.55-67.33,7.91-100.56,13.82-.13,.02-.21,.09-.32,.13-.09,.03-.17,.06-.26,.1-.15,.07-.29,.14-.4,.24-.13,.1-.22,.23-.31,.36-.04,.07-.1,.13-.13,.2-.09,.17-.13,.38-.16,.6,0,.06-.01,.11-.02,.17,0,.12-.05,.23-.04,.36,4.32,41.23,8.29,82.5,12.87,123.69,.02,.14,.08,.23,.11,.36,.02,.06,.04,.12,.06,.19,.07,.19,.13,.37,.24,.52,.46,.77,1.3,1.32,2.42,1.09,63.09-12.84,125.83-28.46,189.25-39.55,1.15-.2,1.61-1.02,1.6-1.9Zm-189.58,21.9c-2.28-14.49-3.78-29.04-5.29-43.63-1.6-15.51-3.82-31.22-4.07-46.81,0-.14,.22-.17,.24-.03,2.4,15.49,3.51,31.26,5.19,46.85,1.57,14.52,3.16,29.02,4.32,43.58,.02,.23-.36,.28-.39,.05Zm167.98-21.89c-25.25,4.65-50.26,11.13-75.41,16.32-17.92,3.7-35.84,7.38-53.81,10.86-11.83,2.29-23.72,4.98-35.68,6.45-.16,.02-.19-.24-.04-.28,29.77-7.5,60.2-12.96,90.26-19.22,24.8-5.17,49.62-10.09,74.53-14.67,.35-.07,.5,.47,.15,.54Zm7.28-.31c-.36-4.27-.22-9.51-.36-13.82-.36-11.18-.69-22.36-1.04-33.54-.34-11.1-.68-22.2-1.06-33.3-.18-5.07,.24-10.67-.73-15.68-.13-.67-.68-.87-1.2-.77-.06,0-.12-.02-.18,0-57.17,8.16-114.53,15.06-171.79,22.52-3.43,.45-6.85,.92-10.28,1.34-.06-.54-.11-1.08-.17-1.61,61.84-7.73,123.66-15.87,185.39-24.41,.58,32.95,2.57,65.92,3.75,98.86-.78,.14-1.55,.28-2.33,.43Zm6.77-1.24c-1.22-33.51-3.26-67.05-3.77-100.58-.02-1.25-.88-1.93-1.84-2.09-.02,0-.04,0-.06-.01-.18-.03-.36-.05-.55-.03-.13,0-.25-.04-.38-.02-62.41,8.65-124.91,16.88-187.43,24.69-.1-.99-.2-1.97-.31-2.96,31.91-5.58,64.4-8.84,96.48-13.2,32.49-4.42,65.13-10.15,97.8-13.24,.86,35.63,2.47,71.25,3.14,106.89-1.02,.18-2.04,.38-3.07,.56Z"/><path class="cls-3" d="M124.67,262.02c-.33,0-.64,.11-.93,.27-1.2,.43-1.54,1.58-1.23,2.61,.08,.35,.21,.69,.49,1.02,9.89,11.61,20.26,22.92,30.67,34.06,0,.01,.02,.02,.03,.04,.03,.03,.06,.06,.08,.09,0,.01,.02,.01,.03,.02,.2,.24,.45,.41,.73,.52,.02,0,.04,.01,.06,.02,.2,.07,.41,.11,.65,.11,.15,0,.29-.03,.44-.06,.09-.02,.17,0,.27-.04,9.53-3.34,19.94-5.06,29.73-7.49,22.3-5.53,44.62-11.02,66.93-16.51,34.3-8.43,68.59-16.92,102.92-25.24,.22-.04,.42-.12,.6-.23,.93-.4,1.28-1.25,1.18-2.11,0-.67-.28-1.35-1.01-1.81-14.36-8.99-28.63-18.24-42.68-27.71-.72-.49-1.43-.47-2-.17-31.05,5.46-61.85,13.98-92.58,21-31.46,7.19-62.93,14.37-94.38,21.61Zm91.62-16.39c1.48,1.7,2.97,3.41,4.46,5.13-2.61,.63-5.22,1.26-7.83,1.89-1.39-1.82-2.81-3.6-4.32-5.25,2.57-.59,5.13-1.18,7.7-1.76Zm85.38,.25c-3.24,.78-6.47,1.57-9.71,2.35-1.53-1.52-3.06-3.05-4.59-4.58,3.19-.78,6.39-1.55,9.59-2.33,1.57,1.52,3.15,3.03,4.71,4.56Zm-2.13-5.18c1.42-.35,2.85-.69,4.27-1.04,1.22-.3,2.43-.59,3.65-.89,1.69,1.5,3.36,3,5.06,4.48-2.76,.67-5.52,1.34-8.28,2.01-1.56-1.53-3.13-3.05-4.7-4.56Zm-10.13,8.15c-3.54,.86-7.07,1.71-10.61,2.57-1.41-1.55-2.81-3.1-4.22-4.66,3.41-.83,6.82-1.66,10.23-2.49,1.53,1.52,3.06,3.05,4.59,4.57Zm-13.09,3.17c-.45,.11-.89,.22-1.34,.32-2.56,.62-5.12,1.25-7.68,1.87-1.48-1.53-2.95-3.06-4.41-4.6,3.07-.75,6.14-1.49,9.22-2.24,1.4,1.55,2.81,3.1,4.21,4.65Zm-11.54,2.8c-3.37,.82-6.73,1.64-10.1,2.46-1.07-1.26-2.14-2.53-3.22-3.78-.26-.3-.52-.62-.77-.93,3.24-.79,6.48-1.57,9.71-2.36,1.45,1.55,2.91,3.08,4.38,4.61Zm-12.53,3.05c-2.74,.67-5.49,1.34-8.23,2-1.44-1.54-2.87-3.09-4.29-4.64,2.85-.69,5.69-1.38,8.54-2.08,.54,.65,1.07,1.29,1.61,1.92,.8,.93,1.58,1.86,2.37,2.79Zm-10.71,2.6c-2.68,.65-5.36,1.3-8.04,1.95-1.3-1.58-2.59-3.16-3.91-4.73,2.56-.62,5.12-1.24,7.67-1.87,1.42,1.55,2.84,3.1,4.27,4.64Zm-10.43,2.54c-2.96,.72-5.91,1.44-8.87,2.16-.7-.9-1.39-1.82-2.09-2.72-.52-.68-1.05-1.37-1.57-2.07,2.86-.7,5.72-1.39,8.59-2.09,1.33,1.57,2.63,3.14,3.94,4.72Zm-11.23,2.73c-2.62,.64-5.23,1.27-7.85,1.91-.73-.96-1.46-1.93-2.21-2.86-.51-.64-1.01-1.28-1.51-1.91,2.64-.64,5.28-1.28,7.91-1.92,.31,.41,.61,.83,.92,1.23,.92,1.19,1.82,2.38,2.74,3.57Zm-42.89,4.72c2.77-.67,5.54-1.34,8.3-2.01,.55,.71,1.11,1.43,1.66,2.13,.71,.88,1.45,1.76,2.19,2.64-2.75,.67-5.51,1.34-8.26,2.01-1.3-1.59-2.6-3.17-3.9-4.76Zm1.5,5.34c-1.94,.47-3.87,.94-5.81,1.41-1.22,.3-2.44,.59-3.65,.89-1.04-1.27-2.08-2.53-3.13-3.76-.28-.33-.56-.66-.85-.98,3.18-.77,6.35-1.54,9.53-2.31,1.31,1.58,2.61,3.17,3.91,4.76Zm9.18-7.93c2.76-.67,5.52-1.34,8.28-2,1.32,1.57,2.61,3.15,3.91,4.74-2.77,.67-5.54,1.35-8.31,2.02-.77-.91-1.54-1.83-2.28-2.74-.53-.66-1.07-1.34-1.6-2.02Zm10.7-2.59c1.38-.33,2.75-.67,4.12-1,1.14-.28,2.29-.56,3.43-.84,.53,.67,1.05,1.34,1.58,2,.72,.91,1.44,1.84,2.15,2.77-2.47,.6-4.95,1.2-7.42,1.8-1.28-1.59-2.56-3.17-3.87-4.75Zm8.44-4.31c-1.01-1.27-2-2.54-3.01-3.8,2.72-.66,5.45-1.32,8.17-1.97,.95,1.29,1.9,2.57,2.83,3.85-2.67,.64-5.33,1.29-8,1.93Zm-2.38,.57c-2.55,.62-5.11,1.24-7.66,1.85-1.06-1.26-2.12-2.52-3.2-3.76,.97-.23,1.95-.47,2.92-.7,1.65-.4,3.29-.8,4.94-1.19,1,1.27,2,2.54,3.01,3.8Zm-10.09,2.44c-2.72,.66-5.43,1.31-8.15,1.97-.98-1.27-1.96-2.55-2.95-3.83,2.63-.63,5.26-1.26,7.89-1.9,1.08,1.23,2.14,2.51,3.21,3.76Zm-10.55,2.55c-2.79,.67-5.58,1.35-8.38,2.02-1.05-1.27-2.11-2.53-3.18-3.78,2.87-.69,5.73-1.38,8.6-2.07,1,1.27,1.98,2.56,2.96,3.83Zm-10.79,2.6c-3,.73-5.99,1.45-8.99,2.17-.2,.05-.39,.1-.59,.15-1.09-1.26-2.17-2.52-3.25-3.78,3.21-.77,6.42-1.55,9.64-2.32,1.07,1.25,2.14,2.51,3.2,3.78Zm-12,2.94c-3.44,.88-6.88,1.8-10.35,2.68-1.11-1.3-2.22-2.59-3.32-3.89,1.55-.43,3.08-.85,4.59-1.21,1.93-.46,3.87-.93,5.8-1.4,1.09,1.27,2.18,2.54,3.28,3.82Zm-2.99,2.98c1.53-.37,3.06-.74,4.6-1.12,.57,.66,1.14,1.32,1.7,1.98,.77,.9,1.53,1.84,2.3,2.77-3.45,.84-6.9,1.67-10.35,2.51-1.36-1.55-2.73-3.09-4.08-4.65,1.95-.51,3.89-1.03,5.83-1.49Zm10.14,5.49c1.26,1.54,2.53,3.08,3.82,4.6-3.29,.85-6.6,1.7-9.9,2.51-1.39-1.51-2.77-3.05-4.14-4.59,3.41-.84,6.82-1.68,10.23-2.53Zm2.4-.59c3.14-.77,6.28-1.55,9.43-2.33,1.25,1.53,2.51,3.06,3.77,4.59-1.32,.32-2.64,.64-3.96,.96-1.8,.43-3.6,.9-5.4,1.36-1.3-1.51-2.58-3.03-3.84-4.58Zm11.82-2.92c2.77-.68,5.53-1.36,8.3-2.03,1.3,1.52,2.6,3.05,3.88,4.6-2.79,.67-5.59,1.35-8.38,2.03-1.27-1.53-2.54-3.06-3.79-4.6Zm10.69-2.61c2.75-.67,5.5-1.34,8.25-2.01,1.25,1.55,2.49,3.1,3.72,4.65-2.7,.65-5.4,1.31-8.1,1.96-1.27-1.55-2.57-3.08-3.86-4.61Zm10.64-2.59c2.45-.6,4.9-1.19,7.34-1.79,1.18,1.57,2.37,3.14,3.58,4.7-2.41,.58-4.82,1.17-7.23,1.75-1.22-1.56-2.46-3.11-3.7-4.66Zm9.73-2.37c2.62-.64,5.24-1.28,7.86-1.91,1.21,1.57,2.41,3.14,3.62,4.7-2.62,.63-5.23,1.27-7.85,1.9-1.23-1.55-2.44-3.12-3.62-4.69Zm10.22-2.49c2.98-.72,5.96-1.45,8.95-2.16,1.27,1.55,2.54,3.1,3.77,4.67-3.03,.73-6.07,1.47-9.1,2.2-1.2-1.57-2.41-3.14-3.62-4.71Zm11.34-2.74c2.74-.66,5.48-1.32,8.22-1.98,1.41,1.52,2.81,3.03,4.2,4.56-2.89,.7-5.78,1.4-8.68,2.1-1.23-1.57-2.48-3.12-3.74-4.68Zm10.7-2.58c2.71-.65,5.42-1.31,8.13-1.96,1.31,1.54,2.63,3.08,3.94,4.62-2.63,.64-5.26,1.27-7.88,1.91-1.38-1.53-2.78-3.05-4.18-4.56Zm10.56-2.55c3.43-.83,6.87-1.66,10.3-2.49,1.46,1.51,2.91,3.02,4.39,4.5-3.58,.87-7.16,1.73-10.74,2.6-1.31-1.54-2.64-3.07-3.95-4.62Zm12.83-3.1c2.98-.72,5.95-1.44,8.93-2.15,1.4,1.53,2.81,3.04,4.23,4.53-2.91,.7-5.81,1.4-8.72,2.11-1.49-1.48-2.97-2.98-4.44-4.49Zm11.42-2.75c3.58-.86,7.17-1.73,10.75-2.59,1.51,1.5,3.04,2.97,4.59,4.42-3.69,.9-7.38,1.8-11.07,2.69-1.44-1.49-2.86-2.99-4.27-4.52Zm13.32-3.21c3.24-.78,6.48-1.56,9.71-2.34,1.5,1.47,3.01,2.94,4.5,4.42-3.2,.78-6.4,1.56-9.59,2.33-1.56-1.45-3.1-2.91-4.62-4.41Zm12.28-2.96c1.34-.33,2.69-.65,4.03-.97,1.46-.35,2.92-.73,4.39-1.11,1.65,1.44,3.3,2.89,4.95,4.34-2.96,.72-5.92,1.44-8.88,2.16-1.49-1.48-2.99-2.94-4.49-4.41Zm11.02-2.77c2.78-.74,5.57-1.5,8.36-2.22,2.06,1.46,4.1,2.92,6.14,4.39-1.82,.38-3.62,.77-5.38,1.2-1.38,.34-2.75,.67-4.13,1-1.66-1.46-3.32-2.93-4.99-4.39Zm2.1-2.7c-1.35,.33-2.71,.66-4.06,.98-1.7-1.49-3.39-2.99-5.08-4.48,2.45-.59,4.9-1.2,7.34-1.79,1.95,1.43,3.92,2.84,5.89,4.24-1.37,.36-2.74,.72-4.1,1.05Zm-11.13-5.28c-1.32-1.17-2.65-2.33-3.95-3.52,2.15-.57,4.3-1.13,6.46-1.67,1.49,1.17,2.99,2.33,4.52,3.46-2.34,.58-4.68,1.15-7.02,1.72Zm-2.63,.65c-2.6,.64-5.2,1.28-7.8,1.92-1.23-1.18-2.45-2.36-3.69-3.53,1.15-.28,2.3-.56,3.45-.83,1.38-.33,2.76-.7,4.15-1.06,1.29,1.18,2.59,2.34,3.89,3.5Zm-10.37,2.55c-3.17,.78-6.34,1.56-9.51,2.33-1.22-1.2-2.44-2.39-3.68-3.58,3.16-.76,6.32-1.53,9.49-2.29,1.24,1.17,2.47,2.36,3.7,3.54Zm-12.07,2.95c-3.36,.82-6.72,1.63-10.08,2.45-1.12-1.23-2.24-2.45-3.37-3.67,3.25-.78,6.5-1.57,9.75-2.35,1.25,1.18,2.48,2.37,3.7,3.57Zm-12.55,3.05c-3.08,.75-6.17,1.5-9.25,2.25-1.14-1.22-2.3-2.44-3.43-3.67,3.1-.75,6.2-1.5,9.3-2.25,1.14,1.21,2.26,2.44,3.38,3.67Zm-11.75,2.86c-3.19,.77-6.37,1.55-9.55,2.32-1.01-1.25-2.03-2.51-3.06-3.78,3.06-.74,6.12-1.48,9.18-2.22,1.13,1.23,2.29,2.45,3.43,3.68Zm-11.95,2.91c-2.9,.7-5.8,1.4-8.7,2.1-1.12-1.23-2.21-2.47-3.29-3.73,2.97-.72,5.95-1.44,8.92-2.16,1.03,1.26,2.05,2.53,3.07,3.78Zm-11.15,2.7c-2.53,.61-5.06,1.22-7.59,1.84-1.06-1.25-2.12-2.51-3.19-3.76,2.51-.61,5.01-1.21,7.52-1.82,1.07,1.26,2.16,2.5,3.27,3.74Zm-10.02,2.42c-2.8,.68-5.6,1.36-8.41,2.03-.93-1.28-1.87-2.57-2.81-3.85,2.67-.65,5.35-1.29,8.02-1.94,1.07,1.24,2.13,2.51,3.2,3.76Zm-19.59-8.44c1.57,1.64,3.05,3.4,4.47,5.25-2.74,.66-5.48,1.32-8.22,1.98-1.42-1.8-2.86-3.59-4.27-5.4,2.67-.61,5.34-1.22,8.02-1.83Zm-10.42,2.38c1.42,1.82,2.86,3.62,4.29,5.42-2.66,.64-5.32,1.28-7.98,1.93-1.62-1.83-3.28-3.61-4.93-5.37,2.88-.66,5.75-1.32,8.63-1.98Zm-11.13,2.55c1.67,1.76,3.32,3.57,4.96,5.4-2.57,.62-5.14,1.24-7.71,1.86-1.54-1.92-3.12-3.79-4.8-5.53,2.52-.58,5.03-1.15,7.55-1.73Zm-10.14,2.32c1.74,1.72,3.37,3.59,4.94,5.53-2.89,.7-5.77,1.39-8.66,2.09-1.65-1.9-3.33-3.77-5.04-5.61,2.92-.67,5.84-1.34,8.76-2Zm-11.27,2.58c1.74,1.84,3.43,3.72,5.1,5.63-3.2,.77-6.4,1.55-9.6,2.32-1.64-1.92-3.24-3.86-4.83-5.81,3.11-.71,6.22-1.43,9.33-2.14Zm-11.76,2.69c1.59,1.97,3.21,3.91,4.85,5.84-.17,.04-.33,.08-.5,.12-2.98,.72-6.38,1.69-9.79,2.63-1.73-2.05-3.43-4.11-5.14-6.16,3.53-.81,7.06-1.62,10.58-2.42Zm-22.58,5.17c3.19-.73,6.37-1.46,9.56-2.19,1.73,2.08,3.46,4.16,5.2,6.24-3.41,.9-6.72,1.65-9.54,1.97-1.76-1.99-3.49-4.01-5.22-6.02Zm7.02,8.03c3.07-.49,6.19-1.32,9.26-2.18,1.08,1.28,2.17,2.54,3.25,3.82-3.09,.76-6.18,1.46-9.28,1.98-1.08-1.2-2.16-2.41-3.23-3.62Zm4.96,5.56c3.05-.57,6.08-1.3,9.11-2.09,1.33,1.55,2.67,3.09,4.02,4.62-2.95,.72-5.9,1.44-8.85,2.17-1.43-1.57-2.86-3.13-4.28-4.7Zm6,6.58c2.93-.73,5.87-1.44,8.8-2.17,1.36,1.53,2.71,3.08,4.09,4.59-2.96,.7-5.93,1.36-8.91,1.91-1.33-1.44-2.65-2.88-3.98-4.32Zm9.34,10.1c-1.19-1.27-2.38-2.56-3.57-3.84,3.01-.56,6.01-1.17,9.01-1.82,.99,1.07,1.99,2.13,3,3.19-2.86,.73-5.68,1.54-8.44,2.47Zm10.92-3.09c-.98-1.03-1.95-2.07-2.93-3.12,3.31-.74,6.62-1.5,9.92-2.31,.96,1.09,1.96,2.13,2.97,3.16-3.32,.73-6.66,1.47-9.96,2.27Zm19.21-4.4c-2.2,.54-4.43,1.05-6.68,1.56-1.05-1.03-2.09-2.09-3.09-3.2,3.09-.77,6.18-1.55,9.26-2.35,.96,1.14,1.93,2.27,2.9,3.4-.8,.2-1.59,.39-2.39,.59Zm4.82-1.19c-.99-1.13-1.97-2.27-2.94-3.42,2.74-.71,5.48-1.43,8.21-2.14,.93,1.18,1.83,2.38,2.68,3.6-2.65,.66-5.3,1.31-7.95,1.96Zm10.25-2.53c-.83-1.24-1.72-2.44-2.65-3.64,2.67-.69,5.34-1.38,8-2.05,.95,1.22,1.91,2.44,2.85,3.66-2.73,.67-5.47,1.35-8.2,2.02Zm10.56-2.6c-.94-1.22-1.9-2.44-2.85-3.66,1.39-.35,2.79-.7,4.18-1.04,1.02-.25,2.04-.5,3.06-.74,1.01,1.24,2.04,2.44,3.1,3.59-2.5,.62-5,1.23-7.5,1.85Zm10.06-2.48c-1.11-1.14-2.18-2.32-3.22-3.55,2.59-.63,5.18-1.26,7.78-1.89,.93,1.21,1.87,2.41,2.79,3.63-2.45,.6-4.9,1.21-7.35,1.81Zm9.7-2.39c-.92-1.21-1.86-2.41-2.78-3.62,3.03-.73,6.06-1.47,9.09-2.2,.92,1.19,1.84,2.39,2.74,3.59-3.02,.74-6.03,1.49-9.04,2.23Zm19.88-4.9c-2.83,.7-5.65,1.4-8.48,2.09-.89-1.2-1.81-2.39-2.73-3.59,2.97-.72,5.93-1.44,8.9-2.16,1.03,1.15,2.03,2.31,3.03,3.47l-.72,.18Zm3.15-.77c-.98-1.17-1.97-2.33-2.99-3.47,2.61-.63,5.21-1.26,7.81-1.89,.99,1.15,1.97,2.3,2.97,3.45-2.6,.64-5.2,1.28-7.79,1.92Zm10.22-2.52c-1-1.14-1.98-2.29-2.96-3.44,3.67-.89,7.33-1.78,11-2.67,1.13,1.11,2.26,2.2,3.4,3.29-3.81,.94-7.63,1.88-11.44,2.82Zm14.01-3.45c-1.14-1.08-2.27-2.18-3.4-3.28,2.88-.7,5.76-1.39,8.64-2.09,1.09,1.11,2.19,2.2,3.31,3.27-2.85,.7-5.7,1.4-8.55,2.11Zm11.13-2.74c-1.14-1.07-2.26-2.15-3.36-3.25,3.74-.91,7.48-1.81,11.22-2.72,1.18,1.07,2.38,2.12,3.59,3.15-3.82,.94-7.64,1.88-11.46,2.82Zm14.12-3.47c-1.23-1.02-2.45-2.06-3.64-3.13,3.16-.77,6.33-1.53,9.49-2.3,1.08,1.07,2.16,2.14,3.24,3.21-3.03,.74-6.06,1.48-9.09,2.22Zm11.64-2.84c-1.08-1.07-2.15-2.14-3.23-3.21,1.05-.26,2.1-.51,3.15-.76,1.97-.48,3.97-.92,5.99-1.35,1.14,1.01,2.28,2.03,3.42,3.04-3.11,.76-6.22,1.52-9.33,2.28Zm11.97-2.93c-1.11-1-2.23-1.99-3.35-2.98,3.33-.7,6.69-1.4,10.01-2.19,1.19,.88,2.36,1.78,3.52,2.68-3.4,.83-6.79,1.66-10.19,2.49Zm21.88-5.35c-2.98,.72-5.96,1.46-8.94,2.18-1.16-.91-2.33-1.81-3.51-2.7,2.69-.7,5.33-1.47,7.9-2.38,1.52,.97,3.03,1.94,4.55,2.9Zm-7.03-4.48c-2.61,.8-5.29,1.48-8,2.06-2.06-1.5-4.13-3-6.22-4.48,2.6-.63,5.21-1.2,7.81-1.66,2.13,1.37,4.27,2.72,6.4,4.08Zm-9.1-5.8c-2.44,.54-4.88,1.18-7.3,1.83-1.96-1.39-3.91-2.79-5.85-4.19,2.33-.57,4.66-1.13,6.98-1.7,2.06,1.35,4.11,2.72,6.18,4.06Zm-8.72-5.74c-2.27,.56-4.53,1.11-6.8,1.67-1.54-1.13-3.06-2.28-4.56-3.45,2.2-.52,4.4-.99,6.6-1.37,1.59,1.05,3.17,2.1,4.76,3.15Zm-12.69-8.39c1.75,1.18,3.52,2.32,5.27,3.48-2.04,.42-4.07,.88-6.1,1.4-1.57-1.26-3.1-2.55-4.6-3.87,1.81-.34,3.62-.7,5.43-1.02Zm-8.22,1.54c1.53,1.38,3.1,2.73,4.71,4.04-2.09,.55-4.17,1.09-6.24,1.61-1.58-1.45-3.15-2.92-4.71-4.41,2.08-.42,4.16-.84,6.25-1.24Zm-8.93,1.8c1.58,1.52,3.19,3,4.8,4.49-2.55,.61-5.09,1.23-7.64,1.85-1.67-1.57-3.36-3.11-5.06-4.65,2.63-.58,5.27-1.13,7.9-1.68Zm-10.56,2.27c1.71,1.55,3.41,3.12,5.1,4.69-3.15,.76-6.3,1.52-9.45,2.28-1.76-1.64-3.55-3.23-5.39-4.76,3.25-.75,6.5-1.49,9.75-2.21Zm-12.45,2.85c1.87,1.53,3.69,3.13,5.48,4.76-3.17,.77-6.35,1.53-9.52,2.3-1.59-1.68-3.22-3.33-4.87-4.95,2.97-.71,5.94-1.41,8.92-2.11Zm-11.49,2.74c1.68,1.61,3.32,3.26,4.92,4.93-3.01,.73-6.03,1.46-9.04,2.18-.07,.02-.13,.03-.2,.05-1.53-1.67-3.05-3.34-4.57-5.01,2.96-.72,5.92-1.44,8.89-2.15Zm-11.36,2.76c1.51,1.67,3.04,3.34,4.56,5.01-3.01,.73-6.03,1.45-9.04,2.18-1.45-1.74-2.94-3.43-4.5-5.01,2.99-.73,5.98-1.45,8.98-2.18Zm-11.54,2.8c1.61,1.55,3.15,3.23,4.63,4.97-2.98,.72-5.96,1.44-8.94,2.16-1.4-1.67-2.75-3.38-4.05-5.12,2.79-.66,5.58-1.34,8.37-2.01Zm-6.71,7.71c-2.52,.61-5.05,1.22-7.57,1.83-1.48-1.71-2.96-3.41-4.44-5.11,2.66-.61,5.32-1.24,7.99-1.87,1.29,1.75,2.63,3.46,4.02,5.14Z"/></g></g></svg>