<svg width="87" height="87" viewBox="0 0 87 87" fill="none" xmlns="http://www.w3.org/2000/svg">
<g clip-path="url(#clip0_447_556)">
<path d="M86.942 33.9005C86.9304 32.7395 86.9071 31.5823 86.8799 30.4212C86.8682 29.8464 86.8605 29.2795 86.7906 28.7203C87.0081 27.5981 86.9032 26.3554 86.911 25.2759C86.9265 23.5168 86.9615 21.7577 86.9731 19.9986C86.9809 18.4375 87.0042 16.8764 86.977 15.3154C86.9615 14.4455 86.9537 13.5718 86.9226 12.702C86.9149 12.5078 86.9148 12.302 86.9148 12.0923C86.9226 11.8593 86.9148 11.6263 86.8954 11.3933C86.876 11.1137 86.8372 10.838 86.7595 10.5817C86.6236 10.0225 86.3983 9.45947 86.0682 8.8964C84.8527 6.83051 82.74 5.37819 80.6506 4.30253C78.3943 3.14144 75.9748 2.33761 73.5126 1.73571C68.1805 0.430944 62.6036 -0.0932926 57.1161 0.0115547C55.92 0.0348541 54.7238 0.0931027 53.5316 0.194067C51.5976 0.287264 49.6635 0.438711 47.7412 0.660055C44.8091 0.997896 41.8925 1.4833 39.0342 2.24053C36.238 2.98223 33.2671 3.92974 30.9369 5.69661C29.1505 7.05186 27.7446 8.95464 27.6009 11.2535C27.5893 11.4088 27.5893 11.5642 27.5931 11.7195C27.5854 12.0069 27.5893 12.2903 27.5776 12.5544C27.5427 13.432 27.5349 14.3096 27.5194 15.1872C27.4922 16.791 27.5155 18.3948 27.5194 19.9986C27.5271 21.7072 27.566 23.4158 27.5776 25.1244C27.5854 26.1962 27.4766 27.435 27.6669 28.565C27.5116 29.6096 27.5815 30.7279 27.566 31.7492C27.5427 33.1783 27.531 37.9158 27.5038 41.2243C27.2825 40.7855 27.0261 40.4011 26.7116 40.1836C26.1756 39.8069 25.3368 39.873 24.696 39.8458C24.1368 39.8225 23.5736 39.8147 23.0144 39.8225C22.4124 39.8264 21.659 39.7642 21.1153 40.0827C20.1367 40.6535 19.7794 42.1679 19.3833 43.1426C18.9483 44.2144 18.4861 45.2745 18.0861 46.3618C17.2279 46.5638 16.3968 46.8938 15.5968 47.2628C14.7424 46.8628 13.8686 46.5249 12.9986 46.1677C12.086 45.7949 11.1578 45.2862 10.1947 45.0493C9.00244 44.7581 8.32281 45.3755 7.51503 46.1677C6.91696 46.7541 6.35772 47.3676 5.79849 47.9889C5.13828 48.719 5.02177 49.3015 5.35964 50.2334C5.48003 50.5674 5.59654 50.9052 5.71305 51.2392C5.9616 51.9459 6.20626 52.6488 6.45481 53.3555C6.55967 53.6584 6.66453 53.9652 6.77327 54.2681C6.80045 54.338 6.87812 54.5555 6.92084 54.6681C6.73443 54.9671 6.60627 55.3166 6.46646 55.6583C6.23733 56.2291 6.0315 56.8349 5.96548 57.4524C5.94606 57.4601 5.92665 57.464 5.90723 57.4718C4.68002 58.0348 3.49941 58.7028 2.29938 59.3241C1.7984 59.5843 1.21198 59.825 0.7809 60.1939C-0.267667 61.091 0.0313689 62.8462 0.0740883 64.081C0.101273 64.881 0.000300271 65.9605 0.625557 66.5469C1.02168 66.9236 1.70908 67.1605 2.20229 67.4129C2.95959 67.8012 3.72077 68.1895 4.47807 68.5817C4.79264 68.7409 5.10333 68.904 5.4179 69.0632C5.42955 69.0671 5.44897 69.0788 5.46838 69.0904C5.61208 70.1738 6.0781 71.1641 6.59462 72.1232C6.61792 72.1659 6.64511 72.2087 6.67618 72.2436C6.30335 73.3387 6.00043 74.4609 5.66256 75.5677C5.49557 76.1152 5.2509 76.7132 5.20818 77.2879C5.10333 78.6393 6.48976 79.6217 7.37522 80.4566C7.91504 80.9654 8.6102 81.7925 9.37138 81.8779C9.95392 81.9439 10.6141 81.6177 11.1772 81.4546C12.3773 81.1013 13.5734 80.7401 14.7696 80.3867C15.1851 80.6586 15.7366 80.8256 16.1987 80.9653C16.6492 81.1051 17.0997 81.2178 17.5619 81.2915C17.9852 82.0876 18.4473 82.8604 18.8978 83.6448C19.4027 84.5263 19.8959 85.8039 20.6687 86.4912C21.4765 87.2096 22.96 86.9766 23.9581 86.9533C24.5873 86.9378 25.4455 86.996 26.063 86.829C27.1077 86.5417 27.5349 84.969 27.9504 84.0797C28.2922 83.3458 28.6301 82.6118 28.9718 81.8779C29.0922 81.6216 29.2126 81.3653 29.3291 81.109C29.3641 81.0314 29.4844 80.7634 29.5233 80.6663C30.1641 80.4916 30.7738 80.1965 31.3719 79.9013C31.4146 79.9246 31.4612 79.9479 31.5117 79.9674C31.1816 79.8509 31.6398 80.0217 31.7563 80.0644C31.9894 80.1538 32.2301 80.2314 32.467 80.313C33.1622 80.5576 33.8612 80.7984 34.5564 81.043C35.4186 81.3459 36.9293 82.1575 37.8575 81.9828C38.5021 81.8624 39.0419 81.2333 39.5157 80.7984C39.9274 80.4178 40.3313 80.0256 40.7235 79.6256C41.143 79.1985 41.7177 78.7131 41.8808 78.1073C42.1721 77.02 41.3643 75.6997 40.9604 74.7366C40.5604 73.7775 40.1837 72.8106 39.7604 71.8592C39.7721 71.8398 39.7837 71.8242 39.7954 71.8048C40.2109 71.001 40.5216 70.1583 40.6653 69.2729C40.7468 69.2341 40.8711 69.172 40.9216 69.1487C41.1391 69.0438 41.3488 68.9273 41.5624 68.8186C41.5935 68.8031 41.6284 68.7836 41.6595 68.7681C42.3663 69.9797 49.8461 70.7524 49.8461 70.7524C49.8461 70.7524 49.8694 70.733 49.9082 70.6981C55.6054 71.3155 61.3415 71.2145 67.0309 70.4379C70.1455 70.0146 73.233 69.405 76.27 68.5856C77.5205 68.2478 78.7166 67.7779 79.8972 67.2498C80.9691 66.7682 82.1031 66.279 83.0546 65.5877C85.2915 63.9684 87.1129 61.588 86.9032 58.7649C86.9032 58.5397 86.9032 58.3183 86.9032 58.1047C86.9071 57.2077 86.9148 56.3146 86.9187 55.4176C86.9343 53.1769 86.9498 50.9402 86.9692 48.6996C87.0081 43.7678 86.9925 38.8361 86.9382 33.9083L86.942 33.9005Z" fill="white"/>
<path d="M48.3156 5.87152V6.09286C48.3739 6.08121 48.4322 6.06956 48.4904 6.06568C48.5836 6.08898 48.77 6.03461 48.8632 6.02685C49.1195 6.00355 49.3797 5.9919 49.6361 5.98025C50.172 5.95695 50.7041 5.92588 51.24 5.86375C52.809 5.68901 54.3779 5.59969 55.9585 5.57251C59.3994 5.51814 62.8635 5.72784 66.2694 6.21324C69.2482 6.63652 72.4832 7.20735 75.0891 8.78394C75.893 9.26935 77.0153 10.0809 76.9143 11.1566C76.794 12.4381 75.159 13.3739 74.1259 13.7933C70.8443 15.1253 67.2947 15.5447 63.784 15.8048C59.8538 16.1 55.8809 16.1077 51.9507 15.8048C48.3545 15.5291 44.6534 15.0243 41.2436 13.7933C40.0863 13.3739 38.6611 12.8303 37.9154 11.7896C37.0416 10.5663 37.962 9.37808 39.0261 8.6791C40.6145 7.63839 42.6378 7.21123 44.4748 6.83844C46.4942 6.42682 48.537 6.17053 50.5875 5.99966C54.7663 5.65017 58.9256 5.71619 63.1121 5.75502C63.5781 5.7589 63.5587 5.09099 63.1121 5.04439C58.9411 4.59393 54.6187 4.78421 50.4477 5.14147C48.4671 5.31233 46.4904 5.56086 44.5369 5.94142C42.665 6.30644 40.6883 6.74525 39.0067 7.67722C37.9232 8.27912 36.7698 9.25382 36.6843 10.5858C36.6028 11.8595 37.5348 12.8536 38.5368 13.4982C41.4068 15.3427 45.2127 15.9369 48.5215 16.3873C53.0614 17.0048 57.6867 17.1096 62.2616 16.8572C66.1762 16.6397 70.2657 16.2825 73.9512 14.8612C75.9007 14.1079 78.9571 12.1546 77.427 9.69262C76.6852 8.50047 75.2755 7.78207 74.0327 7.25395C72.4443 6.57827 70.7666 6.13946 69.0773 5.80939C64.9879 5.00944 60.7742 4.72208 56.611 4.81139C54.6342 4.85411 52.6653 5.00556 50.7157 5.32398C50.304 5.39 48.0593 5.48708 48.0166 5.99578C48.0127 6.05015 48.0516 6.1084 48.0982 6.13558C48.1448 6.15888 48.1758 6.17053 48.2302 6.18218C48.4283 6.22489 48.5059 5.94142 48.3118 5.87928L48.3156 5.87152Z" fill="#231F20"/>
<path d="M40.0358 10.7489C42.5951 9.42473 45.4729 8.99758 48.3001 8.6442C51.1973 8.28306 54.1177 8.11997 57.0343 8.11997C62.5878 8.11997 68.2889 8.62479 73.6016 10.314C73.9007 10.4111 74.0288 9.93732 73.7298 9.84412C68.285 8.10443 62.4247 7.61903 56.7391 7.66951C53.7099 7.69669 50.6807 7.9025 47.6826 8.31801C45.1039 8.67527 42.1058 9.01311 39.9426 10.5936C39.8494 10.6596 39.9271 10.8033 40.032 10.7489H40.0358Z" fill="#231F20"/>
<path d="M31.1386 20.0531C31.0376 22.5966 31.0531 25.1596 31.0415 27.707C31.0415 27.9594 31.4259 27.9594 31.4337 27.707C31.5192 25.1712 31.5075 22.5811 31.259 20.0531C31.2512 19.9755 31.1386 19.9716 31.1386 20.0531Z" fill="#231F20"/>
<path d="M66.7743 34.2658C69.7453 34.6308 72.9104 33.563 75.7337 32.763C77.8115 32.1728 80.7513 31.4116 81.963 29.4273C82.029 29.3186 81.8892 29.1555 81.7766 29.2409C80.8562 29.9399 80.0406 30.6622 78.9882 31.167C77.8309 31.7184 76.5959 32.0834 75.3648 32.4329C74.0288 32.8135 72.6929 33.194 71.3375 33.4969C69.8268 33.8309 68.3083 33.9629 66.7743 34.1299C66.6889 34.1377 66.6889 34.2542 66.7743 34.2619V34.2658Z" fill="#231F20"/>
<path d="M68.9918 49.7444C71.3958 49.7211 73.8114 49.2551 76.1104 48.5794C77.8775 48.0591 80.1455 47.4611 81.1902 45.799C81.2872 45.6476 81.0698 45.4884 80.9455 45.6088C79.3959 47.0999 77.4309 47.764 75.3997 48.3426C73.291 48.9445 71.1433 49.294 68.9763 49.6163C68.9025 49.6279 68.9219 49.7483 68.9957 49.7483L68.9918 49.7444Z" fill="#231F20"/>
<path d="M72.7278 65.1842C74.3395 65.1027 75.9396 64.5512 77.4076 63.9105C78.9455 63.2387 80.5144 62.3728 81.7144 61.1806C81.8193 61.0796 81.6834 60.8971 81.5552 60.9748C80.2037 61.833 78.9183 62.7417 77.458 63.4212C75.9201 64.1357 74.3162 64.5241 72.7045 65.0172C72.6152 65.0444 72.6269 65.1881 72.7278 65.1842Z" fill="#231F20"/>
<path d="M16.0586 76.0223C10.4585 73.2924 8.1827 65.9375 9.69342 60.1865C10.4934 57.1381 12.21 54.4238 14.843 52.6491C17.515 50.8512 20.8005 49.8415 24.0238 49.9231C30.1444 50.0823 35.6163 55.0062 36.8824 60.9088C38.3038 67.5336 34.4202 74.2826 28.0783 76.531C24.2802 77.8785 19.8451 77.8125 16.2217 75.9641C13.0605 74.3486 10.4235 70.9741 9.6507 67.5025C9.55361 67.0753 8.90505 67.2578 8.99437 67.685C9.66623 70.8615 11.9459 73.9758 14.5984 75.8087C17.6819 77.9406 21.7209 78.5037 25.3637 77.9406C28.9754 77.3853 32.4396 75.6107 34.7425 72.7371C36.8125 70.1586 37.9348 66.8656 37.9465 63.5649C37.9698 56.9828 33.0143 50.9327 26.6375 49.4105C20.0898 47.8455 12.4508 51.4104 9.74002 57.5925C6.83899 64.2095 8.9633 73.1992 15.8683 76.3446C16.0819 76.4417 16.2722 76.131 16.0547 76.0223H16.0586Z" fill="#231F20"/>
<path d="M44.5059 2.12428C44.5796 2.15535 44.4592 2.49707 44.5758 2.55532C44.6029 2.57086 44.6884 2.52037 44.7194 2.52426C44.867 2.54367 45.0651 2.46989 45.2127 2.45048C45.6399 2.39611 46.0709 2.37281 46.4981 2.34563C47.2671 2.29903 48.036 2.22913 48.7972 2.11652C51.1662 1.76703 53.5352 1.5884 55.9275 1.55345C60.9528 1.47967 66.0325 1.93401 70.9569 2.94753C75.3027 3.84067 80.2931 5.19592 83.4659 8.48891C84.5378 9.60339 85.3456 11.0751 85.0582 12.6634C84.7203 14.5351 83.0698 16.2709 81.4814 17.1835C76.9648 19.7736 71.7841 20.6784 66.6617 21.2065C60.7509 21.8162 54.7236 21.8317 48.8205 21.156C43.7058 20.5697 38.2805 19.4979 33.7173 17.0126C32.0667 16.1156 30.2919 14.9273 29.6007 13.0944C28.9366 11.3431 29.5579 9.50631 30.7774 8.1666C32.4901 6.291 34.9911 5.30854 37.3523 4.54354C39.9388 3.70864 42.6107 3.13004 45.2942 2.7223C50.7002 1.89906 56.2304 1.65441 61.6907 1.80974C63.0111 1.84857 64.3315 1.87964 65.6558 1.89517C66.4326 1.90682 66.6578 0.613705 65.8461 0.497208C62.8985 0.0700517 59.9159 0.0389859 56.9372 0.0855847C53.8653 0.132184 50.7934 0.306929 47.7409 0.65642C44.8088 0.994262 41.8922 1.47967 39.0339 2.2369C36.2377 2.9786 33.2668 3.9261 30.9366 5.69298C29.1502 7.04823 27.7443 8.95101 27.6006 11.2499C27.4647 13.4206 28.6375 15.4399 30.2531 16.8068C34.2338 20.1774 39.8999 21.5909 44.9136 22.4763C51.4147 23.6219 58.1256 23.8083 64.7005 23.284C70.5453 22.818 76.5765 21.9482 81.796 19.1406C85.4427 17.1796 88.468 12.9507 86.0796 8.88888C84.864 6.823 82.7514 5.37067 80.662 4.29501C78.4056 3.13392 75.9862 2.33009 73.524 1.72819C68.1802 0.431193 62.6033 -0.0930441 57.1158 0.0118032C54.4478 0.0622853 51.7759 0.287513 49.1506 0.765151C48.2496 0.928247 47.3486 1.14182 46.4554 1.3554C45.7874 1.51462 44.8282 1.58063 44.2418 1.96507C43.8845 2.19806 43.8884 2.60969 44.3389 2.73007C44.7389 2.83492 44.867 2.27573 44.5059 2.12428Z" fill="#231F20"/>
<path d="M52.6808 37.1899C47.7991 36.8987 42.8825 36.223 38.2339 34.6658C34.8629 33.5358 30.0745 31.7224 29.3443 27.7615C29.1424 26.6586 27.4958 27.1363 27.6744 28.2236C28.3968 32.5961 33.3289 34.7707 37.0338 36.0949C42.0437 37.8812 47.3875 38.7394 52.6769 39.085C53.8925 39.1626 53.8886 37.2676 52.6769 37.1938L52.6808 37.1899Z" fill="#231F20"/>
<path d="M85.0932 28.5613C84.3863 31.1592 82.0679 32.7086 79.7843 33.8114C77.2949 35.0191 74.6386 35.6598 71.9278 36.1608C65.551 37.3413 59.1392 37.3918 52.6808 37.1976C51.4613 37.1626 51.5002 38.9645 52.6808 39.0654C58.0751 39.5392 63.617 39.2324 68.9724 38.5101C73.656 37.8772 78.1882 36.8675 82.3203 34.4987C84.332 33.3454 86.165 31.2912 86.732 29.0117C86.9961 27.9516 85.3805 27.5012 85.0932 28.5613Z" fill="#231F20"/>
<path d="M85.0854 58.7613C85.431 61.064 83.365 63.3008 81.5086 64.3725C79.5785 65.4909 77.4813 66.3297 75.326 66.8927C69.7996 68.3373 64.1102 69.1178 58.3935 69.2033C55.4809 69.246 52.5643 69.1101 49.671 68.7606C49.2982 68.714 48.9254 68.6674 48.5525 68.6169C47.3486 68.4499 46.8282 70.2945 48.0438 70.4614C54.3546 71.3235 60.7237 71.2847 67.0345 70.4265C70.1491 70.0032 73.2366 69.3936 76.2736 68.5742C77.5241 68.2363 78.7202 67.7665 79.9008 67.2384C80.9727 66.7568 82.1067 66.2675 83.0582 65.5763C85.4194 63.8677 87.3223 61.3087 86.8563 58.2681C86.6777 57.1031 84.9106 57.6002 85.0854 58.7574V58.7613Z" fill="#231F20"/>
<path d="M85.0815 42.6148C85.4388 44.9797 83.2679 47.2514 81.3533 48.3115C79.2251 49.4921 77.0037 50.3308 74.6502 50.925C68.7122 52.42 62.615 53.2005 56.4906 53.1306C53.007 53.0918 49.504 52.8045 46.0826 52.1288C44.8748 51.888 44.3699 53.7636 45.5738 53.9733C52.2652 55.1344 59.0188 55.3208 65.7646 54.482C69.085 54.0665 72.3783 53.4491 75.6172 52.6064C78.06 51.9696 80.6154 51.0298 82.7475 49.6513C85.2718 48.0164 87.3301 45.2477 86.8524 42.1333C86.6738 40.9683 84.9067 41.4654 85.0815 42.6226V42.6148Z" fill="#231F20"/>
<path d="M86.0019 10.0345C85.5475 10.6908 85.6136 11.6344 85.567 12.4033C85.5165 13.2421 85.4776 14.0809 85.4349 14.9196C85.3534 16.4457 85.2951 17.9757 85.233 19.5057C85.1708 21.0784 85.1398 22.6512 85.1165 24.2239C85.0893 26.0529 85.2446 27.843 84.5999 29.575C84.3048 30.3671 85.5165 31.0972 86.0563 30.4215C87.1709 29.0235 86.9029 26.9499 86.9146 25.2723C86.9301 23.5132 86.965 21.7541 86.9767 19.995C86.9845 18.434 87.0078 16.8729 86.9806 15.3118C86.965 14.442 86.9573 13.5683 86.9262 12.6984C86.899 11.8519 87.0078 10.7607 86.5146 10.0306C86.3825 9.83648 86.1301 9.84036 86.0019 10.0306V10.0345Z" fill="#231F20"/>
<path d="M85.9708 27.5984C85.3883 29.2487 85.5553 31.2486 85.5048 32.9805C85.4388 35.291 85.365 37.6055 85.3184 39.916C85.2291 44.6768 85.1631 49.4377 85.1165 54.1985C85.1048 55.2509 85.097 56.2993 85.0893 57.3517C85.0776 58.6914 85.1126 59.9457 84.5961 61.2078C84.1883 62.1941 85.6524 62.598 86.1883 61.8796C86.9728 60.8272 86.899 59.3477 86.9068 58.1012C86.9107 57.2041 86.9184 56.311 86.9223 55.414C86.9379 53.1733 86.9534 50.9366 86.9728 48.696C87.0117 43.7643 86.9961 38.8326 86.9417 33.9047C86.9301 32.7436 86.9068 31.5864 86.8796 30.4254C86.8602 29.4623 86.8563 28.5148 86.5417 27.5984C86.4446 27.3149 86.0679 27.3188 85.967 27.5984H85.9708Z" fill="#231F20"/>
<path d="M27.9773 10.0345C27.5074 10.7335 27.6045 11.7432 27.5734 12.5509C27.5385 13.4285 27.5307 14.3061 27.5152 15.1837C27.488 16.7875 27.5113 18.3913 27.5152 19.995C27.5229 21.7037 27.5618 23.4123 27.5734 25.1209C27.589 26.8373 27.2899 28.9925 28.4317 30.4215C28.9676 31.0933 30.1832 30.3672 29.8881 29.575C29.2589 27.8858 29.3987 26.1539 29.3715 24.3715C29.3482 22.7483 29.3172 21.129 29.2511 19.5058C29.1929 18.0224 29.1346 16.5351 29.057 15.0517C29.0142 14.2168 28.9754 13.3858 28.9249 12.5509C28.8744 11.7471 28.956 10.718 28.4822 10.0345C28.3502 9.84427 28.0977 9.84039 27.9696 10.0345H27.9773Z" fill="#231F20"/>
<path d="M27.9463 27.4353C27.4414 28.7556 27.5851 30.3477 27.5657 31.7457C27.5346 33.7416 27.5191 42.1954 27.4647 44.1914C27.4336 45.3137 29.2589 46.8437 29.2084 45.7214C29.1152 43.7254 29.057 33.7416 28.9793 31.7457C28.9249 30.3438 29.0414 28.7517 28.521 27.4353C28.4123 27.1557 28.055 27.1518 27.9463 27.4353Z" fill="#231F20"/>
<path d="M18.68 71.4788C15.3401 69.7119 14.0003 65.0054 14.9363 61.5455C16.0081 57.5807 19.7286 55.1692 23.7869 55.2973C27.5851 55.4177 30.8745 58.5282 31.6085 62.1784C32.424 66.2092 29.9696 70.2866 26.121 71.6108C23.853 72.3914 21.2393 72.3797 19.0529 71.3312C16.9946 70.3449 15.3634 68.2363 14.8275 66.0306C14.6217 65.1763 13.3362 65.5413 13.5149 66.3918C13.977 68.5935 15.5693 70.7487 17.4256 71.9953C19.5033 73.3893 22.1869 73.7699 24.6258 73.4088C29.4958 72.6904 33.1231 68.7761 33.3134 63.8327C33.4881 59.2272 30.0706 54.9362 25.6278 53.8373C21.1461 52.7266 15.8838 55.1498 13.9925 59.3825C12.9323 61.7552 12.8158 64.4074 13.612 66.8772C13.9809 68.0188 14.5207 69.1023 15.278 70.0381C16.0936 71.0439 17.1344 71.6186 18.3033 72.1195C18.7305 72.302 19.1111 71.7079 18.68 71.4788Z" fill="#231F20"/>
<path d="M17.3674 80.9074C17.8412 81.8393 18.381 82.7286 18.9014 83.6373C19.4063 84.5188 19.8995 85.7964 20.6723 86.4837C21.4801 87.2021 22.9636 86.9691 23.9656 86.9458C24.5947 86.9302 25.453 86.9885 26.0705 86.8215C27.1152 86.5342 27.5424 84.9615 27.9579 84.0722C28.2997 83.3383 28.6375 82.6043 28.9793 81.8704C29.0997 81.6141 29.2201 81.3578 29.3366 81.1015C29.3909 80.9811 29.655 80.387 29.4958 80.7365C29.888 79.8938 28.6336 79.1521 28.2375 80.0026C27.721 81.1132 27.1967 82.216 26.6802 83.3266C26.4511 83.8237 26.2181 84.3168 25.9889 84.8139C25.8064 85.2061 25.8103 85.3342 25.3831 85.3964C25.1074 85.4352 24.8161 85.4313 24.5365 85.4469C23.9229 85.474 23.3131 85.4857 22.6995 85.4779C22.1869 85.474 21.783 85.575 21.4413 85.1207C21.3714 85.0275 21.3364 84.9265 21.2743 84.8333C20.9752 84.3712 20.6956 83.8936 20.4043 83.4276C19.7519 82.3791 19.1383 81.3073 18.4392 80.2899C17.9926 79.6375 17.014 80.2006 17.3751 80.9112L17.3674 80.9074Z" fill="#231F20"/>
<path d="M19.0995 47.1388C19.6703 46.0087 20.1519 44.836 20.6723 43.6827C20.9286 43.1157 21.1655 42.541 21.4335 41.9818C21.6199 41.5974 21.7947 41.4149 22.2141 41.31C22.8898 41.1469 23.7947 41.2945 24.4899 41.3217C24.8355 41.3333 25.2006 41.3217 25.5384 41.3799C25.9695 41.4498 25.9579 41.5352 26.1404 41.9352C26.3695 42.44 26.5948 42.9449 26.8239 43.4458C27.3482 44.6069 27.8841 45.768 28.4045 46.9291C28.789 47.7834 30.0434 47.0417 29.6628 46.1951C29.8143 46.5291 29.6084 46.0553 29.5618 45.9466C29.4609 45.7136 29.356 45.4845 29.2511 45.2554C28.9443 44.5758 28.6414 43.8962 28.3346 43.2167C27.954 42.3701 27.5152 40.7392 26.719 40.1839C26.1831 39.8072 25.3443 39.8732 24.7035 39.846C24.1442 39.8227 23.5811 39.815 23.0219 39.8227C22.4199 39.8266 21.6665 39.7645 21.1228 40.0829C20.1441 40.6537 19.7869 42.1682 19.3907 43.1429C18.9169 44.3156 18.4004 45.4728 17.981 46.6689C17.748 47.3251 18.7927 47.7678 19.1072 47.1426L19.0995 47.1388Z" fill="#231F20"/>
<path d="M5.90693 57.4643C4.67584 58.0274 3.49911 58.6953 2.29908 59.3166C1.7981 59.5768 1.21168 59.8175 0.780603 60.1865C-0.267964 61.0835 0.0310714 62.8387 0.0737908 64.0736C0.100976 64.8735 2.72412e-06 65.9531 0.625259 66.5394C1.02138 66.9161 1.70878 67.153 2.20199 67.4054C2.95929 67.7937 3.72047 68.182 4.47777 68.5742C4.79234 68.7335 5.10303 68.8966 5.4176 69.0558C5.51469 69.1062 6.14383 69.4169 5.80596 69.2422C6.63704 69.6693 7.37492 68.415 6.53995 67.984C5.51469 67.4559 4.49331 66.92 3.46804 66.3919C3.03696 66.1705 2.60589 65.9414 2.17093 65.7239C1.76703 65.522 1.68548 65.557 1.61557 65.122C1.56509 64.8153 1.57674 64.4891 1.56509 64.1784C1.54178 63.5493 1.53013 62.9164 1.54178 62.2873C1.54955 61.6232 1.58062 61.4019 2.17093 61.033C2.59424 60.7689 3.04085 60.5359 3.47581 60.2913C4.49719 59.7049 5.54187 59.1613 6.53219 58.5283C7.21181 58.0934 6.62151 57.1381 5.91081 57.4643H5.90693Z" fill="#231F20"/>
<path d="M39.7252 59.0253C40.7582 59.534 41.8262 59.9534 42.8825 60.4117C43.3874 60.633 43.966 60.8155 44.4437 61.0873C44.902 61.3475 44.9447 61.6388 44.9602 62.128C44.9796 62.8115 44.9641 63.4988 44.9369 64.1784C44.9253 64.4813 44.933 64.7997 44.8864 65.1026C44.8204 65.5531 44.7544 65.5142 44.3389 65.7239C43.9233 65.9297 43.5155 66.1472 43.1039 66.3608C42.0553 66.9005 41.0106 67.452 39.9659 67.9878C39.131 68.415 39.8689 69.6732 40.6999 69.246C40.3931 69.4052 40.8164 69.1955 40.9291 69.1412C41.1465 69.0363 41.3563 68.9198 41.5699 68.8111C42.164 68.5043 42.7582 68.2014 43.3524 67.8946C44.1175 67.5024 45.6865 66.986 46.1408 66.2249C46.4476 65.7123 46.3894 64.9667 46.4166 64.3803C46.4632 63.3357 46.6535 61.9921 46.3039 60.9941C45.9117 59.8719 44.4942 59.5418 43.4961 59.1574C42.3971 58.7341 41.3174 58.2681 40.199 57.8992C39.5426 57.6817 39.096 58.7147 39.7252 59.0253Z" fill="#231F20"/>
<path d="M6.81958 71.8089C6.37685 73.0399 6.04674 74.3097 5.66227 75.5601C5.49527 76.1077 5.25061 76.7057 5.20789 77.2804C5.10303 78.6318 6.48947 79.6142 7.37493 80.4491C7.91475 80.9578 8.60991 81.7849 9.37109 81.8704C9.95363 81.9364 10.6138 81.6102 11.177 81.4471C12.4508 81.0743 13.7207 80.686 14.9906 80.3132C15.8877 80.0491 15.5071 78.6473 14.6023 78.9113C13.5343 79.2259 12.4624 79.5249 11.3906 79.8394C10.9556 79.9676 10.509 80.0802 10.0779 80.2239C9.66236 80.3598 9.56915 80.3986 9.20021 80.1074C8.92836 79.8899 8.67593 79.6375 8.41961 79.4006C7.973 78.9851 7.53416 78.558 7.11473 78.1153C6.69919 77.6726 6.65647 77.459 6.78462 76.8882C6.89725 76.3989 7.03706 75.9135 7.16133 75.4281C7.44483 74.3291 7.77105 73.2457 8.00019 72.1351C8.1633 71.3546 7.07978 71.0633 6.81181 71.8089H6.81958Z" fill="#231F20"/>
<path d="M31.8104 48.8046C33.0299 48.3891 34.2105 47.8804 35.4105 47.4106C36.0008 47.1814 36.5833 46.929 37.1775 46.7116C37.5892 46.5601 37.8533 46.5368 38.2377 46.7737C38.8009 47.1193 39.3096 47.8222 39.764 48.3076C40.0164 48.5794 40.2922 48.8474 40.5174 49.1425C40.8087 49.5269 40.7155 49.6085 40.5718 50.0123C40.3737 50.5521 40.1757 51.088 39.9815 51.6278C39.5349 52.8471 39.096 54.0703 38.6494 55.2896C38.3271 56.1711 39.7329 56.5517 40.0514 55.678C39.9271 56.0158 40.1135 55.5265 40.164 55.4061C40.2572 55.1693 40.3388 54.9324 40.4242 54.6955C40.6766 54.0043 40.933 53.317 41.1854 52.6257C41.4106 52.0161 41.6359 51.4025 41.8611 50.7929C42.0437 50.2997 42.3 49.791 42.2378 49.2551C42.1563 48.5522 41.5 47.9969 41.0378 47.496C40.3232 46.7193 39.3989 45.4262 38.3465 45.1311C37.2319 44.8204 35.8493 45.6981 34.8707 46.1252C33.6901 46.6417 32.4939 47.1115 31.3405 47.6785C30.7191 47.9853 31.1541 49.0299 31.8143 48.8046H31.8104Z" fill="#231F20"/>
<path d="M15.678 47.2942C14.8003 46.8786 13.8955 46.5292 12.9945 46.1602C12.0818 45.7875 11.1536 45.2788 10.1905 45.0419C8.99826 44.7506 8.31863 45.3681 7.51085 46.1602C6.91278 46.7466 6.35354 47.3602 5.7943 47.9815C5.1341 48.7115 5.01759 49.294 5.35546 50.226C5.47585 50.56 5.59236 50.8978 5.70887 51.2318C5.95741 51.9385 6.20208 52.6414 6.45063 53.3481C6.55549 53.651 6.66034 53.9578 6.76908 54.2607C6.81569 54.3849 7.02152 54.9519 6.90889 54.6296C7.2157 55.5072 8.62155 55.1305 8.31086 54.2413C7.91474 53.1074 7.53027 51.9696 7.13414 50.8357C6.99821 50.4512 6.76908 50.0085 6.69141 49.6047C6.5749 48.9678 7.62735 48.1523 8.03901 47.7252C8.47009 47.2786 9.12253 46.3466 9.79051 46.4593C9.96527 46.4864 10.1012 46.5525 10.2643 46.6107C10.8158 46.8126 11.3672 47.0223 11.9226 47.2243C13.0139 47.6242 14.0896 48.0669 15.1965 48.4164C15.8489 48.6222 16.311 47.5932 15.6703 47.2903L15.678 47.2942Z" fill="#231F20"/>
<path d="M38.3659 71.7235C38.7504 72.9156 39.2319 74.0767 39.6708 75.2495C39.8805 75.8087 40.1057 76.364 40.2999 76.9231C40.4436 77.3348 40.4747 77.6027 40.2378 77.991C39.8921 78.5541 39.1892 79.0628 38.7038 79.5172C38.4319 79.7696 38.164 80.0453 37.8688 80.2705C37.4843 80.5617 37.4028 80.4647 36.9989 80.3249C36.494 80.1462 35.9853 79.9715 35.4765 79.7967C34.2843 79.3812 33.0842 78.9774 31.892 78.5619C31.0065 78.2512 30.6259 79.6569 31.5036 79.9637C31.1735 79.8472 31.6318 80.0181 31.7483 80.0608C31.9813 80.1501 32.2221 80.2278 32.459 80.3093C33.1541 80.554 33.8532 80.7947 34.5483 81.0394C35.4105 81.3423 36.9212 82.1539 37.8494 81.9791C38.4941 81.8587 39.0339 81.2297 39.5077 80.7947C39.9193 80.4142 40.3232 80.022 40.7155 79.622C41.1349 79.1948 41.7097 78.7094 41.8728 78.1037C42.164 77.0163 41.3563 75.6999 40.9524 74.733C40.4669 73.5719 40.0203 72.3953 39.4805 71.2536C39.1815 70.6245 38.1407 71.0672 38.3543 71.7274L38.3659 71.7235Z" fill="#231F20"/>
<path d="M7.89532 71.5681C7.52638 70.6478 7.08366 69.677 6.95938 68.6867C6.83899 67.7392 5.37488 67.681 5.42925 68.6867C5.49915 69.9294 6.01567 71.04 6.59432 72.1156C6.96715 72.8107 8.19824 72.3292 7.89532 71.5681Z" fill="#231F20"/>
<path d="M17.9072 79.8899C17.0023 79.6375 16.1402 79.2764 15.2547 78.9774C14.4081 78.6939 14.0586 79.8627 14.6877 80.3248C15.111 80.6316 15.7091 80.8064 16.2023 80.9578C16.7033 81.1131 17.1965 81.2374 17.7169 81.3073C18.5402 81.416 18.6723 80.0996 17.9072 79.8899Z" fill="#231F20"/>
<path d="M31.356 78.4804C30.5055 78.7794 29.7133 79.2686 28.8317 79.4706C28.0006 79.6609 28.3579 80.8996 29.1812 80.7404C30.1211 80.5618 30.9988 80.0725 31.8531 79.6647C32.5095 79.3502 32.0473 78.2357 31.3522 78.4804H31.356Z" fill="#231F20"/>
<path d="M39.4921 68.6053C39.3096 69.4752 38.964 70.2868 38.5446 71.0634C38.0979 71.8906 39.3718 72.6284 39.8028 71.7974C40.296 70.846 40.6417 69.8441 40.7349 68.7723C40.797 68.0656 39.6397 67.9102 39.4921 68.6053Z" fill="#231F20"/>
<path d="M38.7737 55.1887C38.4203 55.5459 38.6688 56.1789 38.7892 56.5983C38.9679 57.2313 39.1815 57.8603 39.3989 58.4855C39.6863 59.3127 41.0145 58.9438 40.7116 58.1244C40.5757 57.7594 39.5154 54.4431 38.7737 55.1887Z" fill="#231F20"/>
<path d="M28.5676 47.2786C29.4686 47.8106 30.4589 48.1795 31.3444 48.7426C32.0279 49.1775 32.6532 48.0941 31.9774 47.6592C31.0842 47.0844 30.0356 46.5253 29.0142 46.2224C28.3812 46.036 28.0045 46.9485 28.5676 47.2825V47.2786Z" fill="#231F20"/>
<path d="M15.7246 48.4513C16.6839 48.129 17.6276 47.8067 18.6062 47.5466C19.4063 47.333 19.0684 46.1447 18.2684 46.3156C17.2315 46.5369 16.2373 46.9563 15.2819 47.4029C14.6955 47.6786 15.111 48.6572 15.7246 48.4513Z" fill="#231F20"/>
<path d="M6.85064 58.2253C7.16133 57.5302 7.39046 56.8118 7.72445 56.1245C8.0196 55.5109 8.41961 55.0139 8.3264 54.3188C8.29145 54.0664 7.92639 53.8605 7.69338 53.9576C6.99045 54.2527 6.7419 54.9634 6.46617 55.6429C6.16713 56.3769 5.90693 57.1729 5.94577 57.9729C5.96518 58.4117 6.64093 58.6874 6.85064 58.2175V58.2253Z" fill="#231F20"/>
<path d="M43.8301 67.479C42.9796 67.1372 44.8165 68.4109 48.4205 68.6672C52.0245 68.9235 49.8497 70.7409 49.8497 70.7409C49.8497 70.7409 41.2786 69.8555 41.6203 68.4964C41.9621 67.1372 43.8301 67.4751 43.8301 67.4751V67.479Z" fill="#231F20"/>
</g>
<defs>
<clipPath id="clip0_447_556">
<rect width="87" height="87" fill="white"/>
</clipPath>
</defs>
</svg>
