<svg width="221" height="105" viewBox="0 0 221 105" fill="none" xmlns="http://www.w3.org/2000/svg">
<g clip-path="url(#clip0_453_1263)">
<path d="M13.55 69.51C14.18 70.12 14.75 70.33 15.27 70.15C15.37 69.42 15.51 69.02 15.68 68.95C16.08 69.5 16.62 69.65 17.33 69.39C17.89 68.62 18.36 68.16 18.73 68.03L19.73 68.51C20.07 68.38 20.4 68.13 20.71 67.74C21.26 67.82 21.8 67.75 22.34 67.55C22.16 67.05 22.44 66.66 23.18 66.39L23.25 66.58L23.54 66.25L23.73 66.18L25.39 67.27C26.26 66.95 26.74 66.91 26.83 67.16L26.65 67.86L26.85 68.42C28.17 69.72 28.88 70.51 28.99 70.8C29.11 71.11 29.02 71.64 28.74 72.37C28.89 72.78 29.26 73.21 29.84 73.64L30.04 74.2L29.97 76.34L30.04 76.53L30.86 77.05L30.93 77.24C31 77.43 30.88 77.68 30.58 78L30.02 78.2C29.13 77.54 28.07 77.15 26.85 77.05C26.65 77.25 26.48 77.38 26.36 77.43L25.79 77.01C26 76.43 26.03 75.93 25.88 75.52C24.65 74.14 23.61 73.61 22.76 73.91L21.87 73.19C21.87 72.62 21.97 72.3 22.15 72.24C23.28 72.67 23.91 73.07 24.05 73.44L24.47 72.87C24.04 72.46 23.56 71.72 23.03 70.65C23.16 70.6 23.2 70.52 23.15 70.39L22.96 70.46L22.54 71.03L21.81 71.3C21.22 71.24 20.86 71.03 20.72 70.65L20.36 70.78L19.58 72.11C18.84 71.41 18.37 71.1 18.17 71.17C18.44 71.91 17.96 72.51 16.74 72.96C16.6 73.01 15.96 72.82 14.83 72.4L14.11 73.29L13.1 73.44C12.93 74.62 12.37 75.38 11.41 75.74C11.14 75.71 10.93 75.72 10.79 75.77L11.06 76.52C11.32 76.43 11.47 76.44 11.51 76.55L12.37 76.04L12.73 75.91C13 75.84 13.17 75.91 13.25 76.13L13.32 76.32C13.32 76.74 13.02 77.06 12.41 77.29L12.71 77.59L12.84 77.95L12.56 78.9C12.92 79.66 13.4 80.19 13.99 80.49C13.69 81.23 13.65 81.88 13.85 82.44L14.04 82.37L15.21 81.51L15.38 81.45C15.65 81.4 15.83 81.48 15.91 81.69L16.32 82.8L16.49 82.74C16.81 82.33 17.13 82.07 17.46 81.95L17.85 81.81C18.45 82.16 18.91 82.27 19.24 82.15L19.17 81.96L18.71 81.3C19 81.2 19.11 80.52 19.04 79.28C18.73 79.4 18.31 78.84 17.8 77.62C18.43 76.55 18.91 75.95 19.23 75.83C19.72 75.93 20.08 75.93 20.31 75.85C20.29 75.27 20.46 74.79 20.82 74.4C21.11 74.3 21.41 74.54 21.72 75.14C21.82 75.41 21.84 75.68 21.79 75.94L22.46 77.18C22.94 78.9 23.33 80.16 23.63 80.96C24.04 81.28 24.3 81.6 24.42 81.93C24.49 82.12 24.37 82.37 24.07 82.69C24.03 82.58 23.94 82.54 23.81 82.59C23.85 82.7 23.81 82.79 23.68 82.83C24.15 83.62 24.54 84.11 24.86 84.32L26.15 87.84C26.35 88.38 25.4 89.43 23.32 90.99C22.64 89.7 22.01 89.16 21.44 89.37C21.24 89.44 20.91 89.7 20.46 90.14L20.16 89.84C20.92 89.4 21.33 88.41 21.38 86.86C21.33 86.72 21.32 86.51 21.37 86.23C21.16 86.06 20.98 85.77 20.83 85.36L20.47 85.49C20.34 85.54 19.92 86.11 19.21 87.22C18.93 87.2 18.72 87.21 18.59 87.25L18.18 86.14L17.99 86.21C16.43 86.94 15.85 87.85 16.24 88.94L16.7 88.99C16.88 88.78 17.04 88.65 17.19 88.59L17.5 88.91C16.61 89.92 16.21 90.55 16.3 90.81L16.37 91C16.91 91.32 17.25 91.69 17.41 92.1L17.58 93.08C18.65 93.35 19.22 93.57 19.27 93.72L19.34 93.91C18.66 94.7 18.34 95.16 18.39 95.3L18.73 96.22L19.29 96.02C19.17 95.51 19.27 95.2 19.58 95.09L19.94 94.96L20.55 96.63L21.12 97.05C22 95.59 22.5 94.84 22.63 94.8C22.84 94.72 23.15 94.97 23.53 95.54C23.49 95.83 23.49 96.04 23.54 96.17L24.23 96.33L24.65 95.76L24.35 95.46L24.28 95.27L26.1 95.65C26.17 95.62 26.41 95.12 26.81 94.13C27.05 94.04 27.72 93.94 28.82 93.83C29 93.62 29.16 93.49 29.31 93.43L29.18 93.07L28.85 92.75L29.14 92.42C29.2 92.58 29.68 92.76 30.6 92.95L30.79 92.88L30.94 91.56C30.17 91 29.71 90.53 29.58 90.16C30.03 89.43 30.18 88.88 30.04 88.51C29.98 88.35 29.69 87.75 29.16 86.72C29.04 86.18 29.44 85.55 30.36 84.82L30.03 84.5C29.85 84.01 30.55 83.41 32.11 82.69C32.49 82.94 33.41 84.29 34.86 86.74C34.3 87.12 34.06 87.42 34.14 87.63C34.53 87.96 34.79 88.28 34.91 88.61C35.04 89.31 35.12 89.7 35.15 89.79C35.41 89.74 35.57 89.82 35.65 90.02L35.72 90.21C35.82 90.5 35.59 90.79 35 91.1C35.35 92.06 35.87 92.71 36.55 93.06C36.68 93.4 36.09 93.9 34.79 94.56C35.05 95.27 34.68 95.97 33.66 96.65C33.3 96.23 33.02 96.06 32.84 96.13L32.28 96.33C31.96 97 31.68 97.38 31.43 97.47C30.94 97.37 30.58 97.37 30.35 97.45C29.58 98.01 28.88 98.4 28.25 98.63C28.18 98.44 27.85 98.29 27.25 98.17L27.06 98.24L26.51 99.07L25.95 99.27L25 98.99C24.66 99.66 24.26 100.09 23.79 100.26L22.77 99.81L22.6 99.87L22.05 100.7L21.86 100.77C21 101.08 20.53 101.11 20.43 100.86C19.56 101.75 18.96 102.25 18.65 102.36L18.35 102.06C18.59 101.97 18.67 101.8 18.57 101.54L18.51 101.37L17.65 101.88C17.61 101.77 17.52 101.73 17.39 101.78C17.3 102.51 16.92 103 16.25 103.24L16.06 103.31L15.11 103.03L13.51 103.84C13.42 103.58 13.25 103.5 13 103.59C12.58 103.89 11.79 104.25 10.65 104.67C9.96002 103.93 9.55002 103.38 9.41002 103.01C9.09002 101.73 9.24002 100.98 9.85002 100.76C10.83 100.82 11.39 100.83 11.53 100.78C11.68 99.59 12.12 98.86 12.85 98.6C13.24 98.91 13.48 99.18 13.56 99.41L13.95 99.27C14.21 99.14 14.35 98.38 14.38 97C14.51 96.95 14.6 96.63 14.66 96.05L14.46 95.49C14.4 95.33 14.03 94.7 13.35 93.59C13.32 93.5 13.44 93.25 13.7 92.83C13.29 92.51 13.03 92.19 12.91 91.86L12.71 91.3L12.58 89.23L11.69 88.51C11.22 86.95 11.06 85.95 11.22 85.5L10.58 84.28C10.51 84.08 10.29 83.32 9.93002 81.99C9.73002 81.79 9.60002 81.62 9.55002 81.5C9.58002 81.23 9.55002 80.96 9.45002 80.69L8.56002 79.97L8.42002 79.58L8.60002 78.88L8.54002 78.71C7.90002 78.95 7.46002 78.9 7.22002 78.56L7.08002 78.17C7.02002 77.92 7.10002 77.75 7.31002 77.67L7.67002 77.54L8.13002 77.59L8.28002 76.88L8.01002 76.15C7.92002 75.89 7.23002 75.94 5.94002 76.28C5.89002 76.15 5.81002 76.11 5.70002 76.15L5.51002 76.22L4.73002 77.55L4.54002 77.62C4.14002 77.77 3.73002 77.43 3.32002 76.61L2.76002 76.81C3.07002 77.67 2.80002 78.25 1.95002 78.57C0.740021 77.56 0.120021 77.01 0.0900209 76.94C-0.209979 76.11 0.470021 75.3 2.14002 74.51C2.06002 74.3 2.32002 74.05 2.92002 73.79L3.48002 73.59C4.80002 73.53 5.62002 73.44 5.93002 73.32L6.85002 72.98C7.17002 72.44 7.54002 72.1 7.95002 71.94L8.51002 71.74L9.44002 72.03L9.63002 71.96C9.74002 71.92 10.19 71.62 10.98 71.05C11.24 71.37 11.68 71.42 12.3 71.2L12.49 71.13C12.22 70.39 12.57 69.83 13.56 69.47L13.55 69.51ZM14.57 86.64L14.77 87.2L15.13 87.07L14.93 86.51L14.57 86.64ZM16.49 79.81L17.05 79.61C17.22 79.55 17.48 79.67 17.81 79.96L17.95 80.35C18.03 80.56 17.78 80.87 17.21 81.25C16.66 81.25 16.35 81.15 16.28 80.96L16.14 80.57C16.08 80.4 16.19 80.14 16.49 79.81ZM15.71 77.15L16.1 77.01C16.36 76.96 16.52 77.04 16.6 77.24L16.67 77.43C16.76 77.67 16.68 77.84 16.44 77.93L16.05 78.07C15.81 78.16 15.64 78.08 15.55 77.84L15.48 77.65C15.43 77.39 15.51 77.23 15.71 77.15ZM19.23 85.56L19.96 85.29L19.83 84.93L19.47 85.06C19.24 85.18 19.16 85.34 19.24 85.56H19.23ZM17.44 78.41L17.63 78.34L17.83 78.9L17.64 78.97C17.4 79.06 17.23 78.98 17.14 78.74L17.43 78.41H17.44ZM24.53 93.73C24.8 93.68 24.98 93.75 25.05 93.95C25.14 94.21 25.06 94.38 24.81 94.48C24.57 94.57 24.4 94.48 24.3 94.23C24.25 93.97 24.33 93.81 24.53 93.73ZM27.83 88.95L28.16 89.24L28.23 89.43L27.67 89.63L27.6 89.44C27.55 89.18 27.63 89.02 27.83 88.94V88.95ZM29.24 91.59L29.41 91.53L29.61 92.09L29.44 92.15C29.18 92.24 29.01 92.16 28.91 91.91L29.23 91.6L29.24 91.59Z" fill="white"/>
<path d="M39.33 61.45C39.57 61.36 39.89 61.66 40.3 62.36L40.86 62.16L41.28 61.59L42.03 61.32L42.96 61.61C42.75 61.02 43.17 60.45 44.25 59.88C44.31 60.04 44.73 60.23 45.51 60.46C45.92 60.31 46.21 60.13 46.36 59.93C47.51 59.66 48.26 59.59 48.62 59.73L49.04 59.16L49.23 59.09C49.42 59.02 50.1 59.55 51.27 60.68L52.14 60.14L52.5 60.01C52.77 59.91 53.33 60.47 54.19 61.7C54.45 61.74 55.11 62.41 56.19 63.71C56.34 64.12 56.26 64.86 55.93 65.92C56.47 66.24 56.81 66.61 56.97 67.02L57.04 67.21L56.58 68.21L57.16 68.66L57.43 69.39C56.82 70.39 56.31 71.49 55.9 72.7C55.84 73.03 54.87 74.02 52.98 75.67L53.05 75.86C53.15 76.15 53.54 76.22 54.2 76.07L53.79 74.96L53.96 74.9C54.73 74.7 55.17 74.75 55.28 75.05L55.41 75.41L54.96 76.43L55.16 76.99C56.48 77.19 57.24 77.54 57.44 78.05L57.51 78.24C57.19 78.5 57.14 78.94 57.36 79.56C57.65 79.46 57.95 79.7 58.26 80.3L58.33 82.8L58.46 83.16C58.79 83.4 59.89 83.7 61.76 84.07C61.92 84.01 62.11 83.59 62.34 82.81L63.45 82.4C63.79 82.27 64.27 82.8 64.88 83.97L65.15 84.72C65.5 85.66 65.08 86.45 63.9 87.07C63.55 86.86 63.34 86.66 63.27 86.47L62.71 86.67L62.16 87.5L61.97 87.57C61.6 87.71 61.04 87.7 60.29 87.55C60.32 87.64 60.2 87.89 59.94 88.31C58.65 88.78 57.58 88.18 56.73 86.52C56.62 86.22 56.23 85.73 55.56 85.05C55.51 84.92 55.56 84.83 55.68 84.79L55.15 83.94L55.08 83.75V81.44L54.94 81.05C54.85 80.81 54.68 80.73 54.44 80.82C54.53 81.06 54.44 81.23 54.19 81.33C53.95 81.42 53.76 81.28 53.62 80.91C53.64 80.21 53.71 79.83 53.84 79.78L51.98 78.76C51.66 77.89 51.06 77.61 50.19 77.93C49.78 77.92 49.15 77.52 48.29 76.73C48.36 76.92 48.24 77.17 47.94 77.49L47.75 77.56C47.51 77.65 46.84 77.76 45.75 77.88C45.67 78.9 45.34 79.51 44.75 79.73C44.21 79.41 43.84 78.98 43.64 78.43L43.25 78.57L42.96 78.9C43.01 79.03 43.09 79.07 43.22 79.02C43.2 79.37 43.64 80.97 44.54 83.81C44.81 83.74 44.98 83.81 45.06 84.03L45.19 84.39C45.39 84.93 45.44 85.48 45.35 86.03C45.77 86.39 46.08 86.84 46.28 87.37L46.42 87.76L46.24 88.46L46.44 89.02L46.83 88.88L47.41 87.62L47.97 87.42C48.58 87.2 49.21 87.39 49.86 87.99C50.12 87.9 50.27 87.91 50.31 88.02L50.61 87.72L50.8 87.65C51.3 87.47 51.9 88.16 52.61 89.73C52.35 90.31 51.3 91.26 49.44 92.57C48.79 92.57 48.22 92.37 47.72 91.93L46.98 92.83L46.62 92.96C46 92.77 45.56 92.72 45.3 92.81C45.41 93.11 45.09 93.58 44.33 94.21C44.22 94.25 43.76 94.15 42.95 93.89L42.09 94.4C41.05 94.78 40.06 94.79 39.14 94.44C38.78 92.89 38.76 92.05 39.07 91.94C40.09 91.27 40.85 90.85 41.35 90.67C41.47 90.92 41.64 91 41.86 90.92L42.22 90.79C42.13 90.55 42.25 89.52 42.57 87.7C42.18 87.39 41.95 87.13 41.87 86.91C42.06 86.84 42.21 86.5 42.35 85.88L42.28 85.69C41.3 84.96 40.74 84.4 40.59 84C40.54 83.87 40.7 83.32 41.05 82.35L40.64 81.24C40.31 81.64 39.98 81.89 39.64 82.02L39.34 81.72L39.2 81.33L39.77 79.44L39.96 79.37L39.69 78.62L38.22 78.11L38.15 77.92L39.11 75.89C38.87 75.98 38.7 75.89 38.6 75.64L38.26 74.72C37.71 74.77 37.37 74.62 37.23 74.24C37.54 73.17 37.62 72.44 37.47 72.04L37.41 71.87L36.38 71.39L36.31 71.2C36.44 70.85 36.43 70.22 36.28 69.32C35.41 68.88 34.93 68.56 34.86 68.36L34.72 67.37L34.02 67.19L33.63 67.33L32.98 68.42L32.42 68.62C31.52 68.46 30.94 68.04 30.69 67.36L30.56 67C30.31 66.31 30.47 65.61 31.05 64.9L31.41 64.77L32.43 65.25L32.62 65.18L33.46 64.02L34.57 63.61C35.34 63.8 35.74 63.94 35.77 64.02C36.8 63.64 37.78 62.86 38.73 61.67L39.29 61.47L39.33 61.45ZM35.85 66.95C35.98 67.18 36.15 67.25 36.35 67.18L36.22 66.82L35.86 66.95H35.85ZM38.36 65.18L38.43 65.37L38.89 66.03C38.84 66.63 38.85 67.05 38.93 67.28C39.07 67.23 39.6 67.53 40.52 68.18L40.59 68.37C40.62 68.46 40.42 68.88 39.98 69.64L40.31 69.96C40.21 70.45 40.23 70.87 40.35 71.21L40.92 71.63L41.19 72.38L40.9 73.31L40.97 73.5C42.08 74.23 42.66 74.65 42.7 74.76L43.56 74.25L43.95 74.11C44.12 74.05 44.38 74.16 44.71 74.46L45.12 75.57L45.29 75.51C45.42 75.46 45.71 75.07 46.15 74.34L46.32 74.28C47.03 74.59 47.62 74.65 48.1 74.48L48.46 74.35L48.39 74.16L47.82 73.74L47.75 73.55C47.69 73.3 47.77 73.13 47.98 73.05C48.44 73.16 48.98 73.1 49.61 72.86L49.77 74.5L50.22 74.53C50.46 74.44 50.49 73.94 50.31 73.04C50.18 73.09 50.09 73.04 50.05 72.92C51.34 72.45 52.48 71.54 53.47 70.18C53.28 69.65 53.44 68.96 53.97 68.1L53.77 67.54L53.2 67.12L53.13 66.93C53.1 66.86 53.24 66.46 53.54 65.73L53.47 65.54C52.03 64.19 51.01 63.51 50.39 63.51C50.11 63.58 49.53 63.16 48.66 62.25L47.05 63.03C46.5 62.55 46.14 62.33 45.96 62.38L45.23 62.65L45.3 62.84L45.94 64.06L45.52 64.65L45.33 64.72C45.2 64.77 44.75 64.3 43.99 63.32L43.6 63.46C43.22 64.02 42.68 64.43 41.96 64.69C41.89 64.49 41.55 64.33 40.94 64.21L40.38 64.41C40.37 65.18 40.38 65.59 40.4 65.67C40.62 65.87 40.75 66.03 40.8 66.16L40.51 66.49L40.32 66.56C40.11 66.64 39.63 66.11 38.89 64.97L38.33 65.17L38.36 65.18ZM41.81 75.73C41.88 75.93 42.22 76.09 42.83 76.21L42.87 75.78L42.6 75.03L42.04 75.23C41.81 75.36 41.74 75.53 41.81 75.73ZM45.74 81.27L45.93 81.2C46.19 81.15 46.35 81.23 46.43 81.43L46.57 81.82C46.57 82.24 46.27 82.56 45.66 82.79L45.33 82.47C45.37 81.82 45.51 81.42 45.74 81.27ZM46.67 84.94L46.84 84.88C47.11 84.83 47.29 84.9 47.36 85.1C47.43 85.29 47.31 85.54 47.01 85.86C46.75 85.95 46.58 85.88 46.49 85.64L46.42 85.45C46.37 85.19 46.46 85.02 46.67 84.94ZM49.77 85.92L50.13 85.79L50.26 86.15C50.35 86.41 50.28 86.58 50.04 86.67C49.78 86.76 49.61 86.68 49.51 86.43C49.46 86.17 49.55 86 49.76 85.92H49.77ZM45.41 72.3C45.67 72.25 45.84 72.34 45.92 72.55L46.06 73.54L45.7 73.67C45.46 73.76 45.29 73.68 45.2 73.44L45.07 73.08C45 72.89 45.12 72.63 45.42 72.3H45.41ZM53.13 85.95C53.4 85.9 53.58 85.97 53.65 86.17L53.33 86.5C53.09 86.59 52.92 86.51 52.83 86.27L53.12 85.94L53.13 85.95ZM51.28 65.31L51.64 65.18L51.7 65.35L51.34 65.48L51.28 65.31ZM59.93 82.61L60.32 82.47L60.46 82.86C60.2 82.95 60.03 82.87 59.93 82.62V82.61Z" fill="white"/>
<path d="M65.54 51.85C65.78 51.76 66.1 52.06 66.51 52.76L67.07 52.56L67.49 51.99L68.24 51.72L69.17 52.01C68.96 51.42 69.38 50.85 70.46 50.28C70.52 50.44 70.94 50.63 71.72 50.86C72.13 50.71 72.42 50.53 72.57 50.33C73.72 50.06 74.47 49.99 74.83 50.13L75.25 49.56L75.44 49.49C75.63 49.42 76.31 49.95 77.48 51.08L78.35 50.54L78.71 50.41C78.98 50.31 79.54 50.87 80.4 52.1C80.66 52.14 81.32 52.81 82.4 54.11C82.55 54.52 82.47 55.26 82.14 56.32C82.68 56.64 83.02 57.01 83.18 57.42L83.25 57.61L82.79 58.61L83.37 59.06L83.64 59.79C83.03 60.79 82.52 61.89 82.11 63.1C82.05 63.43 81.08 64.42 79.19 66.07L79.26 66.26C79.36 66.55 79.75 66.62 80.41 66.47L80 65.36L80.17 65.3C80.94 65.1 81.38 65.15 81.49 65.45L81.62 65.81L81.17 66.83L81.37 67.39C82.69 67.59 83.45 67.94 83.65 68.45L83.72 68.64C83.4 68.9 83.35 69.34 83.57 69.96C83.86 69.86 84.16 70.1 84.47 70.7L84.54 73.2L84.67 73.56C85 73.8 86.1 74.1 87.97 74.47C88.13 74.41 88.32 73.99 88.55 73.21L89.66 72.8C90 72.67 90.48 73.2 91.09 74.37L91.36 75.12C91.71 76.06 91.29 76.85 90.11 77.47C89.76 77.26 89.55 77.06 89.48 76.87L88.92 77.07L88.37 77.9L88.18 77.97C87.81 78.11 87.25 78.1 86.5 77.95C86.53 78.04 86.41 78.29 86.15 78.71C84.86 79.18 83.79 78.58 82.94 76.92C82.83 76.62 82.44 76.13 81.77 75.45C81.72 75.32 81.77 75.23 81.89 75.19L81.36 74.34L81.29 74.15V71.84L81.15 71.45C81.06 71.21 80.89 71.13 80.65 71.22C80.74 71.46 80.65 71.63 80.4 71.73C80.16 71.82 79.97 71.68 79.83 71.31C79.85 70.61 79.92 70.23 80.05 70.18L78.19 69.16C77.87 68.29 77.27 68.01 76.4 68.33C75.99 68.32 75.36 67.92 74.5 67.13C74.57 67.32 74.45 67.57 74.15 67.89L73.96 67.96C73.72 68.05 73.05 68.16 71.96 68.28C71.88 69.3 71.55 69.91 70.96 70.13C70.42 69.81 70.05 69.38 69.85 68.83L69.46 68.97L69.17 69.3C69.22 69.43 69.3 69.47 69.43 69.42C69.41 69.77 69.85 71.37 70.75 74.21C71.02 74.14 71.19 74.21 71.27 74.43L71.4 74.79C71.6 75.33 71.65 75.88 71.56 76.43C71.98 76.79 72.29 77.24 72.49 77.77L72.63 78.16L72.45 78.86L72.65 79.42L73.04 79.28L73.62 78.02L74.18 77.82C74.79 77.6 75.42 77.79 76.07 78.39C76.33 78.3 76.48 78.31 76.52 78.42L76.82 78.12L77.01 78.05C77.51 77.87 78.11 78.56 78.82 80.13C78.56 80.71 77.51 81.66 75.65 82.97C75 82.97 74.43 82.77 73.93 82.33L73.19 83.23L72.83 83.36C72.21 83.17 71.77 83.12 71.51 83.21C71.62 83.51 71.3 83.98 70.54 84.61C70.43 84.65 69.97 84.55 69.16 84.29L68.3 84.8C67.26 85.18 66.27 85.19 65.35 84.84C64.99 83.29 64.97 82.45 65.28 82.34C66.3 81.67 67.06 81.25 67.56 81.07C67.68 81.32 67.85 81.4 68.07 81.32L68.43 81.19C68.34 80.95 68.46 79.92 68.78 78.1C68.39 77.79 68.16 77.53 68.08 77.31C68.27 77.24 68.42 76.9 68.56 76.28L68.49 76.09C67.51 75.36 66.95 74.8 66.8 74.4C66.75 74.27 66.91 73.72 67.26 72.75L66.85 71.64C66.52 72.04 66.19 72.29 65.85 72.42L65.55 72.12L65.41 71.73L65.98 69.84L66.17 69.77L65.9 69.02L64.43 68.51L64.36 68.32L65.32 66.29C65.08 66.38 64.91 66.29 64.81 66.04L64.47 65.12C63.92 65.17 63.58 65.02 63.44 64.64C63.75 63.57 63.83 62.84 63.68 62.44L63.62 62.27L62.59 61.79L62.52 61.6C62.65 61.25 62.64 60.62 62.49 59.72C61.62 59.28 61.14 58.96 61.07 58.76L60.93 57.77L60.23 57.59L59.84 57.73L59.19 58.82L58.63 59.02C57.73 58.86 57.15 58.44 56.9 57.76L56.77 57.4C56.52 56.71 56.68 56.01 57.26 55.3L57.62 55.17L58.64 55.65L58.83 55.58L59.67 54.42L60.78 54.01C61.55 54.2 61.95 54.34 61.98 54.42C63.01 54.04 63.99 53.26 64.94 52.07L65.5 51.87L65.54 51.85ZM62.06 57.35C62.19 57.58 62.36 57.65 62.56 57.58L62.43 57.22L62.07 57.35H62.06ZM64.57 55.58L64.64 55.77L65.1 56.43C65.05 57.03 65.06 57.45 65.14 57.68C65.28 57.63 65.81 57.93 66.73 58.58L66.8 58.77C66.83 58.86 66.63 59.28 66.19 60.04L66.52 60.36C66.42 60.85 66.44 61.27 66.56 61.61L67.13 62.03L67.4 62.78L67.11 63.71L67.18 63.9C68.29 64.63 68.87 65.05 68.91 65.16L69.77 64.65L70.16 64.51C70.33 64.45 70.59 64.56 70.92 64.86L71.33 65.97L71.5 65.91C71.63 65.86 71.92 65.47 72.36 64.74L72.53 64.68C73.24 64.99 73.83 65.05 74.31 64.88L74.67 64.75L74.6 64.56L74.03 64.14L73.96 63.95C73.9 63.7 73.98 63.53 74.19 63.45C74.65 63.56 75.19 63.5 75.82 63.26L75.98 64.9L76.43 64.93C76.67 64.84 76.7 64.34 76.52 63.44C76.39 63.49 76.3 63.44 76.26 63.32C77.55 62.85 78.69 61.94 79.68 60.58C79.49 60.05 79.65 59.36 80.18 58.5L79.98 57.94L79.41 57.52L79.34 57.33C79.31 57.26 79.45 56.86 79.75 56.13L79.68 55.94C78.24 54.59 77.22 53.91 76.6 53.91C76.32 53.98 75.74 53.56 74.87 52.65L73.26 53.43C72.71 52.95 72.35 52.73 72.17 52.78L71.44 53.05L71.51 53.24L72.15 54.46L71.73 55.05L71.54 55.12C71.41 55.17 70.96 54.7 70.2 53.72L69.81 53.86C69.43 54.42 68.89 54.83 68.17 55.09C68.1 54.89 67.76 54.73 67.15 54.61L66.59 54.81C66.58 55.58 66.59 55.99 66.61 56.07C66.83 56.27 66.96 56.43 67.01 56.56L66.72 56.89L66.53 56.96C66.32 57.04 65.84 56.51 65.1 55.37L64.54 55.57L64.57 55.58ZM68.02 66.13C68.09 66.33 68.43 66.49 69.04 66.61L69.08 66.18L68.81 65.43L68.25 65.63C68.02 65.76 67.95 65.93 68.02 66.13ZM71.95 71.67L72.14 71.6C72.4 71.55 72.56 71.63 72.64 71.83L72.78 72.22C72.78 72.64 72.48 72.96 71.87 73.19L71.54 72.87C71.58 72.22 71.72 71.82 71.95 71.67ZM72.88 75.34L73.05 75.28C73.32 75.23 73.5 75.3 73.57 75.5C73.64 75.69 73.52 75.94 73.22 76.26C72.96 76.35 72.79 76.28 72.7 76.04L72.63 75.85C72.58 75.59 72.67 75.42 72.88 75.34ZM75.98 76.32L76.34 76.19L76.47 76.55C76.56 76.81 76.49 76.98 76.25 77.07C75.99 77.16 75.82 77.08 75.72 76.83C75.67 76.57 75.76 76.4 75.97 76.32H75.98ZM71.62 62.7C71.88 62.65 72.05 62.74 72.13 62.95L72.27 63.94L71.91 64.07C71.67 64.16 71.5 64.08 71.41 63.84L71.28 63.48C71.21 63.29 71.33 63.03 71.63 62.7H71.62ZM79.34 76.35C79.61 76.3 79.79 76.37 79.86 76.57L79.54 76.9C79.3 76.99 79.13 76.91 79.04 76.67L79.33 76.34L79.34 76.35ZM77.49 55.71L77.85 55.58L77.91 55.75L77.55 55.88L77.49 55.71ZM86.14 73.01L86.53 72.87L86.67 73.26C86.41 73.35 86.24 73.27 86.14 73.02V73.01Z" fill="white"/>
<path d="M95.67 41.78C95.88 41.7 96.46 41.97 97.4 42.58C97.43 41.95 97.56 41.57 97.78 41.42C98.69 41.09 99.51 41.26 100.24 41.95L101.37 41.12C101.83 40.95 102.33 41.39 102.87 42.42C103.06 42.35 103.39 42.51 103.87 42.88L104.16 42.55L104.33 42.49C104.84 42.3 106.2 43.38 108.38 45.72C109.24 45.82 109.87 46.41 110.27 47.48L110.71 47.54L110.85 48.51C111.74 49.08 112.28 49.62 112.47 50.15C112.34 50.2 112.22 50.79 112.1 51.94C112.36 51.89 112.52 51.97 112.6 52.17L112.66 52.34C112.76 52.61 112.79 52.88 112.76 53.13C113.15 53.44 113.4 53.76 113.52 54.09L113.58 54.26L112.99 55.5L113.81 56.02L114.27 57.28C114.05 57.7 114.12 58.63 114.47 60.08C113.93 60.47 113.85 61.18 114.23 62.21C114.4 62.15 114.65 62.26 114.96 62.55L115.03 62.74C113.83 63.18 113.43 63.94 113.83 65.03C113.56 65.81 113.01 66.35 112.17 66.66C112.52 67.62 111.85 68.4 110.17 69.02C110.53 69.99 109.98 70.74 108.54 71.27C108.45 71.03 108.28 70.95 108.04 71.04L107.68 71.17L107.28 72.34L106.94 72.47C106.31 72.7 105.88 72.66 105.65 72.33L105.35 72.63L103.72 73.23C103.48 73.32 103.22 73.01 102.96 72.29L102.79 72.35C102.52 72.45 102.3 72.6 102.12 72.79C100.73 73.07 99.88 72.77 99.55 71.88C97.39 71.62 96.13 70.98 95.77 69.98C94.5 69.86 93.71 69.41 93.42 68.6L93.35 68.41L93.41 67.97C92.72 68.22 92.02 67.6 91.29 66.1L90.73 66.3L90.6 65.94C90.84 65.45 90.84 64.69 90.6 63.68C90.41 63.75 90.08 63.59 89.6 63.22L89.14 61.96C89.04 61.69 88.9 61.47 88.71 61.32L88.91 60.2L88.78 59.86C88.42 59.99 88.2 59.94 88.11 59.69L88.04 59.5C88.45 59.35 88.4 58.07 87.88 55.67C87.99 55.63 88.04 55.41 88.03 55.01C87.45 54.54 87.12 54.18 87.03 53.94C88.01 53.24 88.37 52.56 88.12 51.89C87.88 51.98 87.71 51.91 87.63 51.68L87.5 51.32C87.43 51.09 87.82 50.47 88.67 49.46C88.72 48.1 88.86 47.36 89.1 47.24C89.84 47.39 90.33 47.42 90.57 47.33L90.5 47.14C90.41 46.9 90.24 46.82 90 46.91C90 46.31 90.25 45.67 90.74 45.01L92.71 44.29C92.51 43.75 92.92 43.18 93.94 42.6C94.05 42.56 94.51 42.67 95.3 42.93C95.33 42.3 95.46 41.91 95.7 41.76L95.67 41.78ZM97.12 45.75C96.22 45.55 95.59 45.51 95.23 45.64L95.73 46.48L95.93 47.02C96.02 47.26 95.88 47.45 95.53 47.58C95.22 47.7 94.73 47.67 94.07 47.51L93.34 47.78L93.6 48.49C93.76 48.93 93.7 49.51 93.41 50.21L92.44 50.35L92.27 50.41C92.04 50.54 91.97 50.71 92.04 50.91L92.48 51.58C91.96 52.78 91.76 53.53 91.88 53.84L92.07 53.77C92.58 53.66 92.89 53.77 93 54.06L93.26 54.77C93.35 55.01 93.27 55.18 93.03 55.27L92.67 55.4L92 55.23C91.81 55.3 91.72 55.61 91.71 56.16L92.3 57.18C92.06 57.27 92.05 57.82 92.27 58.82C92.63 59.4 92.91 59.98 93.12 60.55L93.06 60.99C94.65 63.55 95.52 64.81 95.68 64.75C95.62 64.09 95.68 63.73 95.89 63.65C96.15 63.6 96.31 63.68 96.39 63.88L96.52 64.24C96.61 64.48 96.35 64.71 95.75 64.93L96.01 65.64C96.68 65.39 97.57 65.96 98.67 67.34C99.83 66.92 100.83 67.43 101.69 68.88L103.32 68.28C104.07 68.7 104.49 68.9 104.56 68.87L104.75 68.8C105.1 68.12 105.31 67.77 105.38 67.74L105.74 67.61C106.14 67.59 106.45 67.89 106.67 68.49L107.03 68.36C107.27 68.27 107.33 68.05 107.2 67.69L106.68 66.86C107.09 66.3 107.57 65.93 108.11 65.73C108.31 65.88 108.46 66.1 108.56 66.37L109.1 66.17C109.37 66.07 109.44 65.71 109.31 65.07C109.08 65.15 108.92 65.07 108.83 64.83L108.63 64.29C108.57 64.12 108.68 63.87 108.97 63.56C109.17 63.49 109.57 63.48 110.18 63.53C110.29 62.91 110.33 62.07 110.31 61.03L111.14 60.51L111.68 60.31L111.62 60.14L110.99 58.94L111.23 57.42C111.03 57.22 110.9 57.05 110.85 56.93L111.19 56.2C110.7 54.87 110.05 54.02 109.23 53.64C109.45 52.75 109.45 51.99 109.23 51.38C108.84 51.28 108.14 50.31 107.14 48.47L106.95 48.54C107.17 49.14 107.1 49.51 106.74 49.64C106.5 49.73 106.33 49.65 106.24 49.41L106.18 49.24C106.25 48.67 106.46 48.31 106.81 48.18L106.74 47.99L104.58 47.15L104.44 46.18L104.37 45.99C104.29 45.76 104.12 45.69 103.88 45.78L103.69 45.85L103.28 46.39C102.07 45.7 101.32 44.95 101.03 44.15L100.24 44.25C100.26 45.2 100.18 45.71 100 45.77C99.21 45.87 98.73 45.69 98.57 45.25L98.68 44.41L98.24 44.35L97.88 44.48C97.56 45.28 97.31 45.71 97.14 45.77L97.12 45.75ZM93.62 57.49L93.95 57.78L94.02 57.97L93.46 58.17L93.39 57.98C93.34 57.72 93.42 57.56 93.62 57.48V57.49ZM106.51 63.03L106.7 62.96L106.83 63.32L106.64 63.39L106.51 63.03Z" fill="white"/>
<path d="M118.83 32.33C119.07 32.24 119.39 32.54 119.8 33.24L120.36 33.04L120.78 32.47L121.53 32.2L122.46 32.49C122.25 31.9 122.67 31.33 123.75 30.76C123.81 30.92 124.23 31.11 125.01 31.34C125.42 31.19 125.71 31.01 125.86 30.81C127.01 30.54 127.76 30.47 128.12 30.61L128.54 30.04L128.73 29.97C128.92 29.9 129.6 30.43 130.77 31.56L131.64 31.02L132 30.89C132.27 30.79 132.83 31.35 133.69 32.58C133.95 32.62 134.61 33.29 135.69 34.59C135.84 35 135.76 35.74 135.43 36.8C135.97 37.12 136.31 37.49 136.47 37.9L136.54 38.09L136.08 39.09L136.66 39.54L136.93 40.27C136.32 41.27 135.81 42.37 135.4 43.58C135.34 43.91 134.37 44.9 132.48 46.55L132.55 46.74C132.65 47.03 133.04 47.1 133.7 46.95L133.29 45.84L133.46 45.78C134.23 45.58 134.67 45.63 134.78 45.93L134.91 46.29L134.46 47.31L134.66 47.87C135.98 48.07 136.74 48.42 136.94 48.93L137.01 49.12C136.69 49.38 136.64 49.82 136.86 50.44C137.15 50.34 137.45 50.58 137.76 51.18L137.83 53.68L137.96 54.04C138.29 54.28 139.39 54.58 141.26 54.95C141.42 54.89 141.61 54.47 141.84 53.69L142.95 53.28C143.29 53.15 143.77 53.68 144.38 54.85L144.65 55.6C145 56.54 144.58 57.33 143.4 57.95C143.05 57.74 142.84 57.54 142.77 57.35L142.21 57.55L141.66 58.38L141.47 58.45C141.1 58.59 140.54 58.58 139.79 58.43C139.82 58.52 139.7 58.77 139.44 59.19C138.15 59.66 137.08 59.06 136.23 57.4C136.12 57.1 135.73 56.61 135.06 55.93C135.01 55.8 135.06 55.71 135.18 55.67L134.65 54.82L134.58 54.63V52.32L134.44 51.93C134.35 51.69 134.18 51.61 133.94 51.7C134.03 51.94 133.94 52.11 133.69 52.21C133.45 52.3 133.26 52.16 133.12 51.79C133.14 51.09 133.21 50.71 133.34 50.66L131.48 49.64C131.16 48.77 130.56 48.49 129.69 48.81C129.28 48.8 128.65 48.4 127.79 47.61C127.86 47.8 127.74 48.05 127.44 48.37L127.25 48.44C127.01 48.53 126.34 48.64 125.25 48.76C125.17 49.78 124.84 50.39 124.25 50.61C123.71 50.29 123.34 49.86 123.14 49.31L122.75 49.45L122.46 49.78C122.51 49.91 122.59 49.95 122.72 49.9C122.7 50.25 123.14 51.85 124.04 54.69C124.31 54.62 124.48 54.69 124.56 54.91L124.69 55.27C124.89 55.81 124.94 56.36 124.85 56.91C125.27 57.27 125.58 57.72 125.78 58.25L125.92 58.64L125.74 59.34L125.94 59.9L126.33 59.76L126.91 58.5L127.47 58.3C128.08 58.08 128.71 58.27 129.36 58.87C129.62 58.78 129.77 58.79 129.81 58.9L130.11 58.6L130.3 58.53C130.8 58.35 131.4 59.04 132.11 60.61C131.85 61.19 130.8 62.14 128.94 63.45C128.29 63.45 127.72 63.25 127.22 62.81L126.48 63.71L126.12 63.84C125.5 63.65 125.06 63.6 124.8 63.69C124.91 63.99 124.59 64.46 123.83 65.09C123.72 65.13 123.26 65.03 122.45 64.77L121.59 65.28C120.55 65.66 119.56 65.67 118.64 65.32C118.28 63.77 118.26 62.93 118.57 62.82C119.59 62.15 120.35 61.73 120.85 61.55C120.97 61.8 121.14 61.88 121.36 61.8L121.72 61.67C121.63 61.43 121.75 60.4 122.07 58.58C121.68 58.27 121.45 58.01 121.37 57.79C121.56 57.72 121.71 57.38 121.85 56.76L121.78 56.57C120.8 55.84 120.24 55.28 120.09 54.88C120.04 54.75 120.2 54.2 120.55 53.23L120.14 52.12C119.81 52.52 119.48 52.77 119.14 52.9L118.84 52.6L118.7 52.21L119.27 50.32L119.46 50.25L119.19 49.5L117.72 48.99L117.65 48.8L118.61 46.77C118.37 46.86 118.2 46.77 118.1 46.52L117.76 45.6C117.21 45.65 116.87 45.5 116.73 45.12C117.04 44.05 117.12 43.32 116.97 42.92L116.91 42.75L115.88 42.27L115.81 42.08C115.94 41.73 115.93 41.1 115.78 40.2C114.91 39.76 114.43 39.44 114.36 39.24L114.22 38.25L113.52 38.07L113.13 38.21L112.48 39.3L111.92 39.5C111.02 39.34 110.44 38.92 110.19 38.24L110.06 37.88C109.81 37.19 109.97 36.49 110.55 35.78L110.91 35.65L111.93 36.13L112.12 36.06L112.96 34.9L114.07 34.49C114.84 34.68 115.24 34.82 115.27 34.9C116.3 34.52 117.28 33.74 118.23 32.55L118.79 32.35L118.83 32.33ZM115.35 37.83C115.48 38.06 115.65 38.13 115.85 38.06L115.72 37.7L115.36 37.83H115.35ZM117.86 36.06L117.93 36.25L118.39 36.91C118.34 37.51 118.35 37.93 118.43 38.16C118.57 38.11 119.1 38.41 120.02 39.06L120.09 39.25C120.12 39.34 119.92 39.76 119.48 40.52L119.81 40.84C119.71 41.33 119.73 41.75 119.85 42.09L120.42 42.51L120.69 43.26L120.4 44.19L120.47 44.38C121.58 45.11 122.16 45.53 122.2 45.64L123.06 45.13L123.45 44.99C123.62 44.93 123.88 45.04 124.21 45.34L124.62 46.45L124.79 46.39C124.92 46.34 125.21 45.95 125.65 45.22L125.82 45.16C126.53 45.47 127.12 45.53 127.6 45.36L127.96 45.23L127.89 45.04L127.32 44.62L127.25 44.43C127.19 44.18 127.27 44.01 127.48 43.93C127.94 44.04 128.48 43.98 129.11 43.74L129.27 45.38L129.72 45.41C129.96 45.32 129.99 44.82 129.81 43.92C129.68 43.97 129.59 43.92 129.55 43.8C130.84 43.33 131.98 42.42 132.97 41.06C132.78 40.53 132.94 39.84 133.47 38.98L133.27 38.42L132.7 38L132.63 37.81C132.6 37.74 132.74 37.34 133.04 36.61L132.97 36.42C131.53 35.07 130.51 34.39 129.89 34.39C129.61 34.46 129.03 34.04 128.16 33.13L126.55 33.91C126 33.43 125.64 33.21 125.46 33.26L124.73 33.53L124.8 33.72L125.44 34.94L125.02 35.53L124.83 35.6C124.7 35.65 124.25 35.18 123.49 34.2L123.1 34.34C122.72 34.9 122.18 35.31 121.46 35.57C121.39 35.37 121.05 35.21 120.44 35.09L119.88 35.29C119.87 36.06 119.88 36.47 119.9 36.55C120.12 36.75 120.25 36.91 120.3 37.04L120.01 37.37L119.82 37.44C119.61 37.52 119.13 36.99 118.39 35.85L117.83 36.05L117.86 36.06ZM121.31 46.61C121.38 46.81 121.72 46.97 122.33 47.09L122.37 46.66L122.1 45.91L121.54 46.11C121.31 46.24 121.24 46.41 121.31 46.61ZM125.24 52.15L125.43 52.08C125.69 52.03 125.85 52.11 125.93 52.31L126.07 52.7C126.07 53.12 125.77 53.44 125.16 53.67L124.83 53.35C124.87 52.7 125.01 52.3 125.24 52.15ZM126.17 55.82L126.34 55.76C126.61 55.71 126.79 55.78 126.86 55.98C126.93 56.17 126.81 56.42 126.51 56.74C126.25 56.83 126.08 56.76 125.99 56.52L125.92 56.33C125.87 56.07 125.96 55.9 126.17 55.82ZM129.27 56.8L129.63 56.67L129.76 57.03C129.85 57.29 129.78 57.46 129.54 57.55C129.28 57.64 129.11 57.56 129.01 57.31C128.96 57.05 129.05 56.88 129.26 56.8H129.27ZM124.91 43.18C125.17 43.13 125.34 43.22 125.42 43.43L125.56 44.42L125.2 44.55C124.96 44.64 124.79 44.56 124.7 44.32L124.57 43.96C124.5 43.77 124.62 43.51 124.92 43.18H124.91ZM132.63 56.83C132.9 56.78 133.08 56.85 133.15 57.05L132.83 57.38C132.59 57.47 132.42 57.39 132.33 57.15L132.62 56.82L132.63 56.83ZM130.78 36.19L131.14 36.06L131.2 36.23L130.84 36.36L130.78 36.19ZM139.43 53.49L139.82 53.35L139.96 53.74C139.7 53.83 139.53 53.75 139.43 53.5V53.49Z" fill="white"/>
<path d="M153.45 17.34C153.82 17.2 154.4 17.39 155.18 17.9L155.23 18.05C155.37 18.42 155.48 18.9 155.58 19.48C155.9 19.74 156.09 19.95 156.15 20.12C155.7 20.74 155.55 21.26 155.7 21.67C156.18 22.06 156.48 22.41 156.59 22.71L156.64 22.86C156.68 23.09 156.5 23.38 156.11 23.73C155.87 23.7 155.7 23.71 155.6 23.74L155.44 24.31C155.49 24.45 156.1 24.69 157.26 25.03L157.37 25.33C157.42 25.47 157.33 25.68 157.08 25.94L156.1 26.13C156.35 27.22 156.38 28.07 156.18 28.68L156.29 28.98L156.76 29.32L156.92 29.77C156.98 29.93 156.85 30.2 156.54 30.59L156.18 30.55C155.65 30.74 155.59 31.51 156 32.85C155.72 33.37 155.64 33.8 155.76 34.13C156.09 34.24 156.33 34.26 156.49 34.2L157.49 33.67C158.32 33.59 158.81 33.53 158.95 33.48C158.9 33.34 159 33.13 159.26 32.86L159.41 32.81C159.82 32.66 160.28 32.66 160.78 32.82L161.03 32.56L161.63 32.34C161.82 32.27 162.33 32.26 163.17 32.31L163.12 32.16L162.74 31.59L162.99 31.33L163.29 31.22L163.85 31.36L164.3 31.2L164.19 30.9C163.9 30.73 163.73 30.57 163.67 30.41C162.85 28.17 162.25 26.22 161.87 24.56L161.31 24.42C161.38 24.62 161.31 24.76 161.12 24.83C160.89 24.91 160.61 24.62 160.29 23.94L160.54 23.68L160.84 23.57L161.2 23.61L161.24 23.25L160.81 22.53L160.69 21.72C160.52 21.56 160.41 21.42 160.37 21.32L160.22 21.37C160.59 22.37 160.62 22.93 160.32 23.04L160.02 23.15C159.82 23.22 159.68 23.16 159.61 22.96C159.56 21.62 159.59 20.93 159.7 20.88L160.26 21.02C160.34 19.5 160.55 18.68 160.91 18.55C161.91 18.18 162.69 18.76 163.24 20.27C163.45 20.84 163.53 21.21 163.47 21.38C163.77 21.89 163.99 22.33 164.12 22.7L164.9 24.82C165.08 25.32 165.07 25.61 164.87 25.68L165.29 26.38L166.29 29.1C166.37 29.33 166.4 29.55 166.36 29.76L167.11 30.87L167.69 30.12L168.16 29.95L168.73 30.11L169.48 29.84L169.81 29.35L169.96 29.3L170.53 29.46L171.3 29.18C171.5 29.11 171.56 28.96 171.48 28.75C171.38 28.79 171.31 28.75 171.28 28.65L171.53 28.39C172.64 28.63 173.36 28.89 173.68 29.16L173.84 29.61C174.21 30.61 173.94 31.28 173.04 31.61L172.44 31.83L171.67 31.6C171.57 31.64 171.34 31.96 170.98 32.56L170.53 32.72C170.33 32.79 170.17 32.67 170.06 32.36L169.16 32.69C169.28 33 169.23 33.2 169.03 33.27L168.09 33.08L167.94 33.13C167.8 33.18 167.7 33.4 167.66 33.77C168.22 34.67 168.52 35.18 168.56 35.31L168.67 35.61C168.83 36.05 168.88 36.5 168.82 36.94C169.15 37.22 169.4 37.59 169.56 38.03L169.89 38.93C170.16 40.32 169.89 41.16 169.11 41.45C168.57 41.65 167.73 41.1 166.61 39.79C166.49 39.46 166.56 38.87 166.81 38.01C166.28 37.28 165.98 36.93 165.91 36.95C165.76 35.92 165.58 35.13 165.39 34.59L165.03 34.53C164.9 34.71 164.72 34.84 164.49 34.92C164.45 34.81 164.1 34.64 163.46 34.42C163.36 34.46 163.13 34.77 162.76 35.36L162.46 35.47L161.69 35.24C161.56 35.29 161.29 35.79 160.88 36.75L160.73 36.8C160.64 36.83 160.16 36.61 159.27 36.12L158.57 36.54C157.98 36.64 157.56 36.74 157.31 36.83C157.36 37.28 157.23 37.56 156.92 37.68C156.23 37.93 155.49 37.91 154.69 37.62L154.08 38.35C153.06 38.35 152.41 37.97 152.13 37.19C151.98 35.09 152.29 33.61 153.07 32.74C153.06 30.85 153.03 29.83 152.97 29.69C152.87 29.73 152.8 29.69 152.77 29.59C153.04 29.13 153.28 28.87 153.5 28.79L153.23 28.04C153.2 25.74 153.05 23.62 152.8 21.68L152.75 21.53L152.07 20.59C152.61 20.2 152.78 19.73 152.58 19.19C152.41 18.72 152.7 18.1 153.46 17.34H153.45ZM157.46 27.35C157.6 27.3 157.81 27.4 158.08 27.66C158.07 28.12 157.99 28.37 157.85 28.43L157.7 28.48C157.5 28.55 157.36 28.49 157.29 28.29C157.23 27.73 157.29 27.42 157.46 27.35Z" fill="white"/>
<path d="M176.73 12.09C176.94 12.01 177.52 12.28 178.46 12.89C178.49 12.26 178.62 11.88 178.84 11.73C179.75 11.4 180.57 11.57 181.3 12.26L182.43 11.43C182.89 11.26 183.39 11.7 183.93 12.73C184.12 12.66 184.45 12.82 184.93 13.19L185.22 12.86L185.39 12.8C185.9 12.61 187.26 13.69 189.44 16.03C190.3 16.13 190.93 16.72 191.33 17.79L191.77 17.85L191.91 18.82C192.8 19.39 193.34 19.93 193.53 20.46C193.4 20.51 193.28 21.1 193.16 22.25C193.42 22.2 193.58 22.28 193.66 22.48L193.72 22.65C193.82 22.92 193.85 23.19 193.82 23.44C194.21 23.75 194.46 24.07 194.58 24.4L194.64 24.57L194.05 25.81L194.87 26.33L195.33 27.59C195.11 28.01 195.18 28.94 195.53 30.39C194.99 30.78 194.91 31.49 195.29 32.52C195.46 32.46 195.71 32.57 196.02 32.86L196.09 33.05C194.89 33.49 194.49 34.25 194.89 35.34C194.62 36.12 194.07 36.66 193.23 36.97C193.58 37.93 192.91 38.71 191.23 39.33C191.59 40.3 191.04 41.05 189.6 41.58C189.51 41.34 189.34 41.26 189.1 41.35L188.74 41.48L188.34 42.65L188 42.78C187.37 43.01 186.94 42.97 186.71 42.64L186.41 42.94L184.78 43.54C184.54 43.63 184.28 43.32 184.02 42.6L183.85 42.66C183.58 42.76 183.36 42.91 183.18 43.1C181.79 43.38 180.94 43.08 180.61 42.19C178.45 41.93 177.19 41.29 176.83 40.29C175.56 40.17 174.77 39.72 174.48 38.91L174.41 38.72L174.47 38.28C173.78 38.53 173.08 37.91 172.35 36.41L171.79 36.61L171.66 36.25C171.9 35.76 171.9 35 171.66 33.99C171.47 34.06 171.14 33.9 170.66 33.53L170.2 32.27C170.1 32 169.96 31.78 169.77 31.63L169.97 30.51L169.84 30.17C169.48 30.3 169.26 30.25 169.17 30L169.1 29.81C169.51 29.66 169.46 28.38 168.94 25.98C169.05 25.94 169.1 25.72 169.09 25.32C168.51 24.85 168.18 24.49 168.09 24.25C169.07 23.55 169.43 22.87 169.18 22.2C168.94 22.29 168.77 22.22 168.69 21.99L168.56 21.63C168.49 21.4 168.88 20.78 169.73 19.77C169.78 18.41 169.92 17.67 170.16 17.55C170.9 17.7 171.39 17.73 171.63 17.64L171.56 17.45C171.47 17.21 171.3 17.13 171.06 17.22C171.06 16.62 171.31 15.98 171.8 15.32L173.77 14.6C173.57 14.06 173.98 13.49 175 12.91C175.11 12.87 175.57 12.98 176.36 13.24C176.39 12.61 176.52 12.22 176.76 12.07L176.73 12.09ZM178.18 16.06C177.28 15.86 176.65 15.82 176.29 15.95L176.79 16.79L176.99 17.33C177.08 17.57 176.94 17.76 176.59 17.89C176.28 18.01 175.79 17.98 175.13 17.82L174.4 18.09L174.66 18.8C174.82 19.24 174.76 19.82 174.47 20.52L173.5 20.66L173.33 20.72C173.1 20.85 173.03 21.02 173.1 21.22L173.54 21.89C173.02 23.09 172.82 23.84 172.94 24.15L173.13 24.08C173.64 23.97 173.95 24.08 174.06 24.37L174.32 25.08C174.41 25.32 174.33 25.49 174.09 25.58L173.73 25.71L173.06 25.54C172.87 25.61 172.78 25.92 172.77 26.47L173.36 27.49C173.12 27.58 173.11 28.13 173.33 29.13C173.69 29.71 173.97 30.29 174.18 30.86L174.12 31.3C175.71 33.86 176.58 35.12 176.74 35.06C176.68 34.4 176.74 34.04 176.95 33.96C177.21 33.91 177.37 33.99 177.45 34.19L177.58 34.55C177.67 34.79 177.41 35.02 176.81 35.24L177.07 35.95C177.74 35.7 178.63 36.27 179.73 37.65C180.89 37.23 181.89 37.74 182.75 39.19L184.38 38.59C185.13 39.01 185.55 39.21 185.62 39.18L185.81 39.11C186.16 38.43 186.37 38.08 186.44 38.05L186.8 37.92C187.2 37.9 187.51 38.2 187.73 38.8L188.09 38.67C188.33 38.58 188.39 38.36 188.26 38L187.74 37.17C188.15 36.61 188.63 36.24 189.17 36.04C189.37 36.19 189.52 36.41 189.62 36.68L190.16 36.48C190.43 36.38 190.5 36.02 190.37 35.38C190.14 35.46 189.98 35.38 189.89 35.14L189.69 34.6C189.63 34.43 189.74 34.18 190.03 33.87C190.23 33.8 190.63 33.79 191.24 33.84C191.35 33.22 191.39 32.38 191.37 31.34L192.2 30.82L192.74 30.62L192.68 30.45L192.05 29.25L192.29 27.73C192.09 27.53 191.96 27.36 191.91 27.24L192.25 26.51C191.76 25.18 191.11 24.33 190.29 23.95C190.51 23.06 190.51 22.3 190.29 21.69C189.9 21.59 189.2 20.62 188.2 18.78L188.01 18.85C188.23 19.45 188.16 19.82 187.8 19.95C187.56 20.04 187.39 19.96 187.3 19.72L187.24 19.55C187.31 18.98 187.52 18.62 187.87 18.49L187.8 18.3L185.64 17.46L185.5 16.49L185.43 16.3C185.35 16.07 185.18 16 184.94 16.09L184.75 16.16L184.34 16.7C183.13 16.01 182.38 15.26 182.09 14.46L181.3 14.56C181.32 15.51 181.24 16.02 181.06 16.08C180.27 16.18 179.79 16 179.63 15.56L179.74 14.72L179.3 14.66L178.94 14.79C178.62 15.59 178.37 16.02 178.2 16.08L178.18 16.06ZM174.68 27.8L175.01 28.09L175.08 28.28L174.52 28.48L174.45 28.29C174.4 28.03 174.48 27.87 174.68 27.79V27.8ZM187.57 33.34L187.76 33.27L187.89 33.63L187.7 33.7L187.57 33.34Z" fill="white"/>
<path d="M197.41 1.23001C197.78 1.09001 198.36 1.28001 199.14 1.79001L199.19 1.94001C199.33 2.31001 199.44 2.79 199.54 3.37C199.86 3.63 200.05 3.84001 200.11 4.01001C199.66 4.63001 199.51 5.15001 199.66 5.56001C200.14 5.95001 200.44 6.3 200.55 6.60001L200.6 6.75001C200.64 6.98001 200.46 7.27001 200.07 7.62001C199.83 7.59 199.66 7.60001 199.56 7.63001L199.4 8.20001C199.45 8.34 200.06 8.58001 201.22 8.92001L201.33 9.22001C201.38 9.36001 201.29 9.57 201.04 9.83L200.06 10.02C200.31 11.11 200.34 11.96 200.14 12.57L200.25 12.87L200.72 13.21L200.88 13.66C200.94 13.82 200.81 14.09 200.5 14.48L200.14 14.44C199.61 14.63 199.55 15.4 199.96 16.74C199.68 17.26 199.6 17.69 199.72 18.02C200.05 18.13 200.29 18.15 200.45 18.09L201.45 17.56C202.28 17.48 202.77 17.42 202.91 17.37C202.86 17.23 202.96 17.02 203.22 16.75L203.37 16.7C203.78 16.55 204.24 16.55 204.74 16.71L204.99 16.45L205.59 16.23C205.78 16.16 206.29 16.15 207.13 16.2L207.08 16.05L206.7 15.48L206.95 15.22L207.25 15.11L207.81 15.25L208.26 15.09L208.15 14.79C207.86 14.62 207.69 14.46 207.63 14.3C206.81 12.06 206.21 10.11 205.83 8.45001L205.27 8.31001C205.34 8.51001 205.27 8.65001 205.08 8.72001C204.85 8.80001 204.57 8.51 204.25 7.83001L204.5 7.57001L204.8 7.46001L205.16 7.50001L205.2 7.14001L204.77 6.42001L204.65 5.61001C204.48 5.45001 204.37 5.31001 204.33 5.21001L204.18 5.26001C204.55 6.26001 204.58 6.82 204.28 6.93001L203.98 7.04001C203.78 7.11001 203.64 7.05 203.57 6.85001C203.52 5.51 203.55 4.82 203.66 4.77L204.22 4.91C204.3 3.39 204.51 2.57001 204.87 2.44001C205.87 2.07001 206.65 2.65 207.2 4.16C207.41 4.73 207.49 5.10001 207.43 5.27001C207.73 5.78001 207.95 6.22001 208.08 6.59001L208.86 8.71001C209.04 9.21 209.03 9.5 208.83 9.57L209.25 10.27L210.25 12.99C210.33 13.22 210.36 13.44 210.32 13.65L211.07 14.76L211.65 14.01L212.12 13.84L212.69 14L213.44 13.73L213.77 13.24L213.92 13.19L214.49 13.35L215.26 13.07C215.46 13 215.52 12.85 215.44 12.64C215.34 12.68 215.27 12.64 215.24 12.54L215.49 12.28C216.6 12.52 217.32 12.78 217.64 13.05L217.8 13.5C218.17 14.5 217.9 15.17 217 15.5L216.4 15.72L215.63 15.49C215.53 15.53 215.3 15.85 214.94 16.45L214.49 16.61C214.29 16.68 214.13 16.56 214.02 16.25L213.12 16.58C213.24 16.89 213.19 17.09 212.99 17.16L212.05 16.97L211.9 17.02C211.76 17.07 211.66 17.29 211.62 17.66C212.18 18.56 212.48 19.07 212.52 19.2L212.63 19.5C212.79 19.94 212.84 20.39 212.78 20.83C213.11 21.11 213.36 21.48 213.52 21.92L213.85 22.82C214.12 24.21 213.85 25.05 213.07 25.34C212.53 25.54 211.69 24.99 210.57 23.68C210.45 23.35 210.52 22.76 210.77 21.9C210.24 21.17 209.94 20.82 209.87 20.84C209.72 19.81 209.54 19.02 209.35 18.48L208.99 18.42C208.86 18.6 208.68 18.73 208.45 18.81C208.41 18.7 208.06 18.53 207.42 18.31C207.32 18.35 207.09 18.66 206.72 19.25L206.42 19.36L205.65 19.13C205.52 19.18 205.25 19.68 204.84 20.64L204.69 20.69C204.6 20.72 204.12 20.5 203.23 20.01L202.53 20.43C201.94 20.53 201.52 20.63 201.27 20.72C201.32 21.17 201.19 21.45 200.88 21.57C200.19 21.82 199.45 21.8 198.65 21.51L198.04 22.24C197.02 22.24 196.37 21.86 196.09 21.08C195.94 18.98 196.25 17.5 197.03 16.63C197.02 14.74 196.99 13.72 196.93 13.58C196.83 13.62 196.76 13.58 196.73 13.48C197 13.02 197.24 12.76 197.46 12.68L197.19 11.93C197.16 9.63 197.01 7.51001 196.76 5.57001L196.71 5.42001L196.03 4.48001C196.57 4.09 196.74 3.62001 196.54 3.08001C196.37 2.61001 196.66 1.99001 197.42 1.23001H197.41ZM201.42 11.24C201.56 11.19 201.77 11.29 202.04 11.55C202.03 12.01 201.95 12.26 201.81 12.32L201.66 12.37C201.46 12.44 201.32 12.38 201.25 12.18C201.19 11.62 201.25 11.31 201.42 11.24Z" fill="white"/>
<path d="M16.2 68.32C16.83 68.93 17.4 69.14 17.92 68.96C18.02 68.23 18.16 67.83 18.33 67.76C18.73 68.31 19.27 68.46 19.98 68.2C20.54 67.43 21.01 66.97 21.38 66.84L22.38 67.32C22.72 67.19 23.05 66.94 23.36 66.55C23.91 66.63 24.45 66.56 24.99 66.36C24.81 65.86 25.09 65.47 25.83 65.2L25.9 65.39L26.19 65.06L26.38 64.99L28.04 66.08C28.91 65.76 29.39 65.72 29.48 65.97L29.3 66.67L29.5 67.23C30.82 68.53 31.53 69.32 31.64 69.61C31.76 69.92 31.67 70.45 31.39 71.18C31.54 71.59 31.91 72.02 32.49 72.45L32.69 73.01L32.62 75.15L32.69 75.34L33.51 75.86L33.58 76.05C33.65 76.24 33.53 76.49 33.23 76.81L32.67 77.01C31.78 76.35 30.72 75.96 29.5 75.86C29.3 76.06 29.13 76.19 29.01 76.24L28.44 75.82C28.65 75.24 28.68 74.74 28.53 74.33C27.3 72.95 26.26 72.42 25.41 72.72L24.52 72C24.52 71.43 24.62 71.11 24.8 71.05C25.93 71.48 26.56 71.88 26.7 72.25L27.12 71.68C26.69 71.27 26.21 70.53 25.68 69.46C25.81 69.41 25.85 69.33 25.8 69.2L25.61 69.27L25.19 69.84L24.46 70.11C23.87 70.05 23.51 69.84 23.37 69.46L23.01 69.59L22.23 70.92C21.49 70.22 21.02 69.91 20.82 69.98C21.09 70.72 20.61 71.32 19.39 71.77C19.25 71.82 18.61 71.63 17.48 71.21L16.76 72.1L15.75 72.25C15.58 73.43 15.02 74.19 14.06 74.55C13.79 74.52 13.58 74.53 13.44 74.58L13.71 75.33C13.97 75.24 14.12 75.25 14.16 75.36L15.02 74.85L15.38 74.72C15.65 74.65 15.82 74.72 15.9 74.94L15.97 75.13C15.97 75.55 15.67 75.87 15.06 76.1L15.36 76.4L15.49 76.76L15.21 77.71C15.57 78.47 16.05 79 16.64 79.3C16.34 80.04 16.3 80.69 16.5 81.25L16.69 81.18L17.86 80.32L18.03 80.26C18.3 80.21 18.48 80.29 18.56 80.5L18.97 81.61L19.14 81.55C19.46 81.14 19.78 80.88 20.11 80.76L20.5 80.62C21.1 80.97 21.56 81.08 21.89 80.96L21.82 80.77L21.36 80.11C21.65 80.01 21.76 79.33 21.69 78.09C21.38 78.21 20.96 77.65 20.45 76.43C21.08 75.36 21.56 74.76 21.88 74.64C22.37 74.74 22.73 74.74 22.96 74.66C22.94 74.08 23.11 73.6 23.47 73.21C23.76 73.11 24.06 73.35 24.37 73.95C24.47 74.22 24.49 74.49 24.44 74.75L25.11 75.99C25.59 77.71 25.98 78.97 26.28 79.77C26.69 80.09 26.95 80.41 27.07 80.74C27.14 80.93 27.02 81.18 26.72 81.5C26.68 81.39 26.59 81.35 26.46 81.4C26.5 81.51 26.46 81.6 26.33 81.64C26.8 82.43 27.19 82.92 27.51 83.13L28.8 86.65C29 87.19 28.05 88.24 25.97 89.8C25.29 88.51 24.66 87.97 24.09 88.18C23.89 88.25 23.56 88.51 23.11 88.95L22.81 88.65C23.57 88.21 23.98 87.22 24.03 85.67C23.98 85.53 23.97 85.32 24.02 85.04C23.81 84.87 23.63 84.58 23.48 84.17L23.12 84.3C22.99 84.35 22.57 84.92 21.86 86.03C21.58 86.01 21.37 86.02 21.24 86.06L20.83 84.95L20.64 85.02C19.08 85.75 18.5 86.66 18.89 87.75L19.35 87.8C19.53 87.59 19.69 87.46 19.84 87.4L20.15 87.72C19.26 88.73 18.86 89.36 18.95 89.62L19.02 89.81C19.56 90.13 19.9 90.5 20.06 90.91L20.23 91.89C21.3 92.16 21.87 92.38 21.92 92.53L21.99 92.72C21.31 93.51 20.99 93.97 21.04 94.11L21.38 95.03L21.94 94.83C21.82 94.32 21.92 94.01 22.23 93.9L22.59 93.77L23.2 95.44L23.77 95.86C24.65 94.4 25.15 93.65 25.28 93.61C25.49 93.53 25.8 93.78 26.18 94.35C26.14 94.64 26.14 94.85 26.19 94.98L26.88 95.14L27.3 94.57L27 94.27L26.93 94.08L28.75 94.46C28.82 94.43 29.06 93.93 29.46 92.94C29.7 92.85 30.37 92.75 31.47 92.64C31.65 92.43 31.81 92.3 31.96 92.24L31.83 91.88L31.5 91.56L31.79 91.23C31.85 91.39 32.33 91.57 33.25 91.76L33.44 91.69L33.59 90.37C32.82 89.81 32.36 89.34 32.23 88.97C32.68 88.24 32.83 87.69 32.69 87.32C32.63 87.16 32.34 86.56 31.81 85.53C31.69 84.99 32.09 84.36 33.01 83.63L32.68 83.31C32.5 82.82 33.2 82.22 34.76 81.5C35.14 81.75 36.06 83.1 37.51 85.55C36.95 85.93 36.71 86.23 36.79 86.44C37.18 86.77 37.44 87.09 37.56 87.42C37.69 88.12 37.77 88.51 37.8 88.6C38.06 88.55 38.22 88.63 38.3 88.83L38.37 89.02C38.47 89.31 38.24 89.6 37.65 89.91C38 90.87 38.52 91.52 39.2 91.87C39.33 92.21 38.74 92.71 37.44 93.37C37.7 94.08 37.33 94.78 36.31 95.46C35.95 95.04 35.67 94.87 35.49 94.94L34.93 95.14C34.61 95.81 34.33 96.19 34.08 96.28C33.59 96.18 33.23 96.18 33 96.26C32.23 96.82 31.53 97.21 30.9 97.44C30.83 97.25 30.5 97.1 29.9 96.98L29.71 97.05L29.16 97.88L28.6 98.08L27.65 97.8C27.31 98.47 26.91 98.9 26.44 99.07L25.42 98.62L25.25 98.68L24.7 99.51L24.51 99.58C23.65 99.89 23.18 99.92 23.08 99.67C22.21 100.56 21.61 101.06 21.3 101.17L21 100.87C21.24 100.78 21.32 100.61 21.22 100.35L21.16 100.18L20.3 100.69C20.26 100.58 20.17 100.54 20.04 100.59C19.95 101.32 19.57 101.81 18.9 102.05L18.71 102.12L17.76 101.84L16.16 102.65C16.07 102.39 15.9 102.31 15.65 102.4C15.23 102.7 14.44 103.06 13.3 103.48C12.61 102.74 12.2 102.19 12.06 101.82C11.74 100.54 11.89 99.79 12.5 99.57C13.48 99.63 14.04 99.64 14.18 99.59C14.33 98.4 14.77 97.67 15.5 97.41C15.89 97.72 16.13 97.99 16.21 98.22L16.6 98.08C16.86 97.95 17 97.19 17.03 95.81C17.16 95.76 17.25 95.44 17.31 94.86L17.11 94.3C17.05 94.14 16.68 93.51 16 92.4C15.97 92.31 16.09 92.06 16.35 91.64C15.94 91.32 15.68 91 15.56 90.67L15.36 90.11L15.23 88.04L14.34 87.32C13.87 85.76 13.71 84.76 13.87 84.31L13.23 83.09C13.16 82.89 12.94 82.13 12.58 80.8C12.38 80.6 12.25 80.43 12.2 80.31C12.23 80.04 12.2 79.77 12.1 79.5L11.21 78.78L11.07 78.39L11.25 77.69L11.19 77.52C10.55 77.76 10.11 77.71 9.86998 77.37L9.72998 76.98C9.66998 76.73 9.74998 76.56 9.95998 76.48L10.32 76.35L10.78 76.4L10.93 75.69L10.66 74.96C10.57 74.7 9.87998 74.75 8.58998 75.09C8.53998 74.96 8.45998 74.92 8.34998 74.96L8.15998 75.03L7.37998 76.36L7.18998 76.43C6.78998 76.58 6.37998 76.24 5.96998 75.42L5.40998 75.62C5.71998 76.48 5.44998 77.06 4.59998 77.38C3.38998 76.37 2.76998 75.82 2.73998 75.75C2.43998 74.92 3.11998 74.11 4.78998 73.32C4.70998 73.11 4.96998 72.86 5.56998 72.6L6.12998 72.4C7.44998 72.34 8.26998 72.25 8.57998 72.13L9.49998 71.79C9.81998 71.25 10.19 70.91 10.6 70.75L11.16 70.55L12.09 70.84L12.28 70.77C12.39 70.73 12.84 70.43 13.63 69.86C13.89 70.18 14.33 70.23 14.95 70.01L15.14 69.94C14.87 69.2 15.22 68.64 16.21 68.28L16.2 68.32ZM17.22 85.45L17.42 86.01L17.78 85.88L17.58 85.32L17.22 85.45ZM19.14 78.62L19.7 78.42C19.87 78.36 20.13 78.48 20.46 78.77L20.6 79.16C20.68 79.37 20.43 79.68 19.86 80.06C19.31 80.06 19 79.96 18.93 79.77L18.79 79.38C18.73 79.21 18.84 78.95 19.14 78.62ZM18.36 75.96L18.75 75.82C19.01 75.77 19.17 75.85 19.25 76.05L19.32 76.24C19.41 76.48 19.33 76.65 19.09 76.74L18.7 76.88C18.46 76.97 18.29 76.89 18.2 76.65L18.13 76.46C18.08 76.2 18.16 76.04 18.36 75.96ZM21.88 84.37L22.61 84.1L22.48 83.74L22.12 83.87C21.89 83.99 21.81 84.15 21.89 84.37H21.88ZM20.09 77.22L20.28 77.15L20.48 77.71L20.29 77.78C20.05 77.87 19.88 77.79 19.79 77.55L20.08 77.22H20.09ZM27.18 92.54C27.45 92.49 27.63 92.56 27.7 92.76C27.79 93.02 27.71 93.19 27.46 93.29C27.22 93.38 27.05 93.29 26.95 93.04C26.9 92.78 26.98 92.62 27.18 92.54ZM30.48 87.76L30.81 88.05L30.88 88.24L30.32 88.44L30.25 88.25C30.2 87.99 30.28 87.83 30.48 87.75V87.76ZM31.89 90.4L32.06 90.34L32.26 90.9L32.09 90.96C31.83 91.05 31.66 90.97 31.56 90.72L31.88 90.41L31.89 90.4Z" fill="white"/>
<path d="M41.98 60.26C42.22 60.17 42.54 60.47 42.95 61.17L43.51 60.97L43.93 60.4L44.68 60.13L45.61 60.42C45.4 59.83 45.82 59.26 46.9 58.69C46.96 58.85 47.38 59.04 48.16 59.27C48.57 59.12 48.86 58.94 49.01 58.74C50.16 58.47 50.91 58.4 51.27 58.54L51.69 57.97L51.88 57.9C52.07 57.83 52.75 58.36 53.92 59.49L54.79 58.95L55.15 58.82C55.42 58.72 55.98 59.28 56.84 60.51C57.1 60.55 57.76 61.22 58.84 62.52C58.99 62.93 58.91 63.67 58.58 64.73C59.12 65.05 59.46 65.42 59.62 65.83L59.69 66.02L59.23 67.02L59.81 67.47L60.08 68.2C59.47 69.2 58.96 70.3 58.55 71.51C58.49 71.84 57.52 72.83 55.63 74.48L55.7 74.67C55.8 74.96 56.19 75.03 56.85 74.88L56.44 73.77L56.61 73.71C57.38 73.51 57.82 73.56 57.93 73.86L58.06 74.22L57.61 75.24L57.81 75.8C59.13 76 59.89 76.35 60.09 76.86L60.16 77.05C59.84 77.31 59.79 77.75 60.01 78.37C60.3 78.27 60.6 78.51 60.91 79.11L60.98 81.61L61.11 81.97C61.44 82.21 62.54 82.51 64.41 82.88C64.57 82.82 64.76 82.4 64.99 81.62L66.1 81.21C66.44 81.08 66.92 81.61 67.53 82.78L67.8 83.53C68.15 84.47 67.73 85.26 66.55 85.88C66.2 85.67 65.99 85.47 65.92 85.28L65.36 85.48L64.81 86.31L64.62 86.38C64.25 86.52 63.69 86.51 62.94 86.36C62.97 86.45 62.85 86.7 62.59 87.12C61.3 87.59 60.23 86.99 59.38 85.33C59.27 85.03 58.88 84.54 58.21 83.86C58.16 83.73 58.21 83.64 58.33 83.6L57.8 82.75L57.73 82.56V80.25L57.59 79.86C57.5 79.62 57.33 79.54 57.09 79.63C57.18 79.87 57.09 80.04 56.84 80.14C56.6 80.23 56.41 80.09 56.27 79.72C56.29 79.02 56.36 78.64 56.49 78.59L54.63 77.57C54.31 76.7 53.71 76.42 52.84 76.74C52.43 76.73 51.8 76.33 50.94 75.54C51.01 75.73 50.89 75.98 50.59 76.3L50.4 76.37C50.16 76.46 49.49 76.57 48.4 76.69C48.32 77.71 47.99 78.32 47.4 78.54C46.86 78.22 46.49 77.79 46.29 77.24L45.9 77.38L45.61 77.71C45.66 77.84 45.74 77.88 45.87 77.83C45.85 78.18 46.29 79.78 47.19 82.62C47.46 82.55 47.63 82.62 47.71 82.84L47.84 83.2C48.04 83.74 48.09 84.29 48 84.84C48.42 85.2 48.73 85.65 48.93 86.18L49.07 86.57L48.89 87.27L49.09 87.83L49.48 87.69L50.06 86.43L50.62 86.23C51.23 86.01 51.86 86.2 52.51 86.8C52.77 86.71 52.92 86.72 52.96 86.83L53.26 86.53L53.45 86.46C53.95 86.28 54.55 86.97 55.26 88.54C55 89.12 53.95 90.07 52.09 91.38C51.44 91.38 50.87 91.18 50.37 90.74L49.63 91.64L49.27 91.77C48.65 91.58 48.21 91.53 47.95 91.62C48.06 91.92 47.74 92.39 46.98 93.02C46.87 93.06 46.41 92.96 45.6 92.7L44.74 93.21C43.7 93.59 42.71 93.6 41.79 93.25C41.43 91.7 41.41 90.86 41.72 90.75C42.74 90.08 43.5 89.66 44 89.48C44.12 89.73 44.29 89.81 44.51 89.73L44.87 89.6C44.78 89.36 44.9 88.33 45.22 86.51C44.83 86.2 44.6 85.94 44.52 85.72C44.71 85.65 44.86 85.31 45 84.69L44.93 84.5C43.95 83.77 43.39 83.21 43.24 82.81C43.19 82.68 43.35 82.13 43.7 81.16L43.29 80.05C42.96 80.45 42.63 80.7 42.29 80.83L41.99 80.53L41.85 80.14L42.42 78.25L42.61 78.18L42.34 77.43L40.87 76.92L40.8 76.73L41.76 74.7C41.52 74.79 41.35 74.7 41.25 74.45L40.91 73.53C40.36 73.58 40.02 73.43 39.88 73.05C40.19 71.98 40.27 71.25 40.12 70.85L40.06 70.68L39.03 70.2L38.96 70.01C39.09 69.66 39.08 69.03 38.93 68.13C38.06 67.69 37.58 67.37 37.51 67.17L37.37 66.18L36.67 66L36.28 66.14L35.63 67.23L35.07 67.43C34.17 67.27 33.59 66.85 33.34 66.17L33.21 65.81C32.96 65.12 33.12 64.42 33.7 63.71L34.06 63.58L35.08 64.06L35.27 63.99L36.11 62.83L37.22 62.42C37.99 62.61 38.39 62.75 38.42 62.83C39.45 62.45 40.43 61.67 41.38 60.48L41.94 60.28L41.98 60.26ZM38.5 65.76C38.63 65.99 38.8 66.06 39 65.99L38.87 65.63L38.51 65.76H38.5ZM41.01 63.99L41.08 64.18L41.54 64.84C41.49 65.44 41.5 65.86 41.58 66.09C41.72 66.04 42.25 66.34 43.17 66.99L43.24 67.18C43.27 67.27 43.07 67.69 42.63 68.45L42.96 68.77C42.86 69.26 42.88 69.68 43 70.02L43.57 70.44L43.84 71.19L43.55 72.12L43.62 72.31C44.73 73.04 45.31 73.46 45.35 73.57L46.21 73.06L46.6 72.92C46.77 72.86 47.03 72.97 47.36 73.27L47.77 74.38L47.94 74.32C48.07 74.27 48.36 73.88 48.8 73.15L48.97 73.09C49.68 73.4 50.27 73.46 50.75 73.29L51.11 73.16L51.04 72.97L50.47 72.55L50.4 72.36C50.34 72.11 50.42 71.94 50.63 71.86C51.09 71.97 51.63 71.91 52.26 71.67L52.42 73.31L52.87 73.34C53.11 73.25 53.14 72.75 52.96 71.85C52.83 71.9 52.74 71.85 52.7 71.73C53.99 71.26 55.13 70.35 56.12 68.99C55.93 68.46 56.09 67.77 56.62 66.91L56.42 66.35L55.85 65.93L55.78 65.74C55.75 65.67 55.89 65.27 56.19 64.54L56.12 64.35C54.68 63 53.66 62.32 53.04 62.32C52.76 62.39 52.18 61.97 51.31 61.06L49.7 61.84C49.15 61.36 48.79 61.14 48.61 61.19L47.88 61.46L47.95 61.65L48.59 62.87L48.17 63.46L47.98 63.53C47.85 63.58 47.4 63.11 46.64 62.13L46.25 62.27C45.87 62.83 45.33 63.24 44.61 63.5C44.54 63.3 44.2 63.14 43.59 63.02L43.03 63.22C43.02 63.99 43.03 64.4 43.05 64.48C43.27 64.68 43.4 64.84 43.45 64.97L43.16 65.3L42.97 65.37C42.76 65.45 42.28 64.92 41.54 63.78L40.98 63.98L41.01 63.99ZM44.46 74.54C44.53 74.74 44.87 74.9 45.48 75.02L45.52 74.59L45.25 73.84L44.69 74.04C44.46 74.17 44.39 74.34 44.46 74.54ZM48.39 80.08L48.58 80.01C48.84 79.96 49 80.04 49.08 80.24L49.22 80.63C49.22 81.05 48.92 81.37 48.31 81.6L47.98 81.28C48.02 80.63 48.16 80.23 48.39 80.08ZM49.32 83.75L49.49 83.69C49.76 83.64 49.94 83.71 50.01 83.91C50.08 84.1 49.96 84.35 49.66 84.67C49.4 84.76 49.23 84.69 49.14 84.45L49.07 84.26C49.02 84 49.11 83.83 49.32 83.75ZM52.42 84.73L52.78 84.6L52.91 84.96C53 85.22 52.93 85.39 52.69 85.48C52.43 85.57 52.26 85.49 52.16 85.24C52.11 84.98 52.2 84.81 52.41 84.73H52.42ZM48.06 71.11C48.32 71.06 48.49 71.15 48.57 71.36L48.71 72.35L48.35 72.48C48.11 72.57 47.94 72.49 47.85 72.25L47.72 71.89C47.65 71.7 47.77 71.44 48.07 71.11H48.06ZM55.78 84.76C56.05 84.71 56.23 84.78 56.3 84.98L55.98 85.31C55.74 85.4 55.57 85.32 55.48 85.08L55.77 84.75L55.78 84.76ZM53.93 64.12L54.29 63.99L54.35 64.16L53.99 64.29L53.93 64.12ZM62.58 81.42L62.97 81.28L63.11 81.67C62.85 81.76 62.68 81.68 62.58 81.43V81.42Z" fill="white"/>
<path d="M68.2 50.66C68.44 50.57 68.76 50.87 69.17 51.57L69.73 51.37L70.15 50.8L70.9 50.53L71.83 50.82C71.62 50.23 72.04 49.66 73.12 49.09C73.18 49.25 73.6 49.44 74.38 49.67C74.79 49.52 75.08 49.34 75.23 49.14C76.38 48.87 77.13 48.8 77.49 48.94L77.91 48.37L78.1 48.3C78.29 48.23 78.97 48.76 80.14 49.89L81.01 49.35L81.37 49.22C81.64 49.12 82.2 49.68 83.06 50.91C83.32 50.95 83.98 51.62 85.06 52.92C85.21 53.33 85.13 54.07 84.8 55.13C85.34 55.45 85.68 55.82 85.84 56.23L85.91 56.42L85.45 57.42L86.03 57.87L86.3 58.6C85.69 59.6 85.18 60.7 84.77 61.91C84.71 62.24 83.74 63.23 81.85 64.88L81.92 65.07C82.02 65.36 82.41 65.43 83.07 65.28L82.66 64.17L82.83 64.11C83.6 63.91 84.04 63.96 84.15 64.26L84.28 64.62L83.83 65.64L84.03 66.2C85.35 66.4 86.11 66.75 86.31 67.26L86.38 67.45C86.06 67.71 86.01 68.15 86.23 68.77C86.52 68.67 86.82 68.91 87.13 69.51L87.2 72.01L87.33 72.37C87.66 72.61 88.76 72.91 90.63 73.28C90.79 73.22 90.98 72.8 91.21 72.02L92.32 71.61C92.66 71.48 93.14 72.01 93.75 73.18L94.02 73.93C94.37 74.87 93.95 75.66 92.77 76.28C92.42 76.07 92.21 75.87 92.14 75.68L91.58 75.88L91.03 76.71L90.84 76.78C90.47 76.92 89.91 76.91 89.16 76.76C89.19 76.85 89.07 77.1 88.81 77.52C87.52 77.99 86.45 77.39 85.6 75.73C85.49 75.43 85.1 74.94 84.43 74.26C84.38 74.13 84.43 74.04 84.55 74L84.02 73.15L83.95 72.96V70.65L83.81 70.26C83.72 70.02 83.55 69.94 83.31 70.03C83.4 70.27 83.31 70.44 83.06 70.54C82.82 70.63 82.63 70.49 82.49 70.12C82.51 69.42 82.58 69.04 82.71 68.99L80.85 67.97C80.53 67.1 79.93 66.82 79.06 67.14C78.65 67.13 78.02 66.73 77.16 65.94C77.23 66.13 77.11 66.38 76.81 66.7L76.62 66.77C76.38 66.86 75.71 66.97 74.62 67.09C74.54 68.11 74.21 68.72 73.62 68.94C73.08 68.62 72.71 68.19 72.51 67.64L72.12 67.78L71.83 68.11C71.88 68.24 71.96 68.28 72.09 68.23C72.07 68.58 72.51 70.18 73.41 73.02C73.68 72.95 73.85 73.02 73.93 73.24L74.06 73.6C74.26 74.14 74.31 74.69 74.22 75.24C74.64 75.6 74.95 76.05 75.15 76.58L75.29 76.97L75.11 77.67L75.31 78.23L75.7 78.09L76.28 76.83L76.84 76.63C77.45 76.41 78.08 76.6 78.73 77.2C78.99 77.11 79.14 77.12 79.18 77.23L79.48 76.93L79.67 76.86C80.17 76.68 80.77 77.37 81.48 78.94C81.22 79.52 80.17 80.47 78.31 81.78C77.66 81.78 77.09 81.58 76.59 81.14L75.85 82.04L75.49 82.17C74.87 81.98 74.43 81.93 74.17 82.02C74.28 82.32 73.96 82.79 73.2 83.42C73.09 83.46 72.63 83.36 71.82 83.1L70.96 83.61C69.92 83.99 68.93 84 68.01 83.65C67.65 82.1 67.63 81.26 67.94 81.15C68.96 80.48 69.72 80.06 70.22 79.88C70.34 80.13 70.51 80.21 70.73 80.13L71.09 80C71 79.76 71.12 78.73 71.44 76.91C71.05 76.6 70.82 76.34 70.74 76.12C70.93 76.05 71.08 75.71 71.22 75.09L71.15 74.9C70.17 74.17 69.61 73.61 69.46 73.21C69.41 73.08 69.57 72.53 69.92 71.56L69.51 70.45C69.18 70.85 68.85 71.1 68.51 71.23L68.21 70.93L68.07 70.54L68.64 68.65L68.83 68.58L68.56 67.83L67.09 67.32L67.02 67.13L67.98 65.1C67.74 65.19 67.57 65.1 67.47 64.85L67.13 63.93C66.58 63.98 66.24 63.83 66.1 63.45C66.41 62.38 66.49 61.65 66.34 61.25L66.28 61.08L65.25 60.6L65.18 60.41C65.31 60.06 65.3 59.43 65.15 58.53C64.28 58.09 63.8 57.77 63.73 57.57L63.59 56.58L62.89 56.4L62.5 56.54L61.85 57.63L61.29 57.83C60.39 57.67 59.81 57.25 59.56 56.57L59.43 56.21C59.18 55.52 59.34 54.82 59.92 54.11L60.28 53.98L61.3 54.46L61.49 54.39L62.33 53.23L63.44 52.82C64.21 53.01 64.61 53.15 64.64 53.23C65.67 52.85 66.65 52.07 67.6 50.88L68.16 50.68L68.2 50.66ZM64.72 56.16C64.85 56.39 65.02 56.46 65.22 56.39L65.09 56.03L64.73 56.16H64.72ZM67.23 54.39L67.3 54.58L67.76 55.24C67.71 55.84 67.72 56.26 67.8 56.49C67.94 56.44 68.47 56.74 69.39 57.39L69.46 57.58C69.49 57.67 69.29 58.09 68.85 58.85L69.18 59.17C69.08 59.66 69.1 60.08 69.22 60.42L69.79 60.84L70.06 61.59L69.77 62.52L69.84 62.71C70.95 63.44 71.53 63.86 71.57 63.97L72.43 63.46L72.82 63.32C72.99 63.26 73.25 63.37 73.58 63.67L73.99 64.78L74.16 64.72C74.29 64.67 74.58 64.28 75.02 63.55L75.19 63.49C75.9 63.8 76.49 63.86 76.97 63.69L77.33 63.56L77.26 63.37L76.69 62.95L76.62 62.76C76.56 62.51 76.64 62.34 76.85 62.26C77.31 62.37 77.85 62.31 78.48 62.07L78.64 63.71L79.09 63.74C79.33 63.65 79.36 63.15 79.18 62.25C79.05 62.3 78.96 62.25 78.92 62.13C80.21 61.66 81.35 60.75 82.34 59.39C82.15 58.86 82.31 58.17 82.84 57.31L82.64 56.75L82.07 56.33L82 56.14C81.97 56.07 82.11 55.67 82.41 54.94L82.34 54.75C80.9 53.4 79.88 52.72 79.26 52.72C78.98 52.79 78.4 52.37 77.53 51.46L75.92 52.24C75.37 51.76 75.01 51.54 74.83 51.59L74.1 51.86L74.17 52.05L74.81 53.27L74.39 53.86L74.2 53.93C74.07 53.98 73.62 53.51 72.86 52.53L72.47 52.67C72.09 53.23 71.55 53.64 70.83 53.9C70.76 53.7 70.42 53.54 69.81 53.42L69.25 53.62C69.24 54.39 69.25 54.8 69.27 54.88C69.49 55.08 69.62 55.24 69.67 55.37L69.38 55.7L69.19 55.77C68.98 55.85 68.5 55.32 67.76 54.18L67.2 54.38L67.23 54.39ZM70.68 64.94C70.75 65.14 71.09 65.3 71.7 65.42L71.74 64.99L71.47 64.24L70.91 64.44C70.68 64.57 70.61 64.74 70.68 64.94ZM74.61 70.48L74.8 70.41C75.06 70.36 75.22 70.44 75.3 70.64L75.44 71.03C75.44 71.45 75.14 71.77 74.53 72L74.2 71.68C74.24 71.03 74.38 70.63 74.61 70.48ZM75.54 74.15L75.71 74.09C75.98 74.04 76.16 74.11 76.23 74.31C76.3 74.5 76.18 74.75 75.88 75.07C75.62 75.16 75.45 75.09 75.36 74.85L75.29 74.66C75.24 74.4 75.33 74.23 75.54 74.15ZM78.64 75.13L79 75L79.13 75.36C79.22 75.62 79.15 75.79 78.91 75.88C78.65 75.97 78.48 75.89 78.38 75.64C78.33 75.38 78.42 75.21 78.63 75.13H78.64ZM74.28 61.51C74.54 61.46 74.71 61.55 74.79 61.76L74.93 62.75L74.57 62.88C74.33 62.97 74.16 62.89 74.07 62.65L73.94 62.29C73.87 62.1 73.99 61.84 74.29 61.51H74.28ZM82 75.16C82.27 75.11 82.45 75.18 82.52 75.38L82.2 75.71C81.96 75.8 81.79 75.72 81.7 75.48L81.99 75.15L82 75.16ZM80.15 54.52L80.51 54.39L80.57 54.56L80.21 54.69L80.15 54.52ZM88.8 71.82L89.19 71.68L89.33 72.07C89.07 72.16 88.9 72.08 88.8 71.83V71.82Z" fill="white"/>
<path d="M98.32 40.59C98.53 40.51 99.11 40.78 100.05 41.39C100.08 40.76 100.21 40.38 100.43 40.23C101.34 39.9 102.16 40.07 102.89 40.76L104.02 39.93C104.48 39.76 104.98 40.2 105.52 41.23C105.71 41.16 106.04 41.32 106.52 41.69L106.81 41.36L106.98 41.3C107.49 41.11 108.85 42.19 111.03 44.53C111.89 44.63 112.52 45.22 112.92 46.29L113.36 46.35L113.5 47.32C114.39 47.89 114.93 48.43 115.12 48.96C114.99 49.01 114.87 49.6 114.75 50.75C115.01 50.7 115.17 50.78 115.25 50.98L115.31 51.15C115.41 51.42 115.44 51.69 115.41 51.94C115.8 52.25 116.05 52.57 116.17 52.9L116.23 53.07L115.64 54.31L116.46 54.83L116.92 56.09C116.7 56.51 116.77 57.44 117.12 58.89C116.58 59.28 116.5 59.99 116.88 61.02C117.05 60.96 117.3 61.07 117.61 61.36L117.68 61.55C116.48 61.99 116.08 62.75 116.48 63.84C116.21 64.62 115.66 65.16 114.82 65.47C115.17 66.43 114.5 67.21 112.82 67.83C113.18 68.8 112.63 69.55 111.19 70.08C111.1 69.84 110.93 69.76 110.69 69.85L110.33 69.98L109.93 71.15L109.59 71.28C108.96 71.51 108.53 71.47 108.3 71.14L108 71.44L106.37 72.04C106.13 72.13 105.87 71.82 105.61 71.1L105.44 71.16C105.17 71.26 104.95 71.41 104.77 71.6C103.38 71.88 102.53 71.58 102.2 70.69C100.04 70.43 98.78 69.79 98.42 68.79C97.15 68.67 96.36 68.22 96.07 67.41L96 67.22L96.06 66.78C95.37 67.03 94.67 66.41 93.94 64.91L93.38 65.11L93.25 64.75C93.49 64.26 93.49 63.5 93.25 62.49C93.06 62.56 92.73 62.4 92.25 62.03L91.79 60.77C91.69 60.5 91.55 60.28 91.36 60.13L91.56 59.01L91.43 58.67C91.07 58.8 90.85 58.75 90.76 58.5L90.69 58.31C91.1 58.16 91.05 56.88 90.53 54.48C90.64 54.44 90.69 54.22 90.68 53.82C90.1 53.35 89.77 52.99 89.68 52.75C90.66 52.05 91.02 51.37 90.77 50.7C90.53 50.79 90.36 50.72 90.28 50.49L90.15 50.13C90.08 49.9 90.47 49.28 91.32 48.27C91.37 46.91 91.51 46.17 91.75 46.05C92.49 46.2 92.98 46.23 93.22 46.14L93.15 45.95C93.06 45.71 92.89 45.63 92.65 45.72C92.65 45.12 92.9 44.48 93.39 43.82L95.36 43.1C95.16 42.56 95.57 41.99 96.59 41.41C96.7 41.37 97.16 41.48 97.95 41.74C97.98 41.11 98.11 40.72 98.35 40.57L98.32 40.59ZM99.77 44.56C98.87 44.36 98.24 44.32 97.88 44.45L98.38 45.29L98.58 45.83C98.67 46.07 98.53 46.26 98.18 46.39C97.87 46.51 97.38 46.48 96.72 46.32L95.99 46.59L96.25 47.3C96.41 47.74 96.35 48.32 96.06 49.02L95.09 49.16L94.92 49.22C94.69 49.35 94.62 49.52 94.69 49.72L95.13 50.39C94.61 51.59 94.41 52.34 94.53 52.65L94.72 52.58C95.23 52.47 95.54 52.58 95.65 52.87L95.91 53.58C96 53.82 95.92 53.99 95.68 54.08L95.32 54.21L94.65 54.04C94.46 54.11 94.37 54.42 94.36 54.97L94.95 55.99C94.71 56.08 94.7 56.63 94.92 57.63C95.28 58.21 95.56 58.79 95.77 59.36L95.71 59.8C97.3 62.36 98.17 63.62 98.33 63.56C98.27 62.9 98.33 62.54 98.54 62.46C98.8 62.41 98.96 62.49 99.04 62.69L99.17 63.05C99.26 63.29 99 63.52 98.4 63.74L98.66 64.45C99.33 64.2 100.22 64.77 101.32 66.15C102.48 65.73 103.48 66.24 104.34 67.69L105.97 67.09C106.72 67.51 107.14 67.71 107.21 67.68L107.4 67.61C107.75 66.93 107.96 66.58 108.03 66.55L108.39 66.42C108.79 66.4 109.1 66.7 109.32 67.3L109.68 67.17C109.92 67.08 109.98 66.86 109.85 66.5L109.33 65.67C109.74 65.11 110.22 64.74 110.76 64.54C110.96 64.69 111.11 64.91 111.21 65.18L111.75 64.98C112.02 64.88 112.09 64.52 111.96 63.88C111.73 63.96 111.57 63.88 111.48 63.64L111.28 63.1C111.22 62.93 111.33 62.68 111.62 62.37C111.82 62.3 112.22 62.29 112.83 62.34C112.94 61.72 112.98 60.88 112.96 59.84L113.79 59.32L114.33 59.12L114.27 58.95L113.64 57.75L113.88 56.23C113.68 56.03 113.55 55.86 113.5 55.74L113.84 55.01C113.35 53.68 112.7 52.83 111.88 52.45C112.1 51.56 112.1 50.8 111.88 50.19C111.49 50.09 110.79 49.12 109.79 47.28L109.6 47.35C109.82 47.95 109.75 48.32 109.39 48.45C109.15 48.54 108.98 48.46 108.89 48.22L108.83 48.05C108.9 47.48 109.11 47.12 109.46 46.99L109.39 46.8L107.23 45.96L107.09 44.99L107.02 44.8C106.94 44.57 106.77 44.5 106.53 44.59L106.34 44.66L105.93 45.2C104.72 44.51 103.97 43.76 103.68 42.96L102.89 43.06C102.91 44.01 102.83 44.52 102.65 44.58C101.86 44.68 101.38 44.5 101.22 44.06L101.33 43.22L100.89 43.16L100.53 43.29C100.21 44.09 99.96 44.52 99.79 44.58L99.77 44.56ZM96.27 56.3L96.6 56.59L96.67 56.78L96.11 56.98L96.04 56.79C95.99 56.53 96.07 56.37 96.27 56.29V56.3ZM109.16 61.84L109.35 61.77L109.48 62.13L109.29 62.2L109.16 61.84Z" fill="white"/>
<path d="M121.48 31.14C121.72 31.05 122.04 31.35 122.45 32.05L123.01 31.85L123.43 31.28L124.18 31.01L125.11 31.3C124.9 30.71 125.32 30.14 126.4 29.57C126.46 29.73 126.88 29.92 127.66 30.15C128.07 30 128.36 29.82 128.51 29.62C129.66 29.35 130.41 29.28 130.77 29.42L131.19 28.85L131.38 28.78C131.57 28.71 132.25 29.24 133.42 30.37L134.29 29.83L134.65 29.7C134.92 29.6 135.48 30.16 136.34 31.39C136.6 31.43 137.26 32.1 138.34 33.4C138.49 33.81 138.41 34.55 138.08 35.61C138.62 35.93 138.96 36.3 139.12 36.71L139.19 36.9L138.73 37.9L139.31 38.35L139.58 39.08C138.97 40.08 138.46 41.18 138.05 42.39C137.99 42.72 137.02 43.71 135.13 45.36L135.2 45.55C135.3 45.84 135.69 45.91 136.35 45.76L135.94 44.65L136.11 44.59C136.88 44.39 137.32 44.44 137.43 44.74L137.56 45.1L137.11 46.12L137.31 46.68C138.63 46.88 139.39 47.23 139.59 47.74L139.66 47.93C139.34 48.19 139.29 48.63 139.51 49.25C139.8 49.15 140.1 49.39 140.41 49.99L140.48 52.49L140.61 52.85C140.94 53.09 142.04 53.39 143.91 53.76C144.07 53.7 144.26 53.28 144.49 52.5L145.6 52.09C145.94 51.96 146.42 52.49 147.03 53.66L147.3 54.41C147.65 55.35 147.23 56.14 146.05 56.76C145.7 56.55 145.49 56.35 145.42 56.16L144.86 56.36L144.31 57.19L144.12 57.26C143.75 57.4 143.19 57.39 142.44 57.24C142.47 57.33 142.35 57.58 142.09 58C140.8 58.47 139.73 57.87 138.88 56.21C138.77 55.91 138.38 55.42 137.71 54.74C137.66 54.61 137.71 54.52 137.83 54.48L137.3 53.63L137.23 53.44V51.13L137.09 50.74C137 50.5 136.83 50.42 136.59 50.51C136.68 50.75 136.59 50.92 136.34 51.02C136.1 51.11 135.91 50.97 135.77 50.6C135.79 49.9 135.86 49.52 135.99 49.47L134.13 48.45C133.81 47.58 133.21 47.3 132.34 47.62C131.93 47.61 131.3 47.21 130.44 46.42C130.51 46.61 130.39 46.86 130.09 47.18L129.9 47.25C129.66 47.34 128.99 47.45 127.9 47.57C127.82 48.59 127.49 49.2 126.9 49.42C126.36 49.1 125.99 48.67 125.79 48.12L125.4 48.26L125.11 48.59C125.16 48.72 125.24 48.76 125.37 48.71C125.35 49.06 125.79 50.66 126.69 53.5C126.96 53.43 127.13 53.5 127.21 53.72L127.34 54.08C127.54 54.62 127.59 55.17 127.5 55.72C127.92 56.08 128.23 56.53 128.43 57.06L128.57 57.45L128.39 58.15L128.59 58.71L128.98 58.57L129.56 57.31L130.12 57.11C130.73 56.89 131.36 57.08 132.01 57.68C132.27 57.59 132.42 57.6 132.46 57.71L132.76 57.41L132.95 57.34C133.45 57.16 134.05 57.85 134.76 59.42C134.5 60 133.45 60.95 131.59 62.26C130.94 62.26 130.37 62.06 129.87 61.62L129.13 62.52L128.77 62.65C128.15 62.46 127.71 62.41 127.45 62.5C127.56 62.8 127.24 63.27 126.48 63.9C126.37 63.94 125.91 63.84 125.1 63.58L124.24 64.09C123.2 64.47 122.21 64.48 121.29 64.13C120.93 62.58 120.91 61.74 121.22 61.63C122.24 60.96 123 60.54 123.5 60.36C123.62 60.61 123.79 60.69 124.01 60.61L124.37 60.48C124.28 60.24 124.4 59.21 124.72 57.39C124.33 57.08 124.1 56.82 124.02 56.6C124.21 56.53 124.36 56.19 124.5 55.57L124.43 55.38C123.45 54.65 122.89 54.09 122.74 53.69C122.69 53.56 122.85 53.01 123.2 52.04L122.79 50.93C122.46 51.33 122.13 51.58 121.79 51.71L121.49 51.41L121.35 51.02L121.92 49.13L122.11 49.06L121.84 48.31L120.37 47.8L120.3 47.61L121.26 45.58C121.02 45.67 120.85 45.58 120.75 45.33L120.41 44.41C119.86 44.46 119.52 44.31 119.38 43.93C119.69 42.86 119.77 42.13 119.62 41.73L119.56 41.56L118.53 41.08L118.46 40.89C118.59 40.54 118.58 39.91 118.43 39.01C117.56 38.57 117.08 38.25 117.01 38.05L116.87 37.06L116.17 36.88L115.78 37.02L115.13 38.11L114.57 38.31C113.67 38.15 113.09 37.73 112.84 37.05L112.71 36.69C112.46 36 112.62 35.3 113.2 34.59L113.56 34.46L114.58 34.94L114.77 34.87L115.61 33.71L116.72 33.3C117.49 33.49 117.89 33.63 117.92 33.71C118.95 33.33 119.93 32.55 120.88 31.36L121.44 31.16L121.48 31.14ZM118 36.64C118.13 36.87 118.3 36.94 118.5 36.87L118.37 36.51L118.01 36.64H118ZM120.51 34.87L120.58 35.06L121.04 35.72C120.99 36.32 121 36.74 121.08 36.97C121.22 36.92 121.75 37.22 122.67 37.87L122.74 38.06C122.77 38.15 122.57 38.57 122.13 39.33L122.46 39.65C122.36 40.14 122.38 40.56 122.5 40.9L123.07 41.32L123.34 42.07L123.05 43L123.12 43.19C124.23 43.92 124.81 44.34 124.85 44.45L125.71 43.94L126.1 43.8C126.27 43.74 126.53 43.85 126.86 44.15L127.27 45.26L127.44 45.2C127.57 45.15 127.86 44.76 128.3 44.03L128.47 43.97C129.18 44.28 129.77 44.34 130.25 44.17L130.61 44.04L130.54 43.85L129.97 43.43L129.9 43.24C129.84 42.99 129.92 42.82 130.13 42.74C130.59 42.85 131.13 42.79 131.76 42.55L131.92 44.19L132.37 44.22C132.61 44.13 132.64 43.63 132.46 42.73C132.33 42.78 132.24 42.73 132.2 42.61C133.49 42.14 134.63 41.23 135.62 39.87C135.43 39.34 135.59 38.65 136.12 37.79L135.92 37.23L135.35 36.81L135.28 36.62C135.25 36.55 135.39 36.15 135.69 35.42L135.62 35.23C134.18 33.88 133.16 33.2 132.54 33.2C132.26 33.27 131.68 32.85 130.81 31.94L129.2 32.72C128.65 32.24 128.29 32.02 128.11 32.07L127.38 32.34L127.45 32.53L128.09 33.75L127.67 34.34L127.48 34.41C127.35 34.46 126.9 33.99 126.14 33.01L125.75 33.15C125.37 33.71 124.83 34.12 124.11 34.38C124.04 34.18 123.7 34.02 123.09 33.9L122.53 34.1C122.52 34.87 122.53 35.28 122.55 35.36C122.77 35.56 122.9 35.72 122.95 35.85L122.66 36.18L122.47 36.25C122.26 36.33 121.78 35.8 121.04 34.66L120.48 34.86L120.51 34.87ZM123.96 45.42C124.03 45.62 124.37 45.78 124.98 45.9L125.02 45.47L124.75 44.72L124.19 44.92C123.96 45.05 123.89 45.22 123.96 45.42ZM127.89 50.96L128.08 50.89C128.34 50.84 128.5 50.92 128.58 51.12L128.72 51.51C128.72 51.93 128.42 52.25 127.81 52.48L127.48 52.16C127.52 51.51 127.66 51.11 127.89 50.96ZM128.82 54.63L128.99 54.57C129.26 54.52 129.44 54.59 129.51 54.79C129.58 54.98 129.46 55.23 129.16 55.55C128.9 55.64 128.73 55.57 128.64 55.33L128.57 55.14C128.52 54.88 128.61 54.71 128.82 54.63ZM131.92 55.61L132.28 55.48L132.41 55.84C132.5 56.1 132.43 56.27 132.19 56.36C131.93 56.45 131.76 56.37 131.66 56.12C131.61 55.86 131.7 55.69 131.91 55.61H131.92ZM127.56 41.99C127.82 41.94 127.99 42.03 128.07 42.24L128.21 43.23L127.85 43.36C127.61 43.45 127.44 43.37 127.35 43.13L127.22 42.77C127.15 42.58 127.27 42.32 127.57 41.99H127.56ZM135.28 55.64C135.55 55.59 135.73 55.66 135.8 55.86L135.48 56.19C135.24 56.28 135.07 56.2 134.98 55.96L135.27 55.63L135.28 55.64ZM133.43 35L133.79 34.87L133.85 35.04L133.49 35.17L133.43 35ZM142.08 52.3L142.47 52.16L142.61 52.55C142.35 52.64 142.18 52.56 142.08 52.31V52.3Z" fill="white"/>
<path d="M156.1 16.15C156.47 16.01 157.05 16.2 157.83 16.71L157.88 16.86C158.02 17.23 158.13 17.71 158.23 18.29C158.55 18.55 158.74 18.76 158.8 18.93C158.35 19.55 158.2 20.07 158.35 20.48C158.83 20.87 159.13 21.22 159.24 21.52L159.29 21.67C159.33 21.9 159.15 22.19 158.76 22.54C158.52 22.51 158.35 22.52 158.25 22.55L158.09 23.12C158.14 23.26 158.75 23.5 159.91 23.84L160.02 24.14C160.07 24.28 159.98 24.49 159.73 24.75L158.75 24.94C159 26.03 159.03 26.88 158.83 27.49L158.94 27.79L159.41 28.13L159.57 28.58C159.63 28.74 159.5 29.01 159.19 29.4L158.83 29.36C158.3 29.55 158.24 30.32 158.65 31.66C158.37 32.18 158.29 32.61 158.41 32.94C158.74 33.05 158.98 33.07 159.14 33.01L160.14 32.48C160.97 32.4 161.46 32.34 161.6 32.29C161.55 32.15 161.65 31.94 161.91 31.67L162.06 31.62C162.47 31.47 162.93 31.47 163.43 31.63L163.68 31.37L164.28 31.15C164.47 31.08 164.98 31.07 165.82 31.12L165.77 30.97L165.39 30.4L165.64 30.14L165.94 30.03L166.5 30.17L166.95 30.01L166.84 29.71C166.55 29.54 166.38 29.38 166.32 29.22C165.5 26.98 164.9 25.03 164.52 23.37L163.96 23.23C164.03 23.43 163.96 23.57 163.77 23.64C163.54 23.72 163.26 23.43 162.94 22.75L163.19 22.49L163.49 22.38L163.85 22.42L163.89 22.06L163.46 21.34L163.34 20.53C163.17 20.37 163.06 20.23 163.02 20.13L162.87 20.18C163.24 21.18 163.27 21.74 162.97 21.85L162.67 21.96C162.47 22.03 162.33 21.97 162.26 21.77C162.21 20.43 162.24 19.74 162.35 19.69L162.91 19.83C162.99 18.31 163.2 17.49 163.56 17.36C164.56 16.99 165.34 17.57 165.89 19.08C166.1 19.65 166.18 20.02 166.12 20.19C166.42 20.7 166.64 21.14 166.77 21.51L167.55 23.63C167.73 24.13 167.72 24.42 167.52 24.49L167.94 25.19L168.94 27.91C169.02 28.14 169.05 28.36 169.01 28.57L169.76 29.68L170.34 28.93L170.81 28.76L171.38 28.92L172.13 28.65L172.46 28.16L172.61 28.11L173.18 28.27L173.95 27.99C174.15 27.92 174.21 27.77 174.13 27.56C174.03 27.6 173.96 27.56 173.93 27.46L174.18 27.2C175.29 27.44 176.01 27.7 176.33 27.97L176.49 28.42C176.86 29.42 176.59 30.09 175.69 30.42L175.09 30.64L174.32 30.41C174.22 30.45 173.99 30.77 173.63 31.37L173.18 31.53C172.98 31.6 172.82 31.48 172.71 31.17L171.81 31.5C171.93 31.81 171.88 32.01 171.68 32.08L170.74 31.89L170.59 31.94C170.45 31.99 170.35 32.21 170.31 32.58C170.87 33.48 171.17 33.99 171.21 34.12L171.32 34.42C171.48 34.86 171.53 35.31 171.47 35.75C171.8 36.03 172.05 36.4 172.21 36.84L172.54 37.74C172.81 39.13 172.54 39.97 171.76 40.26C171.22 40.46 170.38 39.91 169.26 38.6C169.14 38.27 169.21 37.68 169.46 36.82C168.93 36.09 168.63 35.74 168.56 35.76C168.41 34.73 168.23 33.94 168.04 33.4L167.68 33.34C167.55 33.52 167.37 33.65 167.14 33.73C167.1 33.62 166.75 33.45 166.11 33.23C166.01 33.27 165.78 33.58 165.41 34.17L165.11 34.28L164.34 34.05C164.21 34.1 163.94 34.6 163.53 35.56L163.38 35.61C163.29 35.64 162.81 35.42 161.92 34.93L161.22 35.35C160.63 35.45 160.21 35.55 159.96 35.64C160.01 36.09 159.88 36.37 159.57 36.49C158.88 36.74 158.14 36.72 157.34 36.43L156.73 37.16C155.71 37.16 155.06 36.78 154.78 36C154.63 33.9 154.94 32.42 155.72 31.55C155.71 29.66 155.68 28.64 155.62 28.5C155.52 28.54 155.45 28.5 155.42 28.4C155.69 27.94 155.93 27.68 156.15 27.6L155.88 26.85C155.85 24.55 155.7 22.43 155.45 20.49L155.4 20.34L154.72 19.4C155.26 19.01 155.43 18.54 155.23 18C155.06 17.53 155.35 16.91 156.11 16.15H156.1ZM160.11 26.16C160.25 26.11 160.46 26.21 160.73 26.47C160.72 26.93 160.64 27.18 160.5 27.24L160.35 27.29C160.15 27.36 160.01 27.3 159.94 27.1C159.88 26.54 159.94 26.23 160.11 26.16Z" fill="white"/>
<path d="M179.39 10.9C179.6 10.82 180.18 11.09 181.12 11.7C181.15 11.07 181.28 10.69 181.5 10.54C182.41 10.21 183.23 10.38 183.96 11.07L185.09 10.24C185.55 10.07 186.05 10.51 186.59 11.54C186.78 11.47 187.11 11.63 187.59 12L187.88 11.67L188.05 11.61C188.56 11.42 189.92 12.5 192.1 14.84C192.96 14.94 193.59 15.53 193.99 16.6L194.43 16.66L194.57 17.63C195.46 18.2 196 18.74 196.19 19.27C196.06 19.32 195.94 19.91 195.82 21.06C196.08 21.01 196.24 21.09 196.32 21.29L196.38 21.46C196.48 21.73 196.51 22 196.48 22.25C196.87 22.56 197.12 22.88 197.24 23.21L197.3 23.38L196.71 24.62L197.53 25.14L197.99 26.4C197.77 26.82 197.84 27.75 198.19 29.2C197.65 29.59 197.57 30.3 197.95 31.33C198.12 31.27 198.37 31.38 198.68 31.67L198.75 31.86C197.55 32.3 197.15 33.06 197.55 34.15C197.28 34.93 196.73 35.47 195.89 35.78C196.24 36.74 195.57 37.52 193.89 38.14C194.25 39.11 193.7 39.86 192.26 40.39C192.17 40.15 192 40.07 191.76 40.16L191.4 40.29L191 41.46L190.66 41.59C190.03 41.82 189.6 41.78 189.37 41.45L189.07 41.75L187.44 42.35C187.2 42.44 186.94 42.13 186.68 41.41L186.51 41.47C186.24 41.57 186.02 41.72 185.84 41.91C184.45 42.19 183.6 41.89 183.27 41C181.11 40.74 179.85 40.1 179.49 39.1C178.22 38.98 177.43 38.53 177.14 37.72L177.07 37.53L177.13 37.09C176.44 37.34 175.74 36.72 175.01 35.22L174.45 35.42L174.32 35.06C174.56 34.57 174.56 33.81 174.32 32.8C174.13 32.87 173.8 32.71 173.32 32.34L172.86 31.08C172.76 30.81 172.62 30.59 172.43 30.44L172.63 29.32L172.5 28.98C172.14 29.11 171.92 29.06 171.83 28.81L171.76 28.62C172.17 28.47 172.12 27.19 171.6 24.79C171.71 24.75 171.76 24.53 171.75 24.13C171.17 23.66 170.84 23.3 170.75 23.06C171.73 22.36 172.09 21.68 171.84 21.01C171.6 21.1 171.43 21.03 171.35 20.8L171.22 20.44C171.15 20.21 171.54 19.59 172.39 18.58C172.44 17.22 172.58 16.48 172.82 16.36C173.56 16.51 174.05 16.54 174.29 16.45L174.22 16.26C174.13 16.02 173.96 15.94 173.72 16.03C173.72 15.43 173.97 14.79 174.46 14.13L176.43 13.41C176.23 12.87 176.64 12.3 177.66 11.72C177.77 11.68 178.23 11.79 179.02 12.05C179.05 11.42 179.18 11.03 179.42 10.88L179.39 10.9ZM180.84 14.87C179.94 14.67 179.31 14.63 178.95 14.76L179.45 15.6L179.65 16.14C179.74 16.38 179.6 16.57 179.25 16.7C178.94 16.82 178.45 16.79 177.79 16.63L177.06 16.9L177.32 17.61C177.48 18.05 177.42 18.63 177.13 19.33L176.16 19.47L175.99 19.53C175.76 19.66 175.69 19.83 175.76 20.03L176.2 20.7C175.68 21.9 175.48 22.65 175.6 22.96L175.79 22.89C176.3 22.78 176.61 22.89 176.72 23.18L176.98 23.89C177.07 24.13 176.99 24.3 176.75 24.39L176.39 24.52L175.72 24.35C175.53 24.42 175.44 24.73 175.43 25.28L176.02 26.3C175.78 26.39 175.77 26.94 175.99 27.94C176.35 28.52 176.63 29.1 176.84 29.67L176.78 30.11C178.37 32.67 179.24 33.93 179.4 33.87C179.34 33.21 179.4 32.85 179.61 32.77C179.87 32.72 180.03 32.8 180.11 33L180.24 33.36C180.33 33.6 180.07 33.83 179.47 34.05L179.73 34.76C180.4 34.51 181.29 35.08 182.39 36.46C183.55 36.04 184.55 36.55 185.41 38L187.04 37.4C187.79 37.82 188.21 38.02 188.28 37.99L188.47 37.92C188.82 37.24 189.03 36.89 189.1 36.86L189.46 36.73C189.86 36.71 190.17 37.01 190.39 37.61L190.75 37.48C190.99 37.39 191.05 37.17 190.92 36.81L190.4 35.98C190.81 35.42 191.29 35.05 191.83 34.85C192.03 35 192.18 35.22 192.28 35.49L192.82 35.29C193.09 35.19 193.16 34.83 193.03 34.19C192.8 34.27 192.64 34.19 192.55 33.95L192.35 33.41C192.29 33.24 192.4 32.99 192.69 32.68C192.89 32.61 193.29 32.6 193.9 32.65C194.01 32.03 194.05 31.19 194.03 30.15L194.86 29.63L195.4 29.43L195.34 29.26L194.71 28.06L194.95 26.54C194.75 26.34 194.62 26.17 194.57 26.05L194.91 25.32C194.42 23.99 193.77 23.14 192.95 22.76C193.17 21.87 193.17 21.11 192.95 20.5C192.56 20.4 191.86 19.43 190.86 17.59L190.67 17.66C190.89 18.26 190.82 18.63 190.46 18.76C190.22 18.85 190.05 18.77 189.96 18.53L189.9 18.36C189.97 17.79 190.18 17.43 190.53 17.3L190.46 17.11L188.3 16.27L188.16 15.3L188.09 15.11C188.01 14.88 187.84 14.81 187.6 14.9L187.41 14.97L187 15.51C185.79 14.82 185.04 14.07 184.75 13.27L183.96 13.37C183.98 14.32 183.9 14.83 183.72 14.89C182.93 14.99 182.45 14.81 182.29 14.37L182.4 13.53L181.96 13.47L181.6 13.6C181.28 14.4 181.03 14.83 180.86 14.89L180.84 14.87ZM177.34 26.61L177.67 26.9L177.74 27.09L177.18 27.29L177.11 27.1C177.06 26.84 177.14 26.68 177.34 26.6V26.61ZM190.23 32.15L190.42 32.08L190.55 32.44L190.36 32.51L190.23 32.15Z" fill="white"/>
<path d="M200.06 0.0400027C200.43 -0.0999973 201.01 0.0900027 201.79 0.600003L201.84 0.750003C201.98 1.12 202.09 1.6 202.19 2.18C202.51 2.44 202.7 2.65 202.76 2.82C202.31 3.44 202.16 3.96 202.31 4.37C202.79 4.76 203.09 5.11 203.2 5.41L203.25 5.56C203.29 5.79 203.11 6.08 202.72 6.43C202.48 6.4 202.31 6.41 202.21 6.44L202.05 7.01C202.1 7.15 202.71 7.39 203.87 7.73L203.98 8.03C204.03 8.17 203.94 8.38 203.69 8.64L202.71 8.83C202.96 9.92 202.99 10.77 202.79 11.38L202.9 11.68L203.37 12.02L203.53 12.47C203.59 12.63 203.46 12.9 203.15 13.29L202.79 13.25C202.26 13.44 202.2 14.21 202.61 15.55C202.33 16.07 202.25 16.5 202.37 16.83C202.7 16.94 202.94 16.96 203.1 16.9L204.1 16.37C204.93 16.29 205.42 16.23 205.56 16.18C205.51 16.04 205.61 15.83 205.87 15.56L206.02 15.51C206.43 15.36 206.89 15.36 207.39 15.52L207.64 15.26L208.24 15.04C208.43 14.97 208.94 14.96 209.78 15.01L209.73 14.86L209.35 14.29L209.6 14.03L209.9 13.92L210.46 14.06L210.91 13.9L210.8 13.6C210.51 13.43 210.34 13.27 210.28 13.11C209.46 10.87 208.86 8.92 208.48 7.26L207.92 7.12C207.99 7.32 207.92 7.46 207.73 7.53C207.5 7.61 207.22 7.32 206.9 6.64L207.15 6.38L207.45 6.27L207.81 6.31L207.85 5.95L207.42 5.23L207.3 4.42C207.13 4.26 207.02 4.12 206.98 4.02L206.83 4.07C207.2 5.07 207.23 5.63 206.93 5.74L206.63 5.85C206.43 5.92 206.29 5.86 206.22 5.66C206.17 4.32 206.2 3.63 206.31 3.58L206.87 3.72C206.95 2.2 207.16 1.38 207.52 1.25C208.52 0.880003 209.3 1.46 209.85 2.97C210.06 3.54 210.14 3.91 210.08 4.08C210.38 4.59 210.6 5.03 210.73 5.4L211.51 7.52C211.69 8.02 211.68 8.31 211.48 8.38L211.9 9.08L212.9 11.8C212.98 12.03 213.01 12.25 212.97 12.46L213.72 13.57L214.3 12.82L214.77 12.65L215.34 12.81L216.09 12.54L216.42 12.05L216.57 12L217.14 12.16L217.91 11.88C218.11 11.81 218.17 11.66 218.09 11.45C217.99 11.49 217.92 11.45 217.89 11.35L218.14 11.09C219.25 11.33 219.97 11.59 220.29 11.86L220.45 12.31C220.82 13.31 220.55 13.98 219.65 14.31L219.05 14.53L218.28 14.3C218.18 14.34 217.95 14.66 217.59 15.26L217.14 15.42C216.94 15.49 216.78 15.37 216.67 15.06L215.77 15.39C215.89 15.7 215.84 15.9 215.64 15.97L214.7 15.78L214.55 15.83C214.41 15.88 214.31 16.1 214.27 16.47C214.83 17.37 215.13 17.88 215.17 18.01L215.28 18.31C215.44 18.75 215.49 19.2 215.43 19.64C215.76 19.92 216.01 20.29 216.17 20.73L216.5 21.63C216.77 23.02 216.5 23.86 215.72 24.15C215.18 24.35 214.34 23.8 213.22 22.49C213.1 22.16 213.17 21.57 213.42 20.71C212.89 19.98 212.59 19.63 212.52 19.65C212.37 18.62 212.19 17.83 212 17.29L211.64 17.23C211.51 17.41 211.33 17.54 211.1 17.62C211.06 17.51 210.71 17.34 210.07 17.12C209.97 17.16 209.74 17.47 209.37 18.06L209.07 18.17L208.3 17.94C208.17 17.99 207.9 18.49 207.49 19.45L207.34 19.5C207.25 19.53 206.77 19.31 205.88 18.82L205.18 19.24C204.59 19.34 204.17 19.44 203.92 19.53C203.97 19.98 203.84 20.26 203.53 20.38C202.84 20.63 202.1 20.61 201.3 20.32L200.69 21.05C199.67 21.05 199.02 20.67 198.74 19.89C198.59 17.79 198.9 16.31 199.68 15.44C199.67 13.55 199.64 12.53 199.58 12.39C199.48 12.43 199.41 12.39 199.38 12.29C199.65 11.83 199.89 11.57 200.11 11.49L199.84 10.74C199.81 8.44 199.66 6.32 199.41 4.38L199.36 4.23L198.68 3.29C199.22 2.9 199.39 2.43 199.19 1.89C199.02 1.42 199.31 0.800003 200.07 0.0400027H200.06ZM204.07 10.05C204.21 10 204.42 10.1 204.69 10.36C204.68 10.82 204.6 11.07 204.46 11.13L204.31 11.18C204.11 11.25 203.97 11.19 203.9 10.99C203.84 10.43 203.9 10.12 204.07 10.05Z" fill="white"/>
</g>
<defs>
<clipPath id="clip0_453_1263">
<rect width="220.62" height="104.73" fill="white"/>
</clipPath>
</defs>
</svg>
