<svg width="523" height="792" viewBox="0 0 523 792" fill="none" xmlns="http://www.w3.org/2000/svg">
<g clip-path="url(#clip0_731_688)">
<path d="M285.97 330.525L258.019 380.259H274.002L285.97 403.933L295.356 410.477L300.193 417.152L310.961 411.337L346.863 351.618L353.512 306.968L285.97 330.525Z" fill="white"/>
<path d="M421.51 63.2395C421.51 63.6306 421.524 64.0217 421.524 64.4128C421.524 65.4036 421.524 66.3943 421.51 67.3851C421.51 67.7632 421.51 68.1412 421.484 68.5193C421.445 69.7969 421.38 71.0614 421.276 72.339C421.25 72.704 421.211 73.069 421.185 73.434C421.106 74.3726 421.015 75.3112 420.911 76.2499C420.859 76.7583 420.794 77.2667 420.728 77.7751C420.611 78.6355 420.494 79.4959 420.35 80.3563C420.285 80.7996 420.22 81.2558 420.142 81.6991C419.959 82.7811 419.764 83.8631 419.542 84.9451C424.183 77.8273 428.824 70.7094 433.465 63.5915C433.634 63.3308 433.817 63.1092 434.013 62.9006C434.078 62.8354 434.156 62.7702 434.234 62.7051C434.365 62.5877 434.495 62.4704 434.638 62.3791C434.73 62.314 434.834 62.2618 434.925 62.2097C435.055 62.1445 435.173 62.0663 435.303 62.0141C435.407 61.975 435.512 61.9359 435.629 61.8968C435.694 61.8707 435.772 61.8447 435.838 61.8186C436.216 61.4666 436.594 61.1407 436.972 60.8017C437.871 59.9804 438.758 59.1592 439.67 58.3639C440.218 57.8816 440.765 57.4253 441.313 56.956C442.226 56.1608 443.151 55.3786 444.077 54.6095C444.624 54.1532 445.185 53.7099 445.745 53.2667C446.684 52.5106 447.623 51.7545 448.574 51.0244C449.135 50.5812 449.722 50.164 450.282 49.7338C451.234 49.0168 452.199 48.2998 453.163 47.5959C453.75 47.1787 454.35 46.7615 454.936 46.3444C455.901 45.6665 456.866 44.9886 457.856 44.3237C458.469 43.9196 459.082 43.5155 459.695 43.1114C460.672 42.4726 461.65 41.8338 462.628 41.2211C463.267 40.817 463.905 40.4389 464.544 40.0478C465.522 39.4481 466.5 38.8485 467.49 38.2749C468.155 37.8838 468.833 37.5187 469.511 37.1407C470.489 36.5932 471.467 36.0326 472.444 35.5111C473.148 35.1331 473.865 34.7681 474.582 34.403C475.547 33.8946 476.525 33.3862 477.502 32.9039C478.246 32.5388 479.002 32.1869 479.758 31.8218C480.722 31.3656 481.674 30.8963 482.639 30.453C483.434 30.088 484.242 29.7491 485.038 29.3971C485.976 28.9799 486.915 28.5627 487.867 28.1717C488.727 27.8197 489.587 27.4807 490.448 27.1418C491.36 26.7768 492.26 26.3987 493.185 26.0598C494.111 25.7078 495.037 25.3819 495.975 25.056C496.849 24.7431 497.709 24.4172 498.596 24.1173C499.612 23.7654 500.642 23.4525 501.659 23.1135C502.467 22.8528 503.263 22.579 504.071 22.3314C505.244 21.9663 506.431 21.6404 507.617 21.3015C508.295 21.1059 508.96 20.8973 509.651 20.7148C511.463 20.2195 513.275 19.7501 515.113 19.3199C515.178 19.3069 515.243 19.2808 515.308 19.2678C515.53 19.2157 515.752 19.1896 515.986 19.1765C516.025 19.1765 516.052 19.1765 516.091 19.1635C516.351 19.1635 516.625 19.1635 516.886 19.2157C517.668 19.333 518.424 19.6719 519.037 20.1673C518.802 17.195 518.476 14.2227 518.085 11.2504C517.72 8.52581 517.329 5.78817 516.834 3.06356C516.795 2.88105 516.755 2.69854 516.69 2.51603C516.573 2.17709 516.39 1.87725 516.182 1.60349C516.182 1.60349 516.169 1.57741 516.156 1.56438C515.986 1.3558 515.791 1.17329 515.595 1.01685C515.087 0.599685 514.487 0.299848 513.848 0.143412C513.327 0.0130476 512.779 -0.0260616 512.271 0.0521568C512.141 0.0651932 512.01 0.0912659 511.893 0.117339C511.88 0.117339 511.867 0.117339 511.854 0.117339C510.915 0.338957 509.99 0.573612 509.064 0.808267C508.699 0.899522 508.347 1.00381 507.995 1.09507C507.421 1.2515 506.835 1.39491 506.261 1.55134C505.844 1.66867 505.427 1.786 504.997 1.90332C504.488 2.04672 503.967 2.19012 503.458 2.33353C503.015 2.46389 502.559 2.59425 502.115 2.73765C501.633 2.88105 501.164 3.02445 500.681 3.16785C500.199 3.31125 499.73 3.46769 499.247 3.62413C498.804 3.76753 498.374 3.89789 497.931 4.04129C497.422 4.21077 496.914 4.38024 496.418 4.54971C496.014 4.68008 495.61 4.82348 495.206 4.95384C494.672 5.13635 494.15 5.31886 493.616 5.5144C493.238 5.64477 492.873 5.77513 492.494 5.9055C491.947 6.10104 491.412 6.30962 490.865 6.50517C490.513 6.63553 490.161 6.7659 489.809 6.89626C489.248 7.10484 488.688 7.32646 488.14 7.54808C487.814 7.67845 487.475 7.80881 487.149 7.93917C486.576 8.17383 486.002 8.40848 485.429 8.64314C485.129 8.7735 484.816 8.89083 484.516 9.02119C483.929 9.26889 483.343 9.51658 482.756 9.76427C482.469 9.8816 482.183 10.012 481.896 10.1293C481.296 10.39 480.696 10.6638 480.097 10.9245C479.836 11.0418 479.562 11.1592 479.302 11.2765C478.689 11.5503 478.089 11.8371 477.476 12.1239C477.229 12.2412 476.981 12.3585 476.733 12.4758C476.108 12.7757 475.495 13.0755 474.869 13.3753C474.634 13.4927 474.413 13.597 474.178 13.7143C473.552 14.0272 472.914 14.34 472.288 14.666C472.079 14.7702 471.858 14.8876 471.649 14.9919C471.01 15.3178 470.371 15.6567 469.733 15.9957C469.537 16.1 469.342 16.2042 469.159 16.3085C468.507 16.6605 467.855 17.0125 467.204 17.3775C467.034 17.4688 466.852 17.5731 466.682 17.6643C466.017 18.0293 465.365 18.4074 464.714 18.7855C464.557 18.8767 464.388 18.968 464.231 19.0592C463.566 19.4503 462.902 19.8414 462.237 20.2325C462.093 20.3237 461.95 20.402 461.806 20.4932C461.129 20.8973 460.464 21.3145 459.786 21.7317C459.655 21.8099 459.525 21.8881 459.395 21.9663C458.717 22.3965 458.026 22.8267 457.361 23.2569C457.244 23.3352 457.126 23.4003 457.022 23.4786C456.331 23.9218 455.653 24.3781 454.962 24.8343C454.858 24.8995 454.767 24.9647 454.662 25.0299C453.972 25.4992 453.281 25.9685 452.59 26.4378C452.498 26.503 452.42 26.5551 452.329 26.6203C451.625 27.1027 450.934 27.5981 450.243 28.0934C450.165 28.1456 450.1 28.1977 450.021 28.2499C449.317 28.7583 448.613 29.2667 447.923 29.7751C447.857 29.8142 447.805 29.8664 447.74 29.9055C447.036 30.427 446.332 30.9614 445.628 31.4959C445.576 31.535 445.524 31.5742 445.472 31.6133C444.768 32.1608 444.064 32.7083 443.36 33.2558C443.321 33.295 443.282 33.321 443.229 33.3601C442.525 33.9207 441.808 34.4943 441.104 35.0679C441.078 35.094 441.039 35.12 441.013 35.1461C440.296 35.7328 439.592 36.3194 438.888 36.9191C438.862 36.9321 438.849 36.9582 438.823 36.9712C438.106 37.5709 437.402 38.1836 436.698 38.7963C436.698 38.7963 436.672 38.8224 436.659 38.8354C435.942 39.4612 435.238 40.0869 434.534 40.7257C434.534 40.7257 434.521 40.7387 434.508 40.7518C433.804 41.3906 433.087 42.0424 432.396 42.6942C432.187 42.7463 431.979 42.8246 431.783 42.9158C431.757 42.9158 431.744 42.9288 431.718 42.9419C431.523 43.0331 431.34 43.1374 431.158 43.2678C431.131 43.2808 431.105 43.3069 431.079 43.3199C430.897 43.4503 430.727 43.5937 430.571 43.7632C430.545 43.7892 430.532 43.8023 430.506 43.8284C430.336 44.0109 430.18 44.2064 430.036 44.428C427.064 48.9908 424.092 53.5405 421.132 58.1032C421.25 58.4682 421.328 58.8593 421.354 59.2765C421.445 60.5932 421.497 61.9229 421.537 63.2395H421.51Z" fill="#9C7CB7"/>
<path d="M284.262 232.582C284.262 232.582 284.314 232.478 284.34 232.426C301.705 203.811 319.122 175.235 336.669 146.738C358.01 112.074 375.857 72 415.253 55.6654C416.074 55.3265 416.883 55.2222 417.639 55.3004C417.717 54.5573 417.782 53.8012 417.834 53.0582C417.834 52.993 417.834 52.9278 417.834 52.8756C417.899 51.9501 417.952 51.0245 417.991 50.1119C417.991 49.9294 418.004 49.7599 418.017 49.5774C418.056 48.5867 418.069 47.6089 418.082 46.6182C418.082 46.54 418.082 46.4487 418.082 46.3705C418.082 45.484 418.069 44.6106 418.043 43.7241C418.043 43.4764 418.03 43.2287 418.017 42.9941C417.978 42.0294 417.939 41.0777 417.873 40.113C417.639 36.8539 414.732 35.3156 411.811 36.515C372.415 52.8496 354.555 92.9234 333.227 127.587C315.68 156.085 298.25 184.661 280.898 213.275C280.872 213.328 280.846 213.38 280.82 213.432C251.514 227.055 213.056 224.969 198.403 259.124C197.595 261.015 197.647 263.648 199.837 264.717C202.353 265.955 204.856 267.233 207.333 268.537C224.633 244.419 258.084 244.758 284.262 232.595V232.582Z" fill="#9C7CB7"/>
<path d="M427.077 259.659C421.784 254.783 415.761 250.964 408.904 248.304C408.187 248.03 407.666 247.574 407.314 247.053C397.706 262.657 388.137 278.275 378.659 293.958C385.999 297.517 392.713 301.91 398.866 307.098C400.052 308.102 401.239 309.132 402.386 310.188C411.746 294.453 421.093 278.718 430.454 262.983C429.372 261.823 428.237 260.728 427.09 259.672L427.077 259.659Z" fill="white"/>
<path d="M440.413 195.637C439.97 195.416 439.644 195.155 439.397 194.842C429.763 210.616 420.063 226.364 410.364 242.099C410.442 242.125 410.508 242.138 410.586 242.177C417.978 245.032 424.574 248.995 430.388 254.092C431.562 255.122 432.709 256.178 433.817 257.299C443.203 241.538 452.603 225.777 462.067 210.055C460.881 209.026 459.668 208.022 458.456 207.057C452.876 202.625 446.893 198.831 440.427 195.624L440.413 195.637Z" fill="white"/>
<path d="M513.027 28.2629C487.801 34.9636 465.353 46.8007 445.746 63.8784C469.759 69.6274 490.604 82.2466 506.939 100.902C507.33 99.7024 507.695 98.5161 508.06 97.3167C509.546 92.4411 510.785 87.5264 511.789 82.5986C515.413 64.7648 515.843 46.6182 513.014 28.2629H513.027Z" fill="white"/>
<path d="M463.306 155.303C456.422 166.853 449.448 178.351 442.447 189.836C442.838 189.875 443.242 189.966 443.66 190.175C450.126 193.382 456.123 197.189 461.741 201.595C462.98 202.56 464.192 203.563 465.392 204.58C472.523 192.756 479.667 180.958 486.876 169.199C485.689 168.104 484.477 167.048 483.239 166.045C477.281 161.286 470.671 157.714 463.319 155.303H463.306Z" fill="white"/>
<path d="M469.302 148.784C475.886 151.313 481.961 154.742 487.502 159.044C488.571 159.878 489.626 160.739 490.656 161.625C495.923 152.565 499.117 141.992 501.164 131.263C502.05 126.583 502.728 121.877 503.25 117.262C490.891 126.388 478.506 136.674 469.302 148.784Z" fill="white"/>
<path d="M442.187 108.385C436.568 129.986 418.604 152.382 407.431 171.35C393.026 195.833 378.386 220.185 363.628 244.445C360.408 254.158 358.935 262.618 359.352 271.678C376.482 244.067 393.612 216.443 410.743 188.832C412.894 185.364 418.356 188.598 416.205 192.065C397.888 221.593 379.572 251.12 361.256 280.661C361.034 281.012 360.773 281.286 360.5 281.508C360.826 283.32 361.217 285.184 361.686 287.1C362.846 291.859 363.954 296.474 364.867 301.102C395.02 250.82 426.399 201.295 456.423 150.935C456.488 150.818 456.579 150.727 456.657 150.622C456.553 148.289 458.326 145.799 461.129 146.19C472.014 131.133 487.228 118.84 502.285 107.928C495.271 99.6763 487.423 92.6757 478.806 86.9658C469.928 101.892 461.064 116.819 452.186 131.746C450.1 135.266 444.638 132.02 446.723 128.513C455.614 113.547 464.518 98.5812 473.409 83.6154C462.876 77.5014 451.286 73.1603 438.732 70.6833C438.68 70.6833 438.641 70.6573 438.589 70.6442C433.804 77.9968 429.007 85.3493 424.222 92.6888C436.203 90.5378 446.215 92.9234 442.2 108.385H442.187Z" fill="white"/>
<path d="M231.346 332.545C230.629 333.927 229.912 335.322 229.208 336.717C230.069 337.108 230.942 337.499 231.803 337.903C231.959 337.969 232.103 338.047 232.233 338.125C233.015 337.043 233.81 335.961 234.593 334.892C234.488 334.788 234.397 334.696 234.306 334.579C233.38 333.471 232.533 332.897 231.333 332.558L231.346 332.545Z" fill="white"/>
<path d="M361.295 362.06C359.835 364.784 358.062 367.366 355.872 369.751C354.62 371.12 352.495 371.081 350.957 370.325C345.886 367.783 340.827 365.254 335.821 362.659C331.18 370.99 326.539 379.32 321.911 387.65C329.603 391.587 337.295 395.524 344.999 399.461C345.938 399.944 346.876 400.426 347.828 400.908C347.919 400.687 348.024 400.452 348.167 400.217C354.92 389.202 361.634 378.16 368.321 367.092C367.044 366.179 365.766 365.254 364.489 364.341C363.433 363.585 362.377 362.829 361.308 362.06H361.295Z" fill="white"/>
<path d="M314.885 393.204C313.581 395.472 312.264 397.74 310.961 399.996L334.492 413.997C336.252 415.053 338.025 416.096 339.785 417.152C341.505 414.297 343.226 411.442 344.947 408.587C343.513 407.857 342.092 407.127 340.658 406.397C332.067 402.003 323.463 397.61 314.872 393.204H314.885Z" fill="white"/>
<path d="M375.4 299.394C372.65 303.97 369.886 308.545 367.148 313.134C367.018 313.356 366.874 313.538 366.731 313.721C366.861 315.194 366.979 316.68 367.044 318.192C367.591 330.694 368.1 344.33 363.902 356.154C365.193 357.08 366.47 358.005 367.761 358.918C369.038 359.831 370.316 360.743 371.581 361.656C380.784 346.377 389.936 331.072 399.075 315.741C397.94 314.659 396.767 313.617 395.581 312.6C389.467 307.346 382.766 302.953 375.4 299.381V299.394Z" fill="white"/>
<path d="M244.761 309.367C244.696 309.51 244.605 309.653 244.526 309.784C241.293 314.855 238.204 320.017 235.283 325.271C236.874 325.936 238.308 326.914 239.52 328.152C241.737 325.115 243.94 322.077 246.156 319.04C246.378 318.727 246.638 318.466 246.899 318.244C245.23 315.468 244.487 312.326 244.774 309.354L244.761 309.367Z" fill="white"/>
<path d="M255.386 306.968C246.195 311.518 263.599 321.256 265.933 322.599C269.14 324.437 272.373 326.236 275.606 328.022C281.72 331.372 287.925 334.527 294.248 337.486C296.229 335.192 298.211 332.884 300.193 330.59C285.357 322.781 270.521 314.959 255.699 307.15C255.595 307.098 255.49 307.033 255.386 306.968Z" fill="white"/>
<path d="M302.656 220.419C311.847 206.653 321.025 192.9 330.216 179.133C329.212 178.69 328.221 178.247 327.217 177.803C318.053 192.769 308.927 207.735 299.814 222.727C300.362 222.244 300.91 221.749 301.457 221.241C301.848 220.876 302.252 220.602 302.669 220.419H302.656Z" fill="white"/>
<path d="M391.448 106.025C392.921 105.06 394.407 104.122 395.946 103.222C398.501 101.723 402.738 99.6372 407.653 97.6687C407.692 97.4601 407.744 97.2646 407.809 97.043C411.264 86.8355 413.31 76.1978 413.363 65.4688C397.041 73.5644 386.416 84.9061 376.573 98.8811C381.945 100.12 386.951 102.479 391.331 105.895C391.383 105.934 391.409 105.973 391.461 106.012L391.448 106.025Z" fill="white"/>
<path d="M384.487 111.044C380.719 108.632 376.665 107.068 372.115 106.312C371.933 106.286 371.789 106.221 371.633 106.181C370.512 107.889 369.391 109.623 368.269 111.396C364.254 117.719 360.291 124.067 356.328 130.429C358.557 131.055 360.773 131.681 363.003 132.306C369.417 124.511 376.43 117.315 384.487 111.044Z" fill="white"/>
<path d="M338.494 166.722C345.103 156.828 351.596 146.946 358.714 137.69C356.758 137.143 354.803 136.595 352.847 136.048C348.31 143.387 343.8 150.753 339.276 158.105C336.356 162.864 333.449 167.635 330.529 172.393C331.611 172.876 332.68 173.345 333.762 173.827C335.339 171.468 336.916 169.095 338.494 166.736V166.722Z" fill="white"/>
<path d="M349.992 360.756C363.003 357.341 359.548 326.131 358.805 315.65C357.788 301.284 351.961 288.013 350.722 273.764C350.487 271.04 350.474 268.38 350.618 265.747C341.623 280.413 332.601 295.053 323.541 309.68C320.777 314.138 313.764 309.979 316.527 305.521C329.812 284.089 343.044 262.618 356.171 241.082C356.354 240.561 356.536 240.026 356.719 239.505C357.084 238.475 357.71 237.771 358.466 237.315C374.905 210.303 391.162 183.174 407.079 155.85C414.51 143.088 421.993 130.325 428.85 117.236C430.271 114.525 434.586 108.75 434.56 105.686C434.456 94.3835 417.156 101.71 410.638 104.708C407.744 106.038 404.954 107.485 402.282 109.023C405.867 111.696 411.733 116.871 413.024 123.038C413.35 129.152 404.341 134.353 402.282 131.159C400.092 124.98 394.121 119.101 391.175 116.467C371.346 131.615 357.579 152.839 343.357 174.153C322.798 204.958 302.226 235.776 281.668 266.581C284.692 266.751 287.743 267.038 290.793 267.468C295.995 268.211 293.766 276.072 288.642 275.342C272.425 273.008 256.272 275.277 241.398 281.703C252.661 288.886 264.811 294.636 275.684 302.47C278.043 304.178 277.796 307.124 276.375 308.858C286.269 314.073 296.164 319.287 306.059 324.502C308.549 325.819 308.51 328.439 307.219 330.212C308.132 331.685 308.288 333.667 306.867 335.322C306.685 335.544 306.489 335.765 306.307 335.974C306.385 336.026 306.476 336.065 306.554 336.13C314.872 341.84 323.358 347.029 332.249 351.8C334.791 353.169 346.746 361.643 350.005 360.795L349.992 360.756ZM384.604 149.853C387.094 145.499 400.613 152.669 396.885 158.053C393.156 163.424 382.101 154.234 384.604 149.853ZM372.18 170.803C374.67 166.449 388.189 173.619 384.461 179.003C380.732 184.374 369.677 175.183 372.18 170.803ZM359.756 191.752C362.246 187.398 375.765 194.568 372.037 199.939C368.308 205.31 357.253 196.12 359.756 191.752ZM347.241 212.858C349.731 208.504 363.25 215.674 359.522 221.058C355.793 226.429 344.738 217.238 347.241 212.858ZM333.371 236.246C335.86 231.891 349.379 239.061 345.651 244.445C341.923 249.816 330.867 240.626 333.371 236.246Z" fill="white"/>
<path d="M256.311 299.98C256.311 299.98 256.39 299.954 256.429 299.928C248.894 295.587 241.215 291.455 234.006 286.579C233.041 285.927 232.077 285.262 231.125 284.571C229.912 283.698 229.195 282.277 229.169 280.895C229.143 279.565 229.769 278.249 231.216 277.493C244.109 270.74 257.798 267.09 271.903 266.477C278.265 256.934 284.64 247.405 291.002 237.862C265.398 250.116 231.712 250.507 214.699 272.5C213.265 274.351 211.935 276.345 210.749 278.523C217.893 282.134 224.906 286.032 231.816 290.086C237.787 293.593 243.692 297.217 249.546 300.906C250.315 300.359 251.188 299.876 252.153 299.485C253.717 298.859 255.19 299.172 256.298 299.967L256.311 299.98Z" fill="white"/>
<path d="M522.413 38.4965C521.957 33.0733 521.24 27.6372 520.262 22.201C520.21 21.9403 520.132 21.7056 520.028 21.471C520.028 21.4579 520.028 21.4449 520.015 21.4318C519.793 20.9495 519.467 20.5454 519.063 20.2064C519.063 20.2064 519.063 20.2064 519.05 20.1934C519.05 20.1934 519.024 20.1804 519.024 20.1673C518.411 19.6719 517.655 19.333 516.873 19.2157C516.612 19.1765 516.338 19.1635 516.078 19.1635C516.039 19.1635 516.013 19.1635 515.973 19.1765C515.739 19.1896 515.517 19.2157 515.295 19.2678C515.23 19.2808 515.165 19.3069 515.1 19.3199C513.275 19.7632 511.45 20.2325 509.638 20.7148C508.96 20.8974 508.282 21.1059 507.604 21.3015C506.418 21.6404 505.231 21.9663 504.058 22.3314C503.25 22.579 502.441 22.8528 501.646 23.1135C500.616 23.4394 499.586 23.7654 498.583 24.1173C497.709 24.4172 496.836 24.7431 495.962 25.056C495.037 25.3949 494.098 25.7208 493.172 26.0598C492.26 26.4117 491.347 26.7768 490.435 27.1418C489.574 27.4807 488.701 27.8197 487.854 28.1717C486.902 28.5628 485.976 28.993 485.025 29.3971C484.216 29.7491 483.421 30.088 482.626 30.453C481.661 30.8963 480.696 31.3656 479.745 31.8219C478.989 32.1869 478.233 32.5258 477.489 32.9039C476.512 33.3862 475.547 33.8946 474.569 34.4031C473.852 34.7681 473.135 35.1331 472.431 35.5112C471.441 36.0456 470.476 36.5932 469.498 37.1407C468.82 37.5188 468.142 37.8968 467.477 38.2749C466.487 38.8485 465.509 39.4481 464.531 40.0478C463.892 40.4389 463.241 40.817 462.615 41.2211C461.624 41.8338 460.646 42.4726 459.682 43.1114C459.069 43.5155 458.443 43.9066 457.843 44.3238C456.866 44.9756 455.901 45.6665 454.923 46.3444C454.337 46.7616 453.737 47.1657 453.15 47.5959C452.186 48.2998 451.221 49.0169 450.269 49.7339C449.696 50.1641 449.122 50.5812 448.561 51.0245C447.61 51.7545 446.671 52.5106 445.732 53.2667C445.172 53.71 444.611 54.1532 444.064 54.6095C443.138 55.3786 442.213 56.1608 441.3 56.956C440.753 57.4253 440.205 57.8946 439.657 58.3639C438.745 59.1592 437.858 59.9805 436.959 60.8018C436.581 61.1537 436.203 61.4927 435.825 61.8447C435.76 61.8577 435.681 61.8838 435.616 61.8968C435.512 61.9359 435.395 61.962 435.29 62.0141C435.16 62.0663 435.029 62.1315 434.912 62.2097C434.821 62.2618 434.717 62.314 434.625 62.3792C434.482 62.4704 434.352 62.5877 434.221 62.7051C434.143 62.7702 434.078 62.8224 434 62.9006C433.804 63.0962 433.622 63.3308 433.452 63.5915L419.516 84.9712C419.738 83.8892 419.946 82.7941 420.129 81.6991C420.207 81.2558 420.272 80.7996 420.337 80.3563C420.468 79.4959 420.598 78.6355 420.715 77.7751C420.781 77.2667 420.846 76.7583 420.898 76.2499C421.002 75.3113 421.093 74.3726 421.172 73.434C421.198 73.069 421.237 72.704 421.263 72.339C421.354 71.0744 421.419 69.7969 421.471 68.5193C421.471 68.1412 421.485 67.7632 421.498 67.3851C421.524 66.3944 421.524 65.4036 421.511 64.4128C421.511 64.0217 421.511 63.6306 421.498 63.2396C421.458 61.9229 421.406 60.5932 421.315 59.2765C421.289 58.8593 421.211 58.4682 421.093 58.1032C420.572 56.4476 419.242 55.4568 417.639 55.3134C416.883 55.2482 416.074 55.3395 415.253 55.6784C375.857 72.013 357.997 112.087 336.669 146.751C319.122 175.248 301.692 203.824 284.34 232.439C284.314 232.491 284.288 232.543 284.262 232.595C258.085 244.758 224.633 244.419 207.333 268.537C205.26 271.418 203.409 274.638 201.845 278.288C201.037 280.178 201.089 282.812 203.279 283.88C211.57 287.948 219.666 292.406 227.644 297.099C231.542 299.394 235.401 301.727 239.247 304.1C238.595 304.4 237.995 304.895 237.513 305.638C231.138 315.624 225.389 325.936 220.226 336.6C220.096 336.873 219.992 337.173 219.9 337.486C219.249 337.643 218.597 338.021 218.01 338.685C216.55 340.341 215.09 341.984 213.617 343.639C210.827 330.147 200.45 319.509 185.927 318.244C170.753 316.928 157.768 326.888 153.649 340.863C145.827 332.519 132.334 332.141 124.225 341.436C101.164 319.014 64.1659 321.621 45.2499 348.737C44.4025 349.936 43.5943 351.174 42.8251 352.478C42.6035 352.856 42.3819 353.221 42.1733 353.599C40.4785 356.624 42.9685 359.466 45.5889 359.726C46.7882 359.844 48.0006 359.426 48.8741 358.24C48.9914 358.084 49.0957 357.927 49.187 357.758C65.2349 329.104 103.823 325.845 123.482 352.739C126.546 356.923 133.703 353.013 130.613 348.776C130.313 348.372 130.014 347.967 129.701 347.576C135.15 339.989 146.792 341.006 150.22 350.105C151.706 354.042 157.169 353.508 158.225 350.549C159.359 350.223 160.271 349.336 160.493 347.72C164.456 319.718 204.648 319.952 206.16 348.997C206.212 350.04 206.59 350.875 207.138 351.5C206.056 355.164 210.697 359.166 213.721 355.75C217.032 352.009 220.357 348.267 223.668 344.526C223.994 344.161 224.229 343.783 224.398 343.405C225.402 343.861 226.393 344.317 227.396 344.773C220.5 354.238 213.617 363.702 206.721 373.167C188.417 360.9 166.907 364.341 153.727 382.436C147.078 381.184 139.908 382.657 134.146 387.103C134.12 387.116 134.107 387.142 134.081 387.155C124.642 372.02 106.417 363.728 87.6187 366.036C75.7033 367.496 65.5217 372.345 56.8916 379.294C55.9008 380.089 54.923 380.91 53.9844 381.758C46.7491 388.237 40.7393 396.241 35.7984 404.884C33.9994 408.039 32.3307 411.285 30.8185 414.57C30.6099 415.04 30.3752 415.496 30.1666 415.965C27.1161 414.662 23.7005 414.101 20.2458 414.492C7.71772 415.9 0.782275 428.571 0.0261556 440.03C-0.312795 445.271 7.83504 445.31 8.18703 440.083C8.64331 433.056 12.4369 424.465 20.0503 422.744C25.5778 421.493 32.8 425.065 33.2042 431.179C33.5431 436.38 41.704 436.485 41.365 431.231C41.1043 427.15 39.4356 423.552 36.9065 420.737C41.717 409.369 48.3135 398.379 57.1001 389.866C58.0257 388.967 58.9774 388.106 59.9551 387.259C66.3952 381.719 73.9042 377.482 82.6257 375.292C105.44 369.569 128.749 381.888 132.347 405.953C133.129 411.142 141.016 409.082 140.247 403.933C139.713 400.374 138.774 397.023 137.51 393.869C138.292 393.816 139.074 393.543 139.817 392.969C143.402 390.192 148.004 389.449 152.28 390.336C153.245 391.222 154.6 391.718 155.904 391.535C158.72 392.826 161.184 394.898 162.787 397.597C165.473 402.108 172.604 398.158 169.918 393.634C167.833 390.127 164.991 387.376 161.744 385.434C172.447 372.919 190.633 370.194 204.687 381.653C206.877 383.439 209.432 383.231 211.127 380.897C224.92 361.968 238.699 343.027 252.492 324.085C253.678 324.984 254.93 325.806 256.22 326.575C243.497 350.262 228.948 372.645 212.496 393.908C210.006 397.128 215.481 400.335 217.958 397.141C234.462 375.839 249.024 353.391 261.774 329.651C263.104 330.355 264.407 331.046 265.659 331.75C266.324 332.128 267.001 332.493 267.679 332.871C263.273 340.876 258.854 348.867 254.447 356.871C252.479 360.443 257.928 363.689 259.91 360.104C264.355 352.048 268.801 343.978 273.259 335.922C274.81 336.756 276.375 337.577 277.926 338.399C271.369 349.727 264.811 361.043 258.254 372.372C253.9 379.894 241.385 394.846 240.889 403.45C240.668 407.244 240.381 407.544 243.249 410.412C244.696 411.859 248.907 412.576 250.458 413.319C260.131 417.934 264.916 425.052 266.363 435.311C265.385 435.507 264.407 435.807 263.443 436.25C258.645 438.427 262.647 445.532 267.406 443.381C269.283 442.533 271.903 443.485 273.011 445.232C244.826 476.819 216.628 508.406 188.443 539.98C169.775 519.8 137.418 517.597 116.599 536.057C115.634 536.917 114.683 537.803 113.77 538.742C111.984 540.593 110.289 542.614 108.738 544.804C108.034 543.683 107.2 542.64 106.287 541.675C104.371 539.655 102.05 538.038 99.3907 537.008C98.8823 536.813 98.3738 536.63 97.8524 536.487C88.805 533.932 79.1319 538.677 74.8298 546.798C72.379 551.426 79.3796 555.611 81.8435 550.957C87.4753 540.306 101.581 543.279 103.588 553.682C103.458 553.955 103.328 554.216 103.21 554.49C102.363 556.38 102.963 558.179 104.136 559.366C105.661 562.507 111.619 561.882 111.958 557.436C112.01 556.667 112.01 555.898 111.984 555.129C113.496 552.339 115.23 549.81 117.12 547.529C117.994 546.473 118.906 545.495 119.832 544.556C137.601 526.631 166.842 527.544 183.111 546.081C181.13 549.354 184.598 553.473 187.7 552.365C189.916 556.054 191.715 560.239 192.967 564.893C194.323 569.964 202.223 567.957 200.867 562.872C199.225 556.706 196.708 551.231 193.554 546.473C233.758 501.419 273.963 456.365 314.181 411.311C315.902 412.341 317.622 413.358 319.356 414.388C301.679 437.984 284.001 461.593 266.324 485.188C263.873 488.448 269.361 491.668 271.786 488.422C289.463 464.826 307.141 441.23 324.819 417.634C327.009 418.938 329.199 420.241 331.389 421.545C332.614 422.275 333.853 423.005 335.078 423.735C333.827 424.035 332.667 424.843 332.054 426.316C325.992 440.891 319.917 455.465 313.855 470.04C296.464 511.822 279.06 553.59 261.67 595.372C260.275 598.722 263.664 600.769 266.519 600.091C287.456 600.378 305.472 615.748 310.074 636.189C311.639 643.124 311.808 650.008 310.935 656.721C310.752 658.142 310.517 659.55 310.244 660.958C309.905 662.679 309.527 664.387 309.057 666.081C308.81 666.955 308.536 667.828 308.262 668.689C305.668 676.836 301.653 684.632 296.764 691.828C293.805 696.169 300.831 700.315 303.778 695.987C305.433 693.549 306.998 691.02 308.458 688.426C312.03 686.914 315.445 688.374 317.987 690.929C320.047 693.002 321.533 695.804 322.055 698.373C322.394 700.041 322.485 701.736 322.42 703.444C322.211 708.737 320.347 714.095 318.783 718.996C317.179 723.989 325.053 726.14 326.657 721.147C326.852 720.547 327.048 719.935 327.23 719.322C344.23 713.795 361.321 721.538 368.947 738.055C369.012 738.212 369.065 738.355 369.143 738.512C372.102 745.134 373.067 751.926 372.519 758.627C371.737 768.235 367.865 777.621 362.286 785.938C359.365 790.305 366.379 794.451 369.299 790.097C379.963 774.192 384.474 754.351 377.356 736.661C376.3 734.053 375.009 731.485 373.432 728.995C371.32 725.645 368.817 722.698 366.027 720.156C356.224 711.174 342.835 707.368 329.629 710.21C330.398 706.364 330.763 702.466 330.333 698.685C330.02 695.948 329.29 693.275 327.973 690.746C327.713 690.238 327.426 689.729 327.113 689.234C326.957 688.999 326.787 688.778 326.631 688.543C324.597 685.584 321.951 683.224 318.939 681.738C316.971 680.76 314.859 680.148 312.695 679.965C313.724 677.619 314.637 675.22 315.471 672.795C316.449 669.914 317.283 667.007 317.935 664.048C318.053 663.513 318.196 662.979 318.313 662.444C319.695 655.561 320.112 648.521 319.317 641.547C318.783 636.776 317.675 632.017 315.915 627.363C308.692 608.239 291.706 594.538 271.721 592.282C285.057 560.239 298.407 528.196 311.743 496.152C326.539 499.828 335.782 511.561 336.278 524.493C336.291 524.884 336.278 525.275 336.278 525.666C336.252 533.149 333.318 540.958 326.826 547.789C324.102 550.644 326.592 555.794 330.659 554.672C365.258 545.26 391.044 572.715 389.102 601.134C388.685 607.222 386.99 613.362 383.835 619.177C382.14 622.318 380.028 625.369 377.447 628.276C377.108 628.341 376.782 628.471 376.469 628.615C375.087 629.254 374.018 630.531 373.862 631.926C373.484 632.278 373.093 632.643 372.702 632.995C371.724 633.855 371.346 634.859 371.372 635.837C371.437 637.923 373.406 639.852 375.596 639.917C376.521 639.943 377.486 639.644 378.373 638.861C378.399 638.835 378.425 638.822 378.438 638.796C379.194 640.074 379.702 641.43 379.976 642.785C380.967 647.635 378.894 652.667 373.562 655.783C369.534 658.129 372.011 664.309 376.548 663.305C381.202 662.275 386.325 660.997 391.122 661.988C391.305 662.027 391.5 662.04 391.683 662.092C392.452 662.288 393.273 662.653 394.095 663.161C398.332 665.769 402.321 671.844 396.402 674.164C391.566 676.054 393.534 683.98 398.423 682.064C406.714 678.818 410.208 669.158 404.915 661.532C403.898 660.072 402.738 658.859 401.5 657.856C399.322 656.109 396.845 655.014 394.199 654.388C391.67 653.788 388.984 653.619 386.286 653.71C387.968 650.347 388.632 646.618 388.293 642.942C388.059 640.478 387.381 638.04 386.208 635.733C385.999 635.329 385.764 634.938 385.53 634.546C385.178 633.947 384.787 633.36 384.369 632.786C398.358 616.569 400.287 596.519 393.977 579.637C386.077 558.531 365.297 542.379 339.067 544.83C342.6 538.638 344.321 532.015 344.399 525.549C344.465 519.839 343.226 514.26 340.814 509.188C336.226 499.529 327.348 491.72 314.924 488.487C317.049 483.389 319.174 478.292 321.286 473.195C327.491 458.281 333.709 443.368 339.915 428.441C340.202 427.763 340.28 427.137 340.215 426.564C341.922 426.994 343.813 426.277 344.751 424.726C347.463 420.228 350.175 415.731 352.886 411.233C353.89 409.564 353.551 407.935 352.586 406.775C352.665 406.553 352.73 406.331 352.769 406.11C353.708 405.901 354.594 405.328 355.233 404.285C361.151 394.638 367.044 384.965 372.91 375.266C374.37 372.867 375.804 370.455 377.252 368.043C381.671 360.717 386.09 353.391 390.484 346.051C391.227 344.813 391.97 343.561 392.713 342.323C420.024 296.682 446.984 250.833 474.478 205.31C475.299 203.941 476.121 202.573 476.955 201.204C481.205 194.177 485.481 187.164 489.77 180.15C491.321 177.608 492.86 175.053 494.424 172.511C494.424 172.511 494.424 172.498 494.437 172.485C494.489 172.458 494.541 172.432 494.593 172.393C494.698 172.328 494.815 172.263 494.919 172.185C495.011 172.12 495.102 172.041 495.193 171.963C495.284 171.885 495.389 171.794 495.48 171.702C495.558 171.624 495.636 171.533 495.715 171.442C495.793 171.35 495.884 171.246 495.949 171.142C496.014 171.051 496.08 170.946 496.132 170.842C496.197 170.738 496.262 170.62 496.327 170.516C496.379 170.412 496.419 170.294 496.458 170.19C496.51 170.073 496.549 169.955 496.588 169.838C496.614 169.721 496.627 169.617 496.653 169.499C496.679 169.369 496.705 169.252 496.718 169.121C496.718 169.004 496.718 168.887 496.718 168.769C496.718 168.521 496.692 168.287 496.627 168.039C496.601 167.909 496.575 167.778 496.536 167.648C496.718 167.361 496.888 167.087 497.07 166.801C497.475 166.149 497.866 165.497 498.244 164.819C498.491 164.389 498.713 163.959 498.948 163.529C499.326 162.838 499.691 162.147 500.043 161.456C500.251 161.026 500.46 160.595 500.668 160.165C501.02 159.448 501.359 158.718 501.685 157.988C501.868 157.571 502.05 157.141 502.233 156.71C502.559 155.954 502.872 155.198 503.171 154.429C503.341 154.012 503.484 153.595 503.641 153.178C503.941 152.382 504.24 151.6 504.514 150.792C504.658 150.388 504.775 149.984 504.918 149.58C505.192 148.758 505.466 147.924 505.727 147.09C505.844 146.712 505.948 146.334 506.066 145.942C506.326 145.069 506.574 144.209 506.822 143.322C506.913 142.983 506.991 142.644 507.082 142.305C507.33 141.38 507.565 140.454 507.786 139.515C507.852 139.268 507.904 139.007 507.956 138.759C508.79 135.161 509.468 131.524 510.055 127.887C510.407 125.71 510.733 123.52 511.006 121.356C511.046 121.03 511.098 120.704 511.137 120.391C511.241 119.531 511.332 118.683 511.437 117.823C511.489 117.393 511.541 116.976 511.58 116.545C511.671 115.724 511.75 114.916 511.828 114.108C511.867 113.651 511.919 113.195 511.971 112.739C512.049 111.93 512.115 111.135 512.193 110.34C512.232 109.962 512.258 109.584 512.297 109.219C512.297 109.219 512.31 109.219 512.323 109.206C512.48 109.036 512.636 108.854 512.766 108.645C512.805 108.593 512.845 108.554 512.884 108.502C513.053 108.241 513.197 107.954 513.314 107.628C515.595 101.332 517.473 94.9962 518.946 88.6214C519.441 86.4965 519.884 84.3585 520.288 82.2205C520.68 80.1608 521.045 78.088 521.357 76.0152C521.892 72.4693 522.296 68.9104 522.583 65.3384C522.87 61.7664 523.039 58.1945 523.091 54.5964C523.17 49.2124 522.974 43.8153 522.531 38.3922L522.413 38.4965ZM513.027 28.2629C515.856 46.6182 515.413 64.7648 511.802 82.5986C510.798 87.5264 509.559 92.4411 508.073 97.3167C507.708 98.516 507.343 99.7154 506.952 100.902C490.617 82.2466 469.772 69.6274 445.759 63.8783C465.352 46.8007 487.814 34.9636 513.04 28.2629H513.027ZM438.575 70.6442C438.575 70.6442 438.667 70.6703 438.719 70.6833C451.273 73.1603 462.862 77.5014 473.396 83.6154C464.505 98.5812 455.601 113.547 446.71 128.513C444.624 132.02 450.074 135.266 452.173 131.746C461.05 116.819 469.928 101.892 478.793 86.9658C487.41 92.6888 495.258 99.6893 502.272 107.928C487.215 118.853 472.001 131.133 461.116 146.19C458.313 145.799 456.54 148.289 456.644 150.622C456.566 150.727 456.488 150.818 456.409 150.935C426.386 201.295 395.007 250.82 364.854 301.102C363.941 296.474 362.833 291.859 361.673 287.1C361.204 285.184 360.812 283.32 360.487 281.508C360.76 281.286 361.021 281.012 361.243 280.661C379.559 251.133 397.875 221.606 416.192 192.065C418.343 188.598 412.893 185.365 410.729 188.832C393.599 216.443 376.469 244.067 359.339 271.678C358.922 262.605 360.408 254.158 363.615 244.445C378.386 220.185 393.013 195.833 407.418 171.35C418.577 152.382 436.555 129.973 442.173 108.385C446.202 92.9234 436.19 90.5378 424.196 92.6888C428.981 85.3362 433.778 77.9967 438.562 70.6442H438.575ZM332.236 351.761C323.345 346.99 314.859 341.801 306.541 336.091C306.463 336.039 306.372 335.987 306.294 335.935C306.476 335.713 306.672 335.492 306.854 335.283C308.275 333.627 308.119 331.646 307.206 330.173C308.497 328.4 308.549 325.779 306.046 324.463C296.151 319.248 286.256 314.034 276.362 308.819C277.783 307.085 278.03 304.139 275.671 302.431C264.798 294.596 252.661 288.847 241.385 281.664C256.259 275.237 272.425 272.969 288.629 275.303C293.752 276.033 295.969 268.185 290.78 267.429C287.73 266.985 284.692 266.699 281.655 266.542C302.213 235.737 322.785 204.919 343.343 174.114C357.566 152.813 371.333 131.589 391.161 116.428C394.108 119.061 400.079 124.954 402.269 131.12C404.328 134.314 413.337 129.125 413.011 122.998C411.72 116.832 405.867 111.657 402.269 108.984C404.941 107.433 407.731 105.999 410.625 104.669C417.143 101.684 434.456 94.3574 434.547 105.647C434.573 108.711 430.258 114.486 428.837 117.197C421.98 130.286 414.497 143.048 407.066 155.811C391.148 183.122 374.892 210.251 358.453 237.275C357.697 237.732 357.071 238.449 356.706 239.466C356.523 239.987 356.341 240.521 356.158 241.043C343.031 262.579 329.798 284.05 316.514 305.482C313.751 309.94 320.764 314.112 323.528 309.64C332.588 295.027 341.623 280.374 350.605 265.708C350.461 268.341 350.474 271.014 350.709 273.725C351.948 287.974 357.775 301.232 358.792 315.611C359.535 326.092 362.977 357.301 349.979 360.717C346.72 361.564 334.765 353.091 332.223 351.722L332.236 351.761ZM413.363 65.4818C413.324 76.2108 411.264 86.8615 407.809 97.056C407.731 97.2645 407.692 97.4731 407.653 97.6817C402.738 99.6502 398.514 101.736 395.946 103.235C394.408 104.135 392.908 105.073 391.448 106.038C391.409 105.999 391.37 105.96 391.318 105.921C386.938 102.518 381.932 100.146 376.561 98.9071C386.403 84.9321 397.028 73.5774 413.35 65.4949L413.363 65.4818ZM368.256 111.396C369.391 109.623 370.512 107.889 371.62 106.181C371.776 106.221 371.92 106.286 372.102 106.312C376.652 107.068 380.706 108.632 384.474 111.044C376.417 117.301 369.404 124.511 362.99 132.306C360.76 131.681 358.544 131.055 356.315 130.429C360.265 124.067 364.228 117.719 368.256 111.396ZM339.263 158.092C343.787 150.74 348.297 143.387 352.834 136.035C354.79 136.582 356.745 137.13 358.701 137.677C351.583 146.933 345.09 156.815 338.481 166.709C336.903 169.069 335.326 171.442 333.749 173.801C332.667 173.319 331.598 172.85 330.516 172.367C333.436 167.609 336.343 162.838 339.263 158.079V158.092ZM327.191 177.803C328.195 178.247 329.199 178.69 330.19 179.133C320.999 192.9 311.821 206.653 302.63 220.419C302.213 220.602 301.809 220.863 301.418 221.241C300.883 221.749 300.336 222.244 299.775 222.727C308.888 207.735 318.027 192.769 327.178 177.803H327.191ZM231.803 290.099C224.893 286.045 217.88 282.147 210.736 278.536C211.922 276.359 213.252 274.364 214.686 272.513C231.699 250.52 265.385 250.129 290.989 237.875C284.627 247.418 278.252 256.947 271.89 266.49C257.785 267.103 244.096 270.753 231.203 277.506C229.756 278.262 229.13 279.565 229.156 280.908C229.182 282.29 229.886 283.711 231.112 284.584C232.064 285.262 233.015 285.927 233.993 286.592C241.202 291.468 248.881 295.6 256.416 299.941C256.377 299.954 256.338 299.967 256.298 299.993C255.177 299.198 253.704 298.885 252.153 299.511C251.188 299.902 250.328 300.385 249.546 300.932C243.692 297.243 237.787 293.619 231.816 290.112L231.803 290.099ZM232.22 338.138C232.09 338.06 231.946 337.982 231.79 337.916C230.929 337.525 230.056 337.121 229.196 336.73C229.899 335.335 230.603 333.94 231.334 332.558C232.533 332.897 233.38 333.471 234.306 334.579C234.397 334.696 234.501 334.801 234.593 334.892C233.81 335.974 233.015 337.056 232.233 338.125L232.22 338.138ZM246.117 319.053C243.901 322.09 241.698 325.128 239.481 328.165C238.269 326.927 236.835 325.949 235.244 325.284C238.165 320.043 241.241 314.881 244.487 309.797C244.579 309.653 244.657 309.51 244.722 309.38C244.448 312.339 245.178 315.494 246.847 318.271C246.586 318.492 246.326 318.753 246.104 319.066L246.117 319.053ZM275.593 328.022C272.346 326.249 269.126 324.437 265.919 322.599C263.573 321.256 246.182 311.518 255.373 306.968C255.477 307.033 255.568 307.098 255.686 307.15C270.521 314.959 285.357 322.781 300.179 330.59C298.198 332.884 296.216 335.192 294.235 337.486C287.925 334.527 281.72 331.372 275.593 328.022ZM265.202 376.582C271.838 365.136 278.474 353.677 285.096 342.231C285.109 342.205 285.122 342.179 285.135 342.153C287.808 343.47 290.493 344.747 293.218 345.986C294.743 346.677 296.894 346.859 298.133 345.412C299.137 344.239 300.153 343.066 301.157 341.892C301.444 342.349 301.835 342.766 302.357 343.118C305.042 344.956 307.754 346.703 310.491 348.424C310.296 348.606 310.113 348.802 309.957 349.049C301.379 361.903 292.801 374.77 284.223 387.624C280.077 381.588 273.207 377.508 264.903 377.117C265.007 376.947 265.098 376.765 265.202 376.595V376.582ZM278.356 439.222C277.131 437.905 275.658 436.876 274.041 436.172C274.289 435.533 274.406 434.816 274.302 434.008C273.402 426.851 271.225 420.424 266.428 414.831C262.66 410.451 253.6 408.287 250.954 404.624C247.225 404.246 247.551 402.538 251.957 399.474C253.065 397.571 254.174 395.655 255.269 393.751C256.976 390.922 258.645 388.067 260.288 385.186C260.666 385.278 261.083 385.317 261.552 385.278C274.537 384.391 283.258 394.716 279.517 407.4C278.721 410.112 281.537 413.54 284.457 412.419C288.681 409.929 292.462 411.429 295.825 416.891C295.643 417.816 295.76 418.651 296.073 419.355C290.167 425.964 284.275 432.574 278.369 439.183L278.356 439.222ZM303.23 411.35C301.131 405.666 295.03 402.811 288.486 403.229C288.668 400.087 288.29 397.062 287.43 394.247C296.764 380.259 306.098 366.271 315.432 352.282C315.576 352.061 315.693 351.852 315.771 351.631C319.995 354.134 324.271 356.532 328.599 358.866C323.958 367.209 319.304 375.552 314.663 383.896C314.637 383.935 314.624 383.974 314.598 384.026C314.129 383.883 313.659 383.831 313.216 383.844C311.912 383.765 310.596 384.326 309.748 385.799C307.128 390.323 304.508 394.846 301.9 399.383C300.792 401.299 301.418 403.828 303.334 404.976C304.56 405.706 305.785 406.436 307.011 407.166C305.759 408.574 304.508 409.968 303.256 411.376L303.23 411.35ZM339.771 417.165C338.012 416.109 336.239 415.066 334.479 414.01L310.948 400.009C312.251 397.74 313.568 395.485 314.872 393.217C323.463 397.61 332.054 402.003 340.658 406.41C342.092 407.14 343.513 407.87 344.947 408.6C343.226 411.455 341.505 414.31 339.785 417.165H339.771ZM348.141 400.23C347.997 400.465 347.893 400.687 347.802 400.921C346.863 400.439 345.925 399.957 344.973 399.474C337.281 395.537 329.59 391.6 321.885 387.663C326.526 379.333 331.167 371.003 335.795 362.672C340.801 365.267 345.846 367.809 350.931 370.338C352.456 371.107 354.581 371.146 355.846 369.764C358.036 367.366 359.809 364.784 361.269 362.073C362.325 362.829 363.381 363.585 364.45 364.354C365.727 365.267 367.005 366.192 368.282 367.105C361.595 378.16 354.894 389.215 348.128 400.23H348.141ZM371.568 361.682C370.29 360.769 369.012 359.857 367.748 358.944C366.457 358.018 365.18 357.093 363.889 356.18C368.087 344.356 367.578 330.72 367.031 318.218C366.966 316.706 366.861 315.22 366.718 313.747C366.861 313.564 367.005 313.382 367.135 313.16C369.873 308.571 372.637 303.996 375.387 299.42C382.753 302.992 389.454 307.372 395.568 312.639C396.754 313.656 397.914 314.699 399.062 315.781C389.936 331.098 380.784 346.416 371.568 361.695V361.682ZM402.373 310.201C401.226 309.132 400.052 308.115 398.853 307.111C392.7 301.923 385.986 297.53 378.646 293.971C388.124 278.288 397.706 262.67 407.301 247.066C407.653 247.6 408.174 248.043 408.891 248.317C415.748 250.977 421.771 254.796 427.064 259.672C428.211 260.728 429.346 261.823 430.428 262.983C421.067 278.718 411.72 294.466 402.36 310.188L402.373 310.201ZM433.804 257.325C432.696 256.204 431.549 255.148 430.375 254.118C424.561 249.008 417.965 245.058 410.573 242.203C410.495 242.177 410.43 242.151 410.351 242.125C420.05 226.377 429.75 210.642 439.384 194.868C439.631 195.168 439.97 195.442 440.401 195.663C446.867 198.87 452.863 202.664 458.43 207.096C459.655 208.074 460.868 209.065 462.041 210.095C452.577 225.816 443.177 241.564 433.791 257.338L433.804 257.325ZM465.366 204.593C464.166 203.563 462.954 202.573 461.715 201.608C456.11 197.215 450.1 193.395 443.634 190.188C443.216 189.979 442.812 189.888 442.421 189.849C449.422 178.364 456.396 166.866 463.28 155.316C470.632 157.74 477.255 161.299 483.199 166.058C484.438 167.048 485.65 168.104 486.837 169.212C479.628 180.984 472.47 192.782 465.352 204.593H465.366ZM490.643 161.625C489.613 160.726 488.558 159.865 487.489 159.044C481.948 154.742 475.873 151.313 469.29 148.784C478.493 136.674 490.878 126.388 503.237 117.262C502.715 121.89 502.037 126.583 501.151 131.263C499.104 141.992 495.923 152.565 490.643 161.625Z" fill="black"/>
<path d="M396.871 158.04C400.6 152.669 387.081 145.499 384.591 149.84C382.088 154.208 393.13 163.411 396.871 158.04Z" fill="black"/>
<path d="M154.014 437.905C136.115 428.024 116.103 437.593 109.65 456.065C107.916 461.019 115.791 463.157 117.524 458.216C123.56 440.956 144.301 436.993 156.582 450.108C166.099 460.276 165.056 473.964 159.202 485.384C157.403 488.904 160.988 493.023 164.691 491.029C172.187 485.527 180.23 487.027 188.795 495.539C188.209 500.741 196.369 500.767 196.956 495.592C198.964 477.719 182.89 476.545 169.827 480.274C174.233 464.252 170.023 446.744 154.027 437.905H154.014Z" fill="black"/>
<path d="M384.448 178.99C388.176 173.619 374.657 166.449 372.167 170.79C369.664 175.157 380.706 184.361 384.448 178.99Z" fill="black"/>
<path d="M372.024 199.939C375.752 194.568 362.233 187.398 359.743 191.752C357.24 196.119 368.282 205.323 372.024 199.939Z" fill="black"/>
<path d="M359.509 221.045C363.237 215.674 349.718 208.504 347.228 212.845C344.725 217.212 355.767 226.416 359.509 221.045Z" fill="black"/>
<path d="M345.638 244.432C349.366 239.061 335.848 231.891 333.358 236.232C330.855 240.6 341.897 249.803 345.638 244.432Z" fill="black"/>
<path d="M251.918 509.527C248.385 514.012 244.839 518.496 241.306 522.994C238.79 526.188 244.266 529.395 246.769 526.227C250.302 521.743 253.848 517.258 257.381 512.76C259.897 509.566 254.421 506.36 251.918 509.527Z" fill="black"/>
<path d="M301.275 474.264C303.973 469.714 306.672 465.165 309.37 460.628C311.456 457.121 305.994 453.875 303.908 457.395C301.209 461.945 298.511 466.494 295.812 471.031C293.726 474.538 299.189 477.784 301.275 474.264Z" fill="black"/>
<path d="M287.326 488.369C276.623 508.367 265.92 528.365 255.203 548.363C253.287 551.948 258.723 555.207 260.666 551.596C271.369 531.598 282.072 511.6 292.788 491.602C294.704 488.017 289.268 484.758 287.326 488.369Z" fill="black"/>
<path d="M242.532 386.751C244.461 383.505 246.378 380.259 248.307 377.013C250.393 373.506 244.931 370.26 242.845 373.779C240.915 377.026 238.999 380.272 237.07 383.518C234.984 387.024 240.446 390.271 242.532 386.751Z" fill="black"/>
<path d="M204.413 415.509C205.756 413.241 207.112 410.959 208.454 408.691C210.54 405.184 205.078 401.938 202.992 405.458C201.649 407.726 200.293 410.008 198.951 412.276C196.865 415.783 202.327 419.029 204.413 415.509Z" fill="black"/>
</g>
<defs>
<clipPath id="clip0_731_688">
<rect width="523" height="792" fill="white"/>
</clipPath>
</defs>
</svg>
