<svg width="286" height="1012" viewBox="0 0 286 1012" fill="none" xmlns="http://www.w3.org/2000/svg">
<g clip-path="url(#clip0_596_775)">
<path d="M408.017 53.5081C363.817 46.8341 317.218 40.4118 275.896 57.1013C234.574 73.7908 202.355 122.415 218.992 164.871C231.015 195.558 265.439 218.253 263.302 251.078C259.493 309.591 150.798 310.688 149.015 369.325C148.167 397.208 173.807 417.266 192.63 437.718C242.565 491.969 252.934 573.212 244.485 646.642C236.033 720.072 211.622 790.586 201.952 863.845C195.502 912.725 203.278 974.843 248.608 992.622C283.328 1006.24 320.702 985.437 351.898 965.384C396.368 936.8 444.658 902.828 455.512 850.178C464.882 804.728 443.104 758.539 418.467 719.084C393.826 679.63 364.881 640.631 357.474 594.611C345.447 519.932 392.771 450.567 439.897 392.867C487.025 335.17 539.302 272.454 539.653 196.91C540.029 115.355 467.649 39.9782 387.768 38.7326" fill="#9D7CB8"/>
<path d="M422.66 83.8351C382.164 77.7221 339.467 71.8351 301.609 87.1271C263.752 102.419 234.231 146.968 249.474 185.862C260.491 213.976 292.028 234.774 290.072 264.847C286.58 318.457 186.994 319.463 185.364 373.183C184.587 398.732 208.077 417.105 225.324 435.843C271.075 485.548 280.577 559.98 272.834 627.259C265.091 694.538 242.722 759.139 233.864 826.262C227.954 871.043 235.081 927.961 276.609 944.246C308.418 956.722 342.662 937.665 371.246 919.293C411.989 893.106 456.233 861.977 466.179 813.739C474.766 772.098 454.81 729.781 432.237 693.633C409.664 657.486 383.142 621.752 376.355 579.589C365.338 511.166 408.694 447.617 451.873 394.754C495.045 341.893 542.943 284.432 543.262 215.222C543.608 140.5 477.296 71.4378 404.106 70.2967" fill="#988ABD"/>
<path d="M437.304 114.166C400.511 108.61 361.721 103.265 327.327 117.156C292.93 131.047 266.112 171.524 279.958 206.862C289.969 232.406 318.621 251.298 316.839 278.621C313.668 327.324 223.19 328.239 221.707 377.05C221 400.261 242.342 416.956 258.013 433.977C299.581 479.136 308.212 546.758 301.177 607.882C294.143 669.006 273.821 727.701 265.772 788.679C260.403 829.363 266.876 881.077 304.607 895.871C333.507 907.204 364.617 889.891 390.587 873.2C427.601 849.406 467.801 821.128 476.834 777.303C484.634 739.468 466.505 701.025 445.995 668.181C425.486 635.342 401.392 602.876 395.225 564.57C385.214 502.404 424.603 444.671 463.834 396.641C503.066 348.619 546.58 296.412 546.871 233.531C547.187 165.645 486.94 102.902 420.445 101.865" fill="#9297C4"/>
<path d="M451.944 144.494C418.854 139.499 383.969 134.688 353.037 147.183C322.104 159.677 297.985 196.077 310.438 227.858C319.438 250.83 345.207 267.82 343.606 292.394C340.753 336.195 259.387 337.017 258.053 380.913C257.42 401.789 276.614 416.802 290.706 432.111C328.086 472.724 335.851 533.539 329.524 588.508C323.198 643.477 304.924 696.262 297.685 751.104C292.858 787.693 298.68 834.198 332.61 847.503C358.599 857.696 386.579 842.127 409.932 827.114C443.22 805.717 479.37 780.287 487.498 740.873C494.513 706.848 478.212 672.271 459.767 642.738C441.323 613.206 419.656 584.009 414.109 549.56C405.105 493.655 440.529 441.732 475.812 398.536C511.091 355.344 550.229 308.392 550.488 251.842C550.77 190.79 496.59 134.361 436.791 133.431" fill="#8CA5CA"/>
<path d="M466.586 174.821C437.204 170.382 406.222 166.114 378.755 177.211C351.283 188.309 329.865 220.633 340.925 248.852C348.918 269.251 371.803 284.339 370.38 306.162C367.848 345.06 295.59 345.791 294.406 384.77C293.842 403.308 310.887 416.64 323.4 430.236C356.596 466.303 363.49 520.307 357.873 569.125C352.257 617.943 336.024 664.816 329.597 713.52C325.31 746.012 330.481 787.312 360.612 799.131C383.693 808.184 408.539 794.355 429.277 781.024C458.837 762.023 490.941 739.437 498.157 704.436C504.386 674.221 489.91 643.514 473.529 617.289C457.148 591.061 437.905 565.133 432.982 534.54C424.989 484.891 456.445 438.784 487.777 400.426C519.108 362.068 553.863 320.376 554.094 270.155C554.345 215.936 506.23 165.826 453.126 165" fill="#84B2D1"/>
<path d="M481.226 205.149C455.547 201.272 428.472 197.542 404.464 207.238C380.456 216.934 361.737 245.183 371.404 269.849C378.391 287.675 398.389 300.865 397.147 319.935C394.932 353.931 331.782 354.567 330.748 388.634C330.254 404.833 345.152 416.488 356.089 428.37C385.1 459.887 391.125 507.089 386.216 549.748C381.308 592.411 367.123 633.378 361.505 675.938C357.756 704.337 362.276 740.428 388.613 750.755C408.782 758.666 430.499 746.584 448.624 734.93C474.461 718.321 502.517 698.586 508.823 667.997C514.266 641.592 501.616 614.756 487.299 591.835C472.985 568.913 456.166 546.254 451.863 519.518C444.877 476.13 472.368 435.83 499.752 402.309C527.131 368.786 557.506 332.35 557.71 288.462C557.928 241.08 515.88 197.285 469.467 196.563" fill="#7BBED6"/>
</g>
<defs>
<clipPath id="clip0_596_775">
<rect width="510" height="914" fill="white" transform="matrix(-0.969581 0.24477 0.24477 0.969581 494.677 0.611572)"/>
</clipPath>
</defs>
</svg>
