<?xml version="1.0" encoding="UTF-8"?><svg id="Layer_2" xmlns="http://www.w3.org/2000/svg" xmlns:xlink="http://www.w3.org/1999/xlink" viewBox="0 0 945.31 502.69"><defs><style>.cls-1{fill:#fff;}.cls-2{fill:#ed7263;}.cls-3{fill:#582b7d;}.cls-4{opacity:.19;}.cls-5{fill:#ee8263;}</style><clipPath id="clippath"><rect class="cls-1" x="-4427.21" y="-2634.04" width="4072.25" height="2519.5"/></clipPath></defs><g class="cls-4"><rect class="cls-1" x="-4427.21" y="-2634.04" width="4072.25" height="2519.5"/></g><g><path class="cls-2" d="M-1154.18,428.51c-30.55-41.83-28.52-100.95-6.86-148.01,21.65-47.06,59.94-84.24,99.34-117.88C-968.17,82.76-858.33,14.3-735.97,1.73c122.36-12.56,257.82,43.55,308.15,155.78,43.85,97.79,16.5,210.62,1,316.67-15.5,106.05-10.92,231.09,73.02,297.73,65.82,52.25,162.44,52.2,227.15,105.81,46.85,38.81,69.28,99.77,81.33,159.4,12.05,59.63,15.87,121.2,35.14,178.91,41.85,125.32,149.87,215.72,218.53,328.6,59.01,97.02,86.4,225.9,26.47,322.35-34.2,55.05-92.45,91.79-153.91,112.35-61.47,20.56-126.7,26.57-191.27,32.17-182.42,15.82-377.84,26.78-536.46-64.68-163.23-94.12-253.58-280.25-289.6-465.2-36.02-184.95-27.13-375.39-43.37-563.11-16.25-187.72-62.28-382.16-187.9-522.59"/><path class="cls-5" d="M-1235.52,512.95c-22.2-45.49-17.19-105.49,6.47-154.3,23.66-48.81,64.4-87.47,107.06-120.11,89.73-68.64,192.78-131.42,302.39-128.07,113.3,3.46,225.52,69.54,280.2,172.44,45.62,85.86,34.08,180.14,25.08,276.89-8.92,95.86-10.31,208.07,58.9,272.57,55.17,51.41,140.68,59.49,201.39,109.07,45.83,37.25,72.58,90.78,90.37,143.65,17.79,52.87,29.15,107.88,50.17,162.56,43.78,113.93,134.56,203.61,186.85,310,45.48,92.54,60.38,211.05-.49,298.88-39.34,56.76-103.8,94.41-170.18,110.81-60.34,14.91-122.47,16.88-183.35,15.72-175.41-3.35-350.24-27.81-488.16-128.91-134.22-98.39-212.71-266.08-250.7-432.84s-33.74-322.29-53.1-483.2c-19.35-160.91-63.18-328.86-168.62-453.19"/></g><g><path class="cls-3" d="M872.86,103.24h-115.52c-18.13,0-35.36,6.66-48.69,18.23h0v-18.23h-251.67c-56.45,0-102.38,45.93-102.38,102.38,0,22.44,7.18,43.8,20.46,61.42h-13v12.8h0c-2.85-22.99-13.2-44.26-29.84-60.9-38.71-40.73-77.42-81.46-116.13-122.18l-4.83-5.79c-4.07-4.88-10.1-7.7-16.46-7.7s-12.39,2.82-16.46,7.7l-4.83,5.78c-38.71,40.73-77.42,81.46-116.13,122.18-19.76,19.76-30.65,46.04-30.65,73.99s10.88,54.22,30.65,73.98l63.44,63.44c19.74,19.74,46.01,30.61,73.98,30.61s54.25-10.87,73.99-30.61l63.44-63.44c16.65-16.64,26.99-37.91,29.84-60.9h0v136.96h113.37v-3.93h0c8.68,3.65,18.02,5.49,27.91,5.49,5.33,0,10.52-.52,15.48-1.55h98.06c4.98,1.03,10.19,1.55,15.55,1.55,13.5,0,26.04-3.44,37.26-10.23,4.24-2.57,8.18-5.56,11.76-8.93h0c5.46,5.49,12.05,9.91,19.68,13.19,9.21,3.96,19.47,5.97,30.49,5.97s20.62-2.01,29.44-5.98c9.87-4.44,17.8-10.92,23.59-19.25,6.15-8.86,9.27-18.89,9.27-29.8v-.55c-.09-4.38-.9-41.63-.9-41.63-.86-17.07-7.93-31.53-20.47-41.83-1.35-1.11-2.74-2.15-4.18-3.13h0v-54.06h44.79v-59.71h59.71V103.24h0Z"/><g><g><path class="cls-1" d="M312.6,238.55l-63.44-63.44c-2.91-2.91-6-5.52-9.22-7.87,2.29,6.97,4.27,14.34,5.72,22.06l58.09,58.1c12.16,12.16,18.86,28.33,18.86,45.52s-6.7,33.36-18.86,45.52l-42.44,42.44c-3.36-2.76-7.64-4.44-12.32-4.44-.91,0-1.8,.08-2.68,.21-2.13-5.04-5.43-9.45-9.55-12.92,.91-2.25,1.43-4.71,1.43-7.29,0-7.66-4.43-14.27-10.86-17.45,.19-.58,.32-1.18,.32-1.82,0-.26-.04-.5-.08-.75,2.74-1.27,4.65-4.04,4.65-7.26,0-4.42-3.58-8.01-8.01-8.01-1.67,0-3.23,.52-4.51,1.39l-1.04-21.45c-1.04-.75-2.1-1.45-3.19-2.11-6.46-3.86-13.42-5.82-20.69-5.82s-14.23,1.96-20.69,5.82c-.76,.46-1.51,.95-2.25,1.45,.15,.07,.31,.12,.47,.16l-.81,16.78c-.18-.01-.35-.05-.54-.05-3.78,0-6.85,3.07-6.85,6.85,0,2.26,1.11,4.24,2.79,5.49-3.45,2.4-5.72,6.38-5.72,10.91,0,3.19,1.13,6.11,3,8.4-.19,.59-.37,1.19-.5,1.81-7.25,4.71-12.6,12.09-14.67,20.76-7.33,1.86-13.71,6.08-18.3,11.81l-44.91-44.91c-12.16-12.16-18.86-28.33-18.86-45.52s6.7-33.37,18.86-45.52l58.09-58.09c1.45-7.72,3.44-15.1,5.73-22.06-3.23,2.34-6.31,4.96-9.22,7.87l-63.44,63.44c-14.52,14.52-22.52,33.83-22.52,54.37s8,39.85,22.52,54.37l47.69,47.69,15.75,15.76c14.99,14.99,34.68,22.49,54.37,22.49s39.38-7.5,54.37-22.49l27.39-27.39,36.05-36.05c14.52-14.52,22.52-33.83,22.52-54.37s-8-39.85-22.52-54.37Z"/><path class="cls-1" d="M232.62,234.08c.34-5.5,.53-11.14,.53-16.89,0-56.7-38.37-102.66-38.37-102.66,0,0-38.37,45.96-38.37,102.66,0,5.76,.19,11.4,.53,16.89-6.22,5.58-11.44,12.49-15.32,20.37,1.64,16.78,4.36,32.39,7.95,46.27,4.75-5.95,10.41-10.95,16.74-14.74,8.49-5.08,18.18-7.97,28.47-7.97s19.98,2.89,28.47,7.97c6.33,3.78,11.99,8.79,16.74,14.74,3.59-13.88,6.31-29.49,7.95-46.27-3.88-7.88-9.1-14.79-15.32-20.37Zm-37.84-40.69c-7.86,0-14.24-6.37-14.24-14.24s6.37-14.24,14.24-14.24,14.24,6.37,14.24,14.24-6.37,14.24-14.24,14.24Z"/></g><g><g><path class="cls-1" d="M680.91,130.97h-29.86v59.71h-42.99c-9.22,0-16.72-7.5-16.72-16.72v-42.99h-29.86v42.99c0,25.68,20.89,46.58,46.58,46.58h42.99v59.72h29.86v-59.72h14.93v-29.86h-14.93v-59.71Z"/><path class="cls-1" d="M757.34,160.83h87.78v-29.86h-87.78c-25.68,0-46.58,20.89-46.58,46.58v102.71h29.86v-59.72h44.79v-29.86h-44.79v-13.14c0-9.22,7.5-16.72,16.72-16.72"/><path class="cls-1" d="M561.48,265.33c0-41.22-33.42-74.64-74.64-74.64h-14.93v29.86h14.93c24.69,0,44.78,20.09,44.78,44.78h0v14.93h29.86v-14.93h0"/><path class="cls-1" d="M412.19,205.61c0-24.69,20.09-44.78,44.79-44.79h74.64v-29.86h-74.64c-41.22,0-74.64,33.42-74.64,74.64s33.11,74.32,74.07,74.63h.46s.07,.01,.11,.01h44.79v-29.85h-44.85c-24.66-.04-44.72-20.12-44.72-44.79"/></g><g><path class="cls-1" d="M405.52,402.44h42.17v12.79h-57.89v-120.45h15.73v107.66Z"/><path class="cls-1" d="M464.45,342.04c3.91-7.31,9.3-12.99,16.16-17.02,6.85-4.03,14.48-6.05,22.89-6.05s15.5,1.79,21.6,5.36c6.11,3.57,10.66,8.07,13.65,13.48v-17.28h15.9v94.7h-15.9v-17.63c-3.11,5.53-7.75,10.11-13.91,13.74-6.16,3.63-13.33,5.44-21.51,5.44s-16.01-2.07-22.81-6.22c-6.8-4.15-12.16-9.96-16.07-17.45-3.92-7.49-5.88-16.01-5.88-25.58s1.96-18.17,5.88-25.49Zm69.99,7c-2.88-5.3-6.77-9.36-11.66-12.18-4.9-2.82-10.28-4.23-16.16-4.23s-11.23,1.38-16.07,4.15c-4.84,2.76-8.7,6.8-11.58,12.1-2.88,5.3-4.32,11.52-4.32,18.66s1.44,13.57,4.32,18.92c2.88,5.36,6.74,9.45,11.58,12.27,4.84,2.82,10.19,4.23,16.07,4.23s11.26-1.41,16.16-4.23c4.89-2.82,8.78-6.91,11.66-12.27,2.88-5.36,4.32-11.6,4.32-18.75s-1.44-13.36-4.32-18.66Z"/><path class="cls-1" d="M611.16,324.33c6.22-3.57,13.31-5.36,21.26-5.36,8.52,0,16.18,2.02,22.98,6.05,6.79,4.03,12.15,9.71,16.07,17.02,3.92,7.32,5.88,15.81,5.88,25.49s-1.96,18.09-5.88,25.58c-3.92,7.49-9.3,13.31-16.16,17.45-6.86,4.15-14.49,6.22-22.9,6.22s-15.35-1.78-21.52-5.35c-6.16-3.57-10.8-8.12-13.91-13.65v17.45h-15.73v-127.88h15.73v50.81c3.22-5.64,7.95-10.25,14.17-13.82Zm45.8,24.54c-2.88-5.3-6.77-9.33-11.66-12.1-4.9-2.77-10.28-4.15-16.16-4.15s-11.09,1.41-15.99,4.23c-4.9,2.82-8.81,6.91-11.75,12.27-2.94,5.35-4.41,11.55-4.41,18.58s1.47,13.39,4.41,18.75c2.94,5.36,6.85,9.45,11.75,12.27,4.9,2.82,10.22,4.23,15.99,4.23s11.26-1.41,16.16-4.23c4.89-2.82,8.78-6.91,11.66-12.27,2.88-5.36,4.32-11.66,4.32-18.92s-1.44-13.36-4.32-18.66Z"/><path class="cls-1" d="M712.08,413.07c-5.76-2.48-10.31-5.93-13.65-10.37-3.34-4.43-5.18-9.53-5.53-15.29h16.24c.46,4.73,2.68,8.58,6.65,11.58,3.97,3,9.19,4.49,15.64,4.49,5.99,0,10.72-1.32,14.17-3.97,3.46-2.65,5.18-5.99,5.18-10.02s-1.85-7.23-5.53-9.25c-3.69-2.02-9.39-4-17.11-5.96-7.03-1.84-12.76-3.72-17.2-5.62-4.44-1.9-8.24-4.72-11.4-8.47-3.17-3.74-4.75-8.67-4.75-14.78,0-4.84,1.44-9.28,4.32-13.31,2.88-4.03,6.97-7.23,12.27-9.59,5.3-2.36,11.35-3.55,18.15-3.55,10.48,0,18.95,2.65,25.4,7.95,6.45,5.3,9.91,12.56,10.37,21.77h-15.73c-.34-4.95-2.33-8.93-5.96-11.92-3.63-2.99-8.5-4.5-14.6-4.5-5.65,0-10.14,1.21-13.48,3.63-3.34,2.42-5.01,5.59-5.01,9.51,0,3.11,1.01,5.67,3.03,7.69,2.02,2.02,4.55,3.63,7.6,4.84,3.05,1.21,7.28,2.56,12.7,4.06,6.8,1.85,12.33,3.66,16.59,5.44,4.26,1.79,7.92,4.47,10.97,8.04,3.05,3.57,4.64,8.24,4.75,14,0,5.18-1.44,9.85-4.32,13.99-2.88,4.15-6.94,7.41-12.19,9.77-5.24,2.36-11.26,3.54-18.06,3.54-7.26,0-13.77-1.24-19.53-3.72Z"/></g></g></g><path class="cls-3" d="M326.41,219.72s28.19,11.58,28.19-14.1,28.4,61.73,28.4,61.73l-7.28,40.34-4.48,53.79s-2.24-39.78-22.97-23.53c-20.73,16.25-4.48-61.07-4.48-61.07l-15.69-54.35-1.68-2.8Z"/></g></svg>