<svg width="533" height="1479" viewBox="0 0 533 1479" fill="none" xmlns="http://www.w3.org/2000/svg">
<g filter="url(#filter0_d_596_1239)">
<path d="M444.829 1372.95C388.16 1364.57 328.775 1354.91 289.198 1315.96C249.622 1277.01 239.579 1198.31 284.257 1147.26C316.548 1110.35 370.91 1093.13 387.546 1047.74C417.2 966.823 288.078 922.46 320.223 842.179C335.509 804.002 377.844 786.893 412.27 766.561C503.594 712.63 563.461 606.46 596.296 503.472C629.127 400.482 641.2 295.155 672.478 191.916C693.349 123.036 738.942 41.7976 803.45 35.5496C852.858 30.7654 885.319 73.7363 910.84 113.256C947.222 169.59 985.015 234.743 967.199 310.478C951.818 375.856 898.821 429.952 846.346 473.781C793.867 517.607 736.516 559.118 700.773 618.653C642.763 715.26 658.715 828.065 681.25 924.962C703.788 1021.85 729.54 1127.59 685.801 1230.25C638.581 1341.08 508.111 1414.83 412.018 1385.02" fill="#9D7CB8"/>
<path d="M480.037 1337.57C428.118 1329.89 373.703 1321.04 337.446 1285.35C301.189 1249.67 291.985 1177.56 332.918 1130.79C362.503 1096.98 412.31 1081.19 427.553 1039.61C454.721 965.475 336.419 924.828 365.872 851.28C379.879 816.3 418.662 800.63 450.205 782.002C533.878 732.59 588.728 635.322 618.811 540.96C648.893 446.597 659.948 350.1 688.607 255.51C707.728 192.404 749.505 117.969 808.602 112.248C853.869 107.862 883.612 147.232 906.998 183.441C940.331 235.051 974.955 294.75 958.633 364.139C944.545 424.039 895.986 473.599 847.908 513.753C799.831 553.907 747.281 591.942 714.533 646.487C661.386 735.003 676.001 838.35 696.65 927.125C717.292 1015.89 740.888 1112.77 700.815 1206.82C657.551 1308.37 538.016 1375.94 449.972 1348.62" fill="#988ABD"/>
<path d="M515.248 1302.18C468.076 1295.21 418.642 1287.16 385.701 1254.74C352.757 1222.32 344.399 1156.81 381.585 1114.31C408.468 1083.6 453.716 1069.26 467.56 1031.47C492.241 964.125 384.76 927.196 411.521 860.366C424.244 828.586 459.482 814.346 488.14 797.427C564.161 752.535 613.991 664.166 641.321 578.437C668.651 492.707 678.699 405.033 704.732 319.101C722.103 261.769 760.058 194.138 813.75 188.943C854.877 184.962 881.898 220.729 903.145 253.624C933.426 300.517 964.888 354.751 950.056 417.791C937.254 472.215 893.139 517.238 849.456 553.722C805.777 590.201 758.035 624.758 728.282 674.313C679.994 754.734 693.271 848.624 712.032 929.281C730.8 1009.93 752.232 1097.95 715.825 1183.4C676.522 1275.66 567.921 1337.04 487.93 1312.22" fill="#9297C4"/>
<path d="M550.452 1266.79C508.03 1260.52 463.571 1253.29 433.946 1224.13C404.32 1194.98 396.802 1136.06 430.246 1097.84C454.418 1070.22 495.112 1057.32 507.566 1023.34C529.762 962.769 433.104 929.559 457.17 869.46C468.617 840.879 500.307 828.073 526.078 812.856C594.443 772.481 639.26 693.008 663.838 615.912C688.417 538.815 697.453 459.968 720.868 382.685C736.492 331.123 770.626 270.304 818.909 265.632C855.894 262.048 880.198 294.215 899.302 323.801C926.535 365.97 954.828 414.742 941.494 471.439C929.98 520.382 890.307 560.88 851.026 593.684C811.744 626.489 768.811 657.568 742.052 702.133C698.626 774.454 710.567 858.894 727.439 931.434C744.311 1003.97 763.591 1083.13 730.846 1159.98C695.496 1242.94 597.83 1298.16 525.896 1275.83" fill="#8CA5CA"/>
<path d="M585.66 1231.41C547.988 1225.85 508.507 1219.42 482.201 1193.52C455.891 1167.63 449.216 1115.31 478.914 1081.37C500.38 1056.84 536.519 1045.39 547.577 1015.21C567.29 961.425 481.453 931.932 502.824 878.564C512.987 853.183 541.129 841.813 564.014 828.297C624.727 792.441 664.524 721.868 686.353 653.399C708.183 584.93 716.201 514.914 736.997 446.279C750.871 400.492 781.186 346.48 824.065 342.325C856.912 339.142 878.491 367.711 895.456 393.982C919.64 431.429 944.765 474.746 932.921 525.094C922.695 568.557 887.465 604.521 852.581 633.651C817.693 662.786 779.564 690.385 755.805 729.962C717.241 794.191 727.845 869.173 742.828 933.589C757.812 998.005 774.934 1068.3 745.855 1136.54C714.463 1210.23 627.731 1259.26 563.85 1239.43" fill="#84B2D1"/>
<path d="M620.865 1196.03C587.942 1191.16 553.438 1185.54 530.445 1162.91C507.451 1140.28 501.615 1094.56 527.574 1064.9C546.334 1043.46 577.918 1033.45 587.583 1007.08C604.81 960.069 529.79 934.297 548.469 887.655C557.349 865.475 581.946 855.534 601.948 843.722C655.006 812.391 689.789 750.707 708.863 690.876C727.941 631.04 734.952 569.846 753.123 509.87C765.246 469.85 791.739 422.65 829.217 419.023C857.92 416.243 876.784 441.206 891.61 464.171C912.747 496.903 934.706 534.753 924.355 578.754C915.419 616.736 884.63 648.168 854.14 673.628C823.654 699.091 790.33 723.209 769.565 757.797C735.864 813.925 745.127 879.462 758.226 935.756C771.317 992.052 786.283 1053.48 760.873 1113.13C733.437 1177.52 657.64 1220.37 601.808 1203.04" fill="#7BBED6"/>
<path d="M656.073 1160.64C627.9 1156.48 598.371 1151.68 578.697 1132.31C559.022 1112.94 554.026 1073.82 576.238 1048.43C592.296 1030.08 619.322 1021.52 627.59 998.952C642.335 958.723 578.135 936.668 594.119 896.756C601.722 877.775 622.764 869.271 639.883 859.163C685.29 832.352 715.053 779.567 731.378 728.363C747.703 677.16 753.703 624.795 769.252 573.464C779.625 539.218 802.299 498.826 834.369 495.722C858.934 493.342 875.074 514.706 887.761 534.358C905.849 562.367 924.639 594.762 915.779 632.414C908.135 664.918 881.783 691.814 855.695 713.603C829.607 735.391 801.091 756.031 783.322 785.629C754.479 833.662 762.409 889.744 773.615 937.918C784.821 986.092 797.623 1038.66 775.876 1089.7C752.397 1144.81 687.534 1181.48 639.755 1166.65" fill="#70CDDD"/>
</g>
<defs>
<filter id="filter0_d_596_1239" x="250.885" y="35.1834" width="724.865" height="1364.48" filterUnits="userSpaceOnUse" color-interpolation-filters="sRGB">
<feFlood flood-opacity="0" result="BackgroundImageFix"/>
<feColorMatrix in="SourceAlpha" type="matrix" values="0 0 0 0 0 0 0 0 0 0 0 0 0 0 0 0 0 0 127 0" result="hardAlpha"/>
<feOffset dy="4"/>
<feGaussianBlur stdDeviation="2"/>
<feComposite in2="hardAlpha" operator="out"/>
<feColorMatrix type="matrix" values="0 0 0 0 0 0 0 0 0 0 0 0 0 0 0 0 0 0 0.25 0"/>
<feBlend mode="normal" in2="BackgroundImageFix" result="effect1_dropShadow_596_1239"/>
<feBlend mode="normal" in="SourceGraphic" in2="effect1_dropShadow_596_1239" result="shape"/>
</filter>
</defs>
</svg>
