<svg width="1440" height="486" viewBox="0 0 1440 486" fill="none" xmlns="http://www.w3.org/2000/svg">
<g clip-path="url(#clip0_596_466)">
<path d="M1434.06 249.614C1417.93 294.765 1399.99 342.273 1349.66 380.752C1299.35 419.231 1205.39 443.436 1150.07 419.94C1110.1 402.961 1095.76 364.948 1044.04 361.734C951.846 356.005 885.272 464.187 794.097 456.417C750.737 452.723 735.215 423.901 715.025 401.8C661.455 343.188 542.804 319.622 424.902 316.096C307 312.57 184.072 325.431 65.7112 323.142C-13.2505 321.616 -104.082 303.751 -104.345 255.669C-104.545 218.84 -50.2749 184.966 -0.82946 157.124C69.6499 117.445 150.679 74.8283 238.074 72.5742C313.513 70.6333 371.5 99.8569 417.424 130.85C463.348 161.834 506.004 197.037 572.308 211.917C679.9 236.06 814.742 200.178 931.549 162.579C1048.36 124.991 1175.95 83.0727 1292.25 95.0221C1417.82 107.943 1490.46 192.368 1444.69 272.211" fill="#582B7D"/>
<path d="M1396.21 229.923C1381.43 271.287 1364.99 314.817 1318.88 350.063C1272.79 385.318 1186.69 407.491 1136.02 385.972C1099.4 370.416 1086.26 335.582 1038.88 332.646C954.402 327.401 893.409 426.516 809.87 419.403C770.149 416.014 755.933 389.607 737.422 369.362C688.35 315.662 579.628 294.07 471.609 290.841C363.591 287.613 250.956 299.396 142.516 297.299C70.1648 295.897 -13.0449 279.536 -13.2883 235.477C-13.4703 201.737 36.2574 170.703 81.5547 145.192C146.125 108.838 220.371 69.7911 300.441 67.732C369.564 65.9523 422.683 92.7317 464.762 121.121C506.831 149.51 545.92 181.762 606.669 195.395C705.241 217.515 828.786 184.634 935.811 150.191C1042.82 115.748 1159.73 77.3546 1266.29 88.3019C1381.33 100.119 1447.88 177.476 1405.94 250.62" fill="#712A7E"/>
<path d="M1358.35 210.222C1344.92 247.807 1329.99 287.352 1288.1 319.373C1246.21 351.404 1168.01 371.556 1121.97 351.993C1088.69 337.86 1076.76 306.215 1033.7 303.538C956.959 298.769 901.536 388.825 825.646 382.36C789.552 379.286 776.641 355.293 759.831 336.896C715.245 288.107 616.475 268.491 518.34 265.559C420.206 262.618 317.875 273.324 219.355 271.428C153.625 270.161 78.0157 255.282 77.8031 215.258C77.639 184.597 122.813 156.402 163.973 133.232C222.635 100.203 290.086 64.7354 362.833 62.8614C425.628 61.2425 473.9 85.5787 512.124 111.364C550.349 137.159 585.86 166.458 641.043 178.843C730.606 198.942 842.843 169.072 940.073 137.783C1037.3 106.495 1143.51 71.6068 1240.32 81.552C1344.83 92.2931 1405.29 162.565 1367.19 229.02" fill="#88297F"/>
<path d="M1320.48 190.531C1308.4 224.328 1294.98 259.896 1257.3 288.693C1219.63 317.5 1149.29 335.619 1107.88 318.033C1077.95 305.323 1067.23 276.868 1028.5 274.458C959.482 270.173 909.652 351.154 841.398 345.344C808.943 342.576 797.325 320.998 782.206 304.457C742.107 260.579 653.278 242.938 565.026 240.304C476.775 237.66 384.737 247.289 296.139 245.584C237.029 244.442 169.031 231.066 168.838 195.075C168.692 167.503 209.313 142.147 246.335 121.309C299.088 91.6055 359.756 59.7069 425.179 58.0183C481.657 56.5606 525.061 78.4428 559.441 101.644C593.821 124.835 625.754 151.191 675.382 162.33C755.925 180.406 856.865 153.537 944.312 125.404C1031.75 97.261 1127.27 65.8878 1214.33 74.8309C1308.32 84.4868 1362.7 147.683 1328.44 207.459" fill="#9F287F"/>
<path d="M1282.62 170.831C1271.9 200.849 1259.97 232.431 1226.52 258.004C1193.07 283.586 1130.6 299.675 1093.84 284.055C1067.25 272.768 1057.72 247.492 1023.34 245.36C962.05 241.551 917.789 313.473 857.172 308.311C828.346 305.858 818.032 286.693 804.603 272C768.991 233.033 690.114 217.368 611.735 215.03C533.356 212.683 451.634 221.235 372.945 219.712C320.446 218.694 260.069 206.821 259.897 174.854C259.768 150.37 295.847 127.855 328.71 109.347C375.565 82.9696 429.428 54.6396 487.526 53.1458C537.677 51.849 576.224 71.2875 606.759 91.8844C637.283 112.481 665.65 135.885 709.723 145.777C781.245 161.831 870.889 137.973 948.542 112.985C1026.2 87.9975 1111.02 60.1293 1188.33 68.0796C1271.81 76.6508 1320.09 132.781 1289.66 185.858" fill="#B72680"/>
<path d="M1244.76 151.14C1235.39 177.37 1224.97 204.975 1195.74 227.324C1166.5 249.682 1111.92 263.74 1079.77 250.095C1056.54 240.232 1048.22 218.145 1018.17 216.281C964.605 212.957 925.926 275.802 872.957 271.297C847.769 269.15 838.75 252.399 827.022 239.563C795.896 205.507 726.96 191.817 658.464 189.767C589.969 187.717 518.54 195.191 449.784 193.86C403.905 192.977 351.139 182.597 350.987 154.654C350.876 133.259 382.402 113.573 411.127 97.4068C452.074 74.3545 499.153 49.5939 549.928 48.2854C593.762 47.1594 627.441 64.1343 654.132 82.1371C680.811 100.139 705.601 120.591 744.118 129.236C806.631 143.268 884.967 122.411 952.826 100.578C1020.69 78.7358 1094.81 54.3921 1162.38 61.3305C1235.33 68.8262 1277.53 117.871 1250.94 164.259" fill="#D02481"/>
<path d="M1206.9 131.439C1198.88 153.89 1189.96 177.51 1164.94 196.634C1139.93 215.768 1093.21 227.804 1065.72 216.117C1045.83 207.676 1038.71 188.778 1013 187.173C967.163 184.325 934.064 238.112 888.732 234.253C867.172 232.421 859.457 218.085 849.42 207.096C822.792 177.952 763.796 166.237 705.173 164.484C646.561 162.731 585.437 169.128 526.59 167.988C487.333 167.23 442.178 158.343 442.045 134.443C441.941 116.136 468.935 99.2901 493.512 85.4552C528.55 65.7283 568.835 44.5367 612.286 43.4232C649.792 42.458 678.625 56.9896 701.449 72.3974C724.283 87.8056 745.496 105.305 778.458 112.703C831.951 124.712 898.99 106.866 957.066 88.1792C1015.14 69.4921 1078.57 48.6535 1136.4 54.5898C1198.82 61.0003 1234.94 102.979 1212.19 142.668" fill="#ED2383"/>
</g>
<defs>
<clipPath id="clip0_596_466">
<rect width="1560.02" height="416.871" fill="white" transform="translate(1447.07 485.159) rotate(-177.488)"/>
</clipPath>
</defs>
</svg>
