<svg width="361" height="1184" viewBox="0 0 361 1184" fill="none" xmlns="http://www.w3.org/2000/svg">
<g clip-path="url(#clip0_596_1279)">
<path d="M379.709 1126.4C328.091 1118.14 273.875 1108.75 233.12 1075.64C192.365 1042.53 172.241 977.284 204.738 936.172C228.224 906.457 274.147 893.515 282.497 856.414C297.378 790.282 176.178 750.577 193.367 685.029C201.54 653.854 236.778 640.728 264.522 624.754C338.119 582.372 376.291 496.099 390.865 411.807C405.439 327.514 401.201 240.799 414.355 156.266C423.134 99.8643 452.157 33.8402 508.668 30.2102C551.952 27.4283 586.945 63.6905 615.276 96.9431C655.656 144.339 698.552 199.051 693.466 261.189C689.077 314.827 649.609 358.252 609.145 393.21C568.68 428.164 523.55 461.097 500.206 509.425C462.321 587.85 492.552 681.404 526.384 761.973C560.215 842.543 598.163 930.494 573.837 1014.25C547.574 1104.68 441.97 1162.51 352.224 1135.6" fill="#0A81C5"/>
<path d="M406.006 1098.01C358.713 1090.44 309.04 1081.84 271.704 1051.5C234.367 1021.16 215.925 961.385 245.701 923.721C267.219 896.498 309.295 884.64 316.942 850.647C330.578 790.059 219.532 753.68 235.282 693.622C242.771 665.062 275.057 653.035 300.473 638.396C367.902 599.567 402.876 520.524 416.23 443.297C429.585 366.069 425.699 286.622 437.753 209.174C445.794 157.502 472.386 97.0111 524.16 93.6839C563.817 91.1353 595.876 124.359 621.833 154.823C658.831 198.246 698.127 248.372 693.469 305.304C689.445 354.446 653.288 394.234 616.217 426.261C579.146 458.287 537.794 488.458 516.406 532.732C481.701 604.583 509.396 690.295 540.389 764.114C571.387 837.932 606.153 918.512 583.866 995.252C559.806 1078.1 463.05 1131.08 380.826 1106.43" fill="#5A87AF"/>
<path d="M432.302 1069.62C389.335 1062.74 344.205 1054.92 310.283 1027.36C276.361 999.8 259.606 945.491 286.659 911.27C306.208 886.535 344.433 875.763 351.386 844.88C363.773 789.832 262.885 756.78 277.194 702.221C283.998 676.271 313.328 665.349 336.425 652.047C397.687 616.771 429.462 544.958 441.592 474.792C453.722 404.626 450.198 332.448 461.146 262.082C468.452 215.135 492.609 160.179 539.647 157.154C575.676 154.839 604.802 185.023 628.385 212.704C661.997 252.154 697.704 297.698 693.468 349.42C689.814 394.07 656.962 430.217 623.28 459.313C589.598 488.41 552.029 515.822 532.599 556.046C501.069 621.328 526.229 699.198 554.392 766.264C582.551 833.331 614.141 906.539 593.892 976.259C572.034 1051.53 484.127 1099.66 409.425 1077.27" fill="#7F8E9A"/>
<path d="M458.599 1041.22C419.958 1035.04 379.37 1028.01 348.867 1003.22C318.359 978.437 303.295 929.596 327.617 898.819C345.197 876.576 379.576 866.888 385.826 839.114C396.964 789.61 306.235 759.884 319.105 710.815C325.224 687.48 351.601 677.652 372.371 665.695C427.465 633.967 456.042 569.384 466.949 506.284C477.86 443.183 474.687 378.272 484.534 314.991C491.106 272.77 512.833 223.346 555.135 220.628C587.536 218.546 613.734 245.691 634.941 270.583C665.172 306.06 697.28 347.019 693.471 393.535C690.187 433.688 660.64 466.199 630.351 492.364C600.062 518.529 566.277 543.182 548.801 579.358C520.444 638.066 543.074 708.097 568.399 768.413C593.725 828.728 622.133 894.564 603.923 957.27C584.264 1024.96 505.209 1068.25 438.024 1048.11" fill="#9F9483"/>
<path d="M484.896 1012.84C450.581 1007.34 414.54 1001.1 387.447 979.089C360.354 957.079 346.976 913.702 368.576 886.373C384.192 866.617 414.719 858.014 420.267 833.352C430.161 789.392 349.585 762.993 361.017 719.417C366.452 698.693 389.878 689.969 408.319 679.347C457.246 651.172 482.624 593.818 492.312 537.783C501.999 481.748 499.182 424.1 507.928 367.903C513.76 330.408 533.057 286.517 570.623 284.107C599.397 282.259 622.662 306.364 641.494 328.468C668.339 359.973 696.853 396.35 693.475 437.654C690.556 473.312 664.319 502.181 637.42 525.42C610.521 548.659 580.517 570.548 564.999 602.675C539.817 654.809 559.912 717.003 582.402 770.563C604.893 824.127 630.121 882.591 613.949 938.277C596.492 998.393 526.286 1036.83 466.624 1018.95" fill="#BE9C6A"/>
<path d="M511.192 984.443C481.207 979.643 449.705 974.186 426.026 954.952C402.351 935.716 390.656 897.808 409.534 873.923C423.181 856.658 449.858 849.141 454.711 827.585C463.355 789.165 392.939 766.097 402.928 728.012C407.678 709.902 428.147 702.274 444.27 692.994C487.029 668.372 509.205 618.249 517.672 569.274C526.139 520.3 523.68 469.922 531.321 420.812C536.419 388.046 553.28 349.685 586.115 347.576C611.261 345.961 631.592 367.028 648.05 386.348C671.51 413.885 696.433 445.671 693.479 481.769C690.929 512.934 667.998 538.163 644.491 558.47C620.985 578.778 594.761 597.91 581.201 625.987C559.193 671.552 576.758 725.903 596.409 772.712C616.066 819.52 638.114 870.621 623.979 919.283C608.72 971.819 547.367 1005.42 495.227 989.78" fill="#DCA449"/>
<path d="M537.493 956.049C511.833 951.941 484.874 947.272 464.613 930.807C444.352 914.343 434.345 881.908 450.499 861.466C462.178 846.689 485.008 840.256 489.159 821.813C496.559 788.936 436.301 769.194 444.847 736.604C448.912 721.104 466.43 714.58 480.224 706.635C516.816 685.566 535.794 642.673 543.042 600.763C550.285 558.855 548.182 515.743 554.722 473.713C559.085 445.673 573.517 412.849 601.61 411.044C623.128 409.662 640.527 427.691 654.614 444.221C674.692 467.785 696.017 494.985 693.489 525.878C691.305 552.547 671.684 574.138 651.566 591.516C631.449 608.893 609.013 625.269 597.406 649.294C578.572 688.284 593.602 734.798 610.42 774.856C627.238 814.913 646.109 858.642 634.012 900.283C620.957 945.242 568.45 973.99 523.834 960.614" fill="#FBAC18"/>
</g>
<defs>
<clipPath id="clip0_596_1279">
<rect width="657" height="1067" fill="white" transform="translate(0 141.619) rotate(-12.448)"/>
</clipPath>
</defs>
</svg>
