<svg width="417" height="1946" viewBox="0 0 417 1946" fill="none" xmlns="http://www.w3.org/2000/svg">
<path d="M-21.3823 83.4527C28.7379 58.4204 81.4652 33.254 124.091 55.5844C166.717 77.9148 193.382 166.354 167.146 255.446C148.184 319.841 105.921 374.235 102.227 439.141C95.6435 554.836 215.666 528.203 206.819 644.683C202.611 700.072 170.55 746.879 145.956 792.663C80.7134 914.11 54.2529 1078.9 50.0479 1223.12C45.8467 1367.34 59.836 1501.51 57.0132 1645.07C55.1274 1740.85 35.0641 1866.81 -18.3552 1914.29C-59.2706 1950.65 -96.7711 1919.08 -127.576 1887.35C-171.489 1842.13 -218.633 1787.18 -220.924 1685.04C-222.9 1596.88 -190.289 1498.97 -155.758 1413.75C-121.222 1328.52 -82.0108 1243.06 -65.3254 1149.31C-38.2424 997.165 -77.7868 871.363 -119.265 768.774C-160.746 666.192 -206.996 554.964 -193.444 404.381C-178.811 241.816 -84.844 72.2797 3.74127 48.6128" fill="#9D7CB8"/>
<path d="M-43.1749 147.824C2.7451 124.893 51.0581 101.829 90.1096 122.291C129.161 142.753 153.593 223.779 129.556 305.398C112.183 364.393 73.4628 414.238 70.0766 473.702C64.0463 579.704 174.012 555.304 165.902 662.017C162.047 712.769 132.674 755.644 110.139 797.593C50.3632 908.863 26.1187 1059.84 22.2681 1191.98C18.4174 1324.12 31.2391 1447.04 28.6514 1578.57C26.924 1666.32 8.53852 1781.73 -40.4001 1825.23C-77.8853 1858.55 -112.245 1829.62 -140.472 1800.55C-180.705 1759.12 -223.897 1708.77 -225.997 1615.19C-227.812 1534.42 -197.93 1444.72 -166.292 1366.64C-134.654 1288.55 -98.7251 1210.25 -83.4375 1124.35C-58.6259 984.956 -94.8551 869.701 -132.86 775.714C-170.857 681.728 -213.233 579.821 -200.816 441.864C-187.41 292.919 -101.319 137.586 -20.1541 115.902" fill="#988ABD"/>
<path d="M-64.9692 212.204C-23.2478 191.366 20.6436 170.419 56.1224 189.004C91.6052 207.591 113.799 281.211 91.9634 355.366C76.1769 408.97 40.9991 454.248 37.9284 508.272C32.4492 604.572 132.357 582.404 124.99 679.368C121.489 725.476 94.8015 764.435 74.3272 802.54C20.0173 903.634 -2.00726 1040.8 -5.50564 1160.85C-9.00402 1280.9 2.64252 1392.58 0.293503 1512.07C-1.27548 1591.79 -17.9775 1696.65 -62.441 1736.16C-96.4982 1766.43 -127.714 1740.15 -153.358 1713.75C-189.909 1676.1 -229.155 1630.36 -231.059 1545.35C-232.706 1471.95 -205.559 1390.47 -176.813 1319.52C-148.069 1248.58 -115.428 1177.44 -101.538 1099.4C-78.9939 972.751 -111.908 868.043 -146.437 782.649C-180.971 697.271 -219.467 604.679 -208.186 479.338C-196.008 344.021 -117.792 202.9 -44.0513 183.198" fill="#9297C4"/>
<path d="M-86.7579 276.576C-49.2368 257.84 -9.76355 238.994 22.1448 255.711C54.0532 272.429 74.0147 338.636 54.376 405.326C40.182 453.532 8.54496 494.252 5.78018 542.842C0.854079 629.448 90.7001 609.512 84.0749 696.711C80.9229 738.18 56.9226 773.216 38.5111 807.486C-10.3286 898.404 -30.139 1021.76 -33.2851 1129.72C-36.4312 1237.68 -25.9581 1338.12 -28.0719 1445.58C-29.4843 1517.28 -44.5048 1611.58 -84.4895 1647.12C-115.116 1674.34 -143.192 1650.71 -166.252 1626.96C-199.123 1593.1 -234.415 1551.97 -236.133 1475.51C-237.613 1409.51 -213.202 1336.22 -187.351 1272.42C-161.5 1208.63 -132.147 1144.65 -119.655 1074.47C-99.3807 960.574 -128.981 866.405 -160.036 789.605C-191.088 712.813 -225.713 629.542 -215.565 516.819C-204.611 395.122 -134.271 268.205 -67.9563 250.492" fill="#8CA5CA"/>
<path d="M-108.55 340.948C-75.2318 324.304 -40.1763 307.576 -11.8423 322.425C16.4956 337.275 34.2207 396.067 16.7809 455.285C4.17549 498.092 -23.9208 534.253 -26.374 577.402C-30.7508 654.314 49.0375 636.611 43.1544 714.044C40.3568 750.868 19.0434 781.98 2.69472 812.415C-40.6787 893.156 -58.2692 1002.7 -61.0648 1098.58C-63.8604 1194.46 -54.5549 1283.64 -56.4336 1379.08C-57.6876 1442.75 -71.0285 1526.5 -106.536 1558.06C-133.737 1582.24 -158.666 1561.25 -179.144 1540.16C-208.334 1510.1 -239.676 1473.56 -241.199 1405.66C-242.512 1347.05 -220.835 1281.96 -197.878 1225.31C-174.919 1168.66 -148.85 1111.84 -137.76 1049.51C-119.756 948.367 -146.042 864.745 -173.619 796.547C-201.196 728.349 -231.944 654.409 -222.933 554.302C-213.206 446.225 -150.74 333.52 -91.8495 317.79" fill="#84B2D1"/>
<path d="M-130.339 405.32C-101.221 390.777 -70.5851 376.158 -45.8198 389.132C-21.0546 402.105 -5.5621 453.485 -20.8065 505.245C-31.8233 542.653 -56.3767 574.264 -58.5222 611.972C-62.3459 679.19 7.38656 663.712 2.24369 731.387C-0.199331 763.567 -18.8276 790.762 -33.1175 817.362C-71.0228 887.918 -86.3969 983.663 -88.8385 1067.45C-91.2819 1151.24 -83.1515 1229.19 -84.7916 1312.58C-85.885 1368.23 -97.5445 1441.42 -128.581 1469C-152.35 1490.13 -174.141 1471.79 -192.038 1453.35C-217.551 1427.07 -244.941 1395.15 -246.273 1335.81C-247.42 1284.59 -228.476 1227.71 -208.41 1178.19C-188.349 1128.68 -165.564 1079.03 -155.872 1024.56C-140.138 936.166 -163.108 863.076 -187.212 803.479C-211.309 743.875 -238.184 679.257 -230.311 591.775C-221.808 497.326 -167.219 398.825 -115.749 385.077" fill="#7BBED6"/>
<path d="M-152.132 469.692C-127.214 457.25 -100.996 444.732 -79.8053 455.837C-58.6144 466.942 -45.3544 510.908 -58.3977 555.205C-67.8277 587.221 -88.8386 614.266 -90.6726 646.533C-93.947 704.057 -34.2722 690.812 -38.6731 748.721C-40.7672 776.263 -56.703 799.528 -68.9339 822.291C-101.373 882.671 -114.527 964.601 -116.618 1036.3C-118.709 1108.01 -111.752 1174.71 -113.153 1246.08C-114.088 1293.7 -124.068 1356.33 -150.626 1379.94C-170.968 1398.02 -189.613 1382.32 -204.928 1366.54C-226.761 1344.06 -250.2 1316.73 -251.337 1265.96C-252.322 1222.12 -236.107 1173.45 -218.939 1131.08C-201.771 1088.71 -182.275 1046.21 -173.98 999.604C-160.513 923.959 -180.173 861.415 -200.797 810.412C-221.421 759.41 -244.415 704.108 -237.675 629.242C-230.399 548.413 -183.684 464.125 -139.639 452.359" fill="#70CDDD"/>
</svg>
