<svg width="343" height="1507" viewBox="0 0 343 1507" fill="none" xmlns="http://www.w3.org/2000/svg">
<g clip-path="url(#clip0_596_458)">
<path d="M242.995 1475.44C196.642 1459.64 147.872 1442.1 108.452 1393.75C69.0316 1345.41 44.3773 1255.58 68.6435 1203.05C86.1787 1165.08 125.267 1151.76 128.687 1102.46C134.784 1014.59 23.786 950.11 31.976 863.232C35.8705 821.915 65.5181 807.378 88.2712 788.327C148.613 737.779 173.096 624.842 176.987 512.437C180.878 400.033 167.944 282.683 170.565 169.829C172.312 94.5407 190.874 8.08339 240.276 8.27397C278.115 8.42205 312.795 60.4883 341.288 107.898C381.895 175.476 425.496 253.141 427.613 336.506C429.436 408.467 399.278 463.498 367.331 507.009C335.393 550.52 299.126 590.875 283.687 653.969C258.637 756.353 295.197 885.275 333.561 997.015C371.915 1108.75 414.692 1230.82 402.15 1341.62C388.588 1461.25 301.683 1529.75 219.754 1485.36" fill="#582B7D"/>
<path d="M263.312 1439.52C220.848 1425.05 176.161 1408.97 140.053 1364.67C103.936 1320.39 81.3511 1238.08 103.576 1189.96C119.641 1155.17 155.461 1142.97 158.585 1097.8C164.166 1017.29 62.4716 958.216 69.9698 878.615C73.5418 840.766 100.706 827.451 121.548 809.984C176.833 763.679 199.264 660.195 202.828 557.212C206.391 454.23 194.54 346.706 196.942 243.312C198.547 174.327 215.547 95.1236 260.814 95.2966C295.48 95.4331 327.252 143.141 353.36 186.574C390.564 248.486 430.513 319.65 432.446 396.028C434.118 461.964 406.483 512.374 377.219 552.243C347.956 592.101 314.73 629.082 300.585 686.89C277.633 780.69 311.135 898.812 346.279 1001.19C381.424 1103.56 420.604 1215.41 409.114 1316.92C396.711 1426.52 317.08 1489.28 242.025 1448.61" fill="#712A7E"/>
<path d="M283.639 1403.6C245.054 1390.45 204.459 1375.84 171.654 1335.6C138.84 1295.36 118.314 1220.59 138.518 1176.86C153.114 1145.26 185.654 1134.17 188.504 1093.14C193.578 1020 101.178 966.313 107.993 893.999C111.233 859.607 135.914 847.514 154.854 831.653C205.083 789.582 225.462 695.57 228.697 602.01C231.942 508.45 221.175 410.764 223.348 316.828C224.799 254.155 240.258 182.187 281.38 182.352C312.883 182.477 341.749 225.817 365.46 265.282C399.261 321.529 435.549 386.18 437.308 455.572C438.829 515.472 413.715 561.283 387.136 597.499C360.547 633.715 330.363 667.311 317.512 719.822C296.658 805.05 327.092 912.36 359.017 1005.37C390.943 1098.38 426.546 1199.98 416.108 1292.22C404.834 1391.79 332.497 1448.8 264.306 1411.86" fill="#88297F"/>
<path d="M303.957 1367.66C269.261 1355.83 232.747 1342.7 203.247 1306.51C173.736 1270.32 155.279 1203.07 173.442 1163.75C186.568 1135.32 215.829 1125.35 218.393 1088.45C222.952 1022.66 139.864 974.399 145.988 909.361C148.906 878.437 171.103 867.555 188.132 853.289C233.304 815.451 251.631 730.901 254.539 646.764C257.456 562.627 247.773 474.767 249.726 390.29C251.034 333.931 264.932 269.206 301.91 269.354C330.239 269.467 356.198 308.439 377.523 343.937C407.921 394.518 440.557 452.668 442.143 515.074C443.512 568.948 420.93 610.14 397.015 642.712C373.11 675.286 345.958 705.497 334.401 752.722C315.645 829.366 343.021 925.875 371.727 1009.53C400.443 1093.17 432.459 1184.55 423.073 1267.5C412.938 1357.05 347.884 1408.32 286.547 1375.1" fill="#9F287F"/>
<path d="M324.284 1331.74C293.467 1321.24 261.046 1309.58 234.848 1277.44C208.64 1245.3 192.252 1185.58 208.384 1150.66C220.041 1125.42 246.032 1116.56 248.301 1083.79C252.354 1025.38 178.56 982.506 184.002 924.745C186.588 897.277 206.301 887.618 221.428 874.947C261.545 841.343 277.819 766.265 280.399 691.54C282.989 616.815 274.389 538.802 276.133 463.775C277.298 413.718 289.634 356.248 322.478 356.378C347.634 356.48 370.685 391.094 389.625 422.604C416.62 467.53 445.604 519.157 447.007 574.576C448.225 622.415 428.166 658.997 406.934 687.927C385.704 716.847 361.592 743.685 351.329 785.623C334.672 853.684 358.981 939.392 384.477 1013.68C409.973 1087.96 438.413 1169.11 430.068 1242.76C421.072 1322.29 363.292 1367.83 308.829 1338.32" fill="#B72680"/>
<path d="M344.601 1295.82C317.673 1286.64 289.334 1276.45 266.439 1248.36C243.534 1220.27 229.215 1168.09 243.307 1137.57C253.494 1115.5 276.206 1107.77 278.189 1079.13C281.726 1028.08 217.245 990.612 221.995 940.139C224.258 916.138 241.488 907.691 254.704 896.624C289.764 867.254 303.986 801.639 306.249 736.336C308.511 671.034 300.994 602.847 302.519 537.29C303.53 493.546 314.315 443.32 343.025 443.432C365.007 443.523 385.162 473.769 401.706 501.311C425.297 540.572 450.63 585.697 451.858 634.131C452.915 675.943 435.398 707.906 416.841 733.194C398.284 758.471 377.215 781.924 368.245 818.577C353.686 878.064 374.937 952.961 397.214 1017.88C419.501 1082.79 444.344 1153.71 437.061 1218.08C429.194 1287.58 378.708 1327.37 331.108 1301.58" fill="#D02481"/>
<path d="M364.929 1259.89C341.88 1252.04 317.633 1243.31 298.041 1219.28C278.439 1195.25 266.18 1150.58 278.25 1124.47C286.967 1105.59 306.399 1098.97 308.107 1074.46C311.138 1030.78 255.951 998.719 260.018 955.523C261.95 934.979 276.697 927.754 288.01 918.283C318.014 893.156 330.184 837.003 332.119 781.113C334.054 725.233 327.621 666.883 328.926 610.774C329.794 573.344 339.027 530.363 363.583 530.456C382.393 530.525 399.639 556.423 413.798 579.988C433.986 613.583 455.667 652.196 456.712 693.643C457.618 729.42 442.622 756.783 426.74 778.408C410.857 800.042 392.83 820.11 385.154 851.477C372.694 902.38 390.876 966.477 409.944 1022.03C429.011 1077.59 450.277 1138.27 444.046 1193.36C437.318 1252.83 394.105 1286.89 353.379 1264.83" fill="#ED2383"/>
</g>
<defs>
<clipPath id="clip0_596_458">
<rect width="1487.5" height="428.38" fill="white" transform="translate(0.959473 1485.67) rotate(-87.1565)"/>
</clipPath>
</defs>
</svg>
