<svg width="187" height="1444" viewBox="0 0 187 1444" fill="none" xmlns="http://www.w3.org/2000/svg">
<path d="M-54.9506 28.6166C-8.37908 43.2816 40.6333 59.5976 80.7369 105.586C120.841 151.564 146.773 237.527 123.26 288.226C106.269 324.865 67.3763 338.071 64.6602 385.433C59.8181 469.852 171.719 530.555 164.769 614.045C161.465 653.75 132.029 668.026 109.551 686.561C49.9398 735.739 27.0719 844.421 24.785 952.37C22.4981 1060.32 37.1045 1172.83 36.0931 1281.2C35.4203 1353.49 18.0946 1436.69 -31.3018 1437.04C-69.1373 1437.31 -104.554 1387.7 -133.72 1342.5C-175.285 1278.06 -219.987 1203.98 -223.293 1123.97C-226.141 1054.91 -196.774 1001.75 -165.452 959.639C-134.14 917.523 -98.4542 878.391 -83.9177 817.655C-60.3321 719.097 -98.725 595.729 -138.677 488.875C-178.619 382.022 -223.131 265.304 -212.172 158.805C-200.319 43.8135 -114.404 -22.8878 -31.8549 18.8405" fill="#582B7D"/>
<path d="M-74.7521 63.321C-32.0878 76.7512 12.822 91.7053 49.5553 133.837C86.2991 175.958 110.054 254.727 88.5197 301.165C72.9529 334.735 37.3129 346.84 34.8334 390.228C30.4019 467.578 132.923 523.191 126.562 599.688C123.53 636.062 96.5606 649.137 75.9708 666.13C21.3548 711.18 0.403142 810.766 -1.6904 909.666C-3.78395 1008.57 9.59859 1111.66 8.67172 1210.94C8.05184 1277.18 -7.81573 1353.4 -53.0783 1353.72C-87.7408 1353.97 -120.189 1308.51 -146.912 1267.1C-184.994 1208.07 -225.952 1140.18 -228.974 1066.88C-231.586 1003.6 -204.674 954.911 -175.984 916.322C-147.294 877.742 -114.601 841.882 -101.282 786.234C-79.6725 695.939 -114.854 582.907 -151.453 485.002C-188.053 387.108 -228.822 280.164 -218.782 182.588C-207.945 77.2354 -129.221 16.1331 -53.5979 54.3639" fill="#712A7E"/>
<path d="M-94.5636 98.0249C-55.7968 110.231 -14.9993 123.812 18.3739 162.087C51.757 200.363 73.3465 271.916 53.7693 314.114C39.6265 344.614 7.2496 355.609 4.98625 395.032C0.955748 465.302 94.1079 515.836 88.3248 585.331C85.5758 618.382 61.0718 630.257 42.3608 645.689C-7.26015 686.619 -26.2948 777.09 -28.1949 866.941C-30.1051 956.791 -17.9461 1050.45 -18.7784 1140.65C-19.335 1200.83 -33.7652 1270.09 -74.8836 1270.37C-106.383 1270.6 -135.862 1229.3 -160.133 1191.67C-194.732 1138.04 -231.936 1076.37 -234.685 1009.77C-237.06 952.287 -212.603 908.037 -186.545 872.983C-160.476 837.929 -130.776 805.351 -118.677 754.802C-99.042 672.76 -131.002 570.073 -164.249 481.128C-197.496 392.184 -234.544 295.034 -225.423 206.379C-215.571 110.667 -144.058 55.1531 -75.3508 89.8869" fill="#88297F"/>
<path d="M-114.365 132.739C-79.5061 143.72 -42.8109 155.93 -12.7984 190.358C17.2244 224.777 36.6375 289.136 19.0381 327.084C6.31929 354.514 -22.7945 364.398 -24.8317 399.857C-28.4516 463.057 55.3121 508.493 50.1168 570.994C47.6407 600.713 25.6022 611.398 8.77969 625.278C-35.8462 662.09 -52.9642 743.455 -54.671 824.256C-56.3878 905.058 -45.4526 989.298 -46.2004 1070.42C-46.7037 1124.53 -59.6762 1186.82 -96.6508 1187.08C-124.977 1187.27 -151.488 1150.14 -173.316 1116.3C-204.431 1068.07 -237.891 1012.6 -240.367 952.705C-242.505 901.001 -220.515 861.214 -197.068 829.686C-173.631 798.158 -146.914 768.862 -136.032 723.402C-118.373 649.622 -147.122 557.271 -177.016 477.276C-206.921 397.29 -240.235 309.914 -232.034 230.182C-223.178 144.11 -158.866 94.1841 -97.0638 125.411" fill="#9F287F"/>
<path d="M-134.177 167.443C-103.215 177.19 -70.6322 188.037 -43.9799 218.61C-17.3174 249.172 -0.0804227 306.326 -15.712 340.023C-27.0067 364.384 -52.8678 373.167 -54.6685 404.652C-57.8873 460.772 16.5069 501.129 11.8897 556.636C9.69606 583.034 -9.87653 592.519 -24.8207 604.847C-64.4515 637.54 -79.6525 709.789 -81.1663 781.552C-82.6901 853.315 -72.978 928.113 -73.6516 1000.16C-74.102 1048.22 -85.6165 1103.53 -118.457 1103.76C-143.611 1103.93 -167.152 1070.95 -186.539 1040.91C-214.17 998.071 -243.887 948.823 -246.079 895.636C-247.98 849.725 -228.446 814.391 -207.63 786.388C-186.815 758.396 -163.091 732.372 -153.427 692C-137.744 626.483 -163.271 544.468 -189.823 473.432C-216.375 402.396 -245.968 324.803 -238.675 254.004C-230.815 177.561 -173.694 133.225 -118.818 160.965" fill="#B72680"/>
</svg>
