<svg width="230" height="223" viewBox="0 0 230 223" fill="none" xmlns="http://www.w3.org/2000/svg">
<g clip-path="url(#clip0_596_474)">
<path fill-rule="evenodd" clip-rule="evenodd" d="M104.769 61.5163C95.5204 55.1761 84.6808 50.877 74.5142 50.1377C64.3476 49.3984 56.7975 52.3776 52.8445 57.7546L39.728 75.0124L43.6721 75.2928C43.6721 75.2928 49.7361 68.1183 49.7459 68.5356C53.0555 67.5983 56.9263 67.228 61.2747 67.5422C65.9188 67.8824 70.7052 68.9562 75.4173 70.6334C73.2711 72.4696 71.2972 74.5472 69.5389 76.8692C61.6531 87.2493 51.231 100.975 41.4112 113.894C35.8068 121.271 34.8261 131.619 38.8854 140.624C42.9535 149.625 51.3468 155.747 60.5871 156.438C83.6682 158.156 106.271 159.84 106.271 159.84L108.627 156.747C108.627 156.747 84.0149 154.968 60.4028 153.262C52.3017 152.671 44.9335 147.328 41.3615 139.448C37.7982 131.564 38.634 122.501 43.531 116.025C53.215 103.225 63.7606 89.283 71.5984 78.9132C73.6381 76.2133 75.9927 73.8611 78.5751 71.8733C90.4149 76.8032 101.469 85.3705 108.181 95.1941C91.2244 116.148 74.5156 120.827 70.2739 126.403C67.6892 129.805 67.0607 133.999 67.2231 137.755L90.5429 140.118L101.576 125.603L116.121 126.654L169.084 56.9768L139.984 54.8783C139.264 55.8196 138.738 56.775 138.295 57.8188L123.237 56.7259C122.81 57.2948 122.47 57.9157 122.239 58.6131C121.837 59.8658 121.809 61.2234 121.825 62.5612C121.834 63.6285 121.865 64.6974 121.84 65.7576L121.839 65.8033L121.824 62.7443L104.778 61.5124L104.769 61.5163ZM109.329 64.9038L121.831 65.8073C121.775 68.4309 121.45 71.6439 119.97 75.7667C117.015 71.8589 113.389 68.1864 109.32 64.9077L109.329 64.9038Z" fill="#3ABEB9"/>
<path fill-rule="evenodd" clip-rule="evenodd" d="M116.134 126.659L169.084 56.9767L183.63 58.0279L200.805 96.0284L197.706 120.305L144.752 190.001L130.206 188.95L113.032 150.949L114.384 140.353L113.032 150.949L83.9317 148.851L87.0302 124.574L116.13 126.673L116.134 126.659ZM125.129 84.2742C121.163 75.592 113.543 67.433 104.423 61.2624L91.1922 78.6858C100.173 84.7595 107.691 92.7599 111.714 101.291C114.536 98.1345 117.567 94.4853 120.798 90.2326C122.415 88.111 123.853 86.1275 125.142 84.2797L125.129 84.2742ZM52.4525 79.1775C50.7415 75.3917 49.8598 71.8123 49.7415 68.5489C37.7459 71.9531 33.0231 82.9096 39.2086 96.5955L44.9321 109.259L58.163 91.8357L52.4395 79.172L52.4525 79.1775Z" fill="#3ABEB9"/>
<path fill-rule="evenodd" clip-rule="evenodd" d="M104.967 60.6745C95.6402 54.3241 84.7354 50.0203 74.5165 49.2818C64.0368 48.5244 56.2723 51.6575 52.1961 57.2042L39.0443 74.5235L38.9125 74.697C35.0161 80.0598 34.4698 87.6926 38.2701 96.4269L43.9979 109.1L40.7671 113.353C35.2814 120.574 34.0817 130.553 37.5411 139.487C37.5491 139.575 47.2379 161.035 47.2379 161.035C47.302 161.177 47.4011 161.303 47.5266 161.395C51.9468 169.872 60.213 175.551 69.249 176.208L81.9683 177.127C84.5087 181.12 88.6784 183.737 93.192 184.068L99.1929 184.502L100.403 187.18C100.54 187.483 100.822 187.687 101.126 187.709L130.226 189.807L144.771 190.858C145.032 190.877 145.268 190.77 145.426 190.562L198.35 120.868C198.434 120.751 198.491 120.622 198.51 120.477L201.608 96.2009C201.627 96.0329 201.602 95.8617 201.534 95.7103L184.355 57.7003C184.218 57.3975 183.936 57.194 183.632 57.172L139.987 54.0224C139.726 54.0036 139.49 54.1101 139.332 54.3184C138.694 55.165 138.196 56.0171 137.767 56.9291L123.23 55.8739C122.969 55.8551 122.733 55.9617 122.575 56.1699C121.274 57.875 121.025 59.6515 120.995 61.842L104.963 60.688L104.967 60.6745ZM169.482 57.8569L116.91 127.05L113.872 150.854L130.717 188.126L144.354 189.121L196.93 119.914L199.969 96.1099L183.123 58.8382L169.482 57.8569ZM105.873 158.96L60.5937 155.592C51.6578 154.923 43.5369 149.008 39.6145 140.306C35.6921 131.604 36.6396 121.601 42.0594 114.467L70.1871 77.4425C71.198 76.1193 72.2737 74.8695 73.4183 73.7025C73.8349 73.8333 74.2559 73.9736 74.6811 74.1234C73.3571 75.4285 72.1105 76.8353 70.9588 78.3589C63.121 88.7287 52.5711 102.661 42.8914 115.47C37.8011 122.193 36.9321 131.602 40.641 139.785C44.3412 147.972 51.9993 153.515 60.4049 154.127L106.998 157.494L105.878 158.97L105.873 158.96ZM87.7499 125.469L84.8646 148.053L112.325 150.037L115.21 127.453L87.7499 125.469ZM93.1889 84.36C98.0278 88.2026 102.196 92.6787 105.183 97.4494C94.4189 109.837 83.9907 115.918 77.092 120.176C73.6077 122.332 71.0013 124.057 69.643 125.845C66.9792 129.351 66.2848 133.631 66.4201 137.514C66.6237 143.246 68.653 148.085 68.653 148.085L70.9458 153.158L60.4138 152.402C54.9261 152.01 49.7866 149.34 46.0294 145.146C46.5323 140.883 48.0952 136.826 50.6843 133.41C60.8646 120.01 71.6954 105.746 79.6691 95.2576C83.3087 90.4668 87.9536 86.7604 93.1846 84.3506L93.1889 84.36ZM167.451 57.7148L140.395 55.764C139.287 57.3365 138.682 58.9774 137.996 61.0199C136.202 66.3789 133.886 74.424 121.437 90.8099C105.099 112.316 93.8694 118.44 88.7893 123.836L115.741 125.789L167.451 57.7148ZM106.106 99.0039C106.656 99.9638 107.149 100.938 107.594 101.922L108.381 103.664C97.2598 115.494 89.7402 119.588 86.3995 123.993C86.3204 124.097 86.2673 124.213 86.2357 124.352L86.2266 124.402L84.6613 136.644L68.0503 135.444C68.2164 132.531 68.9836 129.528 70.9221 126.976C72.21 125.289 74.6805 123.705 77.9593 121.676C84.8799 117.397 95.3081 111.316 106.093 98.9984L106.106 99.0039ZM61.2856 66.7052C56.5893 66.3658 50.3259 66.6777 44.9829 69.5143C44.9829 69.5143 53.484 58.3318 53.4972 58.3144C57.3228 53.0976 64.6627 50.2817 74.5032 50.9975C94.0495 52.4101 116.146 67.1909 124.182 84.1553C122.972 85.8761 121.626 87.7153 120.145 89.6728L120.127 89.7035C117.213 93.5396 114.459 96.8929 111.874 99.8281L110.87 97.9794C106.341 90.0759 98.9574 82.7673 90.3727 77.1983L89.6194 76.7182C85.2334 73.9475 80.548 71.6313 75.797 69.9147L75.5714 69.8343C70.8116 68.1444 65.9732 67.0486 61.2856 66.7052ZM137.08 58.5732C136.871 59.1349 136.662 59.7195 136.461 60.3459C134.969 64.7929 133.111 71.104 125.229 82.6334C124.038 80.2539 122.585 77.9241 120.906 75.6741C122.922 69.8047 122.666 65.7944 122.634 62.6746C122.61 60.6907 122.67 59.102 123.647 57.6116L137.084 58.5827L137.08 58.5732ZM49.6422 73.5178C50.1015 75.4416 50.7952 77.4418 51.7235 79.4957L57.2288 91.6766L47.2991 104.747L43.5861 96.5319L43.5647 96.4846C40.1898 88.9941 40.5667 82.4523 43.9996 77.9487C45.4062 76.1048 47.306 74.6078 49.6464 73.5272L49.6422 73.5178ZM107.641 62.5661L121.013 63.5325L121.024 64.8837L109.575 64.0517C108.943 63.5392 108.299 63.044 107.65 62.5622L107.641 62.5661ZM43.2121 97.6356L43.2344 97.5685L43.2121 97.6356ZM51.148 72.8942C54.3462 71.7337 58.2396 71.2505 62.7055 71.5687C65.619 71.7793 68.5952 72.3148 71.5691 73.1477C71.0733 73.6795 65.7872 80.4113 65.7872 80.4113L58.3365 90.2186L53.1905 78.8326C52.2665 76.7883 51.5901 74.803 51.148 72.8942Z" fill="#3ABEB9"/>
<path fill-rule="evenodd" clip-rule="evenodd" d="M106.201 55.8469C96.9522 49.5067 86.1127 45.2076 75.946 44.4683C65.7837 43.7384 58.2293 46.7082 54.2806 52.0946L41.1641 69.3524L45.1081 69.6329C45.1081 69.6329 51.1722 62.4583 51.182 62.8756C54.4916 61.9383 58.3624 61.568 62.7108 61.8823C67.3549 62.2225 72.1413 63.2962 76.8534 64.9735C74.7072 66.8097 72.7333 68.8872 70.975 71.2093C63.0892 81.5893 52.6671 95.3155 42.8473 108.234C37.2429 115.611 36.2622 125.959 40.3215 134.964C44.3896 143.965 52.7829 150.087 62.0232 150.778C85.1043 152.497 107.707 154.18 107.707 154.18L110.063 151.087C110.063 151.087 85.451 149.308 61.8389 147.602C53.7378 147.012 46.3696 141.668 42.7976 133.788C39.2343 125.904 40.0701 116.841 44.9671 110.365C54.6511 97.5647 65.1967 83.6231 73.0345 73.2533C75.0742 70.5533 77.4288 68.2012 80.0112 66.2134C91.851 71.1432 102.906 79.7105 109.617 89.5342C92.6604 110.488 75.9517 115.167 71.71 120.743C69.1253 124.145 68.4968 128.339 68.6592 132.095L91.979 134.458L103.012 119.943L117.558 120.994L170.516 51.3073L141.416 49.2089C140.695 50.1502 140.17 51.1056 139.727 52.1493L124.668 51.0565C124.242 51.6254 123.902 52.2463 123.67 52.9436C123.269 54.1964 123.241 55.554 123.257 56.8918C123.266 57.9591 123.297 59.0279 123.272 60.0881L123.271 60.1339L123.256 57.0748L106.21 55.8429L106.201 55.8469ZM110.761 59.2343L123.262 60.1378C123.207 62.7615 122.882 65.9744 121.402 70.0973C118.447 66.1895 114.821 62.517 110.752 59.2383L110.761 59.2343Z" fill="white"/>
<path fill-rule="evenodd" clip-rule="evenodd" d="M117.571 121L170.516 51.3074L185.061 52.3586L202.236 90.3591L199.138 114.635L146.184 184.331L131.638 183.28L114.463 145.28L115.816 134.684L114.463 145.28L85.3634 143.181L88.462 118.905L117.562 121.004L117.571 121ZM126.565 78.6143C122.599 69.9321 114.979 61.7732 105.859 55.6025L92.6282 73.026C101.609 79.0997 109.127 87.1001 113.15 95.6308C115.973 92.4747 119.003 88.8255 122.234 84.5728C123.851 82.4512 125.289 80.4677 126.578 78.6198L126.565 78.6143ZM53.8843 73.5082C52.1732 69.7224 51.2916 66.1429 51.1733 62.8796C39.1777 66.2837 34.4549 77.2403 40.6404 90.9262L46.3639 103.59L59.5948 86.1664L53.8713 73.5027L53.8843 73.5082Z" fill="white"/>
<path fill-rule="evenodd" clip-rule="evenodd" d="M106.399 55.0053C97.072 48.6548 86.1672 44.351 75.9483 43.6125C65.4686 42.8552 57.7041 45.9883 53.628 51.5349L40.4762 68.8542L40.3443 69.0278C36.448 74.3905 35.9016 82.0234 39.702 90.7577L45.4297 103.431L42.199 107.684C36.7132 114.904 35.5135 124.884 38.9729 133.818C38.981 133.906 48.6697 155.366 48.6697 155.366C48.7339 155.508 48.833 155.634 48.9584 155.726C53.3786 164.203 61.6449 169.881 70.6809 170.539L83.4001 171.458C85.9406 175.45 90.1102 178.068 94.6239 178.399L100.625 178.832L101.835 181.511C101.972 181.814 102.253 182.017 102.558 182.039L131.658 184.138L146.203 185.189C146.464 185.208 146.7 185.101 146.858 184.893L199.782 115.199C199.865 115.082 199.923 114.953 199.941 114.808L203.049 90.5277C203.067 90.3597 203.043 90.1885 202.974 90.0371L185.795 52.0271C185.658 51.7243 185.377 51.5208 185.073 51.4988L141.427 48.3492C141.166 48.3303 140.931 48.4369 140.772 48.6452C140.135 49.4918 139.637 50.3439 139.208 51.2559L124.671 50.2007C124.41 50.1819 124.174 50.2884 124.016 50.4967C122.715 52.2018 122.466 53.9783 122.436 56.1688L106.403 55.0147L106.399 55.0053ZM170.918 52.1971L118.346 121.39L115.308 145.194L132.154 182.466L145.79 183.461L198.366 114.255L201.405 90.4501L184.559 53.1784L170.918 52.1971ZM107.309 153.3L62.0298 149.932C53.0939 149.263 44.973 143.348 41.0506 134.646C37.1282 125.944 38.0757 115.941 43.4955 108.807L71.6232 71.7827C72.6341 70.4595 73.7098 69.2097 74.8544 68.0427C75.2711 68.1735 75.692 68.3138 76.1172 68.4636C74.7932 69.7687 73.5466 71.1755 72.3949 72.699C64.5571 83.0688 54.0072 97.001 44.3275 109.81C39.2372 116.533 38.3682 125.942 42.0771 134.125C45.7773 142.312 53.4354 147.855 61.8409 148.467L108.435 151.834L107.314 153.31L107.309 153.3ZM89.186 119.809L86.3007 142.393L113.761 144.378L116.646 121.794L89.186 119.809ZM94.625 78.7002C99.4639 82.5428 103.632 87.0189 106.619 91.7896C95.855 104.177 85.4268 110.258 78.5281 114.516C75.0438 116.672 72.4373 118.397 71.0791 120.185C68.4153 123.691 67.7209 127.972 67.8562 131.854C68.0598 137.587 70.0891 142.425 70.0891 142.425L72.3819 147.498L61.8499 146.742C56.3622 146.35 51.2227 143.68 47.4655 139.486C47.9684 135.224 49.5313 131.166 52.1204 127.751C62.3007 114.35 73.1316 100.086 81.1052 89.5978C84.7448 84.807 89.3897 81.1006 94.6207 78.6908L94.625 78.7002ZM168.887 52.0549L141.831 50.1042C140.723 51.6767 140.118 53.3176 139.432 55.36C137.638 60.7191 135.322 68.7642 122.873 85.1501C106.535 106.657 95.3055 112.78 90.2254 118.177L117.177 120.129L168.883 52.0455L168.887 52.0549ZM107.543 93.3441C108.092 94.3039 108.585 95.278 109.03 96.2623L109.817 98.0038C98.6959 109.835 91.1763 113.929 87.8356 118.333C87.7565 118.438 87.7034 118.553 87.6718 118.692L87.6627 118.742L86.0974 130.984L69.4864 129.784C69.6525 126.871 70.4197 123.868 72.3582 121.317C73.6461 119.629 76.1166 118.045 79.3954 116.016C86.316 111.737 96.7442 105.656 107.53 93.3386L107.543 93.3441ZM62.7174 61.036C58.0211 60.6966 51.7578 61.0084 46.4147 63.845C46.4147 63.845 54.9158 52.6625 54.929 52.6452C58.7546 47.4283 66.0946 44.6125 75.9351 45.3282C95.4813 46.7408 117.578 61.5216 125.614 78.4861C124.404 80.2069 123.058 82.046 121.577 84.0035L121.559 84.0343C118.645 87.8704 115.891 91.2237 113.306 94.1589L112.302 92.3101C107.773 84.4067 100.389 77.098 91.8045 71.5291L91.0512 71.0489C86.6652 68.2783 81.9798 65.9621 77.2289 64.2454L77.0033 64.165C72.2434 62.4752 67.405 61.3793 62.7174 61.036ZM138.516 52.9134C138.307 53.4751 138.098 54.0597 137.897 54.6861C136.406 59.1331 134.547 65.4442 126.665 76.9736C125.474 74.5941 124.021 72.2643 122.342 70.0143C124.358 64.1448 124.102 60.1345 124.07 57.0148C124.046 55.0309 124.106 53.4422 125.084 51.9518L138.52 52.9229L138.516 52.9134ZM51.0695 67.8619C51.5289 69.7857 52.2226 71.786 53.1509 73.8398L58.6562 86.0208L48.7265 99.0913L45.0135 90.876L44.9921 90.8287C41.6172 83.3382 41.9941 76.7964 45.427 72.2928C46.8335 70.4489 48.7334 68.952 51.0738 67.8714L51.0695 67.8619ZM109.069 56.9103L122.44 57.8766L122.452 59.2279L111.002 58.3959C110.371 57.8833 109.726 57.3881 109.077 56.9063L109.069 56.9103ZM44.6395 91.9797L44.6617 91.9126L44.6395 91.9797ZM52.5754 67.2383C55.7736 66.0778 59.667 65.5947 64.1329 65.9129C67.0463 66.1234 70.0225 66.6589 72.9965 67.4918C72.5007 68.0237 67.2145 74.7554 67.2145 74.7554L59.7639 84.5627L54.6179 73.1768C53.6939 71.1324 53.0175 69.1471 52.5754 67.2383Z" fill="#231F20"/>
</g>
<defs>
<clipPath id="clip0_596_474">
<rect width="178.086" height="163.856" fill="white" transform="matrix(-0.911251 0.411852 0.411852 0.911251 162.281 0)"/>
</clipPath>
</defs>
</svg>
