<svg width="490" height="411" viewBox="0 0 490 411" fill="none" xmlns="http://www.w3.org/2000/svg">
<path fill-rule="evenodd" clip-rule="evenodd" d="M0 -17H490V411H0V-17ZM0.765625 -16.2357H60.4844V43.3786H0.765625V-16.2357ZM62.0156 -16.2357H121.734V43.3786H62.0156V-16.2357ZM182.984 -16.2357H123.266V43.3786H182.984V-16.2357ZM184.516 -16.2357H244.234V43.3786H184.516V-16.2357ZM305.484 -16.2357H245.766V43.3786H305.484V-16.2357ZM307.016 -16.2357H366.734V43.3786H307.016V-16.2357ZM427.984 -16.2357H368.266V43.3786H427.984V-16.2357ZM429.516 -16.2357H489.234V43.3786H429.516V-16.2357ZM60.4844 44.9071H0.765625V104.521H60.4844V44.9071ZM62.0156 44.9071H121.734V104.521H62.0156V44.9071ZM182.984 44.9071H123.266V104.521H182.984V44.9071ZM184.516 44.9071H244.234V104.521H184.516V44.9071ZM305.484 44.9071H245.766V104.521H305.484V44.9071ZM307.016 44.9071H366.734V104.521H307.016V44.9071ZM427.984 44.9071H368.266V104.521H427.984V44.9071ZM429.516 44.9071H489.234V104.521H429.516V44.9071ZM60.4844 106.05H0.765625V165.664H60.4844V106.05ZM62.0156 106.05H121.734V165.664H62.0156V106.05ZM182.984 106.05H123.266V165.664H182.984V106.05ZM184.516 106.05H244.234V165.664H184.516V106.05ZM305.484 106.05H245.766V165.664H305.484V106.05ZM307.016 106.05H366.734V165.664H307.016V106.05ZM427.984 106.05H368.266V165.664H427.984V106.05ZM429.516 106.05H489.234V165.664H429.516V106.05ZM60.4844 167.193H0.765625V226.807H60.4844V167.193ZM62.0156 167.193H121.734V226.807H62.0156V167.193ZM182.984 167.193H123.266V226.807H182.984V167.193ZM184.516 167.193H244.234V226.807H184.516V167.193ZM305.484 167.193H245.766V226.807H305.484V167.193ZM307.016 167.193H366.734V226.807H307.016V167.193ZM427.984 167.193H368.266V226.807H427.984V167.193ZM429.516 167.193H489.234V226.807H429.516V167.193ZM60.4844 228.336H0.765625V287.95H60.4844V228.336ZM62.0156 228.336H121.734V287.95H62.0156V228.336ZM182.984 228.336H123.266V287.95H182.984V228.336ZM184.516 228.336H244.234V287.95H184.516V228.336ZM305.484 228.336H245.766V287.95H305.484V228.336ZM307.016 228.336H366.734V287.95H307.016V228.336ZM427.984 228.336H368.266V287.95H427.984V228.336ZM429.516 228.336H489.234V287.95H429.516V228.336ZM60.4844 289.479H0.765625V349.093H60.4844V289.479ZM62.0156 289.479H121.734V349.093H62.0156V289.479ZM182.984 289.479H123.266V349.093H182.984V289.479ZM184.516 289.479H244.234V349.093H184.516V289.479ZM305.484 289.479H245.766V349.093H305.484V289.479ZM307.016 289.479H366.734V349.093H307.016V289.479ZM427.984 289.479H368.266V349.093H427.984V289.479ZM429.516 289.479H489.234V349.093H429.516V289.479ZM60.4844 350.621H0.765625V410.236H60.4844V350.621ZM62.0156 350.621H121.734V410.236H62.0156V350.621ZM182.984 350.621H123.266V410.236H182.984V350.621ZM184.516 350.621H244.234V410.236H184.516V350.621ZM305.484 350.621H245.766V410.236H305.484V350.621ZM307.016 350.621H366.734V410.236H307.016V350.621ZM427.984 350.621H368.266V410.236H427.984V350.621ZM429.516 350.621H489.234V410.236H429.516V350.621Z" fill="url(#paint0_linear_596_516)"/>
<defs>
<linearGradient id="paint0_linear_596_516" x1="-68" y1="-52.5" x2="245" y2="411" gradientUnits="userSpaceOnUse">
<stop stop-color="#8124DD"/>
<stop offset="0.657437" stop-color="#3C2256" stop-opacity="0"/>
</linearGradient>
</defs>
</svg>
