<svg width="191" height="230" viewBox="0 0 191 230" fill="none" xmlns="http://www.w3.org/2000/svg">
<g clip-path="url(#clip0_427_549)">
<path d="M163.188 125.771C152.063 109.883 140.296 94.4217 128.54 79.0001C121.645 69.9507 115.09 59.9262 107.199 51.6892C107.052 51.5352 106.889 51.462 106.735 51.3684C100.121 41.3864 85.046 45.1605 75.3861 51.1C68.7919 41.8178 61.709 32.8163 54.7389 23.8801C54.0835 23.0468 53.5538 22.3484 52.7607 22.0513C52.5042 21.9019 52.1994 21.7946 51.8476 21.7593C44.7187 20.9769 38.1372 20.3618 31.5248 23.3111C22.6429 27.2762 14.2079 35.6966 6.31974 41.4017C4.32803 42.8363 2.50162 44.3941 1.86437 46.8629C1.21007 49.4025 2.47702 51.9317 3.90247 53.9438C10.7811 63.8046 17.5882 73.6284 25.0109 83.096C26.2589 84.6952 27.4686 86.336 28.6967 87.936C20.4763 95.5067 9.2509 110.429 18.8211 118.836C40.0494 146.312 59.7207 175.084 82.3734 201.439C91.0639 211.544 101.212 223.941 115.616 224.949C134.879 226.294 154.105 213.118 167.133 200.141C190.346 177.01 179.401 148.933 163.178 125.772L163.188 125.771Z" fill="#582B7D"/>
<path d="M147.571 199.169C136.678 205.78 126.275 208.788 116.639 208.121C103.368 207.196 93.793 196.037 85.354 186.201L84.4492 185.148C69.6458 167.932 55.8866 149.362 42.573 131.393C35.55 121.909 28.2833 112.104 20.9497 102.613C20.8864 102.536 20.8235 102.468 20.7507 102.401C18.6621 100.567 17.6383 98.3478 17.6044 95.6268C17.5238 88.4439 24.5803 79.3707 30.6613 73.7713C31.2494 73.2362 31.3221 72.3424 30.8353 71.7122C30.306 71.0237 29.7759 70.3153 29.2462 69.6169C28.547 68.6953 27.8574 67.7634 27.1391 66.8626C20.182 57.996 13.6439 48.6214 7.30871 39.5485L6.07398 37.7887C4.43574 35.4752 3.84542 33.5682 4.26887 31.9691C4.75138 30.1073 6.10909 28.8293 8.13951 27.3631C10.714 25.5037 13.2692 23.425 15.9689 21.2101C20.0921 17.8546 24.3501 14.3734 28.6742 11.7501C30.2164 10.8148 31.6558 10.0539 33.0702 9.4141C39.5157 6.54186 46.1722 7.27395 52.5976 7.98569C52.7183 8.00065 52.8195 8.02644 52.9119 8.08262C52.9839 8.12965 53.0651 8.15628 53.1367 8.19331C53.5027 8.32812 53.9154 8.86131 54.3913 9.47193L55.9883 11.5169C62.3554 19.6776 68.9444 28.1193 75.0385 36.6918C75.5061 37.3428 76.3946 37.5257 77.0781 37.1168L77.3124 36.9769C84.4865 32.6228 99.7949 27.0073 106.366 36.921C106.493 37.1058 106.65 37.2594 106.845 37.3814L107.071 37.512C112.577 43.2767 117.547 50.0947 122.357 56.6991C124.311 59.3797 126.255 62.0507 128.235 64.6402C139.132 78.9366 151.482 95.1441 162.84 111.363C184.078 141.691 185.43 165.375 166.974 183.773C160.854 189.875 154.151 195.2 147.572 199.189L147.571 199.169Z" fill="white"/>
<path d="M58.2647 54.1591C58.9199 53.5512 59.077 52.2835 58.536 51.5555C54.7261 46.3804 51.0898 41.0479 46.9311 36.1476C43.467 32.059 39.3949 37.1139 36.6017 39.723C36.5247 39.7963 36.4985 39.8875 36.4314 39.9604C36.3453 40.054 36.2895 40.1565 36.2238 40.2593C36.168 40.3617 36.0923 40.465 36.0565 40.5666C35.9749 40.7702 35.9537 40.9812 35.9534 41.2115C35.9542 41.2314 35.955 41.2514 35.9559 41.2714C35.9651 41.4912 36.0447 41.7181 36.1546 41.9537C36.1654 41.9733 36.1767 42.0028 36.1879 42.0324C36.2421 42.1302 36.2563 42.2297 36.3308 42.3367C40.1407 47.5118 43.777 52.8443 47.9357 57.7445C51.3999 61.8331 55.4719 56.7783 58.2652 54.1691L58.2647 54.1591ZM43.5526 39.3618C43.6496 39.2877 43.7474 39.2336 43.8444 39.1595C44.4007 39.7767 44.9188 40.4356 45.4264 41.0849C48.333 44.7665 51.0556 48.596 53.8165 52.3837C52.9966 53.1187 52.1662 53.8441 51.3038 54.5208C51.2068 54.5949 51.1094 54.659 51.012 54.7231C50.4557 54.1059 49.9376 53.447 49.43 52.7977C46.523 49.1061 43.8108 45.2862 41.0399 41.4989C41.8598 40.7639 42.6802 40.0389 43.5426 39.3623L43.5526 39.3618Z" fill="#2D2E2D"/>
<path d="M69.1669 46.0957C69.822 45.4877 69.9791 44.22 69.4382 43.492C65.6283 38.3169 61.9919 32.9844 57.8332 28.0842C54.3691 23.9955 50.2971 29.0504 47.5038 31.6596C47.4268 31.7328 47.4006 31.824 47.3336 31.8969C47.2474 31.9906 47.1912 32.083 47.1259 32.1958C47.0701 32.2983 46.9944 32.4015 46.9586 32.5031C46.8771 32.7067 46.8559 32.9178 46.8555 33.148C46.8563 33.168 46.8572 33.188 46.858 33.2079C46.8672 33.4277 46.9468 33.6546 47.0567 33.8902C47.068 33.9198 47.0788 33.9393 47.0901 33.9689C47.1442 34.0667 47.1584 34.1662 47.2329 34.2732C51.0428 39.4483 54.6792 44.7808 58.8379 49.681C62.3016 53.7597 66.374 48.7148 69.1673 46.1057L69.1669 46.0957ZM54.4548 31.2984C54.5517 31.2242 54.6491 31.1601 54.7465 31.096C55.3029 31.7132 55.8209 32.3721 56.3285 33.0215C59.2351 36.7031 61.9578 40.5325 64.7187 44.3203C63.9087 45.0548 63.0783 45.7802 62.2159 46.4569C62.1189 46.531 62.0215 46.5951 61.9241 46.6592C61.3678 46.042 60.8498 45.3831 60.3426 44.7438C57.4355 41.0522 54.7133 37.2327 51.9524 33.445C52.7724 32.71 53.5927 31.985 54.4552 31.3084L54.4548 31.2984Z" fill="#2D2E2D"/>
<path d="M108.508 83.5322C103.247 77.4169 92.5549 86.6625 88.6686 89.938C87.2089 91.1701 86.0372 92.3502 85.055 93.5123C84.8523 93.691 84.6808 93.8983 84.5406 94.1344C79.7461 100.34 81.602 105.938 87.6954 113.78C102.961 133.438 116.329 156.028 134.666 173.036C149.953 187.209 168.622 164.347 158.7 148.969C151.593 137.957 142.768 127.737 134.835 117.32C126.213 105.991 117.798 94.3329 108.508 83.5322ZM117.778 147.38C111.063 139.985 104.926 132.305 99.3051 124.043C95.1137 117.883 88.013 109.412 87.8156 101.594C87.8039 101.314 88.2123 101.267 88.2931 101.524C89.6516 105.761 94.0005 110.423 96.47 114.183C98.9179 117.904 101.385 121.614 103.94 125.26C108.933 132.387 113.65 139.626 118.145 147.075C118.285 147.309 117.957 147.583 117.768 147.381L117.778 147.38ZM151.572 170.656C153.417 166.926 153.547 162.867 151.436 158.581C146.906 149.353 140.151 140.768 134.138 132.472C130.144 126.955 126.121 121.478 122.137 115.96C119.024 111.186 115.755 106.479 112.256 102.052C108.522 96.7832 104.417 91.4703 99.2514 87.6331C107.8 83.1214 115.932 99.7157 120.568 105.747C131.851 120.398 143.047 135.132 154.088 149.973C159.338 157.029 158.354 166.519 151.562 170.657L151.572 170.656Z" fill="#2D2E2D"/>
<path d="M164.094 110.47C152.969 94.5814 141.202 79.1202 129.446 63.6987C122.552 54.6493 115.996 44.6248 108.105 36.3878C107.958 36.2338 107.795 36.1606 107.641 36.0669C101.027 26.085 85.9521 29.8591 76.2922 35.7986C69.698 26.5164 62.6151 17.5149 55.6551 8.57831C54.9996 7.74501 54.4699 7.04656 53.6768 6.74949C53.4203 6.60009 53.1156 6.49275 52.7638 6.45744C45.6444 5.66467 39.0633 5.05954 32.4509 8.00883C23.5691 11.974 15.134 20.3943 7.24586 26.0994C5.25415 27.534 3.42773 29.0918 2.79049 31.5607C2.13619 34.1003 3.40314 36.6295 4.82859 38.6416C11.7073 48.5024 18.5143 58.3261 25.937 67.7938C27.185 69.393 28.3947 71.0338 29.6228 72.6338C21.4024 80.2044 10.177 95.1272 19.7472 103.534C40.9756 131.01 60.6468 159.782 83.2995 186.137C91.99 196.242 102.138 208.638 116.542 209.647C135.806 210.992 155.031 197.816 168.059 184.839C191.272 161.707 180.328 133.641 164.104 110.469L164.094 110.47ZM52.3993 11.377C58.9051 19.7421 65.246 28.2342 71.4895 36.7904C78.8062 46.833 87.5475 55.0444 75.9781 65.5778C71.9503 69.0594 65.879 73.4573 59.3694 76.2321C57.8407 76.2962 56.3545 75.938 55.0013 74.9338C50.8384 71.8453 47.4544 67.0427 44.2451 63.0635C36.7063 53.6908 29.7385 43.8537 22.7433 34.0779C22.7433 34.0779 22.7221 34.0488 22.7112 34.0292C22.894 33.8514 23.0758 33.6536 23.259 33.4858C31.8964 25.5974 41.6135 18.3945 51.4045 11.9992C51.7358 11.7851 52.068 11.5911 52.3997 11.387L52.3993 11.377ZM9.48222 29.7891C16.0784 25.0189 22.6754 20.2686 29.2499 15.4593C34.9311 11.3079 40.1385 10.179 46.2182 10.2847C37.1162 16.401 28.1808 23.1508 20.1215 30.5045C20.0253 30.5986 19.9392 30.6923 19.843 30.7864C16.271 30.3355 12.6221 30.198 9.00645 30.1393C9.1717 30.0223 9.33653 29.8953 9.50178 29.7782L9.48222 29.7891ZM7.28471 34.4351C10.8991 34.4639 14.5647 34.5205 18.1546 34.9207C18.3849 35.4014 18.7247 35.8676 19.0437 36.3147C28.0161 48.8502 36.9353 61.5481 47.1002 73.1629C49.1814 75.5379 51.2321 77.1835 53.2789 78.2588C47.7073 79.533 42.2041 79.0929 37.7338 75.3567C25.9511 65.5012 17.2288 48.9016 8.50824 36.4056C8.12512 35.8612 7.62541 35.1615 7.28513 34.4451L7.28471 34.4351ZM21.0978 98.263C21.0024 98.1369 20.8796 98.0719 20.7655 97.9766C16.3657 90.6644 27.4176 80.4429 32.3545 75.9624C35.283 79.2127 38.6557 81.8338 43.373 82.6271C50.3984 83.8042 57.2942 82.1241 63.6517 79.0654C67.1976 77.936 70.8614 75.5606 74.7715 72.3742C76.436 71.0134 78.0588 69.6142 79.5502 68.1806C79.6371 68.1069 79.7241 68.0332 79.8111 67.9595C79.8594 67.9174 79.8673 67.867 79.9156 67.825C85.7967 61.9938 89.2635 55.3929 83.898 47.0101C82.2385 44.4273 80.5203 41.8769 78.7725 39.3379C84.0959 35.9621 89.2866 33.0023 95.8769 33.8273C104.52 34.9065 107.608 43.1645 104.728 50.6316C99.554 64.0299 82.3937 76.8092 71.3522 85.1285C61.3875 92.6321 49.9543 99.4865 37.9209 103.003C32.9176 104.464 26.5451 103.82 22.6115 100.231C22.1039 99.582 21.6158 98.9219 21.1082 98.2726L21.0978 98.263ZM166.702 179.921C154.923 193.807 132.158 208.732 113.153 204.704C99.6812 201.845 89.7534 187.288 81.4613 177.376C62.7065 154.951 45.9554 130.901 28.2853 107.61C43.6664 110.9 62.5111 96.7586 73.5773 88.7886C83.5359 81.6156 92.4463 73.0752 100.497 63.8502C104.69 59.0406 110.193 52.5446 110.474 45.6468C114.761 50.9721 118.694 56.7025 122.77 62.0266C133.273 75.7291 143.65 89.5269 153.803 103.494C170.637 126.65 189.058 153.543 166.682 179.912L166.702 179.921Z" fill="#2D2E2D"/>
<path d="M113.218 196.714C107.539 195.181 102.495 192.319 97.6922 189.007C97.4657 188.857 97.2481 189.156 97.3568 189.362C100.417 195.038 106.357 198.493 112.287 200.517C116.896 202.085 125.889 204.101 129.055 199.164C129.177 198.978 129.038 198.764 128.845 198.702C123.95 196.995 118.35 198.091 113.218 196.704L113.218 196.714Z" fill="#2D2E2D"/>
<path d="M72.7271 94.0589C72.3862 94.2833 71.145 95.2361 71.678 95.7743C72.2214 96.322 73.2295 95.5391 73.6453 95.1914C74.2934 94.6538 73.4089 93.6099 72.7271 94.0589Z" fill="#2D2E2D"/>
<path d="M69.8212 97.3232C64.9006 99.8013 60.5363 103.137 55.7773 105.888C50.3048 109.05 44.4462 111.117 38.3189 112.505C38.1603 112.541 38.1895 112.76 38.331 112.794C43.8462 114.475 49.6236 112.382 54.6317 110.08C60.6609 107.305 67.1278 103.752 70.258 97.7152C70.4065 97.4388 70.0955 97.1816 69.8307 97.3128L69.8212 97.3232Z" fill="#2D2E2D"/>
</g>
<defs>
<clipPath id="clip0_427_549">
<rect width="181.77" height="222.24" fill="white" transform="translate(0 7.60645) rotate(-2.39834)"/>
</clipPath>
</defs>
</svg>
