<?xml version="1.0" encoding="UTF-8"?><svg id="Layer_2" xmlns="http://www.w3.org/2000/svg" viewBox="0 0 951.2 746.66"><defs><style>.cls-1{fill:#9d7cb8;}.cls-2{fill:#fff;}.cls-3{fill:none;}.cls-4{fill:#231f20;}</style></defs><path class="cls-1" d="M778.17,68.24s0-.04-.01-.06c-.1-.32-.25-.62-.41-.92-.4-.72-.98-1.36-1.66-1.84-.56-.4-1.18-.69-1.83-.85-.16-.04-.32-.07-.49-.1h-.06c-1.21-.18-2.42-.34-3.62-.49-.47-.06-.94-.11-1.4-.16-.76-.09-1.51-.18-2.27-.26-.55-.06-1.1-.11-1.65-.17-.67-.07-1.35-.14-2.02-.2-.59-.05-1.18-.1-1.77-.15-.63-.05-1.26-.11-1.89-.16-.64-.05-1.27-.09-1.91-.13-.58-.04-1.17-.08-1.75-.12-.68-.04-1.35-.07-2.03-.11-.54-.03-1.08-.06-1.62-.08-.71-.03-1.42-.05-2.14-.08-.5-.02-1.01-.04-1.51-.05-.74-.02-1.47-.03-2.21-.05-.48,0-.95-.02-1.43-.03-.76,0-1.52,0-2.28-.01-.45,0-.9,0-1.35,0-.79,0-1.57,.02-2.36,.03-.42,0-.84,0-1.26,.02-.81,.02-1.62,.04-2.43,.07-.4,.01-.79,.02-1.19,.04-.83,.03-1.66,.07-2.5,.11-.37,.02-.74,.03-1.11,.05-.85,.04-1.7,.1-2.55,.15-.35,.02-.7,.04-1.05,.07-.87,.06-1.75,.13-2.62,.2-.32,.03-.64,.05-.97,.08-.89,.08-1.79,.16-2.68,.25-.3,.03-.6,.06-.9,.09-.91,.09-1.83,.19-2.74,.3-.28,.03-.55,.06-.83,.09-.94,.11-1.87,.23-2.8,.35-.25,.03-.51,.06-.76,.1-.95,.13-1.91,.27-2.86,.41-.23,.03-.47,.07-.7,.1-.97,.15-1.94,.3-2.91,.46-.21,.03-.42,.07-.64,.1-.99,.17-1.98,.34-2.96,.52-.19,.03-.38,.07-.57,.1-1.01,.19-2.01,.38-3.02,.58-.17,.03-.34,.07-.51,.1-1.02,.21-2.04,.42-3.06,.64-.15,.03-.3,.06-.45,.1-1.04,.23-2.07,.46-3.11,.7-.13,.03-.26,.06-.39,.09-1.05,.25-2.1,.5-3.15,.77-.11,.03-.23,.06-.34,.09-1.07,.27-2.13,.55-3.2,.83-.09,.02-.19,.05-.28,.08-1.08,.29-2.16,.59-3.24,.9-.08,.02-.16,.05-.24,.07-1.09,.31-2.18,.64-3.27,.97l-.19,.06c-1.1,.34-2.2,.68-3.3,1.03-.05,.02-.1,.03-.15,.05-1.11,.36-2.23,.73-3.34,1.1-.04,.01-.07,.02-.11,.04-1.12,.38-2.25,.77-3.37,1.17l-.06,.02c-1.13,.41-2.26,.82-3.39,1.24h-.04c-1.14,.44-2.27,.88-3.41,1.33h0c-.27-.04-.55-.04-.83-.03-.03,0-.06,0-.09,0-.27,.02-.54,.06-.82,.12-.04,0-.08,.02-.12,.03-.27,.07-.54,.17-.82,.29-.03,.02-.07,.04-.1,.05-.28,.14-.56,.3-.84,.5h0c-8.8,6.27-17.61,12.54-26.41,18.8,1.48-2.29,2.9-4.63,4.23-7.01l.03-.05c.64-1.14,1.26-2.29,1.87-3.44,.03-.06,.07-.13,.1-.19,.61-1.17,1.2-2.35,1.77-3.54,.03-.07,.07-.15,.1-.22,.51-1.06,1-2.13,1.47-3.21,.09-.21,.18-.41,.27-.62,.5-1.15,.98-2.3,1.45-3.47,.04-.1,.07-.2,.11-.29,.41-1.04,.8-2.09,1.18-3.14,.11-.29,.21-.59,.31-.88,.4-1.15,.8-2.31,1.16-3.48,1.24-3.97-1.49-7.14-5.5-7.07-54.23,.99-94.01,40.12-135.39,71.21-34.03,25.56-67.95,51.27-101.81,77.05-.06,.05-.11,.1-.17,.14-41.02,2.48-85.56-17.88-118.81,15.71-1.85,1.87-3,5-.91,7.28,11.8,12.9,22.67,26.65,33.15,40.66-.91,.05-1.85,.36-2.77,1.02-12.19,8.85-23.8,18.38-34.87,28.6-.29,.27-.55,.57-.8,.9-.85-.11-1.79,.03-2.79,.54-2.5,1.27-5,2.54-7.5,3.82,2.98-17.27-4.36-34.68-20.96-42.93-17.34-8.62-37.34-2.88-48.72,11.75-5.38-13.51-21.16-20.24-35.09-13.01-17.61-38.92-65.91-52.64-101.48-24.81-.43,.34-.87,.68-1.3,1.03-3.41,2.79-1.79,7.31,1.19,8.84l-.33,30.01c-16.4,6.11-31.38,16.89-44.12,29.39-3-2.96-6.79-5.21-11.05-6.36-15.48-4.16-29.59,7.61-35.81,20.82-2.84,6.04,6.79,9.89,9.63,3.86,3.82-8.11,12.3-16.5,22.1-15,7.13,1.09,14.02,8.67,11.64,16.1-2.02,6.32,7.59,10.24,9.63,3.86,1.59-4.96,1.29-9.99-.4-14.5,10.98-11.21,23.91-21.16,38.26-27.14l-2.23,202.58c-2.98,1.36-5.91,2.96-8.78,4.83-1.11-5.79-4.14-11.19-9.02-14.9-9.52-7.24-23.17-6.13-32.04,1.49-5.05,4.33,1.29,12.55,6.37,8.19,11.62-9.98,26.93,.09,24.47,13.34-.27,.26-.55,.51-.82,.77-1.89,1.84-2.01,4.26-1.18,6.21,.34,4.43,7.69,6.46,10.15,1.35,.43-.88,.78-1.8,1.1-2.72,3.09-2.59,6.31-4.79,9.62-6.61l-2.52,229.63H228.56c-7.23,9.6-16.42,17.86-26.53,24.75-5.52,3.76,.87,11.94,6.37,8.19,3.1-2.11,6.13-4.37,9.06-6.76,8.92-.22,12.77,10.77,11.45,18.1-1.57,8.78-8.01,16.19-13.47,22.88-4.22,5.17,4.1,11.38,8.32,6.2,.51-.62,1.02-1.26,1.54-1.9,22.68,1.37,39.31,18.48,40.65,41.59,1.32,22.69-12.23,41.15-30.17,53.57-5.49,3.8,.89,11.98,6.37,8.19,22.98-15.9,38.78-41.7,33.32-70.39-4.26-22.4-21.33-39.05-43.08-42.62,5.04-7.85,8.58-16.59,6.79-26-1.49-7.82-6.17-14.4-12.75-17.68,5.57-5.52,10.58-11.59,14.79-18.12h78.29c1.08,.46,2.37,.55,3.77,.04,.04-.01,.08-.03,.11-.04h.01c1.35,8.55-3.74,16.3-13.68,17.84-5.86,.91-5.8,9.36,.04,10.29,6.23,.99,13.17,1.85,18.47,5.61,5.05,3.58,9.63,16.5-.02,16.49-6.6,0-7.96,10.28-1.29,10.29,11.32,.01,19.96-9.78,17.24-21.28-2.3-9.7-9.82-14.9-18.43-17.93,5.92-5.35,9.08-13.12,8.26-21.3-.14-1.44-.41-2.88-.81-4.33,54.25-28.55,45.24-108.42-12.69-125.18,25.17-20.25,25.65-57.56-2.35-77.91,19.18-19.81,38.35-39.62,57.53-59.42,.65-.68,1.04-1.38,1.22-2.08,1.82,1.3,4.39,1.34,6.23-.07,5.3-4.06,10.6-8.12,15.9-12.18,1.97-1.51,2.33-3.6,1.72-5.41,.19-.22,.37-.46,.52-.7,1.2,.19,2.51-.07,3.77-1.02,5.75-4.33,11.49-8.67,17.22-13.03,1.49-1.13,2.98-2.27,4.47-3.4,4.25-3.23,8.5-6.46,12.74-9.7,1.3-.99,2.6-1.99,3.9-2.99,4.45-3.4,8.89-6.8,13.33-10.2,.62-.48,1.25-.96,1.87-1.44,63.97-49.11,127.34-98.99,191.48-147.88,9.16-6.98,18.34-13.95,27.54-20.89h0c.29-.04,.58-.1,.87-.19h.04c.28-.09,.55-.2,.81-.32,.02,0,.04-.02,.05-.03,.26-.12,.5-.26,.74-.42l.06-.04c.23-.16,.45-.34,.66-.53,.02-.01,.03-.03,.04-.04,.21-.2,.4-.41,.57-.63l.02-.03c.51-.68,.83-1.5,.9-2.4,0-.04,.01-.08,.02-.13h0c2.56-1.87,5.02-3.89,7.39-6.03h0c1.18-1.08,2.34-2.18,3.48-3.31h0c7.69-7.63,14.36-16.56,20.27-25.93,3.73-5.92,7.16-12.01,10.33-18.07h0c.74-1.41,1.46-2.82,2.17-4.22l.04-.07c.71-1.4,1.41-2.79,2.09-4.17v-.02h.01c.17-.07,.33-.16,.5-.25h.01c.15-.09,.3-.19,.45-.3,.02-.01,.03-.02,.05-.03,.14-.1,.27-.21,.4-.33,.02-.02,.05-.04,.08-.06,.15-.14,.3-.29,.44-.45,14.87-16.86,26.53-35.43,35.1-55.51,1.28-3,2.51-6.02,3.65-9.08,.8-2.14,1.56-4.3,2.29-6.48,1.82-5.43,3.4-10.97,4.8-16.59,.84-3.39,1.64-6.81,2.33-10.28,.05-.24,.07-.48,.08-.71,.01-.45-.06-.89-.19-1.32Z"/><g><path class="cls-2" d="M768.93,88.74c-38.94-5.46-77.36-1-113.88,13.39-1.16-.15-2.41,.11-3.62,.97-8.8,6.27-17.61,12.53-26.41,18.8,5.94-9.2,10.78-19.08,14.06-29.54,1.24-3.97-1.49-7.14-5.5-7.07-54.23,.99-94.01,40.12-135.39,71.21-34.03,25.56-67.95,51.27-101.81,77.05-.06,.05-.11,.1-.17,.14-41.02,2.48-85.56-17.88-118.81,15.71-1.85,1.87-3,5-.91,7.28,11.8,12.9,22.67,26.65,33.15,40.66-.91,.05-1.85,.36-2.77,1.02-12.19,8.85-23.8,18.38-34.87,28.6-.29,.27-.55,.57-.8,.9-.85-.11-1.79,.03-2.79,.54-2.5,1.27-5,2.54-7.5,3.82,2.98-17.27-4.36-34.68-20.96-42.93-17.34-8.62-37.34-2.88-48.72,11.75-5.38-13.51-21.16-20.24-35.09-13.01-17.61-38.92-65.91-52.64-101.48-24.81-.43,.34-.87,.68-1.3,1.03-3.41,2.79-1.79,7.31,1.19,8.84l-.33,30.01c-16.4,6.11-31.38,16.89-44.12,29.39-3-2.96-6.79-5.21-11.05-6.36-15.48-4.16-29.59,7.61-35.81,20.82-2.84,6.04,6.79,9.89,9.63,3.86,3.82-8.11,12.3-16.5,22.1-15,7.13,1.09,14.02,8.67,11.64,16.1-2.02,6.32,7.59,10.24,9.63,3.86,1.59-4.96,1.29-9.99-.4-14.5,10.98-11.21,23.91-21.16,38.26-27.14l-2.23,202.58c-2.98,1.36-5.91,2.96-8.78,4.83-1.11-5.79-4.14-11.19-9.02-14.9-9.52-7.24-23.17-6.13-32.04,1.49-5.05,4.33,1.29,12.55,6.37,8.19,11.62-9.98,26.93,.09,24.47,13.34-.27,.26-.55,.51-.82,.77-1.89,1.84-2.01,4.26-1.18,6.21,.34,4.43,7.69,6.46,10.15,1.35,.43-.88,.78-1.8,1.1-2.72,3.09-2.59,6.31-4.79,9.62-6.61l-2.52,229.63H223.72c-7.23,9.6-16.42,17.86-26.53,24.75-5.52,3.76,.87,11.94,6.37,8.19,3.1-2.11,6.13-4.37,9.06-6.76,8.92-.22,12.77,10.77,11.45,18.1-1.57,8.78-8.01,16.19-13.47,22.88-4.22,5.17,4.1,11.38,8.32,6.2,.51-.62,1.02-1.26,1.54-1.9,22.68,1.37,39.31,18.48,40.65,41.59,1.32,22.69-12.23,41.15-30.17,53.57-5.49,3.8,.89,11.98,6.37,8.19,22.98-15.9,38.78-41.7,33.32-70.39-4.26-22.4-21.33-39.05-43.08-42.62,5.04-7.85,8.58-16.59,6.79-26-1.49-7.82-6.17-14.4-12.75-17.68,5.57-5.52,10.58-11.59,14.79-18.12h78.29c1.08,.46,2.37,.55,3.77,.04,.04-.01,.08-.03,.11-.04h.01c1.35,8.55-3.74,16.3-13.68,17.84-5.86,.91-5.8,9.36,.04,10.29,6.23,.99,13.17,1.85,18.47,5.61,5.05,3.58,9.63,16.5-.02,16.49-6.6,0-7.96,10.28-1.29,10.29,11.32,.01,19.96-9.78,17.24-21.28-2.3-9.7-9.82-14.9-18.43-17.93,5.92-5.35,9.08-13.12,8.26-21.3-.14-1.44-.41-2.88-.81-4.33,54.25-28.55,45.24-108.42-12.69-125.18,25.17-20.25,25.65-57.56-2.35-77.91,19.18-19.81,38.35-39.62,57.53-59.42,.65-.68,1.04-1.38,1.22-2.08,1.82,1.3,4.39,1.34,6.23-.07,5.3-4.06,10.6-8.12,15.9-12.18,1.97-1.51,2.33-3.6,1.72-5.41,.19-.22,.37-.46,.52-.7,1.2,.19,2.51-.07,3.77-1.02,91.52-68.98,181.07-140.51,272.56-209.53,2.4-.32,4.65-2.18,4.77-4.75,20.49-14.97,34.7-39.4,45.81-61.83,.69-.3,1.35-.76,1.93-1.42,24.86-28.18,40.83-61.13,48.18-97.94,.55-2.78-1.89-5.42-4.5-5.79Z"/><g><path class="cls-4" d="M575.45,143.47s8.02,13.84,7.64,25.08c.95,4.74,14.02,2.78,16.49-4.61,1.96-11.56-8.65-25.21-8.65-25.21l-15.48,4.74Z"/><path class="cls-4" d="M553.47,182.47c-5,4.01,3.8,20.03,10.72,15.41,6.92-4.62-5.74-19.4-10.72-15.41Z"/><path class="cls-4" d="M640.13,222.45c12.42,9.17,21.47,20.72,27.38,34.98,2.56,6.17,12.15,2.21,9.59-3.96-6.59-15.91-16.91-29.11-30.77-39.34-5.36-3.96-11.59,4.34-6.2,8.32h0Z"/><path class="cls-4" d="M649.61,223.54c20.43-13.78,46.2-21.22,69.93-27.15l-5.5-7.07c-10.56,21.4-24.4,45.28-44.24,59.18-5.47,3.83,.91,12.01,6.37,8.19,21.44-15.02,36.11-40.41,47.51-63.51,1.62-3.29-1.8-7.99-5.5-7.07-25.64,6.41-52.86,14.35-74.94,29.24-5.54,3.74,.85,11.91,6.37,8.19h0Z"/><path class="cls-4" d="M651.43,103.11l-38.37,27.32c-5.44,3.87,.94,12.05,6.37,8.19,12.79-9.11,25.58-18.21,38.37-27.32,5.44-3.87-.94-12.05-6.37-8.19h0Z"/><path class="cls-4" d="M654.35,113.96c28.04,17.95,47.71,43.19,58.26,74.76,2.12,6.34,11.69,2.34,9.59-3.96-11.09-33.17-32.2-60.26-61.65-79.11-5.58-3.57-11.85,4.7-6.2,8.32h0Z"/><path class="cls-4" d="M656.89,112.57c35.69-14.47,72.63-18.88,110.75-13.53l-4.5-5.79c-7.01,35.1-22.54,66.2-46.2,93.02-4.41,5,3.92,11.19,8.32,6.2,24.86-28.18,40.83-61.13,48.18-97.94,.55-2.78-1.89-5.42-4.5-5.79-39.69-5.57-78.85-.83-116.01,14.23-6.2,2.51-2.22,12.1,3.96,9.59h0Z"/><path class="cls-4" d="M558.96,125.13c6.24,3.74,11.03,8.58,14.73,14.83,3.39,5.73,11.55-.69,8.19-6.37-4.11-6.94-9.81-12.64-16.72-16.78-5.66-3.4-11.94,4.87-6.2,8.32h0Z"/><path class="cls-4" d="M598.21,262.64c8.61,9.5,15.62,19.92,21.06,31.54,2.2,4.7,9.66,1.63,7.46-3.08-5.73-12.25-13.06-23.38-22.15-33.41-3.46-3.82-9.86,1.1-6.37,4.95h0Z"/><path class="cls-4" d="M691.53,143.74c-18.21,14.13-36.43,28.25-54.64,42.38-4.1,3.18,.84,9.56,4.95,6.37,18.21-14.13,36.43-28.26,54.64-42.38,4.1-3.18-.84-9.56-4.95-6.37h0Z"/></g><g><path class="cls-3" d="M314.46,748.76c.64-.23,1.26-.48,1.88-.72,1.02-1.94,3.58-3.06,5.94-2.66,50.65-25.77,39.17-102.27-21.12-108.88-5.34-.59-5.88-7.82-1.34-9.94,30.3-14.1,31.56-50.08,6.18-68.13-30.7,31.71-61.4,63.43-92.1,95.14,22.61,11.98,36.33,36.09,35.97,62.09-.22,15.6-5.35,29.99-13.5,42.64h78.29c-3.76-1.61-5.08-7.77-.19-9.54Z"/><path class="cls-3" d="M361.8,426.9c9.38-7.71,18.76-15.42,28.14-23.13-4.03-4.76-7.98-9.59-11.81-14.53-.2,.21-.43,.42-.71,.61-17.56,12.21-35.11,24.43-52.67,36.64-.29,3.73-1.25,7.49-2.92,11.12,7.94,2.56,13.84,8.77,13.67,16.47,2.13-1.08,4.27-2.15,6.4-3.23-1.11-1.43-2.22-2.87-3.33-4.3-1.74-2.24-1.29-5.53,.91-7.28,5.2-4.14,10.41-8.28,15.61-12.42,1.7-1.35,3.52-1.4,5.02-.7,.54,.18,1.06,.46,1.56,.85,.05-.04,.08-.08,.13-.12Z"/><path class="cls-3" d="M289.65,331.15c-.57-1.75-1.31-2.82-2.57-3.78-1.5,1.3-2.99,2.61-4.47,3.94,.84,.87,1.68,1.74,2.53,2.61,.15,.15,.29,.31,.41,.47,1.43-.91,2.87-1.82,4.3-2.74-.07-.16-.14-.33-.2-.51Z"/><path class="cls-3" d="M417.12,429.36c-2.13,1.04-4.62,0-6.08-1.61-4.83-5.36-9.62-10.72-14.34-16.12-9.37,7.7-18.73,15.4-28.1,23.1,8.16,9.25,16.33,18.49,24.49,27.74,.21-.23,.45-.45,.73-.65,13.12-9.89,26.2-19.84,39.26-29.82-1.99-3.07-3.97-6.14-5.96-9.22-2.99,2.54-6.3,4.77-10,6.58Z"/><path class="cls-3" d="M349.9,444.24l26.14,33.72c3.37-2.58,6.73-5.16,10.1-7.74-9.48-10.73-18.95-21.46-28.43-32.19-2.6,2.07-5.21,4.14-7.81,6.21Z"/><path class="cls-3" d="M139.69,552.94c48.06-24.26,96.12-48.52,144.18-72.79-.49-2.59-3.16-4.93-5.77-4.8-6.62,.34-8.05-9.94-1.36-10.28,1.34-.07,2.64,.03,3.89,.25,3.06-12.82,.71-23.46-8.59-33.42-1.5-1.6-6.14-4.4-7.18-6.79-2.06-4.73-1.57-4.96,.45-9.34,4.59-9.96,26.36-21.84,35.01-28.71,13.03-10.35,26.06-20.7,39.1-31.05-1.47-1.69-2.93-3.39-4.38-5.11-9.02,7.47-18.03,14.94-27.05,22.41-4.01,3.32-8.94-3.06-4.95-6.37,8.94-7.41,17.89-14.82,26.83-22.24-.62-.75-1.24-1.51-1.86-2.26-1.16-1.42-2.39-2.84-3.63-4.29-26.13,22.17-53.82,41.95-83.26,59.48-4.41,2.63-9.4-3.72-4.95-6.37,29.37-17.49,57-37.23,83.08-59.33-1.16-1.52-2.26-3.08-3.24-4.68-25.13,15.99-50.26,31.99-75.39,47.98-3.09,1.96-6.22,1.01-7.98-2.11-11.3-20.09-34.08-25.34-52.58-15.5,2.94,3.81,5.02,8.39,5.86,13.52,1.08,6.6-9.21,7.95-10.28,1.37-.65-3.96-2.59-7.54-5.32-10.38-1.63-.39-3.02-1.61-3.74-3.11-4.64-3.05-10.44-4.3-15.97-2.69-1.14,.33-2.21,.29-3.16,0,.04,4.31-.42,8.72-1.44,13.18-1.49,6.45-11.79,5.22-10.29-1.29,6.94-30.16-14.91-55.59-44.58-59.43-13.07-1.69-25.5,.57-37,5.37l-2.23,202.58c34.32-15.65,74.5,2.12,87.8,36.21Zm130.45-162.58l11.37-8.84c4.1-3.19,9.05,3.18,4.95,6.37l-11.37,8.84c-4.1,3.19-9.05-3.18-4.95-6.37Zm-58.5,16.29c2.65-2.06,5.31-4.13,7.96-6.19,4.1-3.19,9.05,3.18,4.95,6.37-2.65,2.06-5.31,4.13-7.96,6.19-4.1,3.19-9.05-3.18-4.95-6.37Zm-126.06,10.27c16.24-18.86,44.37-20.87,60.95-.85,14.82,17.9,11.65,40.58-1.02,57.49,17.2,1.67,35.67,10.54,24.97,30.76-3.1,5.86-12.75,2.03-9.63-3.86-6.18-14.06-14.99-19.57-26.43-16.55-5.31,.64-7.64-5.91-3.87-9.24,12.24-10.79,19.85-26.5,13.31-42.97-8.43-21.24-34.82-26.2-49.99-8.58-4.35,5.05-12.67-1.15-8.32-6.2Z"/><path class="cls-3" d="M204.09,660.41c-3.71-.53-6.76-4.52-3.55-7.84,53.99-55.77,107.98-111.54,161.97-167.31,1.4-1.45,3.15-1.88,4.78-1.64-3.1-4-6.2-8-9.3-12-31.9,19.7-63.8,39.4-95.7,59.1-4.38,2.7-9.36-3.65-4.95-6.37,31.9-19.7,63.81-39.41,95.71-59.11-1.56-2.02-3.13-4.03-4.69-6.05-68.55,34.61-137.1,69.21-205.65,103.82,1.52,7.1,1.95,14.74,1.03,22.81-.76,6.65-11.05,5.35-10.29-1.29,.7-6.1,.52-11.87-.4-17.28-4.19-.14-6.37-6.62-2.5-9.58-11.18-31.06-48.48-45.73-78.78-29l-2.52,229.63H223.72c7.64-10.14,13.09-21.78,15.12-34.91,4.06-26.32-10.11-52.9-34.75-62.98Zm94.84-139.14c5.31-4.13,10.61-8.25,15.92-12.38,4.1-3.19,9.05,3.18,4.95,6.37-5.31,4.13-10.61,8.25-15.92,12.38-4.1,3.19-9.05-3.18-4.95-6.37Zm-18.11,16.57c3.96-3.37,8.9,3.02,4.95,6.37-21.98,18.69-43.95,37.37-65.93,56.06-3.97,3.37-8.9-3.02-4.95-6.37,21.98-18.69,43.95-37.37,65.93-56.06Zm-70.59,19.56c6.28-3.66,12.55-7.33,18.83-10.99,4.43-2.58,9.42,3.76,4.95,6.37-6.28,3.66-12.55,7.33-18.83,10.99-4.43,2.58-9.42-3.76-4.95-6.37Z"/><path class="cls-3" d="M536.42,310.31c-.72-.66-1.13-1.44-1.3-2.23-18.63,14-37.23,28.02-55.75,42.17,8.39,9.11,15.2,19.2,20.51,30.25,18.4-14.26,36.79-28.55,55.18-42.81-4.14-10.5-10.29-19.67-18.66-27.38Z"/><path class="cls-3" d="M456.82,367.59c-.25,.2-.51,.36-.77,.5-.53,1.81-1.09,3.62-1.72,5.44-5.16,15.05-10.91,31.43-21.38,43.46,2.18,3.37,4.35,6.73,6.53,10.1,18.01-13.79,35.96-27.65,53.9-41.54-5.19-11.19-11.98-21.24-20.4-30.38-5.39,4.13-10.79,8.26-16.16,12.42Z"/><path class="cls-3" d="M298.78,325.97c4.03-2.56,8.06-5.13,12.09-7.69,.41-.26,.83-.46,1.25-.6-.69-4.06-.09-8.13,1.62-11.51-.15,.13-.31,.26-.48,.39-6.2,4.5-12.24,9.17-18.14,14.02,1.57,1.53,2.82,3.36,3.67,5.39Z"/><path class="cls-3" d="M327.43,308.28c-12.99,1.11,3.06,20.74,5.21,23.41,2.95,3.66,5.92,7.31,8.93,10.92,5.68,6.82,11.55,13.44,17.65,19.88,3.41-1.8,6.83-3.6,10.24-5.4-13.92-16.15-27.84-32.3-41.75-48.45-.1-.12-.19-.24-.28-.36Z"/><path class="cls-3" d="M354.08,372.06c-2.64-2.72-5.23-5.49-7.78-8.29-.03,.03-.06,.05-.09,.08-13.18,10.47-26.36,20.93-39.54,31.4-.2,.16-.4,.32-.6,.48,9.65,4.34,15.88,12.35,17.98,21.43,16.14-11.23,32.28-22.45,48.41-33.68,.31-.21,.62-.37,.93-.49-2.44-3.3-4.85-6.64-7.17-10.06-.45-.67-.72-1.34-.86-2.01-1.74,.92-3.48,1.84-5.22,2.75-2.13,1.12-4.59-.08-6.08-1.61Z"/><path class="cls-3" d="M324.12,457.22c-1.43-8.04-5.21-11.56-11.37-10.58-3.98-.04-5.72-5.41-3.51-8.25,10.33-13.27,4.81-29.54-10.96-34.54-.56-.18-1.04-.42-1.45-.7-3.28,2.63-6.58,5.25-9.92,7.8-2.2,1.74-4.39,3.49-6.59,5.23-6.63,1.57-7.82,3.45-3.58,5.63,1.44,5.57,11.15,12.34,13.57,19.28,3.09,8.84,2.68,17.47,.4,26.36-.25,.99-.72,1.8-1.31,2.43,1.58,1.58,2.85,3.49,3.69,5.62,10.06-5.08,20.12-10.16,30.18-15.23-.04-.98,.21-2.02,.86-3.04Z"/><path class="cls-3" d="M472.54,188.84c-17.8,13.44-35.58,26.91-53.34,40.41,.88-.31,1.75-.64,2.63-.99,.63-.26,1.24-.38,1.82-.4,17.28-12.01,34.55-24.03,51.83-36.04-.98-.99-1.95-1.98-2.93-2.98Z"/><path class="cls-3" d="M101.36,300.16c23.33,6.01,41.03,24.31,45.17,46.61,.03-.01,.06-.02,.1-.03,8.88-2.58,18.05-.98,25.34,3.58,24.03-15.28,51.08-9.35,67.04,13.69,12.56-7.99,25.12-15.99,37.69-23.98-.97-1-1.94-2.01-2.91-3.01-.38,.38-.85,.71-1.39,.99-5.66,2.88-11.33,5.77-17,8.65-5.16,2.63-8.8-4.25-5.81-8.09-.36-1-.41-2.16,0-3.42,11.74-35.08-35.73-54.07-53.45-22.77-1.02,1.8-2.52,2.44-4.01,2.29-2.62,3-9.34,1.1-9.26-4.25,.19-12.36-13.11-18.99-23.1-12.55,.18,.61,.35,1.23,.52,1.85,1.69,6.44-8.61,7.75-10.28,1.37-10.75-40.99-57.94-55.08-90.27-28.64-1.76,1.44-3.65,1.44-5.18,.65l-.33,30.01c14.75-5.49,30.64-7.2,47.12-2.96Z"/><path class="cls-3" d="M588.6,132.58c3.73-.58,9.71-1.07,16.43-1.12,.14-.22,.29-.44,.48-.66,8.83-10.47,16.22-22.1,21.27-34.79-29.63,2.54-50.64,15.78-74.74,33.35-7.7,5.61-15.35,11.28-22.98,16.98,2.34,1.77,4.68,3.55,7.02,5.32,16.23-9.03,33.35-16.1,52.53-19.08Z"/><path class="cls-3" d="M491.05,180.99c12.42-8.64,24.71-17.31,37.44-24.96-2.06-1.56-4.12-3.12-6.17-4.68-8.79,6.58-17.56,13.18-26.32,19.78-5.67,4.27-11.33,8.56-17,12.84,1.05,1.07,2.1,2.14,3.16,3.2,2.97-2.06,5.93-4.13,8.9-6.19Z"/><path class="cls-3" d="M381.51,286.29c-18.1-10.3-38.28-15.14-58.88-14.46,9.99,13.75,21.68,26.21,30.91,40.54,2.01,3.12,.34,6.49-2.15,7.88,9.29,10.77,18.57,21.55,27.86,32.32,2.34,2.72,1.07,5.79-1.29,7.29,.4,2.16-.34,4.59-2.79,5.89-.32,.17-.65,.34-.97,.51,.07,.1,.15,.19,.22,.3,7.18,10.62,14.81,20.72,23.11,30.5,2.37,2.8,12.57,18.4,16.82,18.91,16.98,2.02,27.43-36.54,31.43-49.28,5.48-17.48,4.76-35.89,9.93-53.33,.99-3.33,2.21-6.49,3.61-9.54-17.46,13.17-34.96,26.3-52.49,39.38-5.35,3.99-11.72-4.19-6.37-8.19,25.7-19.18,51.35-38.44,76.91-57.82,.46-.54,.92-1.07,1.39-1.61,.91-1.04,1.98-1.6,3.08-1.78,32.03-24.32,63.89-48.86,95.44-73.79,14.73-11.64,29.53-23.27,43.73-35.57,2.95-2.55,10.74-7.37,12.14-11.01,5.14-13.42-18.75-12.8-27.86-12.3-43.52,2.41-77.24,26.73-111.94,50.86-38.67,26.89-77.35,53.78-116.02,80.68,3.51,1.61,6.97,3.36,10.38,5.3,5.81,3.3-.48,11.57-6.2,8.32Zm147.51-84.81c4.98-3.99,17.64,10.79,10.72,15.41-6.92,4.62-15.72-11.4-10.72-15.41Zm-24.45,19.01c4.98-3.99,17.64,10.79,10.72,15.41-6.92,4.62-15.72-11.4-10.72-15.41Zm-24.64,19.16c4.98-3.99,17.64,10.79,10.72,15.41-6.92,4.62-15.72-11.4-10.72-15.41Zm-27.3,21.22c4.98-3.99,17.64,10.79,10.72,15.41-6.92,4.62-15.72-11.4-10.72-15.41Z"/><path class="cls-3" d="M331.77,300.44c.05,0,.11,0,.16,0-7.83-9.81-15.98-19.37-22.79-29.95-2.03-3.15-.79-7.87,3.41-8.33,18.39-1.99,36.3,.06,53.27,5.9,11.97-8.33,23.95-16.65,35.92-24.98-39.04,2.8-82.84-15.35-113.89,10.77,12.63,14.17,24.25,29.26,35.49,44.56,1.17-.29,2.42-.46,3.75-.47,2.14-.02,3.73,1.05,4.69,2.5Z"/><path d="M30.89,536.66c.34,4.43,7.69,6.46,10.15,1.35,.43-.88,.78-1.8,1.1-2.72-1.26,1.05-2.49,2.17-3.71,3.35-2.87,2.8-6.29,.94-7.54-1.98Z"/><path d="M34.09,506.66c-9.52-7.24-23.17-6.13-32.04,1.49-5.05,4.33,1.29,12.55,6.37,8.19,11.62-9.98,26.93,.09,24.47,13.34,3.28-3.11,6.7-5.82,10.22-8.12-1.11-5.79-4.14-11.19-9.02-14.9Z"/><path d="M31.41,534.15c.73-1.51,1.21-3.01,1.48-4.47-.27,.26-.55,.51-.82,.77-1.89,1.84-2.01,4.26-1.18,6.21-.06-.77,.09-1.62,.52-2.51Z"/><path d="M133.04,567.25c.91,5.41,1.09,11.18,.4,17.28-.76,6.64,9.53,7.93,10.29,1.29,.92-8.06,.5-15.71-1.03-22.81-2.43,1.22-4.85,2.45-7.28,3.67-.84,.43-1.64,.59-2.38,.57Z"/><path d="M43.11,521.56c.87,4.54,.56,9.31-.97,13.72,3.09-2.59,6.31-4.79,9.62-6.61l.13-11.95c-2.98,1.36-5.91,2.96-8.78,4.83Z"/><path d="M130.54,557.67c.28-.21,.58-.41,.92-.58,2.74-1.38,5.48-2.77,8.23-4.15-13.29-34.09-53.48-51.86-87.8-36.21l-.13,11.95c30.3-16.73,67.6-2.06,78.78,29Z"/><path d="M43.11,521.56c-3.52,2.3-6.94,5.01-10.22,8.12-.27,1.46-.75,2.96-1.48,4.47-.43,.89-.58,1.74-.52,2.51,1.25,2.93,4.67,4.78,7.54,1.98,1.21-1.18,2.45-2.3,3.71-3.35,1.53-4.41,1.84-9.19,.97-13.72Z"/><path d="M93.89,423.13c15.17-17.62,41.56-12.66,49.99,8.58,6.53,16.47-1.08,32.18-13.31,42.97-3.77,3.33-1.44,9.87,3.87,9.24,11.44-3.02,20.25,2.49,26.43,16.55-3.12,5.89,6.53,9.72,9.63,3.86,10.7-20.22-7.78-29.09-24.97-30.76-2.51,3.35-5.39,6.48-8.58,9.3-1.29-3.08-2.58-6.16-3.87-9.24,3.72-.45,8.04-.49,12.45-.07,12.66-16.91,15.84-39.59,1.02-57.49-16.58-20.02-44.71-18.01-60.95,.85-4.35,5.05,3.97,11.25,8.32,6.2Z"/><path d="M133.06,473.64c1.29,3.08,2.58,6.16,3.87,9.24,3.19-2.82,6.07-5.95,8.58-9.3-4.4-.43-8.72-.38-12.45,.07Z"/><path d="M5.68,337.02c1.45-1.53,2.93-3.03,4.44-4.51-3-2.96-6.79-5.21-11.05-6.36-15.48-4.16-29.59,7.61-35.81,20.82-2.84,6.04,6.79,9.89,9.63,3.86,3.82-8.11,12.3-16.5,22.1-15,7.13,1.09,14.02,8.67,11.64,16.1-2.02,6.32,7.59,10.24,9.63,3.86,1.59-4.96,1.29-9.99-.4-14.5-.63,.64-1.25,1.28-1.86,1.93-4.55,4.8-12.89-1.38-8.32-6.2Z"/><path d="M91.12,308.78c29.67,3.84,51.52,29.27,44.58,59.43-1.5,6.51,8.81,7.74,10.29,1.29,1.03-4.46,1.48-8.87,1.44-13.18-4.27-1.34-6.03-7.96-.91-9.55-4.14-22.3-21.84-40.6-45.17-46.61-16.48-4.25-32.38-2.53-47.12,2.96l-.12,11.03c11.51-4.8,23.93-7.06,37-5.37Z"/><path d="M10.12,332.5c2.53,2.5,4.51,5.5,5.74,8.78,10.98-11.21,23.91-21.16,38.26-27.14l.12-11.03c-16.4,6.11-31.38,16.89-44.12,29.39Z"/><path d="M10.12,332.5c-1.51,1.48-2.99,2.99-4.44,4.51-4.58,4.83,3.76,11,8.32,6.2,.61-.65,1.23-1.29,1.86-1.93-1.23-3.28-3.2-6.29-5.74-8.78Z"/><path d="M168.06,352.99c1.29-.96,2.6-1.84,3.91-2.68-7.29-4.57-16.47-6.17-25.34-3.58-.04,.01-.07,.02-.1,.03,.58,3.11,.88,6.3,.91,9.55,.95,.3,2.01,.34,3.16,0,5.53-1.61,11.33-.36,15.97,2.69-.93-1.94-.75-4.34,1.49-6.01Z"/><path d="M170.3,362.12c2.73,2.84,4.68,6.43,5.32,10.38,1.08,6.59,11.36,5.23,10.28-1.37-.84-5.13-2.92-9.7-5.86-13.52-1.93,1.02-3.81,2.21-5.63,3.57-1.38,1.03-2.83,1.24-4.12,.93Z"/><path d="M147.43,356.31c-.03-3.25-.33-6.44-.91-9.55-5.13,1.59-3.36,8.21,.91,9.55Z"/><path d="M166.56,359.01c.72,1.5,2.11,2.72,3.74,3.11-1.12-1.17-2.38-2.22-3.74-3.11Z"/><path d="M312.12,317.68c-.42,.14-.84,.33-1.25,.6-4.03,2.56-8.06,5.13-12.09,7.69,.17,.4,.32,.8,.46,1.21,2.02,6.13-6.97,10.08-9.39,4.47-1.43,.91-2.87,1.82-4.3,2.74,3.7,4.73-4.15,10.49-8.6,5.9-.09-.09-.17-.18-.26-.26-12.56,7.99-25.12,15.99-37.69,23.98,1.13,1.63,2.2,3.35,3.21,5.15-2.66-.7-5.32-1.41-7.98-2.11,1.59-1.01,3.18-2.02,4.76-3.03-15.95-23.04-43.01-28.97-67.04-13.69,3.08,1.93,5.83,4.39,8.08,7.3,18.5-9.83,41.28-4.59,52.58,15.5,1.76,3.12,4.89,4.08,7.98,2.11,25.13-15.99,50.26-31.99,75.39-47.98-1.25-2.05-2.33-4.18-3.09-6.42-.35-1.04-.62-2.09-.8-3.14Z"/><path d="M242.22,369.16c-1.01-1.8-2.09-3.51-3.21-5.15-1.59,1.01-3.18,2.02-4.76,3.03,2.66,.7,5.32,1.41,7.98,2.11Z"/><path d="M171.97,350.32c-1.31,.84-2.62,1.71-3.91,2.68-2.24,1.67-2.43,4.07-1.49,6.01,1.36,.89,2.61,1.94,3.74,3.11,1.3,.31,2.74,.1,4.12-.93,1.82-1.35,3.7-2.54,5.63-3.57-2.24-2.91-4.99-5.37-8.08-7.3Z"/><path d="M289.41,469.88c.59-.63,1.06-1.44,1.31-2.43,2.27-8.89,2.69-17.51-.4-26.36-2.42-6.94-12.14-13.71-13.57-19.28-4.25-2.18-3.05-4.06,3.58-5.63,2.2-1.75,4.39-3.49,6.59-5.23,3.34-2.54,6.64-5.16,9.92-7.8-4.22-2.93-.46-10.76,5.31-8.93,1.37,.44,2.69,.94,3.95,1.51,.2-.16,.4-.32,.6-.48,13.18-10.47,26.36-20.93,39.54-31.4,.03-.02,.06-.05,.09-.08-2.33-2.56-4.63-5.15-6.9-7.76-13.03,10.35-26.07,20.7-39.1,31.05-8.65,6.87-30.42,18.75-35.01,28.71-2.02,4.39-2.5,4.61-.45,9.34,1.04,2.39,5.68,5.19,7.18,6.79,9.3,9.96,11.65,20.61,8.59,33.42,3.41,.61,6.45,2.23,8.79,4.56Z"/><path d="M133.04,567.25c-.56-3.34-1.41-6.54-2.5-9.58-3.86,2.96-1.69,9.44,2.5,9.58Z"/><path d="M332.44,463.43c-2.93,4.63-9.01,1.27-9.17-3.17-10.06,5.08-20.12,10.16-30.18,15.23,.84,2.13,1.25,4.49,1.14,6.97-.3,6.68-10.59,5.34-10.29-1.29,.02-.34-.02-.68-.08-1.02-48.06,24.26-96.12,48.52-144.18,72.79,1.25,3.22,2.27,6.57,3.02,10.07,68.55-34.61,137.1-69.22,205.65-103.82-2.15-2.78-4.3-5.55-6.46-8.33-2.13,1.08-4.27,2.15-6.4,3.23-.06,2.94-1,6.09-3.06,9.34Z"/><path d="M131.46,557.09c-.34,.17-.65,.37-.92,.58,1.09,3.04,1.94,6.24,2.5,9.58,.74,.02,1.54-.14,2.38-.57,2.43-1.22,4.85-2.45,7.28-3.67-.75-3.49-1.76-6.85-3.02-10.07-2.74,1.38-5.48,2.77-8.23,4.15Z"/><path d="M371,488.4c-1.24-1.6-2.47-3.19-3.71-4.79-1.63-.24-3.38,.19-4.78,1.64-53.99,55.77-107.98,111.54-161.97,167.31-3.22,3.32-.16,7.31,3.55,7.84-.03-.01-.06-.03-.09-.04-6.2-2.52-2.32-12.15,3.86-9.63,2.08,.85,4.09,1.8,6.04,2.83,30.7-31.71,61.4-63.43,92.1-95.14-.82-.59-1.68-1.15-2.56-1.7-5.69-3.53,.58-11.81,6.2-8.32,1.27,.79,2.49,1.62,3.66,2.47,19.18-19.81,38.35-39.62,57.53-59.42,.65-.68,1.04-1.38,1.22-2.08-.38-.28-.75-.59-1.05-.98Z"/><path d="M213.89,653.57c-1.68,1.73-3.35,3.46-5.03,5.2-1.4,1.45-3.15,1.87-4.77,1.64,24.65,10.08,38.81,36.66,34.75,62.98-2.03,13.13-7.48,24.77-15.12,34.91h12.64c8.15-12.65,13.28-27.04,13.5-42.64,.36-26-13.37-50.11-35.97-62.09Z"/><path d="M208.86,658.77c1.68-1.73,3.35-3.46,5.03-5.2-1.95-1.03-3.96-1.99-6.04-2.83-6.18-2.51-10.06,7.11-3.86,9.63,.03,.01,.06,.03,.09,.04,1.62,.23,3.37-.2,4.77-1.64Z"/><path d="M289.41,469.88c-3.24,3.45-10.38,1.73-8.98-3.72,.07-.28,.13-.56,.19-.83-1.25-.22-2.55-.32-3.89-.25-6.68,.34-5.26,10.62,1.36,10.28,2.61-.13,5.28,2.21,5.77,4.8,3.08-1.55,6.15-3.11,9.23-4.66-.84-2.13-2.1-4.04-3.69-5.62Z"/><path d="M289.41,469.88c-2.33-2.33-5.37-3.95-8.79-4.56-.07,.28-.12,.55-.19,.83-1.39,5.46,5.75,7.17,8.98,3.72Z"/><path d="M294.24,482.46c.11-2.48-.3-4.83-1.14-6.97-3.08,1.55-6.15,3.11-9.23,4.66,.06,.34,.1,.68,.08,1.02-.3,6.63,9.99,7.97,10.29,1.29Z"/><path d="M299.82,626.55c-4.55,2.12-4.01,9.35,1.34,9.94,60.29,6.61,71.77,83.12,21.12,108.88,1.5,.26,2.91,1.14,3.79,2.82,1,1.91,1.74,3.84,2.27,5.77,54.25-28.55,45.24-108.42-12.69-125.18-3.49,2.81-7.44,5.29-11.87,7.35-.45-3.31-.89-6.63-1.34-9.94,4.65,.51,9.05,1.39,13.21,2.59,25.17-20.25,25.65-57.56-2.35-77.91-2.44,2.52-4.87,5.03-7.31,7.55,25.38,18.04,24.13,54.02-6.18,68.13Z"/><path d="M303.78,636.14c4.43-2.06,8.38-4.54,11.87-7.35-4.15-1.2-8.56-2.08-13.21-2.59,.45,3.31,.89,6.63,1.34,9.94Z"/><path d="M303.44,556.73c.88,.55,1.73,1.11,2.56,1.7,2.44-2.52,4.87-5.03,7.31-7.55-1.17-.85-2.39-1.68-3.66-2.47-5.62-3.49-11.89,4.78-6.2,8.32Z"/><path d="M316.34,748.03c2.06-.81,4.05-1.7,5.94-2.66-2.36-.41-4.91,.71-5.94,2.66Z"/><path d="M322.28,745.38c-1.89,.96-3.87,1.84-5.94,2.66-.6,1.14-.68,2.56,.14,4.12,1.07,2.04,1.75,4.11,2.07,6.14,3.47-1.26,6.72-2.72,9.79-4.33-.53-1.93-1.27-3.86-2.27-5.77-.88-1.68-2.29-2.56-3.79-2.82Z"/><path d="M345.85,447.47c1.35-1.07,2.7-2.15,4.05-3.22-1.05-1.35-2.09-2.7-3.14-4.05-.3,2.43-.61,4.85-.91,7.28Z"/><path d="M387.66,471.95c-.51-.58-1.02-1.15-1.52-1.73-3.37,2.58-6.73,5.16-10.1,7.74,1.05,1.36,2.1,2.71,3.15,4.07-2.43-.3-4.85-.61-7.28-.91,1.37-1.05,2.75-2.11,4.12-3.16l-26.14-33.72c-1.35,1.07-2.7,2.15-4.05,3.22,.3-2.43,.61-4.85,.91-7.28,1.05,1.35,2.09,2.7,3.14,4.05,2.6-2.07,5.21-4.14,7.81-6.21-1.16-1.31-2.32-2.62-3.48-3.94-3.73-4.22,1.51-9.37,5.88-7.93-1.5-.7-3.32-.65-5.02,.7-5.2,4.14-10.41,8.28-15.61,12.42-2.2,1.75-2.65,5.04-.91,7.28,1.11,1.43,2.22,2.86,3.33,4.3,1.15-.58,2.29-1.16,3.44-1.73,5.96-3.01,9.89,6.59,3.96,9.59-.31,.16-.63,.32-.94,.48,1.56,2.02,3.13,4.03,4.69,6.05,.22-.14,.44-.27,.66-.41,4.38-2.7,9.36,3.64,4.95,6.37l-.67,.41c3.1,4,6.2,8,9.3,12,2.95,.43,5.47,3.04,4.76,5.77,1.82,1.3,4.39,1.34,6.23-.07,5.3-4.06,10.6-8.12,15.9-12.18,1.97-1.51,2.33-3.6,1.72-5.41-1.93,2.21-5.71,3.09-8.24,.23Z"/><path d="M379.19,482.03c-1.05-1.36-2.1-2.71-3.15-4.07-1.37,1.05-2.75,2.11-4.12,3.16,2.43,.3,4.85,.61,7.28,.91Z"/><path d="M349.3,458.71c5.93-2.99,2-12.6-3.96-9.59-1.15,.58-2.29,1.16-3.44,1.73,2.15,2.78,4.3,5.55,6.46,8.33,.31-.16,.63-.32,.94-.48Z"/><path d="M367.29,483.61c1.24,1.6,2.48,3.19,3.71,4.79,.3,.39,.66,.7,1.05,.98,.71-2.72-1.81-5.34-4.76-5.77Z"/><path d="M395.9,471.72c.19-.22,.37-.46,.52-.7-.32-.05-.64-.14-.94-.25,.17,.3,.31,.62,.42,.95Z"/><path d="M368.17,435.09c-2.29,1.88-4.81,1.32-6.46-.26-.08,.07-.16,.15-.25,.22-1.25,.99-2.5,1.99-3.75,2.98,9.48,10.73,18.95,21.46,28.43,32.19,.56-.43,1.12-.85,1.67-1.28,1.58-1.21,3.25-1.33,4.69-.8-.97-1.76-1.02-3.97,.6-5.68-8.16-9.25-16.33-18.49-24.49-27.74-.15,.12-.29,.24-.44,.36Z"/><path d="M361.55,427.13s.08-.08,.12-.11c-.5-.39-1.02-.68-1.56-.85,.52,.24,1.01,.57,1.44,.97Z"/><path d="M392.5,468.15c-1.43-.53-3.11-.42-4.69,.8-.56,.43-1.12,.85-1.67,1.28,.51,.58,1.02,1.15,1.52,1.73,2.53,2.86,6.31,1.98,8.24-.23-.11-.33-.25-.65-.42-.95-1.26-.47-2.33-1.44-2.99-2.62Z"/><path d="M361.71,434.83c-2.01-1.92-2.72-5.34-.16-7.7-.43-.4-.91-.73-1.44-.97-4.37-1.44-9.61,3.71-5.88,7.93,1.16,1.31,2.32,2.62,3.48,3.94,1.25-.99,2.5-1.99,3.75-2.98,.09-.07,.17-.15,.25-.22Z"/><path d="M283.78,257.6c1.33-1.34,2.69-2.58,4.07-3.75-1.05-1.18-2.09-2.37-3.16-3.53-.3,2.43-.61,4.85-.91,7.28Z"/><path d="M315.17,303.84c1.95-2.62,4.72-4.57,8.17-5.42-11.24-15.3-22.86-30.39-35.49-44.56-1.38,1.16-2.74,2.4-4.07,3.75,.3-2.43,.61-4.85,.91-7.28,1.07,1.17,2.11,2.35,3.16,3.53,31.05-26.12,74.85-7.97,113.89-10.77,7.3-5.08,14.6-10.15,21.9-15.23-.58,.02-1.19,.15-1.82,.4-.87,.35-1.75,.68-2.63,.99-5.48,4.16-10.97,8.32-16.44,12.49-5.25,4-11.52-3.95-6.54-8.04-41.02,2.48-85.56-17.88-118.81,15.71-1.85,1.87-3,5-.91,7.28,11.8,12.9,22.67,26.65,33.15,40.66,3.38-.18,6.29,3.35,5.53,6.48Z"/><path d="M312.55,262.16c-4.21,.45-5.44,5.17-3.41,8.33,6.81,10.58,14.97,20.14,22.79,29.95,1.39-.03,2.81,.5,3.97,1.84,5.16,5.99,10.33,11.98,15.49,17.97,2.49-1.39,4.15-4.76,2.15-7.88-9.22-14.33-20.92-26.79-30.91-40.54-2.9,.1-5.81,.3-8.72,.61,1.14-2.78,2.27-5.55,3.41-8.33,1.69,2.63,3.47,5.19,5.31,7.71,20.59-.68,40.77,4.16,58.88,14.46,5.72,3.25,12.01-5.01,6.2-8.32-3.41-1.94-6.88-3.69-10.38-5.3-1.96,1.37-3.93,2.73-5.89,4.1-5.47,3.8-11.85-4.38-6.37-8.19,.25-.18,.5-.35,.76-.53-16.97-5.84-34.88-7.89-53.27-5.9Z"/><path d="M313.91,272.45c2.91-.31,5.82-.52,8.72-.61-1.83-2.52-3.62-5.08-5.31-7.71-1.14,2.77-2.27,5.55-3.41,8.33Z"/><path d="M346.3,363.77c2.55,2.8,5.14,5.57,7.78,8.29,1.48,1.53,3.94,2.74,6.08,1.61,1.74-.92,3.48-1.84,5.22-2.75-.94-4.76,5.46-9.02,8.82-4.65,.32-.17,.65-.34,.97-.51,2.45-1.29,3.19-3.72,2.79-5.89-2.04,1.3-4.89,1.41-6.9-.93-.53-.62-1.06-1.24-1.6-1.85-3.41,1.8-6.83,3.6-10.24,5.4,1.01,1.07,2.02,2.15,3.05,3.21-2.03-.54-4.05-1.07-6.08-1.61,1.01-.53,2.02-1.06,3.03-1.6-6.1-6.44-11.97-13.06-17.65-19.88-3.01-3.61-5.98-7.26-8.93-10.92-2.15-2.68-18.2-22.3-5.21-23.41-2.65-3.59,.68-7.65,4.35-7.84-.95-1.45-2.55-2.52-4.69-2.5-1.33,.01-2.57,.18-3.75,.47,.72,.97,1.44,1.95,2.15,2.92,3.94,5.39-4.25,11.76-8.19,6.37-.78-1.07-1.57-2.13-2.35-3.19-.25,.59-.65,1.16-1.22,1.67-1.71,3.38-2.3,7.44-1.62,11.51,5.22-1.77,10.33,5.47,5.12,8.79-.41,.26-.82,.52-1.23,.78,.98,1.61,2.08,3.17,3.24,4.68,.07-.06,.14-.11,.21-.17,3.97-3.37,8.9,3.02,4.95,6.37l-.03,.02c1.24,1.44,2.47,2.87,3.63,4.29,.62,.76,1.24,1.51,1.86,2.26,.31-.25,.61-.51,.92-.76,4.01-3.32,8.94,3.06,4.95,6.37l-.71,.59c1.45,1.71,2.91,3.41,4.38,5.11,.15-.12,.29-.23,.44-.35,5.21-4.13,11.51,3.94,6.45,8.11Z"/><path d="M362.27,365.7c-1.03-1.06-2.03-2.14-3.05-3.21-1.01,.53-2.02,1.06-3.03,1.6,2.03,.54,4.05,1.07,6.08,1.61Z"/><path d="M312.12,317.68c.18,1.05,.44,2.1,.8,3.14,.77,2.25,1.84,4.38,3.09,6.42,.41-.26,.82-.52,1.23-.78,5.21-3.32,.11-10.56-5.12-8.79Z"/><path d="M339.85,355.66c-.15,.12-.29,.23-.44,.35,2.27,2.61,4.56,5.2,6.9,7.76,5.06-4.17-1.25-12.25-6.45-8.11Z"/><path d="M317.3,307.7c3.94,5.39,12.13-.98,8.19-6.37-.71-.98-1.43-1.95-2.15-2.92-3.45,.85-6.22,2.81-8.17,5.42-.06,.23-.13,.45-.22,.67,.78,1.06,1.57,2.13,2.35,3.19Z"/><path d="M379.25,352.57c-9.29-10.77-18.57-21.55-27.86-32.32-1.97,1.1-4.45,.96-6.04-1.51-4.1-6.38-8.7-12.39-13.42-18.3-.05,0-.11,0-.16,0,1.99,3.03,1.19,7.74-3.32,7.78-.37,0-.7,.03-1.02,.06,.09,.12,.18,.24,.28,.36,13.92,16.15,27.84,32.3,41.75,48.45,.58-.31,1.17-.61,1.75-.92,3.44-1.81,6.2,.69,6.75,3.7,2.35-1.5,3.63-4.58,1.29-7.29Z"/><path d="M351.39,320.25c-5.16-5.99-10.33-11.98-15.49-17.97-1.15-1.34-2.58-1.87-3.97-1.84,4.72,5.91,9.31,11.92,13.42,18.3,1.59,2.48,4.07,2.61,6.04,1.51Z"/><path d="M331.77,300.44c-3.66,.19-7,4.25-4.35,7.84,.33-.03,.66-.05,1.02-.06,4.51-.05,5.31-4.75,3.32-7.78Z"/><path d="M371.21,356.17c-.58,.31-1.16,.61-1.75,.92,.53,.62,1.06,1.24,1.6,1.85,2.02,2.34,4.86,2.22,6.9,.93-.56-3.01-3.32-5.51-6.75-3.7Z"/><path d="M455.71,313.36c-5.17,17.44-4.45,35.85-9.93,53.33-4,12.74-14.45,51.3-31.43,49.28-4.25-.5-14.45-16.11-16.82-18.91-8.3-9.78-15.93-19.88-23.11-30.5-.07-.11-.15-.2-.22-.3-2.94,1.55-5.88,3.1-8.82,4.65,.13,.67,.41,1.35,.86,2.01,2.32,3.42,4.72,6.76,7.17,10.06,3.72-1.45,7.43,3.36,4.73,6.25,3.83,4.93,7.78,9.76,11.81,14.53,.27-.22,.54-.44,.81-.66,5.17-4.25,11.51,3.96,6.37,8.19-.14,.11-.27,.22-.41,.34,4.72,5.4,9.51,10.76,14.34,16.12,1.45,1.62,3.95,2.65,6.08,1.61,3.7-1.82,7.01-4.04,10-6.58-.48-.74-.96-1.49-1.44-2.23-2.8-4.33,3.55-9.31,6.37-4.95l.91,1.4c10.47-12.03,16.22-28.42,21.38-43.46,.62-1.82,1.19-3.63,1.72-5.44-5.1,2.81-10.62-4.8-5.6-8.69,3.07-2.38,6.17-4.74,9.25-7.11,1.07-5.91,1.91-11.89,2.75-18.05,.34-2.49,.74-4.87,1.2-7.17-3.79,1.17-7.4-4.23-3.66-7.02,2.3-1.71,4.59-3.43,6.89-5.14,3.73-10.93,9.42-20.24,17.74-30.24-8.42,6.4-16.86,12.78-25.3,19.14-1.4,3.05-2.62,6.22-3.61,9.54Z"/><path d="M478.76,275.58c-.47,.54-.93,1.07-1.39,1.61,1.49-1.13,2.98-2.26,4.47-3.39-1.1,.19-2.18,.74-3.08,1.78Z"/><path d="M365.38,370.92c2.94-1.55,5.88-3.1,8.82-4.65-3.36-4.37-9.76-.11-8.82,4.65Z"/><path d="M406.83,343.2c17.53-13.08,35.03-26.21,52.49-39.38,4.49-9.78,10.91-18.29,18.05-26.62-25.56,19.38-51.21,38.64-76.91,57.82-5.35,4,1.01,12.18,6.37,8.19Z"/><path d="M605.03,131.46c-6.73,.04-12.71,.54-16.43,1.12-19.18,2.98-36.3,10.05-52.53,19.08,.6,.45,1.2,.91,1.8,1.36,4.15,3.14-.69,9.6-4.82,6.47-1.52-1.15-3.04-2.3-4.55-3.45-12.74,7.64-25.02,16.32-37.44,24.96-2.97,2.06-5.93,4.13-8.9,6.19,.61,.62,1.21,1.23,1.82,1.85,1.53,1.55,.87,4.46-.71,5.66-1.88,1.43-4.12,.86-5.66-.71-.71-.72-1.42-1.44-2.13-2.16-17.28,12.01-34.55,24.02-51.83,36.04,5.07-.21,7.71,7.74,2.14,9.99-7.69,3.11-15.76,4.64-24.04,5.24-11.97,8.33-23.95,16.65-35.92,24.98,3.89,1.34,7.72,2.88,11.51,4.62,38.67-26.89,77.35-53.78,116.02-80.68,34.7-24.13,68.41-48.46,111.94-50.86,9.1-.5,33-1.12,27.86,12.3-1.39,3.64-9.19,8.46-12.14,11.01-14.2,12.29-29,23.93-43.73,35.57-31.55,24.92-63.41,49.46-95.44,73.79,4.19-.71,8.7,4,5.23,7.99-.84,.97-1.66,1.93-2.45,2.89,28.77-21.85,57.42-43.86,85.86-66.12,22.04-17.25,53.73-35.41,70.43-58.35,14.24-19.57-3.71-26.44-23.03-28.23-1.32,1.7-2.67,3.38-4.06,5.02-4.11,4.88-11.9-.59-8.79-5.54Z"/><path d="M423.64,227.86c-7.3,5.08-14.6,10.15-21.9,15.23,8.29-.59,16.36-2.13,24.04-5.24,5.57-2.25,2.93-10.2-2.14-9.99Z"/><path d="M371.43,276.78c1.96-1.37,3.93-2.73,5.89-4.1-3.78-1.73-7.62-3.28-11.51-4.62-.25,.18-.5,.35-.76,.53-5.48,3.81,.9,11.99,6.37,8.19Z"/><path d="M481.84,273.8c-1.49,1.13-2.98,2.26-4.47,3.39-7.14,8.33-13.56,16.85-18.05,26.62,8.44-6.37,16.88-12.75,25.3-19.14,.8-.96,1.61-1.92,2.45-2.89,3.47-3.99-1.04-8.7-5.23-7.99Z"/><path d="M539.73,216.89c6.92-4.62-5.74-19.4-10.72-15.41-5,4.01,3.8,20.04,10.72,15.41Z"/><path d="M515.28,235.9c6.92-4.62-5.74-19.4-10.72-15.41-5,4.01,3.8,20.03,10.72,15.41Z"/><path d="M490.64,255.06c6.92-4.62-5.74-19.4-10.72-15.41-5,4.01,3.8,20.04,10.72,15.41Z"/><path d="M463.34,276.29c6.92-4.62-5.74-19.4-10.72-15.41-5,4.01,3.8,20.03,10.72,15.41Z"/><path d="M361.67,427.02c.26,.21,.51,.44,.75,.71,2.06,2.33,4.12,4.67,6.18,7,9.37-7.7,18.73-15.4,28.1-23.1-2.28-2.6-4.53-5.22-6.76-7.86-9.38,7.71-18.76,15.42-28.14,23.13-.05,.04-.09,.08-.13,.12Z"/><path d="M361.67,427.02s-.08,.07-.12,.11c2.06,1.92,2.79,5.36,.16,7.7,1.65,1.58,4.17,2.14,6.46,.26,.15-.12,.29-.24,.44-.36-2.06-2.33-4.12-4.67-6.18-7-.24-.27-.49-.5-.75-.71Z"/><path d="M361.55,427.13c-2.56,2.36-1.84,5.78,.16,7.7,2.62-2.33,1.89-5.78-.16-7.7Z"/><path d="M397.11,411.29c5.15-4.23-1.2-12.44-6.37-8.19-.27,.22-.54,.44-.81,.66,2.23,2.64,4.49,5.26,6.76,7.86,.14-.11,.27-.22,.41-.34Z"/><path d="M456.82,367.59c5.37-4.16,10.77-8.29,16.16-12.42-.11-.12-.21-.25-.32-.37-3.54-3.81,2.86-8.73,6.37-4.95,.12,.13,.23,.27,.35,.4,18.51-14.15,37.12-28.17,55.75-42.17-.69-3.29,2.85-6.89,5.89-4.43,34.54-25.95,69.12-51.84,103.28-78.28,5.28-4.09-1.08-12.28-6.37-8.19-58.96,45.63-119.15,89.64-178.23,135.11-.96,5.3-2.12,10.54-3.65,15.79,.26-.14,.51-.3,.77-.5Z"/><path d="M456.05,368.09c1.53-5.26,2.69-10.5,3.65-15.79-3.08,2.37-6.17,4.73-9.25,7.11-5.02,3.89,.5,11.49,5.6,8.69Z"/><path d="M668.7,250.53c-35.89,27.05-71.48,54.49-107,82.03,.63,1.49,1.23,3,1.78,4.54,1.74,4.87-5.7,7.98-7.46,3.08-.3-.84-.62-1.67-.94-2.49-18.4,14.27-36.78,28.55-55.18,42.81,1.09,2.26,2.14,4.55,3.1,6.89,1.97,4.8-5.48,7.89-7.46,3.08-.68-1.67-1.4-3.31-2.15-4.93-17.93,13.89-35.89,27.75-53.9,41.54,.66,1.02,1.32,2.04,1.98,3.07,2.8,4.33-3.55,9.31-6.37,4.95-.67-1.04-1.34-2.08-2.02-3.12-13.05,9.98-26.14,19.93-39.26,29.82-.27,.21-.51,.43-.73,.65,.92,1.04,1.83,2.08,2.75,3.12,1.63,1.84,1.54,3.86,.57,5.44,1.2,.19,2.51-.07,3.77-1.02,92.29-69.56,182.58-141.72,274.87-211.28,5.33-4.02-1.03-12.21-6.37-8.19Z"/><path d="M395.85,465.58c-.92-1.04-1.83-2.08-2.75-3.12-1.62,1.71-1.57,3.92-.6,5.68,1.26,.47,2.33,1.44,2.99,2.62,.3,.11,.62,.2,.94,.25,.97-1.57,1.06-3.59-.57-5.44Z"/><path d="M395.48,470.77c-.65-1.19-1.73-2.16-2.99-2.62,.65,1.18,1.73,2.15,2.99,2.62Z"/><path d="M472.54,188.84c-1.03-1.05-2.06-2.09-3.1-3.14-1.53-1.55-.87-4.46,.71-5.66,1.88-1.43,4.12-.86,5.66,.71,1.06,1.07,2.12,2.15,3.18,3.22,5.67-4.28,11.33-8.57,17-12.84,8.77-6.6,17.54-13.2,26.32-19.78-.79-.6-1.57-1.19-2.36-1.79-4.15-3.15,.69-9.6,4.82-6.47,1.42,1.08,2.85,2.16,4.27,3.24,7.64-5.69,15.29-11.36,22.98-16.98,24.1-17.57,45.11-30.81,74.74-33.35,.98-2.46,1.88-4.96,2.68-7.5,1.83,2.36,3.67,4.71,5.5,7.07-2.8,.05-5.52,.2-8.18,.43-5.05,12.68-12.43,24.32-21.27,34.79-.18,.22-.34,.44-.48,.66,4.12-.03,8.52,.12,12.86,.52,9.23-11.92,16.68-25.21,21.2-39.61,1.24-3.97-1.49-7.14-5.5-7.07-54.23,.99-94.01,40.12-135.39,71.21-34.03,25.56-67.95,51.27-101.81,77.05-.06,.05-.11,.1-.17,.14,7.82-.47,15.52-1.78,22.98-4.44,17.76-13.5,35.54-26.97,53.34-40.41Z"/><path d="M629.45,88.51c-.8,2.54-1.7,5.04-2.68,7.5,2.66-.23,5.37-.38,8.18-.43-1.83-2.36-3.67-4.71-5.5-7.07Z"/><path d="M402.76,241.74c5.48-4.17,10.96-8.32,16.44-12.49-7.46,2.67-15.16,3.97-22.98,4.44-4.99,4.09,1.28,12.04,6.54,8.04Z"/><path d="M605.03,131.46c-3.11,4.95,4.68,10.42,8.79,5.54,1.39-1.65,2.74-3.32,4.06-5.02-4.33-.4-8.73-.54-12.86-.52Z"/><path d="M273.78,337.02c.97,1,1.94,2.01,2.91,3.01l8.85-5.63c-.12-.16-.26-.31-.41-.47-.84-.87-1.68-1.74-2.53-2.61-1.42,1.27-2.83,2.55-4.23,3.85,.3-2.43,.61-4.85,.91-7.28,1.11,1.14,2.21,2.29,3.32,3.43,1.48-1.33,2.97-2.64,4.47-3.94-.35-.26-.73-.52-1.17-.78-2.43-1.43-2.59-5.2-1.06-7.26,1.81-2.42,4.85-2.48,7.26-1.06,1.1,.65,2.09,1.43,3,2.31,5.9-4.85,11.95-9.52,18.14-14.02,.17-.12,.33-.25,.48-.39,.32-.64,.69-1.25,1.09-1.84-1.72-2.33-3.44-4.66-5.18-6.98-.91,.05-1.85,.36-2.77,1.02-12.19,8.85-23.8,18.38-34.87,28.6-.29,.27-.55,.57-.8,.9,3.74,.5,5.65,6.14,2.57,9.14Z"/><path d="M278.38,335.16c1.4-1.29,2.81-2.58,4.23-3.85-1.11-1.14-2.21-2.29-3.32-3.43-.3,2.43-.61,4.85-.91,7.28Z"/><path d="M285.54,334.39l-8.85,5.63c.08,.09,.17,.18,.26,.26,4.44,4.59,12.3-1.17,8.6-5.9Z"/><path d="M315.17,303.84c.77-3.14-2.14-6.67-5.53-6.48,1.74,2.32,3.46,4.65,5.18,6.98,.11-.17,.23-.34,.35-.5Z"/><path d="M314.95,304.51c-.04-.06-.09-.12-.13-.17-.4,.59-.77,1.2-1.09,1.84,.57-.51,.97-1.08,1.22-1.67Z"/><path d="M315.17,303.84c-.12,.16-.23,.33-.35,.5,.04,.06,.09,.12,.13,.17,.09-.22,.16-.45,.22-.67Z"/><path d="M289.65,331.15c.06,.18,.13,.35,.2,.51,2.98-1.9,5.96-3.79,8.93-5.68-.85-2.03-2.1-3.86-3.67-5.39-2.71,2.22-5.38,4.49-8.03,6.79,1.26,.96,2,2.03,2.57,3.78Z"/><path d="M299.24,327.19c-.14-.41-.29-.82-.46-1.21-2.98,1.9-5.96,3.79-8.93,5.68,2.43,5.61,11.41,1.66,9.39-4.47Z"/><path d="M292.11,318.28c-2.41-1.42-5.45-1.36-7.26,1.06-1.54,2.06-1.37,5.83,1.06,7.26,.44,.26,.82,.51,1.17,.78,2.65-2.3,5.32-4.56,8.03-6.79-.9-.88-1.9-1.66-3-2.31Z"/><path d="M53.38,264.26c-3.41,2.79-1.79,7.31,1.19,8.84l.11-9.87c-.43,.34-.87,.68-1.3,1.03Z"/><path d="M59.75,272.45c32.33-26.44,79.51-12.35,90.27,28.64,1.67,6.39,11.97,5.08,10.28-1.37-.16-.62-.34-1.24-.52-1.85-.18,.11-.35,.22-.53,.34-5.46,3.82-11.84-4.36-6.37-8.19,1.08-.75,2.17-1.41,3.27-1.98-17.61-38.92-65.91-52.64-101.48-24.81l-.11,9.87c1.53,.79,3.42,.78,5.18-.65Z"/><path d="M182.88,310.42c-.08,5.35,6.64,7.25,9.26,4.25-3.31-.33-6.55-4.55-4.31-8.5,1.03-1.81,2.17-3.52,3.42-5.12-5.38-13.51-21.16-20.24-35.09-13.01,1.41,3.12,2.63,6.4,3.62,9.83,9.98-6.44,23.28,.18,23.1,12.55Z"/><path d="M159.25,298.22c.17-.12,.35-.23,.53-.34-.99-3.43-2.21-6.71-3.62-9.83-1.1,.57-2.2,1.23-3.27,1.98-5.47,3.83,.91,12.01,6.37,8.19Z"/><path d="M192.14,314.67c1.49,.15,2.99-.49,4.01-2.29,17.72-31.3,65.19-12.32,53.45,22.77-.42,1.26-.37,2.42,0,3.42,.46-.58,1.06-1.1,1.84-1.5,3.17-1.61,6.33-3.22,9.5-4.84,2.98-17.27-4.36-34.68-20.96-42.93-17.34-8.62-37.34-2.88-48.72,11.75,1.28,3.2,1.98,6.78,1.92,10.66-.02,1.27-.41,2.25-1.03,2.96Z"/><path d="M192.14,314.67c.62-.71,1.01-1.69,1.03-2.96,.06-3.87-.64-7.45-1.92-10.66-1.25,1.6-2.4,3.31-3.42,5.12-2.24,3.95,1,8.17,4.31,8.5Z"/><path d="M249.59,338.57c-3,3.84,.64,10.72,5.81,8.09,5.66-2.88,11.33-5.77,17-8.65,.55-.28,1.01-.61,1.39-.99-.89-.92-1.79-1.85-2.68-2.77-1.76-1.82-1.23-4.53,.11-6.37-.85-.11-1.79,.03-2.79,.54-2.5,1.27-5,2.54-7.5,3.82-.39,2.27-.95,4.53-1.7,6.77-1.7,5.09-8.2,3.59-9.64-.44Z"/><path d="M271.1,334.25c.89,.92,1.79,1.85,2.68,2.77,3.08-3.01,1.17-8.65-2.57-9.14-1.35,1.84-1.88,4.55-.11,6.37Z"/><path d="M249.59,338.57c1.44,4.03,7.94,5.52,9.64,.44,.75-2.24,1.31-4.5,1.7-6.77-3.17,1.61-6.33,3.22-9.5,4.84-.78,.4-1.39,.91-1.84,1.5Z"/><path d="M317.56,444.6c1.75-2.24,3.16-4.59,4.27-6.99-2.44-.79-5.07-1.23-7.78-1.26,1.17,2.75,2.34,5.5,3.51,8.25Z"/><path d="M317.96,421.4c2.03-1.41,4.07-2.83,6.1-4.24-2.1-9.08-8.33-17.09-17.98-21.43-3.09,2.46-6.16,4.95-9.25,7.42,.41,.28,.89,.52,1.45,.7,15.78,5,21.29,21.28,10.96,34.54-2.21,2.84-.46,8.2,3.51,8.25,6.15-.98,9.94,2.55,11.37,10.58-.64,1.02-.89,2.05-.86,3.04,4.08-2.06,8.15-4.12,12.23-6.17,.17-7.7-5.73-13.92-13.67-16.47-1.11,2.4-2.52,4.74-4.27,6.99-1.17-2.75-2.34-5.5-3.51-8.25,2.71,.03,5.34,.48,7.78,1.26,1.68-3.63,2.64-7.39,2.92-11.12-.61,.43-1.23,.85-1.84,1.28-4.25,2.96-9.22-3.4-4.95-6.37Z"/><path d="M302.14,394.22c-5.77-1.83-9.53,6-5.31,8.93,3.09-2.48,6.16-4.97,9.25-7.42-1.26-.57-2.57-1.07-3.95-1.51Z"/><path d="M332.44,463.43c2.06-3.25,3-6.4,3.06-9.34-4.08,2.06-8.15,4.12-12.23,6.17,.16,4.44,6.24,7.8,9.17,3.17Z"/><path d="M536.42,310.31c8.37,7.71,14.51,16.89,18.66,27.38,2.21-1.71,4.41-3.42,6.62-5.13-4.68-11-11.55-20.52-20.45-28.72-.08-.07-.15-.13-.23-.19-1.96,1.48-3.93,2.95-5.89,4.43,.17,.79,.57,1.56,1.3,2.23Z"/><path d="M535.12,308.08c1.96-1.48,3.93-2.95,5.89-4.43-3.04-2.46-6.58,1.14-5.89,4.43Z"/><path d="M556.02,340.18c1.75,4.9,9.2,1.79,7.46-3.08-.55-1.54-1.15-3.05-1.78-4.54-2.21,1.71-4.41,3.42-6.62,5.13,.32,.82,.64,1.65,.94,2.49Z"/><path d="M472.98,355.17c8.42,9.14,15.21,19.2,20.4,30.38,2.17-1.68,4.34-3.36,6.51-5.04-5.32-11.06-12.12-21.14-20.51-30.25-2.14,1.63-4.26,3.28-6.4,4.92Z"/><path d="M479.03,349.85c-3.51-3.77-9.91,1.14-6.37,4.95,.11,.12,.21,.25,.32,.37,2.13-1.64,4.26-3.28,6.4-4.92-.12-.13-.23-.27-.35-.4Z"/><path d="M495.53,390.48c1.98,4.81,9.43,1.72,7.46-3.08-.96-2.34-2.01-4.63-3.1-6.89-2.17,1.68-4.34,3.36-6.51,5.04,.75,1.62,1.47,3.26,2.15,4.93Z"/><path d="M427.12,422.78c1.99,3.07,3.97,6.14,5.96,9.22,2.13-1.63,4.27-3.27,6.4-4.9-2.18-3.37-4.35-6.73-6.53-10.1-1.8,2.07-3.73,4-5.83,5.78Z"/><path d="M432.95,417l-.91-1.4c-2.82-4.36-9.17,.62-6.37,4.95,.48,.74,.96,1.49,1.44,2.23,2.1-1.78,4.03-3.72,5.83-5.78Z"/><path d="M435.1,435.11c2.82,4.36,9.17-.62,6.37-4.95-.66-1.02-1.32-2.05-1.98-3.07-2.13,1.63-4.27,3.27-6.4,4.9,.67,1.04,1.34,2.08,2.02,3.12Z"/><path d="M536.07,151.65c-2.34-1.77-4.68-3.55-7.02-5.32-2.24,1.67-4.49,3.34-6.73,5.02,2.06,1.56,4.12,3.12,6.17,4.68,2.51-1.5,5.03-2.96,7.58-4.38Z"/><path d="M533.04,159.48c4.13,3.13,8.97-3.32,4.82-6.47-.6-.45-1.2-.91-1.8-1.36-2.55,1.42-5.07,2.88-7.58,4.38,1.52,1.15,3.04,2.3,4.55,3.45Z"/><path d="M524.78,143.09c-4.13-3.13-8.97,3.32-4.82,6.47,.79,.6,1.57,1.19,2.36,1.79,2.24-1.68,4.49-3.35,6.73-5.02-1.42-1.08-2.85-2.16-4.27-3.24Z"/><path d="M482.15,187.18c-1.05-1.07-2.1-2.14-3.16-3.2-2.15,1.62-4.3,3.25-6.45,4.87,.98,.99,1.95,1.98,2.93,2.98,2.22-1.55,4.45-3.09,6.67-4.64Z"/><path d="M477.6,193.98c1.54,1.56,3.78,2.14,5.66,.71,1.58-1.2,2.24-4.11,.71-5.66-.61-.62-1.21-1.23-1.82-1.85-2.22,1.55-4.45,3.09-6.67,4.64,.71,.72,1.42,1.44,2.13,2.16Z"/><path d="M475.81,180.75c-1.54-1.56-3.78-2.14-5.66-.71-1.58,1.2-2.24,4.11-.71,5.66,1.03,1.05,2.06,2.09,3.1,3.14,2.15-1.62,4.3-3.25,6.45-4.87-1.06-1.07-2.12-2.15-3.18-3.22Z"/><path d="M464.94,326.42c35.42-26.42,70.84-52.85,106.26-79.27,4.16-3.11-.79-9.47-4.95-6.37-33.12,24.71-66.24,49.42-99.36,74.13-1.3,3.82-2.37,7.84-3.23,12.16,.43-.13,.87-.33,1.29-.65Z"/><path d="M463.65,327.07c.85-4.32,1.92-8.34,3.23-12.16-2.3,1.71-4.59,3.43-6.89,5.14-3.74,2.79-.13,8.18,3.66,7.02Z"/><path d="M262.28,530.71c31.9-19.7,63.8-39.4,95.7-59.1l-4.94-6.38c-31.9,19.7-63.81,39.41-95.71,59.11-4.41,2.72,.57,9.07,4.95,6.37Z"/><path d="M358.65,471.19c4.41-2.72-.57-9.07-4.95-6.37-.22,.14-.44,.27-.66,.41l4.94,6.38,.67-.41Z"/><path d="M215.18,563.76c6.28-3.66,12.55-7.33,18.83-10.99,4.47-2.61-.53-8.95-4.95-6.37-6.28,3.66-12.55,7.33-18.83,10.99-4.47,2.61,.53,8.95,4.95,6.37Z"/><path d="M303.88,527.64c5.31-4.13,10.61-8.25,15.92-12.38,4.1-3.19-.85-9.56-4.95-6.37-5.31,4.13-10.61,8.25-15.92,12.38-4.1,3.19,.85,9.56,4.95,6.37Z"/><path d="M219.83,600.26c21.98-18.69,43.95-37.37,65.93-56.06,3.94-3.35-.99-9.74-4.95-6.37-21.98,18.69-43.95,37.37-65.93,56.06-3.94,3.35,.99,9.74,4.95,6.37Z"/><path d="M303.04,366.94c-3.99,3.31,.95,9.69,4.95,6.37,9.02-7.47,18.03-14.94,27.05-22.41-1.73-2.05-3.45-4.12-5.16-6.19-8.94,7.41-17.89,14.82-26.83,22.24Z"/><path d="M330.79,343.95c-.31,.25-.61,.51-.92,.76,1.71,2.08,3.43,4.14,5.16,6.19l.71-.59c3.99-3.31-.95-9.69-4.95-6.37Z"/><path d="M275.09,396.73l11.37-8.84c4.1-3.19-.85-9.56-4.95-6.37l-11.37,8.84c-4.1,3.19,.85,9.56,4.95,6.37Z"/><path d="M236.16,391.27c-4.45,2.65,.54,8.99,4.95,6.37,29.44-17.53,57.13-37.32,83.26-59.48-1.74-2.02-3.49-4.08-5.13-6.22-26.08,22.11-53.71,41.84-83.08,59.33Z"/><path d="M319.46,331.76c-.07,.06-.14,.11-.21,.17,1.64,2.14,3.4,4.2,5.13,6.22l.03-.02c3.95-3.35-.98-9.74-4.95-6.37Z"/><path d="M216.59,413.02c2.65-2.06,5.31-4.13,7.96-6.19,4.1-3.19-.85-9.56-4.95-6.37-2.65,2.06-5.31,4.13-7.96,6.19-4.1,3.19,.85,9.56,4.95,6.37Z"/><path d="M324.06,417.16c.7,3.02,.94,6.17,.69,9.33,17.56-12.21,35.11-24.43,52.67-36.64,.27-.19,.51-.39,.71-.61-1.6-2.06-3.17-4.15-4.73-6.25-.31,.12-.62,.27-.93,.49-16.14,11.23-32.28,22.45-48.41,33.68Z"/><path d="M373.4,382.99c1.56,2.1,3.13,4.19,4.73,6.25,2.7-2.89-1.01-7.7-4.73-6.25Z"/><path d="M324.06,417.16c-2.03,1.41-4.07,2.83-6.1,4.24-4.27,2.97,.7,9.33,4.95,6.37,.61-.43,1.23-.85,1.84-1.28,.24-3.16,0-6.31-.69-9.33Z"/></g></g></svg>