<svg width="334" height="132" viewBox="0 0 334 132" fill="none" xmlns="http://www.w3.org/2000/svg">
<path fill-rule="evenodd" clip-rule="evenodd" d="M0.660156 0.9375V3.44117V15.4579H15.2383V49.5555C18.6367 53.0828 22.2774 56.3512 25.9141 59.34H32.6406V15.4579H47.375V0.9375H1.65236H0.660156ZM25.9141 59.3441H15.2383V49.5596C18.6367 53.087 22.2813 56.3553 25.9141 59.3441ZM30.7266 82.4115H58.1406H58.1445H59.6172V70.2509H40.3672H30.7266C14.8906 70.2509 2.04688 83.6654 1.85547 100.283L1.86327 100.287C1.86305 100.347 1.85828 100.407 1.85352 100.468C1.84863 100.529 1.84375 100.591 1.84375 100.652L1.83984 100.657C1.83984 117.372 14.6563 130.931 30.5078 131.054L30.6875 131.058H30.7305H48.0664V118.898H30.707C23.1445 118.885 16.7188 113.738 14.3672 106.61L14.358 106.605C13.7417 104.736 13.3906 102.739 13.3906 100.652C13.3906 90.5967 21.168 82.4115 30.7266 82.4115ZM123.176 100.936V106.737H117.398V125.311C113.418 125.093 109.574 124.863 105.84 124.624V106.737H89.1992C79.6172 106.737 71.7773 98.819 71.2266 88.8742C71.2218 88.7996 71.2168 88.7252 71.2118 88.6509L71.2117 88.6494C71.1917 88.3554 71.1719 88.0624 71.1719 87.7642V70.2509H82.7266V87.7642C82.7266 91.5217 85.6289 94.5763 89.1992 94.5763H105.84V70.2549H117.398V94.5763H123.176V100.936ZM59.6172 131.058V124.978C59.6172 123.161 59.3555 121.405 58.8828 119.749C56.7422 112.229 50.1172 106.733 42.2851 106.733H36.5078V94.5722H42.2812C57.1289 94.5722 69.3476 106.367 70.9727 121.533C71.0977 122.663 71.1719 123.81 71.1719 124.978V131.058H59.6172ZM105.84 131.062H117.398V125.315C113.418 125.097 109.574 124.867 105.84 124.628V131.062ZM128.953 131.062H140.508V126.466L140.512 126.466V106.737H157.844V103.674L157.84 103.674V94.5722H140.508V89.2236C140.508 85.466 143.41 82.4115 146.98 82.4115H180.953V80.8082L180.953 70.2509H146.98C143.062 70.2509 139.441 71.5869 136.48 73.8316C131.93 77.2767 128.953 82.8843 128.953 89.2236V101.532L128.957 101.533V125.915L128.953 125.915V131.062ZM133.186 101.929C139.817 102.499 146.791 102.995 154.149 103.451C146.791 102.996 139.814 102.502 133.186 101.929ZM223.75 107.822V106.947C229.289 107.218 235.004 107.51 240.906 107.822H223.75ZM295.988 87.2338L295.996 87.2362C295.979 87.2673 295.961 87.2976 295.944 87.3278L295.944 87.3286L295.941 87.3325L295.936 87.3416C295.919 87.3713 295.902 87.4011 295.885 87.4316L295.883 87.4314L295.883 87.4312H295.879L295.882 87.4314L295.883 87.4314C295.839 87.5066 295.798 87.5812 295.757 87.6556L295.757 87.6562C295.688 87.781 295.62 87.9054 295.539 88.0314C294.297 89.939 292.777 91.7643 290.98 93.5074C289.184 95.2505 286.723 97.4746 283.605 100.188C283.699 100.122 283.207 100.537 282.125 101.442V107.822H306.086V100.842H293.199C296.793 97.9268 299.754 94.9381 302.078 91.8753C302.718 91.0296 303.264 90.1633 303.725 89.2766L303.727 89.2771C303.938 88.8742 304.133 88.4672 304.305 88.0561L304.297 88.0555C305.129 86.0988 305.555 84.0516 305.555 81.9058C305.555 78.6252 304.59 75.9612 302.668 73.918H302.672C300.746 71.8747 297.891 70.8552 294.102 70.8552C291.906 70.8552 289.91 71.3074 288.109 72.2118C286.312 73.1163 284.863 74.5223 283.766 76.4298C282.809 78.0948 282.266 80.1422 282.098 82.5225L282.101 82.524C282.097 82.5893 282.092 82.6542 282.086 82.7189C282.082 82.7722 282.077 82.8253 282.072 82.8785L282.072 82.882L282.072 82.8836C282.052 83.104 282.032 83.3253 282.027 83.5585H284.88L284.902 83.5667H289.898C289.898 81.8236 290.238 80.4793 290.926 79.5214C291.609 78.5676 292.555 78.0907 293.766 78.0907C294.977 78.0907 295.879 78.4772 296.484 79.2459C297.09 80.0147 297.391 81.0877 297.391 82.4608C297.391 84.0148 296.902 85.6058 295.988 87.2338ZM329.586 90.4098L330.281 90.4899C329.984 90.9585 329.676 91.419 329.328 91.8753C328.895 92.4509 328.418 93.0182 327.938 93.5855L327.931 93.5847C325.849 96.0543 323.37 98.4747 320.449 100.842H333.336V107.822H309.375V101.442C310.457 100.537 310.949 100.122 310.855 100.188C313.973 97.4746 316.434 95.2505 318.23 93.5074H318.227C318.609 93.1374 318.973 92.7592 319.332 92.381L319.339 92.382C320.201 91.4662 320.997 90.5299 321.711 89.5731C321.982 89.5995 322.255 89.6237 322.529 89.6478C322.893 89.68 323.258 89.7123 323.617 89.7499C325.618 89.9523 327.603 90.1812 329.586 90.4098ZM72.2344 26.1797H69.4766V21.489C66.25 15.2565 64.4102 8.38272 65.2422 0.9375H52.0781V59.34H69.4766V38.3856H69.5547L79.9805 59.34H99.1055L93.9925 49.8686L93.9961 49.8721L87.0391 36.9878C90.9062 35.6682 93.8711 33.4975 95.9375 30.4717H95.9336C97.9961 27.4501 99.0312 23.9844 99.0312 20.0788C99.0312 16.4487 98.2344 13.1927 96.6406 10.3026C95.0469 7.41661 92.6563 5.13494 89.4688 3.4535C86.2813 1.77617 82.4414 0.9375 77.9453 0.9375H65.2461C64.4141 8.38272 66.2539 15.2565 69.4805 21.489V16.2802H76.3789C77.9961 16.2802 79.2383 16.7201 80.1016 17.5998C80.9648 18.4796 81.3945 19.6924 81.3945 21.2299C81.3945 22.9361 80.9766 24.1858 80.1406 24.9834C79.3047 25.781 78.0508 26.1797 76.3789 26.1797H72.2383C77.6197 34.4252 85.0086 41.3845 90.8312 46.8685L90.814 46.8524C84.9926 41.3711 77.6085 34.4184 72.2344 26.1756V26.1797ZM104.545 59.3441H100.676L101.502 56.9653L101.5 56.9637L120.973 0.94162H131.176C132.797 10.0178 138.015 17.8224 142.285 24.2096L142.285 24.2097L142.285 24.2103L142.286 24.2114C143.52 26.0573 144.675 27.7849 145.641 29.3905C147.805 32.9877 150.734 36.1862 154.234 39.0598L161.258 59.3441H142.918L140.176 50.5175H121.68L121.676 50.5216L118.934 59.3482H104.551L104.545 59.3441ZM247.711 100.842H234.824C238.418 97.9268 241.379 94.9381 243.703 91.8753C245.422 89.606 246.5 87.1968 246.949 84.6438L246.941 84.6434C247.098 83.7474 247.18 82.8348 247.18 81.9017C247.18 78.621 246.215 75.957 244.293 73.9138L244.301 73.918C242.375 71.8747 239.52 70.8552 235.73 70.8552C233.535 70.8552 231.539 71.3074 229.738 72.2118C227.941 73.1163 226.492 74.5223 225.395 76.4298C224.309 78.3209 223.727 80.6766 223.656 83.4886L223.66 83.4886C223.66 83.5012 223.659 83.5137 223.658 83.5262C223.657 83.5385 223.656 83.5507 223.656 83.5629H225.105L225.102 83.5626H231.527C231.527 81.8195 231.867 80.4752 232.555 79.5173C233.238 78.5635 234.184 78.0866 235.395 78.0866C236.605 78.0866 237.508 78.4731 238.113 79.2418C238.719 80.0106 239.02 81.0836 239.02 82.4567C239.02 83.0446 238.93 83.6407 238.797 84.2409L238.805 84.2413C238.531 85.4828 238.004 86.7448 237.168 88.0314C235.926 89.939 234.406 91.7643 232.609 93.5074C230.812 95.2505 228.352 97.4746 225.234 100.188C225.328 100.122 224.836 100.537 223.754 101.442V106.947C229.293 107.218 235.008 107.51 240.91 107.822H247.715V100.842H247.711ZM269.91 85.832C270.023 86.9379 270.094 88.1342 270.094 89.4909C270.094 91.7684 269.969 93.6513 269.711 95.1436C269.457 96.636 268.941 97.8405 268.16 98.7614C267.379 99.6823 266.227 100.143 264.699 100.143C263.172 100.143 262.02 99.6823 261.238 98.7614C260.457 97.8405 259.941 96.636 259.688 95.1436C259.434 93.6554 259.309 91.7725 259.309 89.4909C259.309 87.9163 259.391 86.5226 259.543 85.2852C256.844 85.1454 254.184 85.0097 251.555 84.8782C251.383 86.3212 251.289 87.8505 251.289 89.4909C251.289 95.3163 252.348 99.8878 254.461 103.206C256.578 106.519 259.988 108.18 264.699 108.18C269.41 108.18 272.82 106.523 274.937 103.206C277.051 99.8878 278.109 95.3163 278.109 89.4909C278.109 88.3726 278.059 87.312 277.977 86.2842C277.897 86.2804 277.82 86.2757 277.743 86.2706L277.677 86.2661L277.547 86.2567L277.506 86.2538L277.473 86.2513C274.919 86.1075 272.401 85.9676 269.91 85.832ZM322.836 70.9497L322.873 70.961C324.837 71.1232 326.53 71.5862 327.915 72.3817L327.941 72.3886C328.676 72.8162 329.355 73.3054 329.926 73.9097C331.848 75.953 332.812 78.617 332.812 81.8976C332.812 84.9481 331.961 87.8094 330.277 90.4816C328.062 90.2226 325.848 89.9677 323.613 89.7416C323.297 89.7108 322.979 89.682 322.66 89.6532L322.38 89.6279C322.255 89.6165 322.13 89.605 322.005 89.5933C321.905 89.584 321.806 89.5745 321.707 89.5648C322.09 89.0592 322.449 88.5453 322.789 88.0273C324.027 86.1198 324.648 84.2615 324.648 82.4526C324.648 81.0795 324.348 80.0065 323.742 79.2377C323.137 78.469 322.234 78.0825 321.023 78.0825C319.813 78.0825 318.867 78.5594 318.184 79.5132C317.496 80.4711 317.156 81.8154 317.156 83.5585H309.281C309.344 80.7136 309.926 78.3333 311.023 76.4257C312.121 74.5182 313.57 73.1122 315.367 72.2077C317.168 71.3033 319.164 70.8511 321.359 70.8511V70.8429C321.74 70.8429 322.089 70.8775 322.439 70.9123C322.57 70.9254 322.702 70.9385 322.836 70.9497ZM274.941 75.8748C272.824 72.5613 269.41 70.9004 264.703 70.9004C262.902 70.9004 261.293 71.1471 259.871 71.6322C257.574 72.4174 255.77 73.8275 254.465 75.8749C252.953 78.247 251.988 81.2522 251.559 84.8741C254.184 85.0056 256.844 85.1413 259.547 85.2811C259.723 83.8627 259.988 82.65 260.359 81.6756C261.059 79.8503 262.508 78.9376 264.703 78.9376C266.898 78.9376 268.344 79.8503 269.047 81.6756C269.465 82.7692 269.746 84.1752 269.914 85.8278C272.406 85.9635 274.926 86.1033 277.48 86.2472C277.648 86.2554 277.815 86.2677 277.983 86.2799L277.984 86.2801C277.812 84.0971 277.469 82.1155 276.937 80.3518C276.434 78.6745 275.773 77.174 274.941 75.8748ZM135.949 36.7412L130.93 20.49L125.914 36.7412H135.949ZM165.184 59.3441H182.582V52.6224V2.77517V0.9375H180.52H165.184V46.0323V46.0364V59.3441ZM207.816 59.3441H190.418V54.6081C195.953 55.8496 201.777 56.8651 207.816 57.6544V59.3441ZM332.051 47.7178V47.7119L332.055 47.7137L332.051 47.7178ZM331.108 47.2798C331.424 47.4236 331.74 47.5676 332.051 47.7178L332.051 47.722V59.3482H295.082L295.075 59.344H295.059V59.3342L295.055 59.3317V39.9766C300.75 40.3137 306.562 40.6303 312.453 40.951V44.7455H326.191L326.571 44.951C327.667 45.5448 328.763 46.1389 329.891 46.7065C330.288 46.9063 330.698 47.0929 331.108 47.2798ZM332.051 44.7414V47.7119C331.763 47.5747 331.471 47.4415 331.18 47.3083C330.747 47.1108 330.314 46.9132 329.895 46.7024C328.637 46.0693 327.414 45.4074 326.195 44.7414H332.051ZM254.352 36.6014C257.777 37.0125 261.246 37.3825 264.75 37.7196L264.745 37.715C261.243 37.3739 257.776 37.0082 254.352 36.5973V36.6014ZM251.477 36.2437V59.3441H288.469H288.473V55.4961C283.078 52.1537 278.004 48.5483 273.18 44.7455H268.875L268.875 41.2511V38.0814L268.875 36.4945H286.117V22.7182H268.875V15.5402H288.176C287.589 14.9716 287.007 14.3979 286.426 13.8251L285.977 13.3818L285.981 13.3828L286.43 13.8252C287.011 14.3979 287.593 14.9716 288.18 15.5402H288.473V13.8423V0.94162H273.676L273.672 0.9375H273.668H253.383C261.4 6.897 273.579 10.9705 285.97 13.3758C285.972 13.3778 285.974 13.3798 285.977 13.3818C273.586 10.9768 261.398 6.89862 253.379 0.94162H251.477V25.2794V25.2835V36.2437ZM273.18 44.7414C278.004 48.5442 283.078 52.1496 288.473 55.492V44.7414H273.18ZM243.637 59.3441H241.855V59.3482L241.845 59.3399H226.234L207.816 29.9743V57.6503C201.777 56.8609 195.953 55.8455 190.418 54.604V10.1916V10.1834V0.94162H193.633C193.992 2.84095 194.422 4.69506 194.875 6.49984C198.746 21.9042 219.809 30.8541 243.637 35.0433V59.3441ZM154.238 39.0598L141.039 0.9375H131.176C132.8 10.0173 138.016 17.8204 142.286 24.2068C143.52 26.0528 144.674 27.7805 145.641 29.3864C147.809 32.9877 150.734 36.1862 154.234 39.0557L154.238 39.0598ZM312.961 36.4945H329.699V22.7182H312.457V16.753C306.621 16.2226 300.812 15.6101 295.059 14.8536V22.0111V39.9766C300.754 40.3137 306.566 40.6303 312.457 40.951V40.9468V36.4945H312.961ZM243.637 17.3944V17.3984C242.04 15.7695 240.451 14.138 238.862 12.5082C235.588 9.14829 232.321 5.79548 229.02 2.4874C228.654 2.11975 228.288 1.76592 227.921 1.41085L227.92 1.40944C227.758 1.2528 227.596 1.09592 227.434 0.9375H226.234V30.8006L207.816 0.9375H193.633C193.992 2.84095 194.422 4.69506 194.875 6.49573C198.746 21.9001 219.805 30.85 243.637 35.0392L243.637 17.3984H243.641L243.637 17.3944ZM243.637 17.3944V0.9375H227.438C227.645 1.14086 227.852 1.34168 228.059 1.54271L228.066 1.54953C228.384 1.8583 228.703 2.16762 229.023 2.4874C232.249 5.72004 235.441 8.9954 238.641 12.2783L238.641 12.2791L238.645 12.2829L238.66 12.2983C240.315 13.9966 241.972 15.697 243.637 17.3944ZM332.051 0.9375H319.902H295.055V14.8495C300.812 15.6059 306.617 16.2185 312.453 16.7488V15.5402H312.457H332.051L332.051 12.3047V0.9375Z" fill="#EC2182"/>
</svg>
