<svg width="73" height="81" viewBox="0 0 73 81" fill="none" xmlns="http://www.w3.org/2000/svg">
<g clip-path="url(#clip0_453_1117)">
<path d="M41.1951 74.1784C37.5757 71.5191 33.9464 68.8498 30.3421 66.1503C28.6883 64.9136 27.0395 63.667 25.3957 62.4152C22.2639 60.0224 19.1624 57.5943 16.1111 55.116C16.096 55.101 16.0759 55.101 16.0608 55.101C16.0608 55.101 16.0558 55.101 16.0508 55.101C16.0055 55.101 15.9653 55.1462 15.9753 55.1914C15.9753 55.2065 15.9854 55.2216 16.0005 55.2367C16.9053 56.0712 17.8252 56.9006 18.7602 57.725C22.7314 61.2289 26.954 64.607 31.2972 67.7489C32.373 68.523 33.4537 69.2871 34.5395 70.0362C36.0275 71.0566 37.5255 72.0369 39.0285 72.9971C39.7222 73.4394 40.421 73.8919 41.1197 74.3192C41.1599 74.3443 41.2001 74.3292 41.2202 74.294C41.2303 74.2789 41.2353 74.2588 41.2303 74.2387C41.2252 74.2186 41.2152 74.1985 41.1951 74.1885V74.1784Z" fill="#70CDDD"/>
<path d="M62.5894 70.2522C62.5391 69.9908 62.4738 69.7344 62.3883 69.4881C61.8203 67.7337 60.5535 66.2256 58.8997 65.2252C58.3769 64.9085 57.8189 64.6371 57.2308 64.431C55.0793 63.6769 52.219 64.0389 50.0524 65.3057C49.9016 65.3961 49.7508 65.4917 49.605 65.5872C49.4341 65.7028 49.2732 65.8234 49.1124 65.9491C48.7052 66.2759 48.3382 66.6428 48.0266 67.05C47.921 67.1858 47.8255 67.3265 47.73 67.4673C47.6546 67.5829 47.5792 67.6935 47.5138 67.8141C47.3831 67.975 47.2625 68.1409 47.1519 68.3068C47.0112 68.5129 46.8805 68.724 46.7699 68.9402C46.4984 69.458 46.3024 70.0009 46.1717 70.5538C46.1063 70.8404 46.0561 71.1319 46.0259 71.4235C46.0008 71.6899 45.9857 71.9564 45.9857 72.2278V72.2379C45.9907 73.5097 46.3175 74.7916 46.8805 75.9679C47.0463 76.3098 47.2323 76.6415 47.4334 76.9683C47.5591 77.1694 47.6948 77.3654 47.8305 77.5564C47.9663 77.7424 48.102 77.9184 48.2478 78.0943C48.2679 78.1195 48.293 78.1496 48.3131 78.1748C48.8761 78.8283 49.5196 79.4064 50.2233 79.8739C55.1798 83.1716 60.453 78.6523 62.2224 74.0727C62.3179 73.8314 62.3933 73.5902 62.4587 73.3489C62.4989 73.2031 62.524 73.0573 62.5542 72.9115C62.6346 72.5194 62.6899 72.1273 62.705 71.7452C62.7151 71.4939 62.705 71.2425 62.6849 70.9912C62.6648 70.7449 62.6296 70.4985 62.5844 70.2572L62.5894 70.2522Z" fill="#70CDDD"/>
<path d="M20.7308 54.7641C21.8618 55.6841 22.9928 56.604 24.1239 57.529C24.2998 57.6748 24.4858 57.7703 24.6718 57.8356C24.7321 57.8557 24.7975 57.8708 24.8578 57.8859C25.4409 58.0065 26.024 57.7803 26.4262 57.3932C26.7228 57.1067 26.9188 56.7347 26.9289 56.3476C28.4771 53.8894 30.3823 51.6424 32.5539 49.6818C34.7255 47.7213 37.1585 46.0473 39.7574 44.7302C40.5014 44.3532 41.2554 44.0063 42.0245 43.6896C44.3268 42.7395 46.7296 42.0609 49.1727 41.704C53.2444 41.1108 57.4218 41.4024 61.4282 42.7798C62.0616 43.1367 62.8809 43.1216 63.3434 42.5787C63.4188 42.4882 63.4892 42.3826 63.5395 42.267C63.5947 42.1464 63.635 42.0106 63.6601 41.8598C64.2432 38.5973 64.8314 35.3398 65.4446 32.0873C65.4597 32.017 65.4647 31.9516 65.4698 31.8863C65.4848 31.8209 65.4949 31.7556 65.4999 31.6902C65.4999 31.6802 65.4999 31.6651 65.505 31.655C65.52 31.469 65.4999 31.278 65.4446 31.102C65.3441 30.7803 65.1129 30.4888 64.7208 30.3028C63.2027 29.5889 61.6041 29.0259 59.9453 28.6036C59.3923 28.4629 58.8343 28.3372 58.2663 28.2316C57.643 28.111 57.0146 28.0155 56.3812 27.93C56.0243 27.8848 55.6624 27.8446 55.3004 27.8043C44.4173 26.7487 32.011 30.8959 23.576 38.3007C23.2944 38.547 23.018 38.7984 22.7465 39.0497C22.3092 39.4569 21.8819 39.8742 21.4697 40.3014C20.9821 40.8041 20.5246 41.3169 20.0722 41.8447C19.4791 42.5435 18.9161 43.2573 18.3933 43.9963C17.9811 44.5694 17.604 45.1626 17.2371 45.7557C16.6238 46.7611 16.0658 47.7967 15.5933 48.8624C15.538 48.9328 15.4877 49.0032 15.4425 49.0786C15.3771 49.1892 15.3369 49.3048 15.3017 49.4255C15.2867 49.4757 15.2716 49.531 15.2666 49.5813C15.2113 49.9784 15.352 50.4007 15.7793 50.7526C15.7843 50.7576 15.7894 50.7626 15.7994 50.7677C16.2518 51.1296 16.7042 51.4966 17.1567 51.8585C18.353 52.8187 19.5444 53.7839 20.7358 54.7541L20.7308 54.7641Z" fill="#70CDDD"/>
<path d="M63.4641 47.5905C63.4037 47.5503 63.3434 47.5151 63.2831 47.4799C63.1524 47.4096 63.0167 47.3492 62.8759 47.309C62.8156 47.2738 62.7553 47.2437 62.7 47.2135C62.3129 46.9873 61.9158 46.7862 61.5086 46.6002C61.0612 46.3941 60.6038 46.2131 60.1313 46.0573C59.8648 45.9668 59.5934 45.8864 59.3219 45.811C57.6781 45.3636 55.9338 45.1725 54.1342 45.2178C53.2897 45.2379 52.4301 45.3183 51.5705 45.439C50.4696 45.5948 49.3587 45.821 48.2528 46.1176C40.5165 48.1988 32.9913 53.5928 29.8997 59.3587C29.6484 59.5648 29.4473 59.8313 29.3468 60.1228C29.3116 60.2183 29.2915 60.3189 29.2764 60.4194C29.2714 60.4898 29.2664 60.5602 29.2764 60.6306C29.2915 60.8367 29.3619 61.0428 29.4926 61.2388C29.578 61.3645 29.6735 61.4902 29.8143 61.6058C32.1819 63.5663 34.5446 65.5369 36.9022 67.5175C37.2591 67.8192 37.6512 67.9348 38.0282 67.9147C38.1036 67.9147 38.179 67.9046 38.2493 67.8895C38.4705 67.8493 38.6817 67.7639 38.8677 67.6482C39.2447 67.417 39.5362 67.0551 39.6518 66.6529C39.6719 66.5875 39.687 66.5172 39.6921 66.4518C39.8378 66.2507 39.9836 66.0547 40.1344 65.8637C40.436 65.4766 40.7527 65.1046 41.0845 64.7477C41.4163 64.3908 41.7531 64.0439 42.11 63.7121C46.8855 59.2431 53.7924 57.358 60.1564 59.2934C60.4731 59.5447 60.8702 59.6855 61.2522 59.7006C61.2522 59.7006 61.2573 59.7006 61.2623 59.7006C61.3679 59.7006 61.4734 59.6955 61.579 59.6754C62.0817 59.5849 62.514 59.228 62.6246 58.5393C63.1323 55.4477 63.645 52.3561 64.1728 49.2645C64.193 49.1388 64.203 49.0132 64.198 48.8975C64.1779 48.3295 63.8763 47.8821 63.4641 47.5956V47.5905Z" fill="#70CDDD"/>
<path d="M25.5415 31.1975C25.7878 31.0065 26.0391 30.8205 26.2854 30.6345C26.7881 30.2625 27.2908 29.9056 27.8035 29.5587C28.3163 29.2119 28.834 28.8801 29.3568 28.5533C29.7339 28.3221 30.1109 28.1009 30.4879 27.8847C30.7342 27.744 30.9805 27.6083 31.2268 27.4725C31.5787 27.2815 31.9306 27.0955 32.2875 26.9145C32.6494 26.7285 33.0164 26.5476 33.3834 26.3766C34.4842 25.8589 35.6052 25.4014 36.7413 24.9942C37.3093 24.7931 37.8824 24.6021 38.4605 24.4312C39.3251 24.1698 40.1998 23.9436 41.0845 23.7475C41.9692 23.5565 42.859 23.3956 43.7588 23.27C44.357 23.1895 44.9602 23.1191 45.5634 23.0689C46.4733 22.9935 47.3831 22.9533 48.3031 22.9533C49.8363 22.9533 51.3845 23.0588 52.9429 23.275C53.2545 23.3202 53.5662 23.3655 53.8778 23.4208C57.3162 23.9989 60.8049 25.1249 64.2935 26.8743C64.9068 27.181 65.4949 27.1056 65.9524 26.824C66.0629 26.7738 66.1685 26.7034 66.259 26.6179C66.2942 26.5878 66.3143 26.5425 66.3444 26.5073C66.3997 26.447 66.455 26.3867 66.5003 26.3113C66.6259 26.1404 66.7164 25.9493 66.7768 25.7483C66.8572 25.4919 66.8823 25.2255 66.827 24.9691C67.2543 22.6014 67.7369 20.2387 68.2446 17.886C68.4155 17.1018 68.5864 16.3176 68.7624 15.5334C68.9232 15.1011 68.9081 14.6034 68.6216 14.1912C68.6015 14.1661 68.5814 14.1409 68.5613 14.1158C68.5362 14.0856 68.511 14.0504 68.4859 14.0203C63.6199 8.89777 56.8638 6.72108 49.8463 6.36416C48.846 6.31389 47.8356 6.29881 46.8252 6.31892C46.3778 6.32897 45.9254 6.34406 45.478 6.36919C44.6888 6.40941 43.8995 6.46973 43.1103 6.54514C43.0299 6.55519 42.9444 6.56022 42.864 6.57027C41.3007 6.73113 39.7474 6.9674 38.2292 7.25897C35.6957 7.74659 33.2476 8.40512 30.9755 9.16923C25.9788 10.8482 20.8464 13.4924 16.277 16.9209C15.8999 17.2024 15.528 17.4939 15.156 17.7855C13.8289 18.8412 12.547 19.9622 11.3506 21.1536C11.044 21.4552 10.7424 21.7669 10.4458 22.0786C5.98699 26.7637 2.68434 32.3638 1.57843 38.6073C1.55833 38.728 1.5533 38.8436 1.5533 38.9492C1.5533 38.9542 1.5533 38.9642 1.5533 38.9743C1.56335 39.2659 1.65886 39.5072 1.79961 39.7133C1.82978 39.7535 1.84988 39.7987 1.88507 39.8339C1.93534 39.8993 1.99064 39.9646 2.05598 40.03C2.10625 40.0752 2.15652 40.1255 2.21182 40.1657C4.75541 42.0659 7.29397 43.9912 9.7521 46.002C9.93307 46.1478 10.114 46.2936 10.295 46.4444C10.8681 46.9169 11.4663 46.9622 11.9488 46.7611C12.0092 46.736 12.0695 46.7058 12.1248 46.6757C12.5219 46.4494 12.8135 46.0523 12.914 45.6049C15.0303 42.0659 17.5035 38.8084 20.2683 35.9279C21.9271 34.2037 23.6916 32.6101 25.5415 31.1824V31.1975Z" fill="#70CDDD"/>
<path d="M72.3465 19.0975C72.3063 19.0573 72.2309 19.0623 72.2108 19.1277C71.2909 22.3198 71.2004 25.894 70.7027 29.1766C70.0643 33.3641 69.3555 37.5416 68.6417 41.719C67.5107 48.3194 66.1182 54.94 65.3541 61.6058C65.2436 62.5559 65.148 63.511 65.0676 64.4662C65.0676 64.4913 65.0726 64.5114 65.0877 64.5265C65.1179 64.5566 65.1682 64.5617 65.2084 64.5416C65.2285 64.5315 65.2436 64.5114 65.2486 64.4863C65.8719 61.6862 66.4198 58.8711 66.9276 56.0459C67.7771 51.3356 68.516 46.6052 69.2952 41.8949C69.8029 38.8285 70.2955 35.757 70.7681 32.6855C70.939 31.5695 71.12 30.4535 71.2858 29.3325C71.3914 28.6237 71.5171 27.8948 71.6478 27.1508C72.0348 24.9288 72.4521 22.6013 72.437 20.3945C72.437 19.9722 72.4169 19.56 72.3767 19.1478C72.3767 19.1277 72.3666 19.1076 72.3515 19.0925L72.3465 19.0975Z" fill="#70CDDD"/>
<path d="M72.7487 15.3122C72.7386 15.277 72.7336 15.2468 72.7235 15.2116C72.7185 15.1915 72.7034 15.1714 72.6833 15.1614C72.6682 15.1463 72.6431 15.1362 72.623 15.1312C72.5928 15.1262 72.5677 15.1312 72.5476 15.1513C72.5375 15.1614 72.5224 15.1664 72.5174 15.1815C72.1957 15.9054 72.0449 16.7348 72.1404 17.519C72.1605 17.6698 72.3968 17.7352 72.432 17.5592C72.5426 17.0163 72.7788 16.4382 72.809 15.8702C72.819 15.6792 72.804 15.4932 72.7487 15.3072V15.3122Z" fill="#70CDDD"/>
<path d="M9.32482 17.9413C10.29 16.951 11.3104 16.0009 12.3811 15.0759C18.2978 9.98857 25.7325 7.67616 33.0315 5.38384C33.0868 5.36374 33.1069 5.31849 33.0918 5.27325C33.0817 5.23303 33.0365 5.19785 32.9812 5.20287C28.5475 5.93179 24.2646 7.25389 20.2633 9.18425C19.9013 9.3602 19.5394 9.54117 19.1825 9.72717C18.4636 10.0992 17.7599 10.4913 17.0611 10.9035C16.3624 11.3157 15.6788 11.748 15.0052 12.2005C14.3265 12.6579 13.6529 13.1304 12.9994 13.6281C12.6074 13.9247 12.2253 14.2263 11.8433 14.538C11.6824 14.6687 11.5216 14.7994 11.3607 14.9402C11.0339 15.2116 10.7072 15.4982 10.3754 15.7948C10.2095 15.9405 10.0437 16.0913 9.87274 16.2472C7.19343 18.6953 4.37839 21.8221 2.44305 25.1902C1.71918 26.452 1.11596 27.754 0.693706 29.066C0.552954 29.5034 0.43231 29.9407 0.331773 30.3781C0.125671 31.2528 0.0100537 32.1325 0 33.0072C0 33.0223 0.0100537 33.0374 0.0150806 33.0474C0.0452417 33.0977 0.135725 33.0977 0.160859 33.0273C0.371987 32.3587 0.603223 31.7002 0.849539 31.0567C1.06067 30.4937 1.28688 29.9357 1.52816 29.3878C3.19708 25.5522 5.47425 22.1388 8.27923 19.0573C8.62106 18.6803 8.96791 18.3083 9.32984 17.9413H9.32482Z" fill="#70CDDD"/>
<path d="M34.3083 5.20796H34.3133C34.8713 5.24817 35.4343 5.18282 35.9621 5.0119C36.1934 4.9365 36.4246 4.84601 36.6357 4.73039C36.6458 4.72537 36.6508 4.71531 36.6609 4.70526C36.6659 4.70023 36.6759 4.6952 36.681 4.68515C36.696 4.64493 36.6709 4.59969 36.6307 4.57958C36.6206 4.57456 36.6056 4.5645 36.5905 4.5645C36.3944 4.54439 36.1883 4.53434 35.9822 4.53937H35.9621C35.8113 4.54439 35.6555 4.55947 35.5047 4.57958C35.0523 4.64996 34.6149 4.81082 34.258 5.09234C34.2429 5.10239 34.2379 5.11747 34.2379 5.12753C34.2329 5.16774 34.2681 5.20796 34.3133 5.21298L34.3083 5.20796Z" fill="#70CDDD"/>
<path d="M57.4218 59.9018C54.2046 58.7808 49.414 60.123 47.7099 63.285C44.5882 67.1407 46.6341 72.8162 50.4244 75.3397C55.3809 78.6374 60.654 74.1182 62.4235 69.5386C64.0472 65.346 61.393 61.2842 57.4218 59.9018Z" fill="white"/>
<path d="M27.1149 51.8183C34.1826 40.5729 48.7907 33.8267 61.6092 38.2504C62.4537 38.723 63.63 38.537 63.8461 37.3355C64.4292 34.073 65.0174 30.8155 65.6306 27.563C65.6457 27.4926 65.6507 27.4273 65.6558 27.3619C65.7965 26.7587 65.6055 26.1102 64.9017 25.7835C48.7304 18.1726 23.1135 27.6636 15.7743 44.3482C15.3269 44.9011 15.2515 45.6753 15.9804 46.2584C18.7703 48.4904 21.5451 50.7475 24.3099 53.0097C25.5012 53.9849 27.0847 52.9544 27.1149 51.8233V51.8183Z" fill="white"/>
<path d="M63.0619 42.7849C52.8272 36.5765 35.2634 45.1878 30.0857 54.8346C29.4071 55.3825 29.1407 56.3628 30.0003 57.0766C32.3679 59.0371 34.7305 61.0077 37.0881 62.9884C38.2292 63.9485 39.7473 63.0185 39.8831 61.9277C44.4927 55.5484 52.8021 52.4769 60.3424 54.7642C61.1919 55.4328 62.5944 55.3423 62.8106 54.0051C63.3183 50.9135 63.831 47.8219 64.3588 44.7303C64.5298 43.7149 63.836 42.991 63.0619 42.7849Z" fill="white"/>
<path d="M64.4895 22.3551C65.1028 22.6618 65.691 22.5864 66.1484 22.3048C66.3696 22.1993 66.5606 22.0334 66.6963 21.7971C66.9828 21.405 67.1186 20.9124 67.0231 20.4549C67.5911 17.298 68.2597 14.1511 68.9534 11.0192C69.1343 10.5266 69.0941 9.94849 68.6719 9.50612C59.3068 -0.351825 42.9444 0.703844 31.1615 4.66512C18.1771 9.02855 4.27786 19.8919 1.76443 34.0982C1.67395 34.6109 1.8147 35.0282 2.07107 35.3248C2.15652 35.4454 2.26712 35.556 2.39781 35.6566C5.1274 37.6975 7.85698 39.7586 10.481 41.9353C11.6271 42.8854 12.8738 42.1162 13.1 41.0958C23.9278 22.9734 44.1911 12.1956 64.4895 22.3551Z" fill="white"/>
<path d="M72.3968 14.6035C71.4769 17.7957 71.3864 21.3699 70.8887 24.6525C70.2503 28.84 69.5415 33.0174 68.8277 37.1949C67.5358 44.7354 65.9021 52.306 65.2486 59.942C65.2385 60.0476 65.4044 60.0677 65.4296 59.9672C67.0884 52.5071 68.2245 44.9113 69.4762 37.3758C70.1699 33.1934 70.8435 29.0059 71.4618 24.8134C71.9444 21.571 72.8542 17.9113 72.5526 14.6287C72.5426 14.5382 72.4169 14.5131 72.3918 14.6086L72.3968 14.6035Z" fill="white"/>
<path d="M72.9095 10.6874C72.8794 10.607 72.7487 10.5617 72.7034 10.6623C72.3817 11.3861 72.2309 12.2156 72.3264 12.9998C72.3465 13.1506 72.5828 13.216 72.618 13.04C72.7688 12.286 73.181 11.4616 72.9095 10.6874Z" fill="white"/>
<path d="M16.3021 50.5917C16.2217 50.5264 16.106 50.632 16.1865 50.7074C23.7921 57.7452 32.4785 64.3607 41.3057 69.7848C41.3911 69.8351 41.4615 69.7094 41.3811 69.6541C32.936 63.4508 24.4305 57.1972 16.2971 50.5917H16.3021Z" fill="white"/>
<path d="M12.5671 10.5517C18.4838 5.46944 25.9185 3.15702 33.2175 0.859684C33.3331 0.824495 33.2828 0.663631 33.1672 0.683739C25.4208 1.95557 18.1218 5.03209 12.0242 10.0138C6.92701 14.1812 0.27648 21.4804 0.185997 28.483C0.185997 28.5785 0.316695 28.5936 0.346856 28.5031C2.60391 21.2944 6.85161 15.4681 12.5671 10.5517Z" fill="white"/>
<path d="M34.4993 0.6787C35.3036 0.739024 36.123 0.588214 36.8267 0.196109C36.9122 0.145839 36.867 0.0352448 36.7815 0.0251908C35.9923 -0.0652951 35.0875 0.0452988 34.449 0.553025C34.3937 0.593241 34.449 0.668646 34.4993 0.673673V0.6787Z" fill="white"/>
<path d="M57.4218 59.9017C54.2046 58.7807 49.414 60.1229 47.7099 63.2849C44.5882 67.1406 46.6341 72.816 50.4244 75.3396C55.3809 78.6373 60.654 74.118 62.4235 69.5384C64.0472 65.3459 61.393 61.2841 57.4218 59.9017ZM52.5457 72.5697C49.796 71.3079 49.414 68.6235 49.8212 66.0748C51.5554 64.3405 52.6814 62.8073 55.4965 63.0134C57.8139 63.1793 59.4778 65.1046 59.3772 67.3617C59.2365 70.4332 55.6573 74.0024 52.5457 72.5697Z" fill="#2D2E2D"/>
<path d="M27.1149 51.8183C34.1826 40.5729 48.7907 33.8267 61.6092 38.2504C62.4537 38.723 63.63 38.537 63.8461 37.3355C64.4292 34.073 65.0174 30.8155 65.6306 27.563C65.6457 27.4926 65.6507 27.4273 65.6558 27.3619C65.7965 26.7587 65.6055 26.1102 64.9017 25.7835C48.7304 18.1726 23.1135 27.6636 15.7743 44.3482C15.3269 44.9011 15.2515 45.6753 15.9804 46.2584C18.7703 48.4904 21.5451 50.7475 24.3099 53.0097C25.5012 53.9849 27.0847 52.9544 27.1149 51.8233V51.8183ZM33.1873 32.0119C42.5121 26.3716 52.0732 25.8136 62.2777 28.302C61.8856 30.348 61.5036 32.394 61.1316 34.445C49.9016 28.86 29.9902 38.3409 24.8829 49.3701C22.9778 47.8218 21.0676 46.2836 19.1423 44.7604C22.641 39.4016 27.7382 35.3046 33.1873 32.0119Z" fill="#2D2E2D"/>
<path d="M63.0619 42.7847C52.8272 36.5764 35.2584 45.1876 30.0857 54.8344C29.4071 55.3824 29.1407 56.3627 30.0003 57.0765C32.3679 59.037 34.7305 61.0076 37.0881 62.9882C38.2292 63.9484 39.7473 63.0184 39.8831 61.9275C44.4927 55.5483 52.8021 52.4768 60.3424 54.7641C61.1919 55.4327 62.5944 55.3422 62.8106 54.005C63.3183 50.9134 63.831 47.8218 64.3588 44.7302C64.5298 43.7147 63.836 42.9908 63.0619 42.7847ZM37.9678 59.5649C36.3542 58.2176 34.7406 56.8704 33.122 55.5282C38.6917 47.676 51.7213 41.7039 61.0662 45.1072C60.7093 47.2035 60.3575 49.2947 60.0106 51.391C52.4251 48.4301 42.482 53.0851 37.9729 59.5649H37.9678Z" fill="#2D2E2D"/>
<path d="M64.4895 22.3551C65.1028 22.6618 65.691 22.5864 66.1534 22.3048C66.3746 22.1993 66.5656 22.0334 66.7014 21.7971C66.9879 21.405 67.1236 20.9124 67.0281 20.4549C67.5961 17.298 68.2647 14.1511 68.9584 11.0192C69.1394 10.5266 69.0992 9.94849 68.6769 9.50612C59.3069 -0.351825 42.9444 0.703844 31.1615 4.66512C18.1771 9.02855 4.27786 19.8919 1.76443 34.0982C1.67395 34.6109 1.8147 35.0282 2.07107 35.3248C2.15652 35.4454 2.26712 35.556 2.39781 35.6566C5.1274 37.6975 7.85698 39.7586 10.481 41.9353C11.6271 42.8854 12.8738 42.1162 13.1 41.0958C23.9278 22.9734 44.1911 12.1956 64.4895 22.3551ZM66.0579 11.2002C65.4346 13.6182 64.8666 16.0513 64.2935 18.4793C44.9049 9.55136 20.1275 18.9468 11.0541 38.4868C8.96289 36.9686 6.87674 35.4354 4.75541 33.9524C13.8389 10.5467 44.0403 -3.26246 66.0579 11.2002Z" fill="#2D2E2D"/>
<path d="M72.3968 14.6034C71.4769 17.7956 71.3864 21.3698 70.8887 24.6524C70.2503 28.8399 69.5415 33.0173 68.8277 37.1947C67.5358 44.7352 65.9021 52.3059 65.2486 59.9419C65.2385 60.0424 65.4044 60.0676 65.4296 59.967C67.0884 52.507 68.2245 44.9112 69.4762 37.3757C70.1699 33.1933 70.8435 29.0058 71.4618 24.8132C71.9393 21.5708 72.8542 17.9112 72.5526 14.6286C72.5426 14.5381 72.4169 14.5129 72.3918 14.6084L72.3968 14.6034Z" fill="#2D2E2D"/>
<path d="M72.9095 10.6874C72.8794 10.607 72.7487 10.5617 72.7034 10.6623C72.3817 11.3861 72.2309 12.2156 72.3264 12.9998C72.3465 13.1506 72.5828 13.216 72.618 13.04C72.7688 12.286 73.181 11.4616 72.9095 10.6874Z" fill="#2D2E2D"/>
<path d="M16.3021 50.5917C16.2217 50.5264 16.106 50.632 16.1865 50.7074C23.7921 57.7452 32.4785 64.3607 41.3057 69.7848C41.3911 69.8351 41.4615 69.7094 41.3811 69.6541C32.936 63.4508 24.4305 57.1972 16.2971 50.5917H16.3021Z" fill="#2D2E2D"/>
<path d="M12.5671 10.5517C18.4838 5.46441 25.9185 3.15702 33.2175 0.859684C33.3331 0.824495 33.2828 0.663631 33.1672 0.683739C25.4208 1.95557 18.1218 5.03209 12.0242 10.0138C6.92701 14.1812 0.27648 21.4804 0.185997 28.483C0.185997 28.5785 0.316695 28.5936 0.346856 28.5031C2.60391 21.2944 6.85161 15.4681 12.5671 10.5517Z" fill="#2D2E2D"/>
<path d="M34.4993 0.678658C35.3036 0.738981 36.123 0.588172 36.8267 0.196066C36.9122 0.145796 36.867 0.0352019 36.7815 0.0251479C35.9923 -0.065338 35.0875 0.0452559 34.449 0.55801C34.3937 0.603253 34.449 0.673631 34.4993 0.678658Z" fill="#2D2E2D"/>
</g>
<defs>
<clipPath id="clip0_453_1117">
<rect width="73" height="81" fill="white"/>
</clipPath>
</defs>
</svg>
