<svg width="116" height="97" viewBox="0 0 116 97" fill="none" xmlns="http://www.w3.org/2000/svg">
<path d="M89.815 96.625H98.53C102.94 96.625 106.562 93.7812 107.088 90.1938L115.75 18.0938H89.5V0.375H79.1575V18.0938H53.065L54.64 28.3312C63.6175 30.3875 72.0175 34.1062 77.0575 38.2188C84.6175 44.4312 89.815 50.8625 89.815 61.3625V96.625ZM0.25 92.25V87.875H79.1575V92.25C79.1575 94.6125 76.795 96.625 73.75 96.625H5.5C2.6125 96.625 0.25 94.6125 0.25 92.25ZM79.1575 61.625C79.1575 26.625 0.25 26.625 0.25 61.625H79.1575ZM0.25 70.375H79V79.125H0.25V70.375Z" fill="white"/>
</svg>
