<svg width="100" height="99" viewBox="0 0 100 99" fill="none" xmlns="http://www.w3.org/2000/svg">
<path d="M45.4999 75.4583C45.4999 78.8013 46.0449 82.05 46.9532 85.1575L45.4999 86.5229L38.9145 80.3079C15.5249 58.32 0.083252 43.7713 0.083252 26.0208C0.083252 11.4721 11.0741 0.125 25.0624 0.125C32.9649 0.125 40.5495 3.93875 45.4999 9.91833C50.4503 3.93875 58.0349 0.125 65.9374 0.125C79.9258 0.125 90.9166 11.4721 90.9166 26.0208C90.9166 32.1417 89.0545 37.7917 85.6482 43.6771C82.9687 42.9238 80.1528 42.5 77.2916 42.5C59.7607 42.5 45.4999 57.2842 45.4999 75.4583ZM99.2278 83.18L94.6862 91.3254C94.3682 91.9375 93.7778 91.9375 93.1874 91.9375L87.6012 89.5833C86.3749 90.4308 85.1487 91.1842 83.7862 91.7962L82.9232 98.0113C82.8324 98.5763 82.3328 99 81.8333 99H72.7499C72.1141 99 71.6599 98.5763 71.5691 98.0113L70.7062 91.7962C69.2982 91.2312 68.0266 90.4308 66.8458 89.5833L61.2141 91.9375C60.6691 91.9375 60.0787 91.9375 59.8062 91.3254L55.2645 83.18C54.992 82.6621 55.1283 82.05 55.537 81.6733L60.3512 77.8125C60.2603 77.0121 60.2149 76.2588 60.2149 75.4583C60.2149 74.6579 60.2603 73.9046 60.3512 73.1042L55.537 69.2433C55.0828 68.8667 54.992 68.2546 55.2645 67.7367L59.8062 59.5913C60.1241 58.9792 60.7145 58.9792 61.2141 58.9792L66.8458 61.3333C68.0266 60.4858 69.3437 59.7325 70.7062 59.1204L71.5691 52.9054C71.6599 52.3404 72.1595 51.9167 72.7499 51.9167H81.8333C82.3328 51.9167 82.8324 52.3404 82.8778 52.9054L83.7408 59.1204C85.1487 59.6854 86.3749 60.4858 87.6012 61.3333L93.1874 58.9792C93.7778 58.9792 94.3682 58.9792 94.6407 59.5913L99.1824 67.7367C99.4549 68.2546 99.3187 68.8667 98.9099 69.2433L94.0957 73.1042C94.232 73.9046 94.2774 74.6579 94.2774 75.4583C94.2774 76.2588 94.1866 77.0121 94.0957 77.8125L98.9553 81.6733C99.3641 82.05 99.5003 82.6621 99.2278 83.18ZM84.1041 75.4583C84.1041 71.5504 81.0612 68.3958 77.2916 68.3958C73.522 68.3958 70.4791 71.5504 70.4791 75.4583C70.4791 79.3662 73.4766 82.5208 77.2916 82.5208C81.0612 82.5208 84.1041 79.3662 84.1041 75.4583Z" fill="white"/>
</svg>
