<svg width="98" height="91" viewBox="0 0 98 91" fill="none" xmlns="http://www.w3.org/2000/svg">
<path d="M97.7291 68.2084L75.0208 90.9167L59.1249 75.0209L65.9374 68.2084L75.0208 77.2917L90.9166 61.3959L97.7291 68.2084ZM50.0416 77.2917C50.0416 70.4792 52.3124 64.5751 56.3999 59.5792L40.9583 50.0417V22.7917H47.7708V46.4084L61.8499 55.0375C66.3916 51.8584 71.3874 50.0417 77.2916 50.0417C81.8333 50.0417 86.3749 51.4042 90.0083 53.2209C90.4624 50.4959 90.9166 48.225 90.9166 45.5C90.9166 20.5209 70.4791 0.083374 45.4999 0.083374C20.5208 0.083374 0.083252 20.5209 0.083252 45.5C0.083252 70.4792 20.5208 90.9167 45.4999 90.9167C48.2249 90.9167 50.9499 90.4625 53.2208 90.0084C51.4041 86.375 50.0416 81.8334 50.0416 77.2917Z" fill="white"/>
</svg>
