<svg width="62" height="48" viewBox="0 0 62 48" fill="none" xmlns="http://www.w3.org/2000/svg">
<path d="M28.7999 35.46C28.8728 37.1634 28.5694 38.862 27.9112 40.4349C27.253 42.0077 26.2563 43.4162 24.9919 44.56L24.9819 44.568C22.364 46.8892 18.9546 48.1163 15.4579 47.996H15.4799C13.3663 48.1103 11.2535 47.7577 9.29157 46.9634C7.32962 46.1691 5.56665 44.9525 4.1279 43.4L4.1199 43.392C1.23548 39.9692 -0.235734 35.5756 0.00589569 31.106L0.00389569 31.148C-0.13015 26.5064 0.732573 21.8899 2.5339 17.61L2.4539 17.824C3.89212 14.4683 5.8876 11.3801 8.3559 8.68999L8.3339 8.71399C10.3731 6.5018 12.7359 4.61164 15.3419 3.10799L15.4859 3.03199C17.4569 1.89496 19.5138 0.91396 21.6379 0.0979902L21.9499 -0.00800977L28.2179 10.572C25.6132 11.6229 23.327 13.3336 21.5839 15.536L21.5579 15.57C19.8223 17.6374 18.7337 20.17 18.4279 22.852L18.4219 22.916C19.7858 22.9501 21.1271 23.2721 22.3579 23.8608C23.5887 24.4495 24.6812 25.2916 25.5639 26.332L25.5759 26.346C27.8201 28.8448 28.9811 32.132 28.8039 35.486L28.8059 35.456L28.7999 35.46ZM62.6959 35.46C62.768 37.1638 62.4641 38.8626 61.8056 40.4357C61.1471 42.0088 60.1503 43.4176 58.8859 44.562L58.8759 44.57C56.2585 46.8921 52.8488 48.1194 49.3519 47.998H49.3739C47.2603 48.1128 45.1473 47.7605 43.1853 46.9662C41.2232 46.1718 39.4603 44.9549 38.0219 43.402L38.0139 43.392C35.1283 39.9691 33.6569 35.5744 33.8999 31.104L33.8979 31.146C33.7639 26.5044 34.6266 21.8879 36.4279 17.608L36.3479 17.822C37.7855 14.4669 39.7795 11.3788 42.2459 8.68799L42.2239 8.71199C44.2638 6.49975 46.6273 4.6096 49.2339 3.10599L49.3779 3.02999C51.3484 1.89216 53.4055 0.911128 55.5299 0.0959902L55.8419 -0.0100098L62.1079 10.57C59.5029 11.6222 57.2166 13.3343 55.4739 15.538L55.4479 15.572C53.7123 17.6394 52.6237 20.172 52.3179 22.854L52.3119 22.918C53.6753 22.952 55.0161 23.2739 56.2462 23.8626C57.4764 24.4513 58.5682 25.2935 59.4499 26.334L59.4619 26.348C61.7085 28.8449 62.8718 32.1317 62.6959 35.486L62.6979 35.456L62.6959 35.46Z" fill="#F3F5F6"/>
</svg>
